<svg width="30" height="30" viewBox="0 0 30 30" fill="none" xmlns="http://www.w3.org/2000/svg">
<path d="M15 29.25C22.8701 29.25 29.25 22.8701 29.25 15C29.25 7.12994 22.8701 0.75 15 0.75C7.12994 0.75 0.75 7.12994 0.75 15C0.75 22.8701 7.12994 29.25 15 29.25Z" stroke="#022D41" stroke-width="1.5"/>
<mask id="mask0_316_56" style="mask-type:luminance" maskUnits="userSpaceOnUse" x="6" y="6" width="18" height="18">
<path d="M23.0702 6.93091H6.93115V23.0699H23.0702V6.93091Z" fill="white"/>
</mask>
<g mask="url(#mask0_316_56)">
<path fill-rule="evenodd" clip-rule="evenodd" d="M15.0001 10.0999C14.031 10.0999 13.0836 10.3872 12.2778 10.9257C11.472 11.4641 10.844 12.2294 10.4731 13.1247C10.1022 14.0201 10.0052 15.0053 10.1943 15.9558C10.3833 16.9063 10.85 17.7794 11.5353 18.4647C12.2205 19.15 13.0936 19.6166 14.0442 19.8057C14.9947 19.9948 15.9799 19.8977 16.8753 19.5269C17.7706 19.156 18.5359 18.528 19.0743 17.7222C19.6127 16.9164 19.9001 15.969 19.9001 14.9998C19.8975 13.7011 19.3804 12.4563 18.462 11.5379C17.5436 10.6196 16.2988 10.1025 15.0001 10.0999ZM16.9811 17.7259L15.0001 16.2809L13.0191 17.7259L13.7811 15.3959L11.7951 13.9588H14.2471L15.0001 11.6259L15.7531 13.9588H18.2051L16.2191 15.3959L16.9811 17.7259Z" fill="#00D045"/>
<path fill-rule="evenodd" clip-rule="evenodd" d="M22.8602 14.4909L22.2312 13.8619C21.6022 13.2329 21.6022 13.2269 21.8312 12.3619L22.0592 11.5119C22.1081 11.3272 22.0819 11.1307 21.9864 10.9652C21.8908 10.7998 21.7336 10.6789 21.5492 10.6289L20.6942 10.3999C19.8292 10.1679 19.8282 10.1649 19.5942 9.29294L19.3682 8.44794C19.3183 8.2635 19.1974 8.10633 19.0319 8.01076C18.8664 7.9152 18.6699 7.88902 18.4852 7.93794L17.6252 8.16894C16.7662 8.39894 16.7622 8.39594 16.1252 7.75894L15.5102 7.14094C15.3747 7.00641 15.1916 6.93091 15.0007 6.93091C14.8098 6.93091 14.6266 7.00641 14.4912 7.14094L13.8632 7.76994C13.2342 8.39894 13.2282 8.39894 12.3632 8.16994L11.5132 7.94194C11.3285 7.89302 11.1319 7.9192 10.9665 8.01476C10.801 8.11033 10.6801 8.2675 10.6302 8.45194L10.4012 9.30694C10.1692 10.1709 10.1662 10.1729 9.29418 10.4069L8.44918 10.6329C8.26475 10.6829 8.10757 10.8038 8.01201 10.9692C7.91644 11.1347 7.89026 11.3312 7.93918 11.5159L8.17018 12.3759C8.40018 13.2349 8.39718 13.2389 7.76018 13.8759L7.14118 14.4909C7.00665 14.6264 6.93115 14.8095 6.93115 15.0004C6.93115 15.1913 7.00665 15.3745 7.14118 15.5099L7.76918 16.1379C8.39818 16.7669 8.39818 16.7729 8.16918 17.6379L7.94118 18.4879C7.89226 18.6726 7.91844 18.8692 8.01401 19.0347C8.10957 19.2001 8.26675 19.321 8.45118 19.3709L9.30618 19.5999C10.1712 19.8319 10.1722 19.8349 10.4062 20.7069L10.6322 21.5519C10.6821 21.7364 10.803 21.8935 10.9685 21.9891C11.1339 22.0847 11.3305 22.1109 11.5152 22.0619L12.3752 21.8309C13.2342 21.6009 13.2382 21.6039 13.8752 22.2409L14.4942 22.8599C14.6296 22.9945 14.8128 23.07 15.0037 23.07C15.1946 23.07 15.3777 22.9945 15.5132 22.8599L16.1412 22.2319C16.7702 21.6029 16.7762 21.6029 17.6412 21.8319L18.4912 22.0599C18.6759 22.1089 18.8724 22.0827 19.0379 21.9871C19.2034 21.8915 19.3243 21.7344 19.3742 21.5499L19.6032 20.6949C19.8352 19.8309 19.8382 19.8289 20.7102 19.5949L21.5552 19.3689C21.7396 19.319 21.8968 19.1981 21.9924 19.0327C22.0879 18.8672 22.1141 18.6706 22.0652 18.4859L21.8312 17.6329C21.6012 16.7739 21.6042 16.7699 22.2412 16.1329L22.8602 15.5139C22.9947 15.3785 23.0702 15.1953 23.0702 15.0044C23.0702 14.8135 22.9947 14.6304 22.8602 14.4949M15.0012 20.7329C13.8675 20.7333 12.7591 20.3975 11.8162 19.768C10.8733 19.1384 10.1384 18.2434 9.70417 17.1961C9.27 16.1488 9.15614 14.9963 9.377 13.8843C9.59787 12.7723 10.1435 11.7507 10.945 10.9489C11.7464 10.147 12.7677 9.60079 13.8796 9.37935C14.9915 9.1579 16.144 9.27115 17.1916 9.70478C18.2391 10.1384 19.1345 10.8729 19.7645 11.8155C20.3946 12.758 20.731 13.8662 20.7312 14.9999C20.7285 16.5191 20.1241 17.9753 19.0502 19.0498C17.9762 20.1243 16.5203 20.7295 15.0012 20.7329Z" fill="#00D045"/>
</g>
</svg>
