<svg width="30" height="30" viewBox="0 0 30 30" fill="none" xmlns="http://www.w3.org/2000/svg">
    <path d="M15 29.25C22.8701 29.25 29.25 22.8701 29.25 15C29.25 7.12994 22.8701 0.75 15 0.75C7.12994 0.75 0.75 7.12994 0.75 15C0.75 22.8701 7.12994 29.25 15 29.25Z" stroke="#022D41" stroke-width="1.5"/>
    <mask id="mask0_30_633" style="mask-type:luminance" maskUnits="userSpaceOnUse" x="6" y="6" width="18" height="18">
        <path d="M23.0702 6.93097H6.93115V23.07H23.0702V6.93097Z" fill="white"/>
    </mask>
    <g mask="url(#mask0_30_633)">
        <path fill-rule="evenodd" clip-rule="evenodd" d="M15.0001 10.1C14.031 10.1 13.0836 10.3874 12.2778 10.9258C11.472 11.4642 10.844 12.2295 10.4731 13.1248C10.1022 14.0202 10.0052 15.0054 10.1943 15.9559C10.3833 16.9064 10.85 17.7795 11.5353 18.4648C12.2205 19.1501 13.0936 19.6167 14.0442 19.8058C14.9947 19.9949 15.9799 19.8979 16.8753 19.527C17.7706 19.1561 18.5359 18.5281 19.0743 17.7223C19.6127 16.9165 19.9001 15.9691 19.9001 15C19.8975 13.7012 19.3804 12.4564 18.462 11.5381C17.5436 10.6197 16.2988 10.1026 15.0001 10.1ZM16.9811 17.726L15.0001 16.281L13.0191 17.726L13.7811 15.396L11.7951 13.959H14.2471L15.0001 11.626L15.7531 13.959H18.2051L16.2191 15.396L16.9811 17.726Z" fill="#00D045"/>
        <path fill-rule="evenodd" clip-rule="evenodd" d="M22.8602 14.491L22.2312 13.862C21.6022 13.233 21.6022 13.227 21.8312 12.362L22.0592 11.512C22.1081 11.3273 22.0819 11.1307 21.9864 10.9653C21.8908 10.7998 21.7336 10.6789 21.5492 10.629L20.6942 10.4C19.8292 10.168 19.8282 10.165 19.5942 9.293L19.3682 8.448C19.3183 8.26356 19.1974 8.10639 19.0319 8.01082C18.8664 7.91526 18.6699 7.88908 18.4852 7.938L17.6252 8.169C16.7662 8.399 16.7622 8.396 16.1252 7.759L15.5102 7.141C15.3747 7.00647 15.1916 6.93097 15.0007 6.93097C14.8098 6.93097 14.6266 7.00647 14.4912 7.141L13.8632 7.77C13.2342 8.399 13.2282 8.399 12.3632 8.17L11.5132 7.942C11.3285 7.89308 11.1319 7.91926 10.9665 8.01482C10.801 8.11039 10.6801 8.26756 10.6302 8.452L10.4012 9.307C10.1692 10.171 10.1662 10.173 9.29418 10.407L8.44918 10.633C8.26475 10.6829 8.10757 10.8038 8.01201 10.9693C7.91644 11.1347 7.89026 11.3313 7.93918 11.516L8.17018 12.376C8.40018 13.235 8.39718 13.239 7.76018 13.876L7.14118 14.491C7.00665 14.6264 6.93115 14.8096 6.93115 15.0005C6.93115 15.1914 7.00665 15.3746 7.14118 15.51L7.76918 16.138C8.39818 16.767 8.39818 16.773 8.16918 17.638L7.94118 18.488C7.89226 18.6727 7.91844 18.8693 8.01401 19.0347C8.10957 19.2002 8.26675 19.3211 8.45118 19.371L9.30618 19.6C10.1712 19.832 10.1722 19.835 10.4062 20.707L10.6322 21.552C10.6821 21.7364 10.803 21.8936 10.9685 21.9892C11.1339 22.0847 11.3305 22.1109 11.5152 22.062L12.3752 21.831C13.2342 21.601 13.2382 21.604 13.8752 22.241L14.4942 22.86C14.6296 22.9945 14.8128 23.07 15.0037 23.07C15.1946 23.07 15.3777 22.9945 15.5132 22.86L16.1412 22.232C16.7702 21.603 16.7762 21.603 17.6412 21.832L18.4912 22.06C18.6759 22.1089 18.8724 22.0827 19.0379 21.9872C19.2034 21.8916 19.3243 21.7344 19.3742 21.55L19.6032 20.695C19.8352 19.831 19.8382 19.829 20.7102 19.595L21.5552 19.369C21.7396 19.3191 21.8968 19.1982 21.9924 19.0327C22.0879 18.8673 22.1141 18.6707 22.0652 18.486L21.8312 17.633C21.6012 16.774 21.6042 16.77 22.2412 16.133L22.8602 15.514C22.9947 15.3786 23.0702 15.1954 23.0702 15.0045C23.0702 14.8136 22.9947 14.6304 22.8602 14.495M15.0012 20.733C13.8675 20.7334 12.7591 20.3976 11.8162 19.768C10.8733 19.1385 10.1384 18.2435 9.70417 17.1962C9.27 16.1489 9.15614 14.9963 9.377 13.8843C9.59787 12.7723 10.1435 11.7508 10.945 10.9489C11.7464 10.147 12.7677 9.60085 13.8796 9.37941C14.9915 9.15796 16.144 9.27121 17.1916 9.70484C18.2391 10.1385 19.1345 10.873 19.7645 11.8155C20.3946 12.7581 20.731 13.8663 20.7312 15C20.7285 16.5192 20.1241 17.9754 19.0502 19.0499C17.9762 20.1244 16.5203 20.7296 15.0012 20.733Z" fill="#00D045"/>
    </g>
</svg>
