<svg width="24" height="24" viewBox="0 0 24 24" fill="none" xmlns="http://www.w3.org/2000/svg">
<path d="M11.9991 23.9992H3.99741C2.37868 23.9992 1.40336 23.9992 0.698684 23.2946C-0.0059967 22.5899 -0.0059967 21.6146 -0.0059967 19.9958V11.9941C-0.0059967 10.3754 -0.0059967 9.4001 0.698684 8.69542C1.40336 7.99074 2.37868 7.99073 3.99741 7.99073H11.9991C13.6178 7.99073 14.5931 7.99074 15.2978 8.69542C16.0025 9.4001 16.0025 10.3754 16.0025 11.9941V19.9958C16.0025 21.6146 16.0025 22.5899 15.2978 23.2946C14.5931 23.9992 13.6178 23.9992 11.9991 23.9992ZM3.99741 9.59924C2.83315 9.59924 2.06719 9.59925 1.8323 9.83414C1.59741 10.069 1.59741 10.835 1.59741 11.9992V20.0009C1.59741 21.1652 1.59741 21.9312 1.8323 22.166C2.06719 22.4009 2.83315 22.4009 3.99741 22.4009H11.9991C13.1634 22.4009 13.9293 22.4009 14.1642 22.166C14.3991 21.9312 14.3991 21.1652 14.3991 20.0009V11.9992C14.3991 10.835 14.3991 10.069 14.1642 9.83414C13.9293 9.59925 13.1634 9.59924 11.9991 9.59924H3.99741ZM19.9957 15.9975H18.3974C17.9531 15.9975 17.5957 15.6401 17.5957 15.1958C17.5957 14.7516 17.9531 14.3941 18.3974 14.3941H19.9957C21.16 14.3941 21.9259 14.3941 22.1608 14.1592C22.3957 13.9243 22.3957 13.1584 22.3957 11.9941V3.99754C22.3957 2.83329 22.3957 2.06733 22.1608 1.83244C21.9259 1.59754 21.16 1.59754 19.9957 1.59754H11.994C10.8297 1.59754 10.0638 1.59754 9.82889 1.83244C9.594 2.06733 9.594 2.83329 9.594 3.99754V5.59584C9.594 6.0401 9.23655 6.39754 8.7923 6.39754C8.34804 6.39754 7.9906 6.0401 7.9906 5.59584V3.99754C7.9906 2.37882 7.9906 1.4035 8.69528 0.698821C9.39996 -0.00585938 10.3753 -0.00585938 11.994 -0.00585938H19.9957C21.6144 -0.00585938 22.5897 -0.00585938 23.2944 0.698821C23.9991 1.4035 23.9991 2.37882 23.9991 3.99754V11.9992C23.9991 13.618 23.9991 14.5933 23.2944 15.298C22.5897 16.0026 21.6144 16.0026 19.9957 16.0026V15.9975Z" fill="white"/>
</svg>
