<?xml version="1.0" encoding="UTF-8"?>
<svg id="Layer_2" data-name="Layer 2" xmlns="http://www.w3.org/2000/svg" viewBox="0 0 180.15 28.97">
  <defs>
    <style>
      .cls-1 {
        fill: #fff;
      }
    </style>
  </defs>
  <g id="Layer_1-2" data-name="Layer 1">
    <g>
      <rect class="cls-1" x="27.33" y="14.43" width="7.65" height="14.43"/>
      <rect class="cls-1" x="13.12" y="14.43" width="7.65" height="14.43"/>
      <polygon class="cls-1" points="0 28.97 0 0 34.98 0 34.98 8.09 7.65 8.09 7.65 28.97 0 28.97"/>
      <rect id="Rectangle_257" data-name="Rectangle 257" class="cls-1" x="44.6" width=".55" height="28.97"/>
      <g>
        <path class="cls-1" d="m62.86,22.41h-7.65v-13.23h7.65v2.3h-4.81v2.95h4.48v2.3h-4.48v3.39h4.81v2.3Z"/>
        <path class="cls-1" d="m73.9,22.41h-2.73v-5.9c0-.77-.11-1.31-.33-1.64-.22-.33-.66-.55-1.2-.55-.66,0-1.2.22-1.53.77-.33.55-.44,1.42-.44,2.51v4.81h-2.73v-10.17h2.08l.33,1.31h.11c.22-.44.66-.87,1.2-1.09s1.09-.44,1.75-.44c1.53,0,2.51.55,3.06,1.53h.22c.22-.44.66-.87,1.2-1.09s1.09-.44,1.75-.44c1.2,0,1.97.33,2.62.87.55.55.87,1.53.87,2.84v6.67h-2.73v-5.9c0-.77-.11-1.31-.33-1.64-.22-.33-.66-.55-1.2-.55-.66,0-1.2.22-1.53.77-.33.44-.55,1.2-.55,2.3v5.03h.11Z"/>
        <path class="cls-1" d="m88.11,22.63c-1.2,0-2.08-.44-2.84-1.31h-.11c.11.87.11,1.31.11,1.42v4.15h-2.73v-14.65h2.3l.44,1.31h0c.66-.98,1.64-1.53,2.84-1.53s2.19.44,2.84,1.42c.66.87.98,2.19.98,3.83,0,1.09-.11,2.08-.44,2.84-.33.77-.77,1.42-1.31,1.86-.66.44-1.31.66-2.08.66Zm-.87-8.31c-.66,0-1.2.22-1.53.66-.33.44-.44,1.09-.44,2.08v.33c0,1.09.11,1.86.44,2.3s.87.66,1.53.66c1.2,0,1.86-.98,1.86-3.06,0-.98-.11-1.75-.44-2.3-.33-.44-.77-.66-1.42-.66Z"/>
        <path class="cls-1" d="m102.86,17.27c0,1.64-.44,2.95-1.31,3.83s-2.08,1.42-3.61,1.42c-.98,0-1.86-.22-2.62-.66-.77-.44-1.31-1.09-1.75-1.86s-.55-1.75-.55-2.84c0-1.64.44-2.95,1.31-3.83.87-.87,2.08-1.42,3.61-1.42.98,0,1.86.22,2.62.66.77.44,1.31.98,1.75,1.86.33.87.55,1.86.55,2.84Zm-7,0c0,.98.22,1.75.55,2.3s.87.77,1.64.77,1.31-.22,1.64-.77.44-1.31.44-2.3-.11-1.75-.44-2.3-.87-.77-1.64-.77-1.31.22-1.64.77c-.44.55-.55,1.31-.55,2.3Z"/>
        <path class="cls-1" d="m112.92,22.41l-.77-3.5-1.09-4.48h-.11l-1.86,7.98h-2.95l-2.84-10.17h2.73l1.2,4.48c.22.77.33,1.97.55,3.28h0c0-.44.11-1.2.33-2.19l.11-.77,1.2-4.81h3.06l1.2,4.81c0,.11.11.33.11.55s.11.55.11.87.11.55.11.87.11.55.11.66h0c0-.44.11-.98.33-1.75.11-.77.22-1.31.33-1.53l1.2-4.48h2.73l-2.95,10.17s-2.84,0-2.84,0Z"/>
        <path class="cls-1" d="m124.51,22.63c-1.64,0-2.95-.44-3.83-1.31-.87-.87-1.42-2.19-1.42-3.83,0-1.75.44-3.06,1.31-3.94s2.08-1.42,3.5-1.42,2.51.44,3.39,1.2,1.2,1.97,1.2,3.39v1.31h-6.56c0,.77.22,1.42.66,1.86s1.09.66,1.86.66c.66,0,1.2-.11,1.75-.22s1.09-.33,1.75-.66v2.19c-.44.22-.98.44-1.53.55-.66.11-1.31.22-2.08.22Zm-.44-8.64c-.55,0-1.09.22-1.42.55s-.55.87-.55,1.53h3.94c0-.66-.22-1.2-.55-1.53-.33-.33-.87-.55-1.42-.55Z"/>
        <path class="cls-1" d="m135.88,12.02c.33,0,.66,0,.98.11l-.22,2.62c-.22-.11-.55-.11-.77-.11-.87,0-1.53.22-2.08.66-.55.44-.77,1.09-.77,1.86v5.14h-2.73v-10.17h2.08l.44,1.75h.11c.33-.55.77-.98,1.31-1.42.44-.22,1.09-.44,1.64-.44Z"/>
      </g>
      <g>
        <path class="cls-1" d="m144.18,9.84c-1.64,0-2.95.55-3.94,1.64-.98,1.09-1.42,2.51-1.42,4.37s.44,3.39,1.31,4.37c.87,1.09,2.19,1.53,3.83,1.53,1.09,0,2.19-.11,3.06-.44v.77c-.87.33-1.97.44-3.28.44-1.86,0-3.28-.66-4.37-1.86s-1.64-2.84-1.64-5.03c0-1.31.22-2.51.77-3.61.55-.98,1.2-1.86,2.19-2.4.98-.55,2.08-.87,3.39-.87s2.4.22,3.5.77l-.33.87c-.98-.33-1.97-.55-3.06-.55Z"/>
        <path class="cls-1" d="m156.1,22.41v-6.45c0-.98-.22-1.75-.66-2.19s-1.09-.66-1.97-.66c-1.2,0-2.08.33-2.62.87s-.87,1.53-.87,2.95v5.47h-.87v-14.1h.87v5.79h.11c.33-.55.87-.98,1.42-1.31s1.31-.44,2.08-.44c2.19,0,3.39,1.2,3.39,3.61v6.45h-.87Z"/>
        <path class="cls-1" d="m165.61,22.41l-.22-1.53h-.11c-.55.66-.98,1.09-1.53,1.31s-1.09.44-1.86.44c-.98,0-1.75-.22-2.3-.77s-.77-1.2-.77-2.08c0-.98.44-1.75,1.2-2.3.77-.55,1.97-.77,3.5-.87l1.86-.11v-.66c0-.98-.22-1.64-.55-2.08s-.98-.77-1.86-.77-1.86.22-2.84.77l-.33-.77c1.09-.55,2.19-.77,3.17-.77,1.09,0,1.86.33,2.4.87s.77,1.42.77,2.62v6.56h-.55v.11Zm-3.61-.66c1.09,0,1.86-.33,2.51-.87.66-.66.87-1.42.87-2.51v-.98l-1.75.11c-1.42.11-2.4.33-2.95.66-.55.33-.87.98-.87,1.75,0,.66.22,1.09.55,1.42.44.33.87.44,1.64.44Z"/>
        <path class="cls-1" d="m168.78,9.84c0-.55.22-.87.55-.87.22,0,.33.11.44.22s.11.33.11.66c0,.22,0,.44-.11.66s-.22.22-.44.22c-.44,0-.55-.33-.55-.87Zm.98,12.57h-.87v-9.84h.87v9.84Z"/>
        <path class="cls-1" d="m179.38,22.41v-6.45c0-.98-.22-1.75-.66-2.19s-1.09-.66-1.97-.66c-1.2,0-2.08.33-2.62.87s-.87,1.53-.87,2.95v5.47h-.87v-9.84h.77l.22,1.31h0c.66-.98,1.75-1.53,3.39-1.53,2.19,0,3.39,1.2,3.39,3.61v6.45h-.77Z"/>
      </g>
    </g>
  </g>
</svg>