<svg id="Group_510" data-name="Group 510" xmlns="http://www.w3.org/2000/svg" xmlns:xlink="http://www.w3.org/1999/xlink" width="214.083" height="149.018" viewBox="0 0 214.083 149.018">
  <defs>
    <clipPath id="clip-path">
      <rect id="Rectangle_427" data-name="Rectangle 427" width="214.083" height="149.018" fill="none"/>
    </clipPath>
    <clipPath id="clip-path-3">
      <rect id="Rectangle_378" data-name="Rectangle 378" width="166.249" height="44.053" fill="none"/>
    </clipPath>
    <clipPath id="clip-path-4">
      <path id="Path_228" data-name="Path 228" d="M816.178,1418.493c-3.066,8.646-19.121,5.224-19.121,5.224s-3.8,4.6-12.921,6.524a42.324,42.324,0,0,1-10.021.989,25.013,25.013,0,0,0-6.773.395c-7.29,1.8-15.749,3.731-23.674,5.435-7.812,1.677-15.105,3.128-20.246,3.986-13.639,2.283-40.929.923-58.682-5.073-6.435-2.17-10.4-8.243-12.843-14.951l-.617-3.728-.422-2.541c2.461,6.474,6.379,12.256,12.624,14.363,17.753,6,45.043,7.355,58.682,5.073,5.141-.858,12.434-2.309,20.246-3.986,1.155-.248,6.918-9.938,8.075-18.154.7-4.958-.142-13.826.481-13.964,6.279-1.39,9.453,28.079,15.119,26.683a25.023,25.023,0,0,1,6.773-.395,51.335,51.335,0,0,0,10.021-.988c14.817-2.675,18.391-14.1,18.391-14.1s7.67,19.029,14.945,3.354a12.584,12.584,0,0,0,.706-1.9,15.806,15.806,0,0,1-.742,7.75" transform="translate(-650.857 -1398.036)" fill="none"/>
    </clipPath>
    <radialGradient id="radial-gradient" cx="-0.28" cy="1.076" r="0.002" gradientUnits="objectBoundingBox">
      <stop offset="0" stop-color="#130c0e"/>
      <stop offset="0.574" stop-color="#130c0e"/>
      <stop offset="0.798" stop-color="#130c0e"/>
      <stop offset="1" stop-color="#130c0e"/>
    </radialGradient>
    <clipPath id="clip-path-5">
      <path id="Path_229" data-name="Path 229" d="M650.731,1045.348a131.1,131.1,0,0,0-28.994,8,146.731,146.731,0,0,0-19.805,9.712c-4.668,2.756-7.271,4.676-7.38,4.756a1.187,1.187,0,0,0,1.414,1.908,131.482,131.482,0,0,1,26.718-14.2c14.883-5.941,37.815-12.049,62.546-7.411,7.564,1.419,14.328,3.777,18.091,6.309,7.808,5.252,10.943,11.1,10.973,11.161l.01.02a9.676,9.676,0,0,0,2,2.4,7,7,0,0,0,6,1.748c2.223-.407,4.248-.844,6.207-1.266a61.524,61.524,0,0,1,10.883-1.714c8.96-.274,16.523,2.893,20.75,8.688a15.036,15.036,0,0,1,2.207,14.05c-2.685,7.564-17.608,4.493-17.758,4.461a1.18,1.18,0,0,0-1.159.4,14.4,14.4,0,0,1-2.884,2.376,27.324,27.324,0,0,1-9.368,3.746,41.99,41.99,0,0,1-10.782.944,21.847,21.847,0,0,0-6.05.449c-14.962,3.683-33.806,7.725-43.832,9.4-13.669,2.286-40.9.785-58.109-5.025-5.235-1.767-9.308-6.556-12.105-14.233a1.187,1.187,0,0,0-2.231.813c3.056,8.389,7.624,13.661,13.577,15.67,8.26,2.788,19.332,4.812,31.176,5.7,4.331.324,8.568.484,12.546.484a97.806,97.806,0,0,0,15.538-1.065c10.077-1.686,29-5.743,44.008-9.439a19.729,19.729,0,0,1,5.435-.381,44.59,44.59,0,0,0,11.32-.995c7.673-1.621,11.755-5.069,13.092-6.4a37.72,37.72,0,0,0,8.053.528c6.272-.322,10.342-2.619,11.771-6.644a17.377,17.377,0,0,0-2.527-16.243,22.545,22.545,0,0,0-9.085-7.172,30.931,30.931,0,0,0-13.656-2.491,63.179,63.179,0,0,0-11.31,1.766c-1.942.418-3.949.851-6.135,1.252a4.622,4.622,0,0,1-3.96-1.161,7.4,7.4,0,0,1-1.518-1.789c-.226-.427-3.527-6.489-11.745-12.018-4.078-2.744-11-5.176-18.979-6.673a100.062,100.062,0,0,0-18.461-1.69,110.358,110.358,0,0,0-16.475,1.258" transform="translate(-594.071 -1044.09)" fill="none"/>
    </clipPath>
    <radialGradient id="radial-gradient-2" cx="-0.246" cy="1.05" r="0.001" xlink:href="#radial-gradient"/>
    <clipPath id="clip-path-6">
      <path id="Path_230" data-name="Path 230" d="M2268.576,1317.963a1.2,1.2,0,0,0-.1,1.691c.028.032.068.085.1.128l.109.142c.074.094.146.194.219.292.145.2.29.4.432.6s.284.406.422.614.277.414.413.623q.817,1.256,1.567,2.569l.369.66.184.331.178.334.356.669.343.677.172.339c.057.113.11.228.166.342l.33.686c.218.459.423.923.635,1.386-.119-.494-.231-.992-.356-1.486l-.192-.741c-.032-.124-.063-.248-.1-.371l-.1-.369-.208-.739-.223-.735-.112-.368-.118-.366-.239-.733c-.33-.974-.684-1.943-1.07-2.9-.1-.24-.194-.481-.3-.72s-.2-.479-.31-.718-.215-.477-.328-.716c-.057-.12-.113-.239-.173-.359l-.09-.181c-.033-.063-.06-.118-.1-.192l-.041-.074a1.2,1.2,0,0,0-1.839-.309" transform="translate(-2268.172 -1317.661)" fill="none"/>
    </clipPath>
    <radialGradient id="radial-gradient-3" cx="0.511" cy="0.5" r="0.397" xlink:href="#radial-gradient"/>
    <clipPath id="clip-path-8">
      <rect id="Rectangle_383" data-name="Rectangle 383" width="82.642" height="40.144" fill="none"/>
    </clipPath>
    <clipPath id="clip-path-9">
      <path id="Path_232" data-name="Path 232" d="M1221.208,736.655c-18.024-5.9-32.45-9.334-60.249-8.478-21.824-1.283-18.877-24.333-11.921-29.552a13.454,13.454,0,0,1,4.344-1.923c-3.062,8.724-.919,22.568,15.852,23.55,5.292-.163,13.326-18.245,15.125-18.027,1.954.237-5.606,17.906,4.533,20.463,14.171,3.575,25.683,2.042,37.681,5.188.024,5.792-1.868,9.922-5.366,8.78" transform="translate(-1143.933 -696.701)" fill="none"/>
    </clipPath>
    <radialGradient id="radial-gradient-4" cx="0.527" cy="0.488" r="0.791" xlink:href="#radial-gradient"/>
    <clipPath id="clip-path-10">
      <path id="Path_235" data-name="Path 235" d="M1624.718,770.49c-.042.028-.073.05-.107.075s-.066.05-.1.075q-.1.076-.187.157-.182.161-.351.334a8.9,8.9,0,0,0-.636.725,13.222,13.222,0,0,0-1.075,1.595,18.972,18.972,0,0,0-.873,1.711c-.26.585-.493,1.181-.707,1.784s-.4,1.213-.576,1.828c-.083.308-.169.616-.243.926-.037.155-.078.309-.113.465l-.1.467-.052.233-.052.226-.107.454-.212.915q-.213.918-.4,1.852a36.7,36.7,0,0,0-.58,3.805,17.848,17.848,0,0,0,.022,3.989q.065.512.183,1.03a8.93,8.93,0,0,0,.3,1.036,7.358,7.358,0,0,0,.447,1.026,6.224,6.224,0,0,0,.635.977,5.429,5.429,0,0,0,1.86,1.513,5.947,5.947,0,0,0,2.225.593,1.189,1.189,0,0,0,.332-2.348l-.041-.009c-.125-.027-.247-.054-.367-.085s-.235-.069-.347-.107a3.979,3.979,0,0,1-.628-.284,3.308,3.308,0,0,1-.988-.874,6.524,6.524,0,0,1-1.082-2.847,15.352,15.352,0,0,1-.186-1.707c-.036-.583-.042-1.176-.036-1.775.018-1.2.109-2.413.232-3.635.061-.612.132-1.225.2-1.843l.219-1.861.061-.455c.021-.151.045-.3.067-.453.043-.3.1-.6.149-.9.113-.6.227-1.2.374-1.793s.308-1.181.5-1.761a18.06,18.06,0,0,1,.638-1.713,14.025,14.025,0,0,1,.824-1.628c.157-.26.323-.515.5-.759q.134-.183.281-.356.073-.086.149-.168c.049-.054.106-.11.151-.152l.011-.01a.169.169,0,0,0-.21-.265" transform="translate(-1618.142 -770.462)" fill="none"/>
    </clipPath>
    <radialGradient id="radial-gradient-5" cx="0.496" cy="0.5" r="0.365" xlink:href="#radial-gradient"/>
    <clipPath id="clip-path-12">
      <rect id="Rectangle_387" data-name="Rectangle 387" width="15.149" height="24.464" fill="none"/>
    </clipPath>
    <clipPath id="clip-path-13">
      <path id="Path_237" data-name="Path 237" d="M2036.214,1620.393c-.689,4.54-1.957,8.121-3.823,9.833a10.454,10.454,0,0,1-11.325,2.188,74.962,74.962,0,0,0,3.689-14.729c.986,1.958,2.269,3.893,3.512,3.772,2.9-.273,3.294-9.568,3.229-11.39-.116-3.362,1.421.1,1.674,5.886.145,3.21,1.606,5.086,3.044,4.439" transform="translate(-2021.065 -1608.749)" fill="none"/>
    </clipPath>
    <radialGradient id="radial-gradient-6" cx="0.5" cy="0.5" r="0.356" xlink:href="#radial-gradient"/>
    <clipPath id="clip-path-14">
      <path id="Path_238" data-name="Path 238" d="M1896.293,1175.68a9.513,9.513,0,0,1-2.223-.329c.466-1.347,1.254-3.8,2.018-7a69.5,69.5,0,0,0,2-18.463,44.462,44.462,0,0,0-2.332-12.408,48.989,48.989,0,0,0-4.38-9.437,46.976,46.976,0,0,0-5.205-7.14,9.643,9.643,0,0,1,3.226-1.226c3.334-.592,6.564.8,9.6,4.13,4.134,4.538,7.179,14.572,7.948,26.187a65.592,65.592,0,0,1-.511,14.455c-.689,4.164-1.882,7.2-3.36,8.556a9.461,9.461,0,0,1-6.522,2.677c-.085,0-.17,0-.256,0m-7.437-58.317a11.84,11.84,0,0,0-5.283,2.478l-.949.85.914.887a41.32,41.32,0,0,1,5.837,7.755,44.362,44.362,0,0,1,6.336,20.656,71.936,71.936,0,0,1-4.272,25.652l-.4,1.02.984.479a11.027,11.027,0,0,0,4.079.91q.21.008.433.008a11.855,11.855,0,0,0,8.136-3.3c1.922-1.761,3.3-5.1,4.1-9.919a67.033,67.033,0,0,0,.538-15,75.123,75.123,0,0,0-2.647-15.716c-1.535-5.281-3.525-9.289-5.915-11.913-3.611-3.964-7.138-5.035-9.9-5.035a10.743,10.743,0,0,0-2,.188" transform="translate(-1882.625 -1117.175)" fill="none"/>
    </clipPath>
    <radialGradient id="radial-gradient-7" cx="0.497" cy="0.5" r="0.386" xlink:href="#radial-gradient"/>
    <clipPath id="clip-path-16">
      <path id="Path_240" data-name="Path 240" d="M1975.1,890.909a35.732,35.732,0,0,1-7.194-1.776c-.161-.07-.49-.485-.705-1.593-.759-3.908.607-11.575,3.043-14.062.392-.4,1.323-.5,2.555-.268,3.99.744,9.974,4.557,11.041,7.034a10.531,10.531,0,0,1,.185,6.184c-.491,2.109-1.432,3.908-2.342,4.477a5.2,5.2,0,0,1-2.419.38,27.98,27.98,0,0,1-4.164-.375m-6.109-18.658c-1.854,1.892-2.79,5.449-3.183,7.4a22.964,22.964,0,0,0-.329,8.223c.3,1.531.877,2.5,1.724,2.865a37.492,37.492,0,0,0,7.629,1.9,29.67,29.67,0,0,0,4.411.4,6.607,6.607,0,0,0,3.37-.65c1.336-.836,2.5-2.917,3.119-5.566a12.123,12.123,0,0,0-.282-7.275c-.637-1.48-2.477-3.275-5.049-4.923a22.22,22.22,0,0,0-7.28-3.142,8.341,8.341,0,0,0-1.52-.154,3.5,3.5,0,0,0-2.609.919" transform="translate(-1965.243 -871.332)" fill="none"/>
    </clipPath>
    <radialGradient id="radial-gradient-8" cx="0.499" cy="0.5" r="0.491" xlink:href="#radial-gradient"/>
    <clipPath id="clip-path-17">
      <path id="Path_241" data-name="Path 241" d="M2048.491,960.6a34.225,34.225,0,0,0-.974,3.765c-.062.322-.118.646-.166.973s-.089.657-.119.991a11.522,11.522,0,0,0-.019,2.062,6.86,6.86,0,0,0,.181,1.087,4.736,4.736,0,0,0,.435,1.122,3.621,3.621,0,0,0,.855,1.043,3.533,3.533,0,0,0,1.248.662l.1.03a1.2,1.2,0,1,0,.454-2.339,1.252,1.252,0,0,1-.475-.14,1.4,1.4,0,0,1-.425-.363,3.668,3.668,0,0,1-.616-1.387,9.889,9.889,0,0,1-.256-1.753c-.021-.3-.03-.611-.033-.92s0-.62.013-.932a33.39,33.39,0,0,1,.373-3.766c.192-1.257.432-2.511.731-3.755-.488,1.183-.921,2.393-1.31,3.62" transform="translate(-2047.175 -956.982)" fill="none"/>
    </clipPath>
    <radialGradient id="radial-gradient-9" cx="0.496" cy="0.498" r="0.366" xlink:href="#radial-gradient"/>
    <clipPath id="clip-path-19">
      <rect id="Rectangle_394" data-name="Rectangle 394" width="18.552" height="19.514" fill="none"/>
    </clipPath>
    <clipPath id="clip-path-20">
      <path id="Path_242" data-name="Path 242" d="M1996.054,904.43c-.567,1.954-1.49,3.6-2.526,4.245-2.339,1.466-11.944-.555-14.59-1.71s-1.44-13.5,2.062-17.074a1.534,1.534,0,0,1,.265-.216c-1.857,5.314-2.3,12.973-.285,12.1,1.677-.722,1.958-5.173,3.5-5.123,1.126.036-1.957,9.419,11.487,7.792a.673.673,0,0,0,.084-.015" transform="translate(-1977.502 -889.674)" fill="none"/>
    </clipPath>
    <radialGradient id="radial-gradient-10" cx="0.531" cy="0.477" r="0.465" xlink:href="#radial-gradient"/>
    <clipPath id="clip-path-21">
      <rect id="Rectangle_396" data-name="Rectangle 396" width="150.353" height="71.818" fill="none"/>
    </clipPath>
    <clipPath id="clip-path-22">
      <path id="Path_244" data-name="Path 244" d="M434.445,1132.422q-1.2-.031-2.455-.131c-.445-.036-.893-.077-1.348-.125-6.444-.683-29.095-2.366-52.11-2.9-.184,0-.371-.009-.555-.012q-1.291-.031-2.579-.053l-1.288-.021c-.43-.009-.861-.015-1.288-.021l-1.285-.018c-.769-.009-1.532-.015-2.294-.021-.255,0-.51-.006-.766-.006-.454,0-.908-.006-1.359-.006-3.289-.012-6.533.006-9.679.062-.427.006-.855.015-1.279.024q-1.763.04-3.479.1c-.965.029-1.92.065-2.861.107-.231.009-.46.021-.689.03l-1.1.045-1.484.054c-.291.012-.582.021-.867.03-.727.027-1.437.047-2.134.068q-.913.027-1.8.047-.378.014-.748.018c-.3.009-.6.015-.89.021q-1,.022-1.953.036l-.653.009c-2.576.036-4.933.044-7.112.03h-.083l-.7-.009h-.285c-.306-.006-.606-.009-.9-.012h-.107l-.567-.009c-.039,0-.074,0-.113,0H327.6c-.315-.006-.623-.012-.926-.015-.611-.012-1.208-.024-1.79-.039a51.548,51.548,0,0,1-21.787-24.6,52.2,52.2,0,0,1,8.649-.974l16.7-.065-3.3-19.946s32.52-24.1,73.493-23.482a89.655,89.655,0,0,1,1.324,35.9,58.667,58.667,0,0,1-4.232,13.632,8.937,8.937,0,0,0,7.676,12.568c6.652.354,12.642.743,17.432,1.1,4.455.329,7.872.626,9.816.831,10.585,1.122,18.631-1.3,21.579-5.331.059.1.116.193.169.291.045.071.083.143.122.217s.089.166.131.252a8.115,8.115,0,0,1,.4.932c.039.1.071.2.1.309.006.021.012.041.021.065.024.086.047.169.068.255.033.116.059.232.08.344s.042.2.056.3v.009c.018.1.03.2.042.306v.021c.012.089.018.181.021.27.324,5.637-7.379,9.846-18.991,9.522" transform="translate(-303.093 -1060.622)" fill="none"/>
    </clipPath>
    <radialGradient id="radial-gradient-11" cx="-0.144" cy="1.012" r="0.001" xlink:href="#radial-gradient"/>
    <clipPath id="clip-path-23">
      <rect id="Rectangle_398" data-name="Rectangle 398" width="42.324" height="12.072" fill="none"/>
    </clipPath>
    <clipPath id="clip-path-24">
      <path id="Path_245" data-name="Path 245" d="M48.479,1860.241a51.343,51.343,0,0,0,10.386,7.869c-8.041-.19-13.384-.6-18.857-.513-10.285.166-19.457,1.1-22.579-4.161-1.208-2.033-1.181-4.678.071-7.4,3.179,5.141,12.294,4.218,22.508,4.049,2.74-.045,5.444.039,8.471.154" transform="translate(-16.541 -1856.038)" fill="none"/>
    </clipPath>
    <radialGradient id="radial-gradient-12" cx="0.504" cy="0.477" r="1.229" xlink:href="#radial-gradient"/>
    <clipPath id="clip-path-25">
      <path id="Path_246" data-name="Path 246" d="M126.952,1646.609c-.359.031-.717.06-1.075.1s-.715.082-1.072.127-.713.1-1.069.161-.707.124-1.07.206a.4.4,0,0,0,.078.786h.01l.523.012.528.017,1.056.039c.7.031,1.407.064,2.109.106q2.106.123,4.2.313c2.792.256,5.572.581,8.326,1.049l.517.086.515.1,1.03.189,1.026.209c.342.07.684.135,1.024.216l1.021.23c.341.072.678.164,1.016.245l1.015.251,1.009.274c.675.173,1.339.384,2.008.578.335.094.665.206,1,.313l.994.321c.331.109.657.231.985.346s.657.23.983.352l.973.378.487.189.243.095.24.1.961.407.48.2c.16.068.316.145.474.218l.946.44c.157.074.316.146.473.221l.465.236c.619.317,1.246.619,1.848.966s1.221.67,1.806,1.029a29.876,29.876,0,0,1,3.36,2.338c.066.053.133.1.2.159l.192.164c.127.11.258.217.382.329l.37.339c.063.056.122.114.181.172l.178.175a14.2,14.2,0,0,1,1.308,1.469,10,10,0,0,1,1.013,1.6,6.613,6.613,0,0,1,.588,1.7,4.848,4.848,0,0,1,.018,1.7,1.787,1.787,0,0,1-.042.207l-.047.206-.063.2-.031.1c-.01.034-.026.066-.038.1l-.078.2c-.024.067-.061.13-.09.2s-.059.131-.094.194l-.107.19-.053.1-.061.092-.121.185c-.038.063-.088.12-.131.18l-.134.179-.147.173c-.05.057-.095.117-.15.172l-.158.167-.079.084-.084.08a9.77,9.77,0,0,1-1.488,1.17,13.927,13.927,0,0,1-1.717.939,18.658,18.658,0,0,1-1.861.729c-.16.051-.317.109-.48.155l-.485.144c-.327.087-.651.179-.983.254s-.663.149-1,.219c-.167.033-.335.062-.5.094l-.251.046-.253.04-.506.079-.509.068c-.169.024-.34.043-.51.061l-.511.056-.513.045-.257.022-.257.017-.515.034-.516.023c-.344.018-.689.022-1.033.03-.235,0-.471,0-.706,0h-.329c-.691-.01-1.382-.028-2.073-.069l-.518-.03c-.173-.01-.345-.026-.518-.039l-.518-.041-.518-.05-2.123-.207c-.357-.036-.711-.066-1.066-.1l-1.064-.092-1.064-.092-1.064-.085-2.127-.168-2.127-.157-2.127-.155-2.127-.144-2.127-.143-2.128-.133-2.128-.131-1.064-.066-1.064-.06-4.257-.239c-2.839-.141-5.677-.293-8.518-.409l-2.13-.093-1.065-.046-1.065-.039-4.261-.156c-.71-.029-1.421-.045-2.131-.067l-2.132-.061-2.132-.062c-.711-.021-1.422-.031-2.132-.046l-4.265-.085-4.267-.044-2.134-.02-2.134,0-2.134,0-1.067,0c-.356,0-.711,0-1.067.008l-4.271.068-1.068.017c-.356.008-.712.022-1.068.033l-2.136.07-2.136.07-2.125.078c-1.415.053-2.83.112-4.245.147l-2.122.06c-.354.011-.707.019-1.061.025l-1.061.02-2.122.04-2.122.019c-1.415.019-2.829.01-4.243.01-.707,0-1.414-.013-2.121-.018s-1.414-.013-2.121-.03c-2.828-.045-5.655-.14-8.488-.249s-5.673-.237-8.535-.293l-1.075-.013c-.358,0-.716-.01-1.075-.008l-1.078.007-.539,0-.535.009c-1.426.026-2.848.065-4.264.1s-2.826.062-4.227.06-2.792-.039-4.162-.144c-.683-.057-1.361-.13-2.028-.232a18.983,18.983,0,0,1-1.949-.408,8.472,8.472,0,0,1-3.312-1.64,5.439,5.439,0,0,1-1.117-1.333,5.054,5.054,0,0,1-.606-1.608,5.728,5.728,0,0,1-.1-.877l-.006-.111v-.337l.012-.226.006-.113.012-.114.023-.227.034-.228.017-.114.022-.114.044-.228a9.209,9.209,0,0,1,.25-.905,12.2,12.2,0,0,1,1.819-3.409,18.144,18.144,0,0,1,2.727-2.911c.509-.439,1.042-.854,1.593-1.247s1.123-.757,1.707-1.1c.147-.085.291-.174.441-.255l.446-.247c.15-.081.3-.158.452-.238s.3-.156.455-.231c.608-.307,1.232-.585,1.86-.854l.473-.2.477-.189c.316-.129.64-.244.96-.366l.484-.173c.161-.058.323-.115.486-.168l.488-.166c.163-.054.328-.1.491-.156.654-.212,1.316-.4,1.98-.588s1.335-.353,2.009-.512c1.347-.323,2.708-.611,4.082-.882l1.033-.2c.345-.065.692-.126,1.038-.2s.695-.126,1.043-.194.7-.129,1.048-.2l.009,0a.4.4,0,0,0-.034-.789q-.538-.068-1.079-.116c-.36-.026-.721-.05-1.082-.067s-.723-.023-1.085-.027-.724,0-1.086.011a33.425,33.425,0,0,0-4.335.4c-.72.11-1.434.256-2.148.408-.355.084-.711.165-1.066.255s-.708.184-1.059.289c-.7.2-1.4.433-2.092.678s-1.373.523-2.045.825-1.337.619-1.988.966-1.295.711-1.922,1.1a28.264,28.264,0,0,0-3.59,2.638,20.64,20.64,0,0,0-3.08,3.294A14.555,14.555,0,0,0,.539,1662.3a11.588,11.588,0,0,0-.315,1.146l-.058.295-.028.147-.023.149-.044.3-.031.3-.015.151-.009.153-.015.305v.461l.007.154a8.1,8.1,0,0,0,.145,1.235,7.426,7.426,0,0,0,.891,2.356,7.816,7.816,0,0,0,1.6,1.918,9.169,9.169,0,0,0,2.045,1.326,13.107,13.107,0,0,0,2.2.811,21.306,21.306,0,0,0,2.216.465c.737.112,1.471.191,2.2.252,1.461.112,2.909.15,4.347.151s2.866-.027,4.288-.061,2.838-.074,4.25-.1l.529-.009.526,0,1.051-.007c.351,0,.7.006,1.054.008l1.054.012c2.815.055,5.647.184,8.487.292s5.688.2,8.537.25c.712.016,1.424.023,2.137.03s1.425.019,2.137.019c1.424,0,2.849.009,4.273-.01l2.136-.019,2.135-.04,1.068-.02q.534-.009,1.067-.025l2.134-.061c1.423-.035,2.845-.094,4.267-.147l2.13-.079,2.12-.07,2.12-.069c.353-.011.706-.025,1.06-.033l1.061-.017,4.244-.068c.354-.008.708-.007,1.062-.008l1.062,0,2.124,0,2.124,0,2.124.02,4.249.044,4.25.085c.708.016,1.416.025,2.125.046l2.125.061,2.125.061c.708.021,1.417.038,2.125.066l4.249.156,1.062.039,1.062.046,2.124.093c2.833.116,5.664.268,8.5.408l4.246.238,1.061.06,1.061.066,2.122.131,2.122.133,2.121.143,2.121.143,2.12.155,2.119.156,2.118.168,1.059.084,1.057.092,1.057.092c.352.031.705.06,1.055.1l2.115.206.542.052.543.043c.181.013.362.029.544.04l.544.031c.726.042,1.454.062,2.182.072h.329c.255,0,.51,0,.765,0,.365-.009.73-.013,1.095-.032l.547-.025.548-.036.274-.018.274-.024.547-.048c.729-.077,1.459-.161,2.186-.284l.273-.043.272-.05c.181-.034.363-.065.544-.1.362-.076.724-.149,1.084-.238s.719-.183,1.078-.279l.536-.159c.179-.052.356-.115.533-.172a21,21,0,0,0,2.1-.824,16.331,16.331,0,0,0,2.015-1.1,12.126,12.126,0,0,0,1.852-1.459l.108-.1.1-.109.208-.22c.071-.071.134-.153.2-.229l.2-.234c.063-.081.124-.164.186-.246s.125-.162.181-.25l.17-.26.084-.131.078-.136.154-.274c.05-.092.093-.189.139-.284s.094-.189.132-.288l.116-.3c.019-.05.04-.1.056-.149l.048-.153.094-.306.073-.313c.024-.1.05-.208.063-.315a7.227,7.227,0,0,0-.023-2.538,8.98,8.98,0,0,0-.8-2.317,12.344,12.344,0,0,0-1.256-1.992,16.5,16.5,0,0,0-1.52-1.71l-.2-.2c-.067-.067-.135-.132-.2-.195l-.415-.38c-.139-.126-.283-.244-.424-.366l-.213-.182c-.071-.06-.145-.117-.217-.175a32.58,32.58,0,0,0-3.623-2.525c-.624-.385-1.259-.728-1.889-1.086s-1.277-.683-1.917-1.021l-.482-.251c-.162-.081-.326-.157-.489-.236l-.979-.469c-.164-.077-.325-.159-.491-.232l-.5-.219-.993-.439a64.06,64.06,0,0,0-8.179-2.878l-1.045-.286c-.35-.09-.7-.174-1.052-.26-.7-.177-1.407-.327-2.113-.478-.352-.079-.708-.143-1.062-.211s-.709-.135-1.064-.2l-1.068-.176-.534-.085-.536-.075-1.071-.148-1.074-.124c-.358-.044-.716-.077-1.075-.111l-.538-.05c-.179-.017-.359-.032-.538-.044-1.436-.112-2.877-.164-4.316-.169h-.033c-1.428,0-2.857.05-4.28.168" transform="translate(0 -1646.441)" fill="none"/>
    </clipPath>
    <radialGradient id="radial-gradient-13" cx="0" cy="1" r="0.002" xlink:href="#radial-gradient"/>
    <clipPath id="clip-path-27">
      <rect id="Rectangle_402" data-name="Rectangle 402" width="98.882" height="89.726" fill="none"/>
    </clipPath>
    <clipPath id="clip-path-28">
      <path id="Path_249" data-name="Path 249" d="M352.255,850.543A53,53,0,0,1,319.6,892.561q-1.4.571-2.836,1.066a53.269,53.269,0,0,1-23.507,2.5c-.934-.119-1.858-.25-2.77-.407a53.679,53.679,0,0,1-5.5-1.254,51.615,51.615,0,0,1-31.162-24.815,51.564,51.564,0,0,0,21.77,12.526,52.443,52.443,0,0,0,5.5,1.254c.909.159,1.834.29,2.77.407a53.084,53.084,0,0,0,23.5-2.494q1.439-.5,2.839-1.068a53,53,0,0,0,32.655-42.018A51.176,51.176,0,0,0,337,806.768a51.247,51.247,0,0,1,15.25,43.775" transform="translate(-253.829 -806.768)" fill="none"/>
    </clipPath>
    <radialGradient id="radial-gradient-14" cx="-0.181" cy="1.016" r="0.001" xlink:href="#radial-gradient"/>
    <clipPath id="clip-path-29">
      <path id="Path_251" data-name="Path 251" d="M196.367,691.065c-1-.124-1.89-.255-2.716-.4a52.07,52.07,0,0,1-5.373-1.223,50.573,50.573,0,0,1-22.1-13.063h0a49.928,49.928,0,0,1-14.055-41.937,51.224,51.224,0,0,1,10.336-24.694,51.781,51.781,0,0,1,3.451-4.011c.794-.833,1.64-1.662,2.514-2.462a52.6,52.6,0,0,1,19.028-11.155c1.53-.5,3.109-.94,4.691-1.3l.008,0c.627-.147,1.207-.268,1.772-.372l.011,0a51.785,51.785,0,0,1,15.869-.557,50.413,50.413,0,0,1,34.15,19.206,49.862,49.862,0,0,1,10.092,37.416,51.936,51.936,0,0,1-31.923,41.073c-.911.37-1.847.721-2.776,1.043a51.8,51.8,0,0,1-14.8,2.76q-1.019.041-2.043.041a52.089,52.089,0,0,1-6.131-.362m-2.88-102.953c-.6.11-1.216.239-1.879.394-1.654.375-3.3.832-4.9,1.358a54.972,54.972,0,0,0-19.891,11.66c-.913.836-1.8,1.7-2.629,2.576a54.339,54.339,0,0,0-10.655,16.192,53.57,53.57,0,0,0-3.958,26.227,52.287,52.287,0,0,0,7.645,22.324,52.791,52.791,0,0,0,30.412,22.884,54.454,54.454,0,0,0,5.616,1.278c.862.151,1.787.287,2.836.417a54.552,54.552,0,0,0,6.417.38q1.07,0,2.135-.042a54.17,54.17,0,0,0,15.482-2.888c.972-.337,1.947-.7,2.9-1.089a54.911,54.911,0,0,0,22.255-16.709A53.642,53.642,0,0,0,256.4,646.822,52.605,52.605,0,0,0,230.349,594.2a53.205,53.205,0,0,0-20.27-6.664,54.964,54.964,0,0,0-6.448-.381,53.739,53.739,0,0,0-10.144.963" transform="translate(-149.3 -587.15)" fill="none"/>
    </clipPath>
    <radialGradient id="radial-gradient-15" cx="-0.098" cy="1.003" r="0.001" xlink:href="#radial-gradient"/>
    <clipPath id="clip-path-31">
      <rect id="Rectangle_406" data-name="Rectangle 406" width="89.574" height="86.033" fill="none"/>
    </clipPath>
    <clipPath id="clip-path-32">
      <path id="Path_252" data-name="Path 252" d="M200.374,881.49c35.471,11.905,71.693-14.368,63.807-50.34-5.365-24.474-33.743-37.878-57.185-30.987-17.062,5.015-31.594,17.286-31.292,45.576,0,0,2.085,12.48,7.683,19.572a117.583,117.583,0,0,0,12.261,13.038Z" transform="translate(-175.699 -798.36)" fill="none"/>
    </clipPath>
    <radialGradient id="radial-gradient-16" cx="-0.127" cy="0.968" r="0.001" xlink:href="#radial-gradient"/>
    <clipPath id="clip-path-33">
      <path id="Path_253" data-name="Path 253" d="M506.633,1056.619l.958.638c35.47,11.9,71.692-14.37,63.805-50.341A38.616,38.616,0,0,0,560.679,987.7c7.29,36.525-19.77,65.242-54.046,68.924" transform="translate(-506.633 -987.695)" fill="none"/>
    </clipPath>
    <radialGradient id="radial-gradient-17" cx="-0.5" cy="0.96" r="0.001" xlink:href="#radial-gradient"/>
    <clipPath id="clip-path-34">
      <path id="Path_254" data-name="Path 254" d="M196.367,803.232c-1-.124-1.89-.255-2.716-.4a52.111,52.111,0,0,1-5.373-1.223,50.574,50.574,0,0,1-22.1-13.063h0a49.928,49.928,0,0,1-14.055-41.937,51.216,51.216,0,0,1,10.259-24.595,51.026,51.026,0,0,1,18.763-9.686c13.43-3.948,28.923-1.879,41.443,5.534,11.2,6.63,18.776,16.72,21.339,28.412,2.806,12.8.693,25.064-6.109,35.458-7.249,11.076-19.407,19.027-33.367,21.825q-.973.037-1.951.037a52.114,52.114,0,0,1-6.131-.362m-4.8-95.138a51.455,51.455,0,0,0-11.092,1.957,53.294,53.294,0,0,0-19.726,10.235l-.093.079-.075.1a53.51,53.51,0,0,0-11.005,38.225,52.287,52.287,0,0,0,7.645,22.324,52.791,52.791,0,0,0,30.412,22.884,54.469,54.469,0,0,0,5.616,1.278c.862.151,1.787.287,2.836.417a54.523,54.523,0,0,0,6.417.38q1.071,0,2.137-.043l.093,0,.091-.018a56.82,56.82,0,0,0,20.1-8.135,50.8,50.8,0,0,0,14.88-14.737,46.728,46.728,0,0,0,6.9-17.181,50.53,50.53,0,0,0-.459-20.086c-2.705-12.343-10.678-22.978-22.449-29.947a56.953,56.953,0,0,0-21.008-7.312,55.735,55.735,0,0,0-7.656-.531q-1.79,0-3.565.117" transform="translate(-149.3 -707.976)" fill="none"/>
    </clipPath>
    <radialGradient id="radial-gradient-18" cx="-0.107" cy="1.003" r="0.001" xlink:href="#radial-gradient"/>
    <clipPath id="clip-path-35">
      <path id="Path_255" data-name="Path 255" d="M185.522,865.1,181,862.092a117.344,117.344,0,0,1-12.059-12.833c-5.1-6.462-7.231-17.836-7.429-18.945-.222-23.412,10.02-38.325,30.441-44.328a47.314,47.314,0,0,1,36.767,4.91c9.931,5.879,16.651,14.826,18.924,25.193,3.314,15.114-1.258,29.591-12.544,39.719a48.489,48.489,0,0,1-32.52,12.077,54.09,54.09,0,0,1-17.057-2.786m5.761-81.391a51.768,51.768,0,0,0-12.414,5.385,39.187,39.187,0,0,0-10.339,9.077,40.865,40.865,0,0,0-6.977,13.556,62.134,62.134,0,0,0-2.414,18.709v.092l.015.091a63.227,63.227,0,0,0,1.778,7.277,39.347,39.347,0,0,0,6.145,12.835,119.943,119.943,0,0,0,12.4,13.188l.063.056,4.927,3.276.149.05a56.464,56.464,0,0,0,17.95,2.959,53.561,53.561,0,0,0,10.562-1.044,49.949,49.949,0,0,0,23.555-11.64,44.621,44.621,0,0,0,7.269-8.348,41.836,41.836,0,0,0,7.07-21.293,46.607,46.607,0,0,0-1.062-12.355c-2.415-11.017-9.53-20.509-20.034-26.727a50.8,50.8,0,0,0-18.739-6.521,49.392,49.392,0,0,0-6.786-.469,46.666,46.666,0,0,0-13.121,1.846" transform="translate(-159.133 -781.862)" fill="none"/>
    </clipPath>
    <radialGradient id="radial-gradient-19" cx="-0.123" cy="1.052" r="0.001" xlink:href="#radial-gradient"/>
    <clipPath id="clip-path-37">
      <rect id="Rectangle_412" data-name="Rectangle 412" width="26.911" height="29.38" fill="none"/>
    </clipPath>
    <clipPath id="clip-path-38">
      <path id="Path_257" data-name="Path 257" d="M1384.7,1058.022c3.4,9.675.468,19.844-6.555,22.713s-15.474-2.65-18.875-12.325c-.022-.06-.043-.125-.063-.187a3.764,3.764,0,0,0,4.179.17c2.648-1.743,5.578-10.055,5.578-10.055s5.493-2.735,12.707-6.225a23.993,23.993,0,0,1,3.029,5.909" transform="translate(-1359.21 -1052.113)" fill="none"/>
    </clipPath>
    <radialGradient id="radial-gradient-20" cx="0.466" cy="0.466" r="0.447" xlink:href="#radial-gradient"/>
    <clipPath id="clip-path-39">
      <path id="Path_258" data-name="Path 258" d="M1336.914,970.927c-4.1-1.843-7.645-6.066-9.484-11.3a21.894,21.894,0,0,1-.61-13.185c1.136-3.934,3.443-6.787,6.5-8.034a9.016,9.016,0,0,1,3.429-.672,10.706,10.706,0,0,1,4.394.995c4.1,1.843,7.645,6.066,9.483,11.3a21.9,21.9,0,0,1,.61,13.185c-1.136,3.933-3.443,6.787-6.5,8.034a9.018,9.018,0,0,1-3.429.672,10.705,10.705,0,0,1-4.394-1m-4.5-34.713c-3.74,1.527-6.538,4.927-7.88,9.573a25.31,25.31,0,0,0,5.095,22.453,18.409,18.409,0,0,0,6.306,4.853,13.064,13.064,0,0,0,5.366,1.208,11.386,11.386,0,0,0,4.328-.852c3.74-1.527,6.538-4.927,7.88-9.573a25.309,25.309,0,0,0-5.095-22.453,18.408,18.408,0,0,0-6.307-4.853,13.063,13.063,0,0,0-5.366-1.208,11.384,11.384,0,0,0-4.328.852" transform="translate(-1323.704 -935.362)" fill="none"/>
    </clipPath>
    <radialGradient id="radial-gradient-21" cx="0.5" cy="0.5" r="0.45" xlink:href="#radial-gradient"/>
    <clipPath id="clip-path-41">
      <rect id="Rectangle_416" data-name="Rectangle 416" width="20.786" height="23.801" fill="none"/>
    </clipPath>
    <clipPath id="clip-path-42">
      <path id="Path_261" data-name="Path 261" d="M1457.578,1095.462a17.38,17.38,0,0,1-2.736-7.889c3.99,5,10.068,5.462,14.023.854,2.556-2.976,3.635-7.386,3.2-11.717.254.314.5.652.733,1,3.946,5.925,3.737,14.7-.467,19.6s-10.81,4.067-14.754-1.854" transform="translate(-1454.842 -1076.709)" fill="none"/>
    </clipPath>
    <radialGradient id="radial-gradient-22" cx="0.474" cy="0.467" r="0.438" xlink:href="#radial-gradient"/>
    <clipPath id="clip-path-43">
      <path id="Path_262" data-name="Path 262" d="M1445.783,1006.591c-3.245-1.451-6.1-4.954-7.63-9.372a18.83,18.83,0,0,1-.677-10.605c.777-3.085,2.418-5.29,4.621-6.21a5.954,5.954,0,0,1,2.309-.459,7.4,7.4,0,0,1,3.02.686c3.245,1.451,6.1,4.955,7.63,9.372a18.834,18.834,0,0,1,.677,10.605c-.777,3.085-2.418,5.29-4.621,6.21a5.952,5.952,0,0,1-2.309.459,7.4,7.4,0,0,1-3.02-.686m-4.6-28.379c-2.911,1.216-5.045,3.993-6.009,7.822a21.224,21.224,0,0,0,.737,11.964c1.744,5.025,5.073,9.048,8.9,10.761a9.754,9.754,0,0,0,3.988.9,8.323,8.323,0,0,0,3.225-.646c2.911-1.216,5.045-3.993,6.009-7.822a21.226,21.226,0,0,0-.737-11.964c-1.744-5.025-5.073-9.048-8.9-10.761a9.753,9.753,0,0,0-3.988-.9,8.322,8.322,0,0,0-3.225.646" transform="translate(-1434.628 -977.566)" fill="none"/>
    </clipPath>
    <radialGradient id="radial-gradient-23" cx="0.5" cy="0.5" r="0.441" xlink:href="#radial-gradient"/>
    <clipPath id="clip-path-45">
      <rect id="Rectangle_419" data-name="Rectangle 419" width="40.346" height="60.646" fill="none"/>
    </clipPath>
    <clipPath id="clip-path-46">
      <rect id="Rectangle_420" data-name="Rectangle 420" width="14.743" height="15.614" fill="none"/>
    </clipPath>
    <clipPath id="clip-path-47">
      <rect id="Rectangle_421" data-name="Rectangle 421" width="6.165" height="6.374" fill="none"/>
    </clipPath>
    <clipPath id="clip-path-48">
      <path id="Path_266" data-name="Path 266" d="M2673.379,1536.545l-.053.525-.027.261-.038.26c-.026.173-.048.347-.077.519l-.1.515c-.029.172-.073.341-.111.511s-.075.339-.124.507l-.137.5-.156.5a18.2,18.2,0,0,1-1.706,3.748,17.928,17.928,0,0,1-1.139,1.689c-.2.269-.417.529-.633.781-.109.125-.219.249-.33.367-.056.059-.111.118-.167.173-.028.029-.055.055-.082.081l-.039.037a.288.288,0,0,1-.03.027,1.274,1.274,0,0,0-.484.347,1.257,1.257,0,0,0,1.906,1.639l.314-.365c.027-.031.042-.052.06-.073l.049-.063.092-.122c.06-.08.117-.16.173-.24.113-.16.22-.319.324-.48.207-.322.4-.646.588-.976a19.884,19.884,0,0,0,.99-2.023,19.722,19.722,0,0,0,1.267-4.263l.091-.545.071-.548c.026-.182.039-.365.056-.548s.036-.365.042-.548l.026-.548c.005-.183,0-.366.005-.548l0-.273-.01-.273-.02-.545a19.6,19.6,0,0,0-.751-4.251,19.3,19.3,0,0,1,.157,4.246" transform="translate(-2667.644 -1532.299)" fill="none"/>
    </clipPath>
    <radialGradient id="radial-gradient-24" cx="0.511" cy="0.496" r="0.373" xlink:href="#radial-gradient"/>
    <clipPath id="clip-path-49">
      <path id="Path_267" data-name="Path 267" d="M1740.211,1675.295a19.3,19.3,0,0,0-7.906,6.1,17.963,17.963,0,0,0-3.543,8.591,18.652,18.652,0,0,0,1.6,10.084.877.877,0,0,0,1.6-.717,16.218,16.218,0,0,1,1.735-16.9,17.53,17.53,0,0,1,16.6-6.708.877.877,0,0,0,.263-1.734,19.307,19.307,0,0,0-10.351,1.279" transform="translate(-1728.621 -1673.797)" fill="none"/>
    </clipPath>
    <radialGradient id="radial-gradient-25" cx="0.505" cy="0.5" r="0.463" xlink:href="#radial-gradient"/>
    <clipPath id="clip-path-50">
      <path id="Path_268" data-name="Path 268" d="M2510.728,1344.789a.877.877,0,0,0,.368,1.184c5.036,2.647,8.194,8.45,8.665,15.92a27.637,27.637,0,0,1-1.181,10.035,12.667,12.667,0,0,1-4.195,6.519.877.877,0,1,0,1,1.438c2.071-1.446,3.751-4.01,4.858-7.415a29.426,29.426,0,0,0,1.263-10.688,25.883,25.883,0,0,0-2.593-10.029,16.438,16.438,0,0,0-7.006-7.333.876.876,0,0,0-1.184.368" transform="translate(-2510.627 -1344.32)" fill="none"/>
    </clipPath>
    <radialGradient id="radial-gradient-26" cx="0.498" cy="0.5" r="0.37" xlink:href="#radial-gradient"/>
  </defs>
  <g id="Group_509" data-name="Group 509" clip-path="url(#clip-path)">
    <g id="Group_402" data-name="Group 402" transform="translate(0 0)">
      <g id="Group_401" data-name="Group 401" clip-path="url(#clip-path)">
        <path id="Path_226" data-name="Path 226" d="M1149.042,676.673c8.937-6.708,53.461-3.782,67.174,6.279,12.595,9.241,13.02,34.376,5,31.751-18.024-5.9-32.451-9.334-60.25-8.478-21.824-1.281-18.875-24.333-11.922-29.552" transform="translate(-1061.953 -624.82)" fill="#fff"/>
        <path id="Path_227" data-name="Path 227" d="M778.846,1105.26c-3.066,8.646-19.121,5.224-19.121,5.224s-3.8,4.6-12.921,6.524a42.33,42.33,0,0,1-10.021.989,25.013,25.013,0,0,0-6.774.395c-7.29,1.8-15.749,3.731-23.674,5.435-7.812,1.677-15.105,3.128-20.246,3.986-13.639,2.282-40.929.923-58.682-5.073-6.435-2.17-10.4-8.243-12.843-14.951l-.617-3.728-3.3-19.946s32.52-24.1,73.493-23.482a98.249,98.249,0,0,1,16.7,1.662c8.519,1.6,15.016,4.123,18.534,6.489,8.189,5.509,11.365,11.6,11.365,11.6s2.375,4.351,6.735,3.553c6.824-1.252,12.069-2.841,17.269-3,18.163-.552,28.269,12.612,24.111,24.324" transform="translate(-566.879 -984.607)" fill="#fff"/>
        <g id="Group_400" data-name="Group 400" transform="translate(46.647 100.196)" opacity="0.35">
          <g id="Group_399" data-name="Group 399">
            <g id="Group_398" data-name="Group 398" clip-path="url(#clip-path-3)">
              <g id="Group_397" data-name="Group 397" transform="translate(0 0)">
                <g id="Group_396" data-name="Group 396" clip-path="url(#clip-path-4)">
                  <rect id="Rectangle_377" data-name="Rectangle 377" width="166.457" height="46.634" transform="translate(0 -1.342)" fill="url(#radial-gradient)"/>
                </g>
              </g>
            </g>
          </g>
        </g>
      </g>
    </g>
    <g id="Group_404" data-name="Group 404" transform="translate(42.577 74.83)">
      <g id="Group_403" data-name="Group 403" clip-path="url(#clip-path-5)">
        <rect id="Rectangle_380" data-name="Rectangle 380" width="172.606" height="71.226" transform="translate(-0.157 -0.614)" fill="url(#radial-gradient-2)"/>
      </g>
    </g>
    <g id="Group_406" data-name="Group 406" transform="translate(162.559 94.436)">
      <g id="Group_405" data-name="Group 405" clip-path="url(#clip-path-6)">
        <rect id="Rectangle_381" data-name="Rectangle 381" width="6.44" height="12.382" transform="translate(-0.137)" fill="url(#radial-gradient-3)"/>
      </g>
    </g>
    <g id="Group_413" data-name="Group 413" transform="translate(0 0)">
      <g id="Group_412" data-name="Group 412" clip-path="url(#clip-path)">
        <path id="Path_231" data-name="Path 231" d="M1149.042,676.673c8.937-6.708,53.461-3.782,67.174,6.279,12.595,9.241,13.02,34.376,5,31.751-18.024-5.9-32.451-9.334-60.25-8.478-21.824-1.281-18.875-24.333-11.922-29.552" transform="translate(-1061.953 -624.82)" fill="#fff"/>
        <g id="Group_411" data-name="Group 411" transform="translate(81.985 49.932)" opacity="0.35">
          <g id="Group_410" data-name="Group 410">
            <g id="Group_409" data-name="Group 409" clip-path="url(#clip-path-8)">
              <g id="Group_408" data-name="Group 408" transform="translate(0 0)">
                <g id="Group_407" data-name="Group 407" clip-path="url(#clip-path-9)">
                  <rect id="Rectangle_382" data-name="Rectangle 382" width="87.463" height="41.096" transform="translate(-4.798 0)" fill="url(#radial-gradient-4)"/>
                </g>
              </g>
            </g>
          </g>
        </g>
        <path id="Path_233" data-name="Path 233" d="M1206.958,700.67a4.812,4.812,0,0,1-1.5-.251c-16.243-5.315-30.963-9.31-59.845-8.419-.036,0-.071,0-.106,0a21.083,21.083,0,0,1-11.783-3.905,15.665,15.665,0,0,1-5.542-8.123,21.415,21.415,0,0,1-.092-11.4c.948-3.643,2.716-6.651,4.852-8.254,2.336-1.753,6.691-2.93,12.943-3.5a117.154,117.154,0,0,1,19.663.114,128.013,128.013,0,0,1,20.548,3.292c6.861,1.741,12.054,3.882,15.434,6.362a23.424,23.424,0,0,1,6.284,7.175,34.011,34.011,0,0,1,3.526,8.8c1.493,5.972,1.36,11.966-.337,15.271a4.574,4.574,0,0,1-4.047,2.846M1153.679,689.5a162.641,162.641,0,0,1,25.876,1.851,166.872,166.872,0,0,1,26.642,6.816c.783.256,1.8.326,2.7-1.422,1.427-2.778,1.486-8.248.146-13.61-.925-3.7-3.313-10.526-8.912-14.633-6-4.4-19.325-7.929-34.773-9.2-14.607-1.2-27.059-.032-30.986,2.915l-.713-.95.713.95c-3.486,2.617-5.9,10.475-3.912,17.075,1.32,4.382,5.018,9.729,15.138,10.34,2.8-.086,5.49-.129,8.085-.129" transform="translate(-1046.566 -609.406)" fill="#231f20"/>
        <path id="Path_234" data-name="Path 234" d="M1975.211,889.327a29.818,29.818,0,0,1-4.44-.4,37.816,37.816,0,0,1-7.706-1.925c-.946-.414-1.586-1.453-1.9-3.091a23.278,23.278,0,0,1,.329-8.344c.4-1.985,1.356-5.606,3.266-7.556.921-.94,2.4-1.227,4.407-.853a22.541,22.541,0,0,1,7.391,3.185c1.541.988,4.262,2.96,5.167,5.062a12.434,12.434,0,0,1,.3,7.468c-.635,2.727-1.853,4.879-3.256,5.758a6.939,6.939,0,0,1-3.553.694m-11.188-4.5a35.491,35.491,0,0,0,7.11,1.751c3.81.588,5.813.388,6.371.039.7-.44,1.657-1.935,2.2-4.285a10.218,10.218,0,0,0-.168-5.99c-.464-1.078-2.1-2.612-4.267-4a20.1,20.1,0,0,0-6.545-2.85c-1.111-.207-1.962-.14-2.276.18-2.183,2.228-3.514,9.022-3.074,13.022.165,1.494.527,2.052.646,2.135m0,0h0Z" transform="translate(-1820.38 -804.863)" fill="#371a45"/>
      </g>
    </g>
    <g id="Group_415" data-name="Group 415" transform="translate(115.972 55.219)">
      <g id="Group_414" data-name="Group 414" clip-path="url(#clip-path-10)">
        <rect id="Rectangle_385" data-name="Rectangle 385" width="7.21" height="27.862" transform="translate(-0.056 0)" fill="url(#radial-gradient-5)"/>
      </g>
    </g>
    <g id="Group_422" data-name="Group 422" transform="translate(0 0)">
      <g id="Group_421" data-name="Group 421" clip-path="url(#clip-path)">
        <path id="Path_236" data-name="Path 236" d="M1930.215,1179.4c-.689,4.54-1.957,8.121-3.823,9.833a10.454,10.454,0,0,1-11.326,2.188,74.961,74.961,0,0,0,3.689-14.728,61.288,61.288,0,0,0,.663-11.4,46.517,46.517,0,0,0-12.536-29.215s7.4-6.619,15.508,2.282c7.042,7.731,9.76,28.217,7.825,41.042" transform="translate(-1770.218 -1052.454)" fill="#fff"/>
        <g id="Group_420" data-name="Group 420" transform="translate(144.849 115.298)" opacity="0.35">
          <g id="Group_419" data-name="Group 419">
            <g id="Group_418" data-name="Group 418" clip-path="url(#clip-path-12)">
              <g id="Group_417" data-name="Group 417" transform="translate(0)">
                <g id="Group_416" data-name="Group 416" clip-path="url(#clip-path-13)">
                  <rect id="Rectangle_386" data-name="Rectangle 386" width="15.149" height="28.548" transform="translate(0 -2.043)" fill="url(#radial-gradient-6)"/>
                </g>
              </g>
            </g>
          </g>
        </g>
      </g>
    </g>
    <g id="Group_424" data-name="Group 424" transform="translate(134.927 80.067)">
      <g id="Group_423" data-name="Group 423" clip-path="url(#clip-path-14)">
        <rect id="Rectangle_389" data-name="Rectangle 389" width="27.05" height="60.883" transform="translate(0 0)" fill="url(#radial-gradient-7)"/>
      </g>
    </g>
    <g id="Group_426" data-name="Group 426" transform="translate(0 0)">
      <g id="Group_425" data-name="Group 425" clip-path="url(#clip-path)">
        <path id="Path_239" data-name="Path 239" d="M1981,884.229c-3.5,3.574-4.71,15.914-2.063,17.072s12.252,3.178,14.594,1.712,4.107-8.008,2.5-11.751c-1.626-3.778-12.452-9.661-15.027-7.033" transform="translate(-1835.779 -820.249)" fill="#fff"/>
      </g>
    </g>
    <g id="Group_428" data-name="Group 428" transform="translate(140.848 62.448)">
      <g id="Group_427" data-name="Group 427" clip-path="url(#clip-path-16)">
        <rect id="Rectangle_391" data-name="Rectangle 391" width="21.296" height="21.709" transform="translate(-0.171 0)" fill="url(#radial-gradient-8)"/>
      </g>
    </g>
    <g id="Group_430" data-name="Group 430" transform="translate(146.72 68.587)">
      <g id="Group_429" data-name="Group 429" clip-path="url(#clip-path-17)">
        <rect id="Rectangle_392" data-name="Rectangle 392" width="4.472" height="15.464" transform="translate(-0.025 0)" fill="url(#radial-gradient-9)"/>
      </g>
    </g>
    <g id="Group_447" data-name="Group 447" transform="translate(0 0)">
      <g id="Group_446" data-name="Group 446" clip-path="url(#clip-path)">
        <g id="Group_435" data-name="Group 435" transform="translate(141.727 63.762)" opacity="0.35">
          <g id="Group_434" data-name="Group 434">
            <g id="Group_433" data-name="Group 433" clip-path="url(#clip-path-19)">
              <g id="Group_432" data-name="Group 432" transform="translate(0 0)">
                <g id="Group_431" data-name="Group 431" clip-path="url(#clip-path-20)">
                  <rect id="Rectangle_393" data-name="Rectangle 393" width="19.766" height="20.466" transform="translate(-1.214 0)" fill="url(#radial-gradient-10)"/>
                </g>
              </g>
            </g>
          </g>
        </g>
        <path id="Path_243" data-name="Path 243" d="M168.434,1688.424c-.8-.021-1.618-.065-2.455-.131-.445-.036-.893-.077-1.348-.125-6.444-.683-29.094-2.366-52.11-2.9-.184,0-.371-.009-.555-.012q-1.291-.031-2.579-.053c-.427-.006-.858-.015-1.288-.021s-.861-.015-1.288-.021l-1.285-.018c-.769-.009-1.532-.015-2.294-.021-.255,0-.511-.006-.766-.006-.454,0-.908-.006-1.359-.006-3.289-.015-6.533.006-9.679.062-.427.006-.855.015-1.279.024q-1.763.04-3.479.095c-.965.03-1.92.065-2.861.107-.231.009-.46.021-.689.03l-1.1.045-1.484.053c-.291.012-.582.021-.867.03-.727.027-1.437.047-2.134.068-.611.018-1.208.033-1.8.047q-.378.014-.748.018c-.3.009-.6.015-.89.021q-1,.022-1.953.036l-.653.009c-2.576.036-4.933.044-7.112.03H64.3l-.7-.009h-.285c-.306-.006-.606-.009-.9-.012h-.107l-.567-.009c-.039,0-.074,0-.113,0h-.045c-.312,0-.62-.009-.926-.015-.611-.012-1.208-.024-1.79-.039-8.041-.19-13.384-.6-18.857-.514-10.285.166-19.457,1.1-22.579-4.161-3.449-5.812,3.17-16.6,19.65-19.926a52.2,52.2,0,0,1,8.649-.974l16.7-.065,72.131-.282,3.511-.015s21.208-2.4,40.3,8.72a25.1,25.1,0,0,1,6.892,5.512,12.287,12.287,0,0,1,.947,1.33c.059.1.116.193.169.291.044.071.083.143.122.217s.089.166.131.252a8.088,8.088,0,0,1,.4.932c.039.1.071.2.1.309.006.021.012.042.021.065.024.086.047.169.068.255.033.116.059.232.08.344s.042.2.056.3v.009c.018.1.03.2.042.306v.021c.012.089.018.181.021.27.324,5.637-7.379,9.846-18.991,9.522" transform="translate(-15.359 -1540.61)" fill="#fff"/>
        <g id="Group_440" data-name="Group 440" transform="translate(21.723 76.014)" opacity="0.35">
          <g id="Group_439" data-name="Group 439">
            <g id="Group_438" data-name="Group 438" clip-path="url(#clip-path-21)">
              <g id="Group_437" data-name="Group 437" transform="translate(0 0)">
                <g id="Group_436" data-name="Group 436" clip-path="url(#clip-path-22)">
                  <rect id="Rectangle_395" data-name="Rectangle 395" width="150.667" height="72.727" transform="translate(0 -0.603)" fill="url(#radial-gradient-11)"/>
                </g>
              </g>
            </g>
          </g>
        </g>
        <g id="Group_445" data-name="Group 445" transform="translate(1.185 133.021)" opacity="0.35">
          <g id="Group_444" data-name="Group 444">
            <g id="Group_443" data-name="Group 443" clip-path="url(#clip-path-23)">
              <g id="Group_442" data-name="Group 442" transform="translate(0)">
                <g id="Group_441" data-name="Group 441" clip-path="url(#clip-path-24)">
                  <rect id="Rectangle_397" data-name="Rectangle 397" width="42.644" height="12.662" transform="translate(-0.321)" fill="url(#radial-gradient-12)"/>
                </g>
              </g>
            </g>
          </g>
        </g>
      </g>
    </g>
    <g id="Group_449" data-name="Group 449" transform="translate(0 118)">
      <g id="Group_448" data-name="Group 448" clip-path="url(#clip-path-25)">
        <rect id="Rectangle_400" data-name="Rectangle 400" width="173.305" height="31.019" transform="translate(0 0)" fill="url(#radial-gradient-13)"/>
      </g>
    </g>
    <g id="Group_456" data-name="Group 456" transform="translate(0 0)">
      <g id="Group_455" data-name="Group 455" clip-path="url(#clip-path)">
        <path id="Path_247" data-name="Path 247" d="M180.7,692.6a51.582,51.582,0,0,0,22.624,13.371,53.066,53.066,0,0,0,5.5,1.251c.91.159,1.836.292,2.771.408a53.134,53.134,0,0,0,23.505-2.494q1.436-.5,2.838-1.066a53.006,53.006,0,0,0,32.654-42.018,51.515,51.515,0,0,0-45.279-57.956,52.994,52.994,0,0,0-16.234.57c-.612.112-1.223.241-1.83.383q-2.441.554-4.8,1.329a53.787,53.787,0,0,0-19.46,11.408Q181.66,619,180.415,620.3a52.74,52.74,0,0,0-14.1,29.369A51.249,51.249,0,0,0,180.7,692.6" transform="translate(-153.968 -560.451)" fill="#fff"/>
        <path id="Path_248" data-name="Path 248" d="M216.329,706.565a53.47,53.47,0,0,1-6.291-.372c-1.025-.127-1.933-.261-2.777-.408a53.415,53.415,0,0,1-5.509-1.254A51.672,51.672,0,0,1,166.992,671.7a51.2,51.2,0,0,1-2.526-11.454,52.382,52.382,0,0,1,10.786-37.461,53.1,53.1,0,0,1,3.538-4.113c.814-.855,1.681-1.7,2.577-2.524a53.906,53.906,0,0,1,19.5-11.433c1.569-.516,3.188-.964,4.81-1.332.648-.151,1.248-.277,1.835-.384a53.092,53.092,0,0,1,16.269-.571,52.142,52.142,0,0,1,19.865,6.531,51.437,51.437,0,0,1,25.518,51.56,52.573,52.573,0,0,1-10.906,25.729,53.841,53.841,0,0,1-21.821,16.384c-.933.378-1.889.738-2.844,1.068a53.109,53.109,0,0,1-15.172,2.83q-1.044.042-2.095.042m-37.084-15.6a51.643,51.643,0,0,0,22.572,13.34,53.179,53.179,0,0,0,5.484,1.248c.84.147,1.745.28,2.765.407a53.013,53.013,0,0,0,23.452-2.488c.95-.329,1.9-.687,2.832-1.064a53.008,53.008,0,0,0,32.581-41.923,50.923,50.923,0,0,0-10.307-38.211,51.474,51.474,0,0,0-34.868-19.611,52.861,52.861,0,0,0-16.2.568c-.584.107-1.181.232-1.825.382-1.616.367-3.227.813-4.789,1.326a53.667,53.667,0,0,0-19.416,11.383c-.892.817-1.755,1.662-2.565,2.513a52.838,52.838,0,0,0-3.522,4.095,52.289,52.289,0,0,0-10.549,25.207,50.989,50.989,0,0,0,14.353,42.828" transform="translate(-152.43 -558.9)" fill="#371a45"/>
        <g id="Group_454" data-name="Group 454" transform="translate(18.192 57.821)" opacity="0.35">
          <g id="Group_453" data-name="Group 453">
            <g id="Group_452" data-name="Group 452" clip-path="url(#clip-path-27)">
              <g id="Group_451" data-name="Group 451" transform="translate(0 0)">
                <g id="Group_450" data-name="Group 450" clip-path="url(#clip-path-28)">
                  <rect id="Rectangle_401" data-name="Rectangle 401" width="100.664" height="89.795" transform="translate(0 0)" fill="url(#radial-gradient-14)"/>
                </g>
              </g>
            </g>
          </g>
        </g>
        <path id="Path_250" data-name="Path 250" d="M205.956,696.994a54.281,54.281,0,0,1-6.386-.378c-1.043-.129-1.964-.265-2.821-.415a54.184,54.184,0,0,1-5.589-1.272,52.472,52.472,0,0,1-35.3-33.345A52,52,0,0,1,153.3,649.95a53.183,53.183,0,0,1,10.951-38.034,53.868,53.868,0,0,1,3.59-4.174c.827-.868,1.707-1.73,2.616-2.563a54.708,54.708,0,0,1,19.794-11.6c1.593-.524,3.236-.979,4.883-1.352.654-.153,1.265-.281,1.864-.391a53.894,53.894,0,0,1,16.511-.579,52.937,52.937,0,0,1,20.169,6.631,52.238,52.238,0,0,1,25.914,52.36,53.373,53.373,0,0,1-11.072,26.121,54.644,54.644,0,0,1-22.147,16.628c-.947.384-1.917.749-2.885,1.084a53.9,53.9,0,0,1-15.4,2.873q-1.059.042-2.124.042m-36.515-16.968a50.841,50.841,0,0,0,22.221,13.132,52.352,52.352,0,0,0,5.4,1.229c.829.145,1.721.276,2.728.4a52.212,52.212,0,0,0,23.094-2.451c.935-.324,1.874-.677,2.79-1.048A52.2,52.2,0,0,0,257.763,650a50.127,50.127,0,0,0-10.145-37.615,50.678,50.678,0,0,0-34.33-19.307,52.056,52.056,0,0,0-15.951.559l-.009,0c-.57.1-1.154.226-1.785.374-1.6.362-3.184.8-4.722,1.307A52.872,52.872,0,0,0,171.7,606.537c-.879.8-1.729,1.637-2.527,2.475a52.022,52.022,0,0,0-3.469,4.032,51.491,51.491,0,0,0-10.389,24.822,50.193,50.193,0,0,0,14.129,42.16Z" transform="translate(-142.057 -548.528)" fill="#371a45"/>
      </g>
    </g>
    <g id="Group_458" data-name="Group 458" transform="translate(10.7 42.081)">
      <g id="Group_457" data-name="Group 457" clip-path="url(#clip-path-29)">
        <rect id="Rectangle_404" data-name="Rectangle 404" width="108.186" height="106.652" transform="translate(-0.147 0)" fill="url(#radial-gradient-15)"/>
      </g>
    </g>
    <g id="Group_465" data-name="Group 465" transform="translate(0 0)">
      <g id="Group_464" data-name="Group 464" clip-path="url(#clip-path)">
        <g id="Group_463" data-name="Group 463" transform="translate(12.592 57.218)" opacity="0.87">
          <g id="Group_462" data-name="Group 462">
            <g id="Group_461" data-name="Group 461" clip-path="url(#clip-path-31)">
              <g id="Group_460" data-name="Group 460" transform="translate(0 0)">
                <g id="Group_459" data-name="Group 459" clip-path="url(#clip-path-32)">
                  <rect id="Rectangle_405" data-name="Rectangle 405" width="96.665" height="100.124" transform="translate(-0.297 -5.088)" fill="url(#radial-gradient-16)"/>
                </g>
              </g>
            </g>
          </g>
        </g>
      </g>
    </g>
    <g id="Group_467" data-name="Group 467" transform="translate(36.31 70.788)">
      <g id="Group_466" data-name="Group 466" clip-path="url(#clip-path-33)">
        <rect id="Rectangle_408" data-name="Rectangle 408" width="72.65" height="81.465" transform="translate(0 0)" fill="url(#radial-gradient-17)"/>
      </g>
    </g>
    <g id="Group_469" data-name="Group 469" transform="translate(10.7 50.74)">
      <g id="Group_468" data-name="Group 468" clip-path="url(#clip-path-34)">
        <rect id="Rectangle_409" data-name="Rectangle 409" width="98.745" height="97.993" transform="translate(-0.147 0)" fill="url(#radial-gradient-18)"/>
      </g>
    </g>
    <g id="Group_471" data-name="Group 471" transform="translate(11.405 56.036)">
      <g id="Group_470" data-name="Group 470" clip-path="url(#clip-path-35)">
        <rect id="Rectangle_410" data-name="Rectangle 410" width="92.167" height="88.398" transform="translate(-0.069 0)" fill="url(#radial-gradient-19)"/>
      </g>
    </g>
    <g id="Group_478" data-name="Group 478" transform="translate(0 0)">
      <g id="Group_477" data-name="Group 477" clip-path="url(#clip-path)">
        <path id="Path_256" data-name="Path 256" d="M1367.182,965.093c3.4,9.675.468,19.844-6.555,22.713s-15.474-2.65-18.875-12.325c-.023-.06-.043-.125-.063-.187-3.3-9.618-.356-19.678,6.618-22.526,5.425-2.216,11.7.573,15.846,6.416a23.989,23.989,0,0,1,3.029,5.909" transform="translate(-1244.275 -883.78)" fill="#fff"/>
        <g id="Group_476" data-name="Group 476" transform="translate(97.414 75.404)" opacity="0.35">
          <g id="Group_475" data-name="Group 475">
            <g id="Group_474" data-name="Group 474" clip-path="url(#clip-path-37)">
              <g id="Group_473" data-name="Group 473" transform="translate(0 0)">
                <g id="Group_472" data-name="Group 472" clip-path="url(#clip-path-38)">
                  <rect id="Rectangle_411" data-name="Rectangle 411" width="28.895" height="31.49" fill="url(#radial-gradient-20)"/>
                </g>
              </g>
            </g>
          </g>
        </g>
      </g>
    </g>
    <g id="Group_480" data-name="Group 480" transform="translate(94.869 67.037)">
      <g id="Group_479" data-name="Group 479" clip-path="url(#clip-path-39)">
        <rect id="Rectangle_414" data-name="Rectangle 414" width="31.588" height="38.939" transform="translate(-0.471 0)" fill="url(#radial-gradient-21)"/>
      </g>
    </g>
    <g id="Group_487" data-name="Group 487" transform="translate(0 0)">
      <g id="Group_486" data-name="Group 486" clip-path="url(#clip-path)">
        <path id="Path_259" data-name="Path 259" d="M1466.5,1019.469c.148,8.006-4.833,13.794-11.126,12.929s-11.515-8.056-11.663-16.062,4.833-13.794,11.126-12.929,11.515,8.056,11.663,16.062" transform="translate(-1340.242 -931.414)" fill="#fff"/>
        <path id="Path_260" data-name="Path 260" d="M1455.024,1030.982a9.332,9.332,0,0,1-1.272-.088,12.528,12.528,0,0,1-8.219-5.4,19.086,19.086,0,0,1-3.551-10.779c-.083-4.487,1.43-8.447,4.15-10.864a8.663,8.663,0,0,1,7.118-2.19,12.528,12.528,0,0,1,8.219,5.4,19.086,19.086,0,0,1,3.551,10.779c.083,4.487-1.429,8.447-4.15,10.864a8.663,8.663,0,0,1-5.846,2.279m-3.044-29.165a8.42,8.42,0,0,0-5.683,2.216c-2.666,2.368-4.148,6.259-4.066,10.673.147,7.934,5.331,15.085,11.556,15.941a8.421,8.421,0,0,0,6.919-2.13c2.666-2.368,4.148-6.259,4.066-10.673-.147-7.934-5.331-15.085-11.556-15.941a9.07,9.07,0,0,0-1.235-.086" transform="translate(-1338.633 -929.787)" fill="#371a45"/>
        <g id="Group_485" data-name="Group 485" transform="translate(104.268 77.167)" opacity="0.35">
          <g id="Group_484" data-name="Group 484">
            <g id="Group_483" data-name="Group 483" clip-path="url(#clip-path-41)">
              <g id="Group_482" data-name="Group 482" transform="translate(0 0)">
                <g id="Group_481" data-name="Group 481" clip-path="url(#clip-path-42)">
                  <rect id="Rectangle_415" data-name="Rectangle 415" width="21.904" height="25.509" fill="url(#radial-gradient-22)"/>
                </g>
              </g>
            </g>
          </g>
        </g>
      </g>
    </g>
    <g id="Group_489" data-name="Group 489" transform="translate(102.819 70.062)">
      <g id="Group_488" data-name="Group 488" clip-path="url(#clip-path-43)">
        <rect id="Rectangle_418" data-name="Rectangle 418" width="24.715" height="32.089" transform="translate(-0.382 0)" fill="url(#radial-gradient-23)"/>
      </g>
    </g>
    <g id="Group_500" data-name="Group 500" transform="translate(0 0)">
      <g id="Group_499" data-name="Group 499" clip-path="url(#clip-path)">
        <g id="Group_492" data-name="Group 492" transform="translate(18.37 64.879)" opacity="0.5">
          <g id="Group_491" data-name="Group 491">
            <g id="Group_490" data-name="Group 490" clip-path="url(#clip-path-45)">
              <path id="Path_263" data-name="Path 263" d="M296.657,906.112s-21.853,7.946-30.447,24.2l-.027.051a21.653,21.653,0,0,0-2.473,11.1,43.564,43.564,0,0,0,2.067,11.541c2.806,9.152,5.855,12.9,5.855,12.9-6.753-3.192-11.406-7.756-13.82-15.355q-.354-1.125-.647-2.342c-.046-.187-.087-.372-.125-.56,0,0,0-.005,0-.012a53.052,53.052,0,0,1-.67-6.4c-.333-7.6.9-18.034,8.522-25.075,14.256-13.166,32.237-11.245,31.767-10.051" transform="translate(-256.32 -905.26)" fill="#fff"/>
            </g>
          </g>
        </g>
        <g id="Group_495" data-name="Group 495" transform="translate(73.089 78.243)" opacity="0.5">
          <g id="Group_494" data-name="Group 494">
            <g id="Group_493" data-name="Group 493" clip-path="url(#clip-path-46)">
              <path id="Path_264" data-name="Path 264" d="M1021.2,1103.27c2.386,3.782,6.994,5.172,10.292,3.1s4.038-6.811,1.653-10.593-6.994-5.172-10.292-3.1-4.039,6.811-1.653,10.593" transform="translate(-1019.8 -1091.719)" fill="#fff"/>
            </g>
          </g>
        </g>
        <g id="Group_498" data-name="Group 498" transform="translate(85.226 95.306)" opacity="0.5">
          <g id="Group_497" data-name="Group 497">
            <g id="Group_496" data-name="Group 496" clip-path="url(#clip-path-47)">
              <path id="Path_265" data-name="Path 265" d="M1189.905,1334.734a3.17,3.17,0,0,0,4.348.92,3.131,3.131,0,0,0,.308-4.411,3.169,3.169,0,0,0-4.348-.92,3.131,3.131,0,0,0-.308,4.411" transform="translate(-1189.151 -1329.802)" fill="#fff"/>
            </g>
          </g>
        </g>
      </g>
    </g>
    <g id="Group_502" data-name="Group 502" transform="translate(191.189 109.819)">
      <g id="Group_501" data-name="Group 501" clip-path="url(#clip-path-48)">
        <rect id="Rectangle_423" data-name="Rectangle 423" width="6.508" height="17.819" transform="translate(-0.149 0)" fill="url(#radial-gradient-24)"/>
      </g>
    </g>
    <g id="Group_504" data-name="Group 504" transform="translate(123.89 119.96)">
      <g id="Group_503" data-name="Group 503" clip-path="url(#clip-path-49)">
        <rect id="Rectangle_424" data-name="Rectangle 424" width="23.034" height="26.792" transform="translate(-0.285)" fill="url(#radial-gradient-25)"/>
      </g>
    </g>
    <g id="Group_506" data-name="Group 506" transform="translate(179.936 96.347)">
      <g id="Group_505" data-name="Group 505" clip-path="url(#clip-path-50)">
        <rect id="Rectangle_425" data-name="Rectangle 425" width="11.239" height="35.723" transform="translate(-0.124 0)" fill="url(#radial-gradient-26)"/>
      </g>
    </g>
    <g id="Group_508" data-name="Group 508" transform="translate(0 0)">
      <g id="Group_507" data-name="Group 507" clip-path="url(#clip-path)">
        <path id="Path_269" data-name="Path 269" d="M1390.51,375.369a.852.852,0,0,1-.686-1.358l2.772-3.766-2.655.389a.852.852,0,0,1-.247-1.687l4.676-.685a.852.852,0,0,1,.81,1.348l-2.772,3.766,2.655-.389a.852.852,0,1,1,.247,1.686l-4.676.685a.85.85,0,0,1-.124.009" transform="translate(-1289.418 -341.861)" fill="#00d349"/>
        <path id="Path_270" data-name="Path 270" d="M1187.666,233.692a.852.852,0,0,1-.686-1.358l5.44-7.391-5.787.848a.852.852,0,0,1-.247-1.687l7.807-1.144a.852.852,0,0,1,.81,1.349l-5.44,7.39,5.787-.848a.852.852,0,1,1,.247,1.687l-7.807,1.144a.852.852,0,0,1-.124.009" transform="translate(-1100.682 -206.974)" fill="#00d349"/>
        <path id="Path_271" data-name="Path 271" d="M1346.5,14.509a.91.91,0,0,1-.733-1.449l8.046-10.929-8.8,1.29a.91.91,0,0,1-.264-1.8L1355.7.014a.91.91,0,0,1,.865,1.44l-8.046,10.929,8.8-1.29a.91.91,0,1,1,.264,1.8L1346.629,14.5a.905.905,0,0,1-.132.01" transform="translate(-1247.642 -0.004)" fill="#00d349"/>
      </g>
    </g>
  </g>
</svg>
