<svg xmlns="http://www.w3.org/2000/svg" xmlns:xlink="http://www.w3.org/1999/xlink" width="160.921" height="160.097" viewBox="0 0 160.921 160.097">
  <defs>
    <clipPath id="clip-path">
      <rect id="Rectangle_430" data-name="Rectangle 430" width="160.921" height="160.097" transform="translate(0 0)" fill="none"/>
    </clipPath>
  </defs>
  <g id="Group_518" data-name="Group 518" transform="translate(0 -0.002)">
    <g id="Group_517" data-name="Group 517" transform="translate(0 0.002)" clip-path="url(#clip-path)">
      <path id="Path_285" data-name="Path 285" d="M167.014,292.3,135.1,237.017l-7.719-13.371L112.459,197.8a17.571,17.571,0,0,0-14.488-8.858q-.446-.023-.892-.022a18.049,18.049,0,0,0-4.319.524A17.515,17.515,0,0,0,81.7,197.8L55.989,242.331,48.27,255.7,27.142,292.3a17.736,17.736,0,0,0,15.38,26.639H151.634a17.576,17.576,0,0,0,15.019-8.281,18.091,18.091,0,0,0,1.858-3.929,17.52,17.52,0,0,0-1.5-14.43m-67.7,15.285H42.522a6.885,6.885,0,0,1-1.3-.121,6.036,6.036,0,0,1-1.985-.755,6.614,6.614,0,0,1-3.147-5.451,6.274,6.274,0,0,1,.883-3.281L66.17,247.407l7.72-13.372L91.531,203.48a7.185,7.185,0,0,1,.423-.65,6.208,6.208,0,0,1,1.422-1.408,5.913,5.913,0,0,1,.554-.348,6.615,6.615,0,0,1,6.294,0,6.275,6.275,0,0,1,2.4,2.406L125.612,243.3l7.719,13.37,23.849,41.308q.13.226.242.455a6.334,6.334,0,0,1,.571,1.8,5.972,5.972,0,0,1,.07,1.026,6.614,6.614,0,0,1-3.147,5.451,6.278,6.278,0,0,1-3.283.876Z" transform="translate(-23.802 -181.787)" fill="#00d349"/>
      <path id="Path_286" data-name="Path 286" d="M1754.413,1198.581a7.385,7.385,0,0,0-9.889,7.678l2.829,28.026,1.289,12.769a3.137,3.137,0,0,0,6.241.016l1.4-13.216,1.631-15.354,1.3-12.2a7.389,7.389,0,0,0-4.8-7.716" transform="translate(-1678.595 -1152.878)" fill="#00d349"/>
      <path id="Path_287" data-name="Path 287" d="M1762.027,2693.554a6.773,6.773,0,0,0-8,6.662v.055a6.774,6.774,0,0,0,13.548,0v-.055a6.776,6.776,0,0,0-5.546-6.662" transform="translate(-1687.773 -2591.709)" fill="#00d349"/>
      <path id="Path_288" data-name="Path 288" d="M2790.364,1176.636a19.257,19.257,0,0,0-1.221-5,19.942,19.942,0,0,0-2.655-4.731l-44.253-58.67,7.719,13.371,35.026,46.436a17.755,17.755,0,0,1-1.613,23.273,18.108,18.108,0,0,1-1.858,3.929q.714-.463,1.387-.989a19.856,19.856,0,0,0,7.468-17.616" transform="translate(-2638.657 -1066.374)" fill="#333"/>
      <path id="Path_289" data-name="Path 289" d="M132.448,286a17.753,17.753,0,0,1-18.523-24.558l24.687-58.232,17.9-42.225a17.594,17.594,0,0,1,14.179-10.695,18.04,18.04,0,0,1,4.69.035,18.048,18.048,0,0,1,4.319-.524q.446,0,.892.022-.168-.072-.337-.14a19.856,19.856,0,0,0-18.99,2.34,19.26,19.26,0,0,0-3.723,3.559,19.934,19.934,0,0,0-2.769,4.664l-23.881,56.332-18.706,44.126a19.94,19.94,0,0,0-1.427,5.233,19.229,19.229,0,0,0,.4,7.071,19.874,19.874,0,0,0,11.15,13.355,19.256,19.256,0,0,0,4.943,1.444,19.938,19.938,0,0,0,5.424.066l65.395-8.06H182.633Z" transform="translate(-106.424 -142.667)" fill="#333"/>
      <path id="Path_290" data-name="Path 290" d="M581.07,588.527l-35.447-46.995-30.258-40.115a6.426,6.426,0,0,0-1.978-1.758,5.912,5.912,0,0,0-.7-.336,6.615,6.615,0,0,0-6.247.77,6.281,6.281,0,0,0-2.088,2.681l-18.174,42.87-24.413,57.588a6.467,6.467,0,0,0-.534,2.466,6.885,6.885,0,0,0,1.3.12h.59a4.567,4.567,0,0,1,.384-1.849l30.395-71.7,12.192-28.76a4.416,4.416,0,0,1,1.459-1.891,4.728,4.728,0,0,1,4.412-.553l.017.007a4.422,4.422,0,0,1,1.875,1.48L553.343,554.9l26.22,34.762a4.415,4.415,0,0,1,.908,2.21,4.727,4.727,0,0,1-1.742,4.109,4.172,4.172,0,0,1-1.3.683,5,5,0,0,1-.924.2l-72.624,8.951h15.439l57.416-7.077a6.839,6.839,0,0,0,1.264-.275,6.032,6.032,0,0,0,1.887-.995,6.617,6.617,0,0,0,2.457-5.795,6.277,6.277,0,0,0-1.279-3.149" transform="translate(-443.813 -480.024)" fill="#333"/>
      <path id="Path_291" data-name="Path 291" d="M1611.63,1153.91a7.45,7.45,0,0,1,.916-.057,7.33,7.33,0,0,1,1.4.135,7.443,7.443,0,0,1,4.568.167,9.27,9.27,0,0,0-15.028,9.136l9.078,39.984a5.026,5.026,0,0,0,9.926-1.2l-.471-28-1.631,15.354.213,12.682a3.137,3.137,0,0,1-6.2.747l-2.951-13-6.126-26.986a7.384,7.384,0,0,1,6.3-8.963" transform="translate(-1542.7 -1108.453)" fill="#333"/>
      <path id="Path_292" data-name="Path 292" d="M1860.594,2652.427a6.844,6.844,0,0,1-.837.052,6.783,6.783,0,0,0-3.391.242,6.77,6.77,0,0,1-2.115-.337c.061.05.123.1.185.148a8.66,8.66,0,0,0,13.928-7.888l-.007-.054a8.66,8.66,0,0,0-15.013-4.761,6.747,6.747,0,0,1,3.022-.71,4.175,4.175,0,0,0,2.564-.192,6.768,6.768,0,0,1,7.552,5.895l.007.054a6.774,6.774,0,0,1-5.895,7.552" transform="translate(-1783.341 -2537.384)" fill="#333"/>
      <path id="Path_293" data-name="Path 293" d="M2700.837,748.9l.98,1.627a1.759,1.759,0,1,0,3.012-1.815l-.98-1.627a1.759,1.759,0,1,0-3.012,1.815" transform="translate(-2598.58 -718.043)" fill="#333"/>
      <path id="Path_294" data-name="Path 294" d="M2808.476,927.553l.98,1.627a1.759,1.759,0,0,0,3.013-1.815l-.98-1.627a1.759,1.759,0,0,0-3.013,1.815" transform="translate(-2702.153 -889.953)" fill="#333"/>
      <path id="Path_295" data-name="Path 295" d="M2916.115,1106.21l.98,1.627a1.759,1.759,0,1,0,3.012-1.815l-.98-1.627a1.73,1.73,0,0,0-.192-.261,1.759,1.759,0,0,0-2.82,2.076" transform="translate(-2805.727 -1061.862)" fill="#333"/>
      <path id="Path_296" data-name="Path 296" d="M2387.362,222.2a1.759,1.759,0,0,0,3.013-1.815l-.98-1.627a1.759,1.759,0,0,0-3.012,1.815Z" transform="translate(-2296.002 -209.676)" fill="#333"/>
      <path id="Path_297" data-name="Path 297" d="M2494.021,399.23l.98,1.627a1.759,1.759,0,0,0,3.013-1.815l-.98-1.627a1.739,1.739,0,0,0-.192-.261,1.759,1.759,0,0,0-2.82,2.076" transform="translate(-2399.576 -381.585)" fill="#333"/>
      <path id="Path_298" data-name="Path 298" d="M2601.661,577.888l.98,1.627a1.758,1.758,0,1,0,3.012-1.815l-.98-1.627a1.812,1.812,0,0,0-.192-.261,1.759,1.759,0,0,0-2.821,2.076" transform="translate(-2503.15 -553.495)" fill="#333"/>
      <path id="Path_299" data-name="Path 299" d="M1313.69,3817.473l-1.884.242a1.758,1.758,0,1,0,.447,3.488l1.884-.241a1.759,1.759,0,0,0-.447-3.489" transform="translate(-1260.78 -3673.268)" fill="#333"/>
      <path id="Path_300" data-name="Path 300" d="M1520.578,3790.972l-1.884.242a1.687,1.687,0,0,0-.317.07,1.759,1.759,0,0,0,.764,3.418l1.884-.242a1.758,1.758,0,1,0-.447-3.488" transform="translate(-1459.854 -3647.769)" fill="#333"/>
      <path id="Path_301" data-name="Path 301" d="M1727.465,3764.47l-1.884.242a1.758,1.758,0,1,0,.447,3.488l1.884-.241a1.759,1.759,0,1,0-.447-3.489" transform="translate(-1658.927 -3622.267)" fill="#333"/>
      <path id="Path_302" data-name="Path 302" d="M703.44,3892.316l-1.884.241a1.759,1.759,0,0,0,.447,3.489l1.884-.241a1.759,1.759,0,0,0-.447-3.489" transform="translate(-673.58 -3745.285)" fill="#333"/>
      <path id="Path_303" data-name="Path 303" d="M910.327,3865.815l-1.884.242a1.758,1.758,0,1,0,.447,3.488l1.884-.241a1.759,1.759,0,1,0-.447-3.489" transform="translate(-872.653 -3719.785)" fill="#333"/>
      <path id="Path_304" data-name="Path 304" d="M1117.215,3839.313l-1.884.241a1.758,1.758,0,1,0,.447,3.488l1.884-.241a1.758,1.758,0,1,0-.447-3.488" transform="translate(-1071.726 -3694.284)" fill="#333"/>
      <path id="Path_305" data-name="Path 305" d="M3251.181,1538.85l2.51-2.509a1.353,1.353,0,0,0-1.914-1.914l-2.509,2.509a1.353,1.353,0,0,0,1.914,1.914" transform="translate(-3126.157 -1476.089)" fill="#333"/>
      <path id="Path_306" data-name="Path 306" d="M3532.887,1257.144l2.509-2.51a1.353,1.353,0,0,0-1.914-1.914l-2.51,2.509a1.353,1.353,0,0,0,1.914,1.914" transform="translate(-3397.223 -1205.022)" fill="#333"/>
      <path id="Path_307" data-name="Path 307" d="M3533.484,1538.85a1.353,1.353,0,0,0,1.914-1.914l-2.509-2.509a1.353,1.353,0,0,0-1.914,1.914Z" transform="translate(-3397.223 -1476.088)" fill="#333"/>
      <path id="Path_308" data-name="Path 308" d="M3251.778,1257.145a1.353,1.353,0,0,0,1.914-1.914l-2.509-2.509a1.353,1.353,0,1,0-1.914,1.914Z" transform="translate(-3126.158 -1205.023)" fill="#333"/>
      <path id="Path_309" data-name="Path 309" d="M3965.938,3498.861l-1.772,1.772a.956.956,0,0,0,1.352,1.352l1.772-1.772a.956.956,0,0,0-1.352-1.352" transform="translate(-3814.165 -3366.435)" fill="#333"/>
      <path id="Path_310" data-name="Path 310" d="M4164.505,3303l1.773-1.772a.956.956,0,0,0-1.353-1.352l-1.772,1.772a.956.956,0,0,0,1.352,1.352" transform="translate(-4005.637 -3174.963)" fill="#333"/>
      <path id="Path_311" data-name="Path 311" d="M4164.505,3498.861a.956.956,0,0,0-1.352,1.352l1.772,1.772a.956.956,0,0,0,1.353-1.352Z" transform="translate(-4005.637 -3366.435)" fill="#333"/>
      <path id="Path_312" data-name="Path 312" d="M3965.518,3299.874a.956.956,0,0,0-1.352,1.352l1.772,1.772a.956.956,0,1,0,1.352-1.352Z" transform="translate(-3814.165 -3174.964)" fill="#333"/>
      <path id="Path_313" data-name="Path 313" d="M2.052,2343.121.28,2344.893a.956.956,0,0,0,1.352,1.352l1.773-1.773a.956.956,0,0,0-1.352-1.352" transform="translate(0 -2254.349)" fill="#333"/>
      <path id="Path_314" data-name="Path 314" d="M200.619,2147.258l1.773-1.772a.956.956,0,1,0-1.352-1.352l-1.773,1.772a.956.956,0,1,0,1.352,1.352" transform="translate(-191.472 -2062.877)" fill="#333"/>
      <path id="Path_315" data-name="Path 315" d="M201.039,2346.246a.956.956,0,0,0,1.352-1.352l-1.773-1.772a.956.956,0,1,0-1.352,1.352Z" transform="translate(-191.471 -2254.35)" fill="#333"/>
      <path id="Path_316" data-name="Path 316" d="M1.632,2144.134a.956.956,0,0,0-1.352,1.352l1.773,1.772a.956.956,0,1,0,1.352-1.352Z" transform="translate(0 -2062.877)" fill="#333"/>
      <path id="Path_317" data-name="Path 317" d="M967.163,202.393l1.773-1.773a.956.956,0,1,0-1.352-1.352l-1.773,1.773a.956.956,0,0,0,1.352,1.352" transform="translate(-929.062 -191.473)" fill="#333"/>
      <path id="Path_318" data-name="Path 318" d="M1166.15,3.406l1.772-1.773A.956.956,0,1,0,1166.57.282L1164.8,2.055a.956.956,0,0,0,1.352,1.352" transform="translate(-1120.533 -0.002)" fill="#333"/>
      <path id="Path_319" data-name="Path 319" d="M1166.57,202.395a.956.956,0,1,0,1.352-1.352l-1.772-1.773a.956.956,0,0,0-1.352,1.352Z" transform="translate(-1120.533 -191.474)" fill="#333"/>
      <path id="Path_320" data-name="Path 320" d="M967.582,3.406a.956.956,0,1,0,1.352-1.352L967.161.282a.956.956,0,1,0-1.352,1.352Z" transform="translate(-929.06 -0.002)" fill="#333"/>
      <path id="Path_321" data-name="Path 321" d="M225.351,4141.328l-1.773,1.772a.956.956,0,0,0,1.352,1.352l1.773-1.773a.956.956,0,0,0-1.352-1.351" transform="translate(-214.865 -3984.635)" fill="#333"/>
      <path id="Path_322" data-name="Path 322" d="M424.338,3942.338l-1.773,1.773a.956.956,0,0,0,1.352,1.352l1.773-1.772a.956.956,0,0,0-1.352-1.352" transform="translate(-406.335 -3793.162)" fill="#333"/>
      <path id="Path_323" data-name="Path 323" d="M423.918,4141.328a.956.956,0,1,0-1.352,1.351l1.773,1.773a.956.956,0,0,0,1.352-1.352Z" transform="translate(-406.335 -3984.635)" fill="#333"/>
      <path id="Path_324" data-name="Path 324" d="M224.931,3942.34a.956.956,0,0,0-1.352,1.352l1.773,1.772a.956.956,0,1,0,1.352-1.352Z" transform="translate(-214.865 -3793.164)" fill="#333"/>
    </g>
  </g>
</svg>
