<svg xmlns="http://www.w3.org/2000/svg" xmlns:xlink="http://www.w3.org/1999/xlink" width="207.751" height="226.189" viewBox="0 0 207.751 226.189">
  <defs>
    <radialGradient id="radial-gradient" cx="0.5" cy="0.5" r="0.5" gradientUnits="objectBoundingBox">
      <stop offset="0"/>
      <stop offset="1" stop-opacity="0"/>
    </radialGradient>
    <clipPath id="clip-path">
      <rect id="Rectangle_376" data-name="Rectangle 376" width="197.724" height="213.874" fill="none"/>
    </clipPath>
    <clipPath id="clip-path-3">
      <rect id="Rectangle_297" data-name="Rectangle 297" width="130.804" height="63.615" fill="none"/>
    </clipPath>
    <clipPath id="clip-path-4">
      <rect id="Rectangle_298" data-name="Rectangle 298" width="50.436" height="33.232" fill="none"/>
    </clipPath>
    <clipPath id="clip-path-5">
      <rect id="Rectangle_299" data-name="Rectangle 299" width="69.236" height="33.967" fill="none"/>
    </clipPath>
    <clipPath id="clip-path-6">
      <path id="Path_145" data-name="Path 145" d="M852.366,1197.733l84.744,7.151,32.03,14.87,2.134,10.948a37.756,37.756,0,0,0-9.143-2.5c-5.222-.7-9.4.084-12.424,2.325a17.946,17.946,0,0,0-5.381,6.977c-1.166,2.28-2.173,4.25-4.615,5.73-3.241,1.965-7.218,1.868-11.428,1.764-4.81-.118-9.783-.24-13.978,2.8a32.076,32.076,0,0,0-4.378,4.015c-4.253,4.436-8.27,8.626-25.386,6.389a2.19,2.19,0,0,1-1.594-1.045,101.17,101.17,0,0,0-14.538-18.619,50.086,50.086,0,0,0-12.262-9.149,25.7,25.7,0,0,0-11.584-2.989q-.488,0-.973.022Zm-12.219,31.549,1.9-.264c7.665-1.063,15.954,2.726,24.638,11.262a98.613,98.613,0,0,1,14.16,18.142,4.632,4.632,0,0,0,3.374,2.2,67.993,67.993,0,0,0,8.766.634c11.27,0,15.042-3.933,18.71-7.759a29.743,29.743,0,0,1,4.045-3.725c3.524-2.55,7.874-2.443,12.48-2.33,4.378.108,8.9.219,12.76-2.119,3.037-1.842,4.3-4.317,5.527-6.711a15.484,15.484,0,0,1,4.658-6.124c3.1-2.3,7.5-2.284,10.637-1.864a34.658,34.658,0,0,1,9.39,2.719,1.913,1.913,0,0,0,2.684-2.1l-2.57-13.19-33.56-15.58-87.15-7.354Z" transform="translate(-840.147 -1195.122)" fill="none"/>
    </clipPath>
    <radialGradient id="radial-gradient-2" cx="-0.455" cy="1.924" r="0.001" gradientUnits="objectBoundingBox">
      <stop offset="0" stop-color="#130c0e"/>
      <stop offset="0.574" stop-color="#130c0e"/>
      <stop offset="0.798" stop-color="#130c0e"/>
      <stop offset="1" stop-color="#130c0e"/>
    </radialGradient>
    <clipPath id="clip-path-8">
      <rect id="Rectangle_302" data-name="Rectangle 302" width="135.628" height="41.569" fill="none"/>
    </clipPath>
    <clipPath id="clip-path-9">
      <path id="Path_148" data-name="Path 148" d="M945.953,1154.392c-6.518-5.465-23.948-18.76-44.958-24.167-12.507-3.219-31.819-4.859-48.857-6.305-9.6-.815-18.658-1.584-25.431-2.543a61.456,61.456,0,0,1-8.179-1.588c-2.676-.781-3.052-1.407-3.086-1.476-.327-.66-.619-1.3-.872-1.89,7.457,2.593,19.127,2.368,33.445,2.092,26.148-.5,61.96-1.194,90.682,16.755a16.272,16.272,0,0,1,5.4,6.855,29.5,29.5,0,0,1,2.668,11.881.471.471,0,0,1-.281.451.523.523,0,0,1-.222.052.467.467,0,0,1-.306-.118M811.2,1114.518a43.357,43.357,0,0,0,2.049,4.883c.561,1.133,1.979,1.979,4.6,2.743a63.693,63.693,0,0,0,8.522,1.662c6.841.968,15.937,1.741,25.567,2.558,16.942,1.438,36.145,3.069,48.453,6.236,20.524,5.282,37.6,18.314,43.993,23.671a2.919,2.919,0,0,0,1.882.692,2.966,2.966,0,0,0,1.279-.293,2.913,2.913,0,0,0,1.677-2.709,31.969,31.969,0,0,0-2.9-12.875,18.447,18.447,0,0,0-6.318-7.9c-13.034-8.145-28.4-13.263-46.973-15.644-15.938-2.044-31.408-1.745-45.056-1.483-7.758.15-15.086.291-21.1-.07-6.516-.391-10.94-1.327-13.922-2.943l-2.74-1.486Z" transform="translate(-810.203 -1111.563)" fill="none"/>
    </clipPath>
    <radialGradient id="radial-gradient-3" cx="-0.422" cy="2.937" r="0.002" xlink:href="#radial-gradient-2"/>
    <clipPath id="clip-path-11">
      <rect id="Rectangle_305" data-name="Rectangle 305" width="26.104" height="16.18" fill="none"/>
    </clipPath>
    <clipPath id="clip-path-12">
      <path id="Path_151" data-name="Path 151" d="M81.56,1233.879c-3.135-1.314-5.272-4.266-6.352-8.776-.952-3.975-.306-8.993,1.922-14.916a84.746,84.746,0,0,1,8.528-16.13,160.728,160.728,0,0,1,13.562-17.7l12.326-1.687-12.964,56.316c-1.585.872-7.171,3.718-12.534,3.718a11.569,11.569,0,0,1-4.489-.828M98,1174.051l-.3.326a161.919,161.919,0,0,0-14.082,18.308,87.252,87.252,0,0,0-8.784,16.623c-2.408,6.4-3.087,11.9-2.017,16.366,1.273,5.315,3.9,8.837,7.8,10.469a14,14,0,0,0,5.438,1.015q.647,0,1.318-.047a26.107,26.107,0,0,0,6.315-1.32,35.781,35.781,0,0,0,6.6-2.951l.445-.269,14-60.81Z" transform="translate(-72.331 -1171.761)" fill="none"/>
    </clipPath>
    <radialGradient id="radial-gradient-4" cx="-0.108" cy="1.972" r="0.001" xlink:href="#radial-gradient-2"/>
    <clipPath id="clip-path-14">
      <rect id="Rectangle_308" data-name="Rectangle 308" width="47.944" height="71.016" fill="none"/>
    </clipPath>
    <clipPath id="clip-path-15">
      <path id="Path_154" data-name="Path 154" d="M243.481,1935.273c-3.817,22.113-5.2,37.121-6.11,47.052-.58,6.309-1,10.867-1.742,13.962-.7,2.9-1.657,4.487-3.317,5.49-2.163,1.307-7.107,3.5-15.931,3.5h-.029c-7.405,0-14.284-.242-17.081-3.074a5.374,5.374,0,0,1-1.44-4.055c.031-2.62,2.61-4.592,4.769-5.784a25.532,25.532,0,0,1,5.145-2.094l1.066-.279-.163-1.09c-2.749-18.332-1.489-50.194-1.476-50.514a1.227,1.227,0,0,0-2.451-.1c0,.081-.328,8.166-.306,18.427.02,9.149.327,21.889,1.656,31.5-2.887.941-10.623,4.011-10.693,9.906a7.8,7.8,0,0,0,2.148,5.808c3.466,3.509,10.576,3.8,18.825,3.8h.03c9.418,0,14.818-2.411,17.2-3.85,2.254-1.361,3.58-3.46,4.434-7.017.785-3.266,1.21-7.9,1.8-14.31.909-9.893,2.284-24.842,6.084-46.859a1.227,1.227,0,1,0-2.418-.417" transform="translate(-195.377 -1934.255)" fill="none"/>
    </clipPath>
    <radialGradient id="radial-gradient-5" cx="-0.279" cy="1.003" r="0.001" xlink:href="#radial-gradient-2"/>
    <clipPath id="clip-path-17">
      <rect id="Rectangle_311" data-name="Rectangle 311" width="0.22" height="3.531" fill="none"/>
    </clipPath>
    <clipPath id="clip-path-18">
      <rect id="Rectangle_312" data-name="Rectangle 312" width="0.168" height="2.028" fill="none"/>
    </clipPath>
    <clipPath id="clip-path-19">
      <rect id="Rectangle_313" data-name="Rectangle 313" width="0.213" height="1.932" fill="none"/>
    </clipPath>
    <clipPath id="clip-path-20">
      <rect id="Rectangle_314" data-name="Rectangle 314" width="0.275" height="2.259" fill="none"/>
    </clipPath>
    <clipPath id="clip-path-21">
      <rect id="Rectangle_315" data-name="Rectangle 315" width="0.375" height="3.194" fill="none"/>
    </clipPath>
    <clipPath id="clip-path-22">
      <rect id="Rectangle_316" data-name="Rectangle 316" width="75.273" height="37.221" fill="none"/>
    </clipPath>
    <clipPath id="clip-path-23">
      <path id="Path_162" data-name="Path 162" d="M375.039,1047.437h0m-61.862-65.182h0m13.1-5.56a49.627,49.627,0,0,0-7.359,1.249,29.238,29.238,0,0,0-3.6,1.151,19.313,19.313,0,0,0-3.42,1.737l-.214.14-.084.129q-.475.731-.942,1.468t-.926,1.481c-.609.993-1.211,1.991-1.779,3.013a.412.412,0,0,0,.661.482c.8-.853,1.567-1.731,2.327-2.613q.568-.664,1.128-1.333.475-.569.945-1.142c.468-.23.949-.44,1.438-.635q.8-.317,1.638-.581c1.109-.354,2.246-.646,3.4-.9a58.342,58.342,0,0,1,7.04-1.023c2.375-.212,4.768-.321,7.165-.347q1.8-.021,3.6.028c1.2.032,2.4.083,3.6.163,2.4.153,4.786.4,7.155.757a61.732,61.732,0,0,1,7,1.433,29.143,29.143,0,0,1,3.316,1.1,13.661,13.661,0,0,1,1.508.719,7.174,7.174,0,0,1,.658.416,3.831,3.831,0,0,1,.522.442c.038.036.064.072.1.107s.058.069.077.1a.821.821,0,0,1,.1.166.267.267,0,0,1,.027.1l0,.009,0,.058.009.116.018.233.036.465.043.464.043.464.05.463c.135,1.234.309,2.462.513,3.681.409,2.439.938,4.845,1.522,7.226.075.3.148.6.226.9l.242.889.485,1.765.973,3.516c1.3,4.684,2.573,9.363,3.714,14.067.571,2.351,1.109,4.709,1.595,7.073s.921,4.735,1.274,7.111.621,4.759.742,7.135c.069,1.188.078,2.372.055,3.55l-.036.88-.009.22-.017.218-.035.437c-.034.585-.121,1.156-.187,1.732l-.009.08v.021a31.665,31.665,0,0,1-1.686,8.636,25.05,25.05,0,0,1-1.826,3.961c-.37.626-.751,1.246-1.175,1.839-.2.3-.428.589-.646.881l-.082.109-.086.107-.172.213c-.116.141-.226.287-.346.424a34.839,34.839,0,0,1-6.57,5.907c-.306.214-.609.431-.92.639l-.465.315-.47.308-.235.154-.118.077-.115.071-.46.285c-.155.092-.313.18-.469.27-.079.044-.156.091-.236.133l-.24.126-.24.126-.12.063-.122.059-.488.237c-.331.147-.659.3-1,.433s-.677.264-1.017.391-.688.239-1.038.341a35.721,35.721,0,0,1-8.732,1.4c-1.493.075-3,.086-4.506.064q-1.132-.018-2.268-.058l-1.137-.044-1.143-.052c-.762-.037-1.516-.064-2.266-.116-.376-.021-.75-.051-1.124-.081l-.562-.045-.561-.053c-1.495-.144-2.982-.336-4.457-.587a46.355,46.355,0,0,1-8.627-2.277c-.173-.066-.347-.129-.519-.2l-.514-.209-.257-.1-.254-.11-.508-.221c-.671-.306-1.338-.623-1.985-.972s-1.284-.715-1.908-1.1c-.307-.2-.618-.393-.917-.6-.15-.1-.3-.2-.45-.313l-.443-.323c-.582-.441-1.155-.894-1.694-1.382l-.2-.181-.2-.187c-.132-.125-.267-.247-.4-.375l-.385-.386q-.1-.095-.189-.2l-.186-.2c-.253-.261-.486-.539-.727-.81s-.465-.556-.682-.847-.432-.582-.645-.875-.409-.6-.6-.908-.373-.621-.556-.933-.348-.635-.5-.962-.311-.655-.462-.984-.286-.667-.41-1.008-.248-.682-.367-1.026c-.057-.172-.108-.347-.163-.52-.027-.087-.055-.173-.08-.261l-.073-.263c-.2-.7-.361-1.411-.5-2.128l-.1-.539-.083-.542c-.03-.18-.051-.362-.074-.544s-.049-.363-.065-.545l-.053-.547c-.019-.182-.027-.366-.041-.549-.03-.365-.04-.733-.057-1.1-.017-.735-.025-1.472.008-2.209.008-.369.037-.737.056-1.106.012-.184.029-.368.044-.553s.028-.369.05-.552l.058-.552c.018-.184.046-.368.068-.552s.044-.368.073-.551l.083-.55c.026-.182.058-.37.09-.557l.094-.562.188-1.124c.128-.749.266-1.5.4-2.245l.421-2.242.444-2.239.234-1.118c.079-.372.156-.745.24-1.117.326-1.489.671-2.974,1.014-4.463s.681-2.982.991-4.482c.155-.75.3-1.5.443-2.257s.271-1.511.4-2.268.238-1.518.341-2.28.19-1.527.266-2.293.134-1.535.178-2.305.067-1.544.06-2.32a.415.415,0,0,0-.806-.134l0,0c-.258.731-.481,1.467-.694,2.2s-.424,1.473-.619,2.211-.394,1.475-.574,2.215-.368,1.479-.539,2.22-.348,1.483-.518,2.225l-.255,1.114-.25,1.116q-.495,2.234-.951,4.482l-.911,4.5-.454,2.257-.446,2.26-.425,2.266c-.134.757-.273,1.513-.4,2.27l-.19,1.137-.1.568c-.032.189-.064.378-.092.575l-.088.583c-.03.194-.052.391-.078.586s-.053.39-.072.586l-.062.588c-.023.2-.037.393-.053.589s-.034.393-.047.59c-.021.395-.051.788-.06,1.184-.034.79-.027,1.583-.008,2.376.018.4.029.793.061,1.189.015.2.024.4.045.595l.058.594c.018.2.047.4.07.593s.048.4.08.592l.091.591.107.589c.15.784.326,1.565.546,2.335l.08.29c.028.1.059.191.088.287.06.191.118.383.18.574.131.379.258.759.406,1.133s.3.745.454,1.116.329.733.512,1.091.37.714.56,1.068.4.7.617,1.037.439.674.662,1.008.465.656.715.971.5.628.756.939.525.608.8.9l.206.219q.1.111.209.216l.425.425c.143.141.291.275.436.413l.219.206.225.2c.594.537,1.222,1.034,1.858,1.516l.483.353c.16.119.327.227.491.342.326.23.663.44,1,.657.676.419,1.361.824,2.063,1.191s1.414.716,2.133,1.044l.543.236.272.118.274.111.548.223c.183.073.368.14.552.211a48.812,48.812,0,0,0,9.081,2.4c1.539.261,3.085.461,4.634.61l.581.055.581.047c.388.031.775.062,1.163.083.776.053,1.55.081,2.314.118,3.059.145,6.162.242,9.282.089.78-.038,1.561-.091,2.343-.168.391-.034.782-.082,1.172-.126s.781-.1,1.172-.163.78-.128,1.17-.2.778-.149,1.165-.24.774-.183,1.16-.279.769-.208,1.15-.33.761-.247,1.14-.375.753-.275,1.123-.432.739-.317,1.106-.481l.543-.263.136-.066.134-.07.267-.141.267-.141c.089-.047.176-.1.263-.148.175-.1.351-.2.524-.3l.515-.318.129-.08.122-.08.245-.16.489-.32.485-.328c.325-.216.643-.444.963-.669a43.5,43.5,0,0,0,3.7-2.926c.074-.066.149-.13.222-.2l.218-.2.436-.4.426-.415.213-.208c.071-.07.139-.142.208-.213l.415-.428c.137-.144.269-.293.4-.439.272-.29.527-.6.788-.9.131-.15.252-.31.378-.464l.188-.233.094-.117.09-.12c.24-.32.484-.636.709-.968.466-.651.887-1.334,1.294-2.024a27.518,27.518,0,0,0,2.009-4.357,31.2,31.2,0,0,0,1.241-4.608,37.819,37.819,0,0,0,.582-4.672c.073-.606.16-1.214.2-1.818l.037-.473.018-.236.01-.235.038-.942c.025-1.253.014-2.5-.057-3.741-.127-2.481-.4-4.936-.766-7.369s-.8-4.847-1.3-7.247-1.038-4.784-1.614-7.158c-1.152-4.748-2.436-9.453-3.734-14.142l-.972-3.514-.481-1.752-.237-.87c-.075-.29-.144-.578-.217-.867-.575-2.341-1.09-4.688-1.485-7.046-.2-1.179-.364-2.36-.494-3.542l-.048-.444-.041-.444-.041-.444-.034-.444-.017-.222-.008-.111,0-.056-.011-.1a2.706,2.706,0,0,0-.2-.783,3.264,3.264,0,0,0-.35-.627c-.064-.1-.132-.175-.2-.262s-.138-.16-.208-.231a6.235,6.235,0,0,0-.864-.739,9.616,9.616,0,0,0-.882-.559,16.059,16.059,0,0,0-1.781-.852,31.527,31.527,0,0,0-3.6-1.2A64.125,64.125,0,0,0,348.4,977.5c-2.44-.366-4.889-.636-7.343-.828s-4.916-.3-7.382-.306h-.266c-2.377,0-4.759.1-7.137.332" transform="translate(-297.157 -976.363)" fill="none"/>
    </clipPath>
    <radialGradient id="radial-gradient-6" cx="-0.275" cy="1.417" r="0.001" xlink:href="#radial-gradient-2"/>
    <clipPath id="clip-path-24">
      <path id="Path_163" data-name="Path 163" d="M329.6,2454.819a.906.906,0,0,0,.384,1.222,40.012,40.012,0,0,0,12.513,4.071,43.548,43.548,0,0,0,6.569.491q2.146,0,4.321-.2a41.449,41.449,0,0,0,10.662-2.318.906.906,0,0,0-.674-1.682,42.206,42.206,0,0,1-32.553-1.965.905.905,0,0,0-1.222.384" transform="translate(-329.494 -2454.332)" fill="none"/>
    </clipPath>
    <radialGradient id="radial-gradient-7" cx="0.5" cy="0.5" r="2.012" xlink:href="#radial-gradient-2"/>
    <clipPath id="clip-path-26">
      <rect id="Rectangle_320" data-name="Rectangle 320" width="45.392" height="55.267" fill="none"/>
    </clipPath>
    <clipPath id="clip-path-27">
      <path id="Path_166" data-name="Path 166" d="M879.563,1999.89v0c.075-.005.091-.007.079-.007l-.079,0m-.815.05.009,0h-.014c0-.032,0,0,0,0m32.188-13.151v0a15.848,15.848,0,0,0-.26,1.61c-.062.535-.107,1.068-.139,1.6-.064,1.065-.063,2.126-.044,3.186s.065,2.117.139,3.173c.034.528.08,1.056.12,1.584l.124,1.583c.169,2.111.259,4.227.373,6.341q.085,1.586.159,3.172l.152,3.172q.293,6.345.514,12.693l.105,3.174.095,3.173c.058,2.114.112,4.234.147,6.341l.015.917.9.253.174.049.19.056c.128.039.257.08.385.122q.386.127.771.27c.512.19,1.018.4,1.514.622a19.249,19.249,0,0,1,2.831,1.567,12.044,12.044,0,0,1,2.356,2.045,7.274,7.274,0,0,1,1.469,2.536,5.923,5.923,0,0,1,.269,1.407,4.991,4.991,0,0,1-.074,1.38,3.943,3.943,0,0,1-1.336,2.227,8.03,8.03,0,0,1-2.609,1.42,15.661,15.661,0,0,1-1.531.449c-.525.124-1.06.228-1.6.316s-1.089.155-1.64.214-1.1.1-1.677.135q-1.711.118-3.419.2c-2.277.111-4.552.173-6.811.131-1.13-.022-2.256-.069-3.373-.156s-2.226-.213-3.318-.393a24.861,24.861,0,0,1-3.2-.736,15.757,15.757,0,0,1-2.955-1.218,11.092,11.092,0,0,1-2.5-1.828,10.073,10.073,0,0,1-1.828-2.461,12.71,12.71,0,0,1-1.107-2.938c-.129-.517-.236-1.043-.315-1.578l-.031-.2-.03-.212-.06-.424-.117-.849c-.609-4.53-1.082-9.092-1.5-13.658q-.156-1.713-.3-3.428c-.092-1.144-.171-2.288-.249-3.433-.151-2.29-.278-4.581-.442-6.871q-.121-1.717-.27-3.432l-.074-.858-.079-.857q-.076-.858-.17-1.714-.187-1.714-.457-3.423c-.092-.57-.188-1.139-.3-1.708q-.082-.427-.173-.853c-.032-.142-.061-.284-.1-.426l-.05-.212c-.008-.035-.016-.07-.025-.1l-.013-.048h-.01v0l-.047,0c-.038,0-.015,0,.022,0l.025,0s0-.005,0-.008a.2.2,0,0,0,0-.057c-1.652.091-.461.07-.831.09l-.009.059c-.006.038-.011.074-.016.111l-.031.219c-.021.146-.037.291-.056.436q-.05.435-.089.87c-.053.579-.089,1.158-.118,1.736q-.084,1.734-.065,3.463.008.865.038,1.728l.029.864.035.863c.05,1.151.11,2.3.187,3.45.152,2.3.361,4.593.57,6.887l.617,6.885c.421,4.591.9,9.179,1.512,13.764l.118.86.061.43.031.215.035.224c.089.6.211,1.2.36,1.8a15.157,15.157,0,0,0,1.323,3.5,12.545,12.545,0,0,0,2.271,3.053,13.575,13.575,0,0,0,3.047,2.234,18.234,18.234,0,0,0,3.41,1.408,27.279,27.279,0,0,0,3.516.811c1.177.194,2.355.328,3.53.418s2.347.14,3.516.163q.723.014,1.443.014h.111c1.815,0,3.623-.06,5.425-.147q1.736-.086,3.466-.206c.57-.038,1.171-.083,1.76-.143s1.185-.137,1.779-.232,1.188-.212,1.782-.353a18.106,18.106,0,0,0,1.777-.521,12.677,12.677,0,0,0,1.75-.76,8.829,8.829,0,0,0,1.651-1.121,6.736,6.736,0,0,0,1.358-1.6,6.263,6.263,0,0,0,.773-1.987,7.438,7.438,0,0,0,.117-2.052,8.384,8.384,0,0,0-.378-1.972,9.013,9.013,0,0,0-.814-1.817,10.522,10.522,0,0,0-1.139-1.581,14.457,14.457,0,0,0-2.833-2.469,21.646,21.646,0,0,0-3.2-1.771q-.826-.374-1.675-.688-.423-.157-.854-.3c-.035-1.83-.081-3.651-.131-5.476l-.095-3.183-.106-3.181q-.222-6.363-.516-12.721l-.152-3.179q-.076-1.59-.159-3.179l-.166-3.178c-.029-.53-.06-1.059-.084-1.589s-.043-1.06-.066-1.59c-.038-1.06-.066-2.121-.124-3.181s-.138-2.117-.246-3.174-.25-2.11-.449-3.16c-.1-.525-.214-1.049-.345-1.572a15.767,15.767,0,0,0-.467-1.563.426.426,0,0,0-.815.053" transform="translate(-878.344 -1986.457)" fill="none"/>
    </clipPath>
    <radialGradient id="radial-gradient-8" cx="-1.32" cy="1" r="0.001" xlink:href="#radial-gradient-2"/>
    <clipPath id="clip-path-28">
      <path id="Path_167" data-name="Path 167" d="M929.321,2435.926a53.843,53.843,0,0,1-10.617,3.133c-5.64,1.071-13.9,1.674-21.223-1.527a.906.906,0,0,0-.726,1.66,31.937,31.937,0,0,0,11.57,2.514q.8.031,1.611.032a49,49,0,0,0,9.106-.9,54.8,54.8,0,0,0,11.014-3.257.906.906,0,1,0-.735-1.656" transform="translate(-896.212 -2435.848)" fill="none"/>
    </clipPath>
    <radialGradient id="radial-gradient-9" cx="0.5" cy="0.5" r="2.094" xlink:href="#radial-gradient-2"/>
    <clipPath id="clip-path-29">
      <path id="Path_168" data-name="Path 168" d="M344.986,2667.462q-1.168.015-2.342.132c-.391.042-.783.09-1.177.151-.2.032-.394.065-.594.1-.1.02-.2.039-.3.061l-.155.034-.08.019-.093.024-.351.1a1.269,1.269,0,1,0,1.119,2.231.331.331,0,0,1,.041-.018l.055-.021.116-.043c.078-.029.161-.057.242-.085.164-.055.332-.108.5-.16.339-.1.685-.193,1.034-.28.7-.168,1.41-.307,2.129-.415a26.46,26.46,0,0,1,4.376-.29c.368,0,.736.022,1.1.038.184.01.368.026.552.039l.277.021.276.028c.738.066,1.471.181,2.2.307a28.26,28.26,0,0,1,4.332,1.166,28.572,28.572,0,0,0-4.181-1.76c-.725-.23-1.458-.449-2.2-.62l-.279-.068-.281-.06c-.187-.039-.375-.081-.563-.118-.377-.069-.755-.141-1.136-.2a27.869,27.869,0,0,0-4.276-.325l-.349,0" transform="translate(-338.976 -2667.46)" fill="none"/>
    </clipPath>
    <radialGradient id="radial-gradient-10" cx="0.504" cy="0.479" r="2.105" xlink:href="#radial-gradient-2"/>
    <clipPath id="clip-path-30">
      <path id="Path_169" data-name="Path 169" d="M1119.1,2668.709a29.924,29.924,0,0,0-9.1,2.816,30.5,30.5,0,0,1,4.556-1.169,29.7,29.7,0,0,1,4.637-.425,29.227,29.227,0,0,1,4.6.3c.756.11,1.506.25,2.243.421.368.087.733.18,1.092.283.179.052.357.105.531.162.087.028.174.056.257.086l.124.044.059.022c.018.007.04.015.046.018a1.292,1.292,0,0,0,.316.135,1.249,1.249,0,0,0,.655-2.412l-.232-.063c-.041-.011-.066-.017-.1-.023l-.083-.019-.161-.034c-.106-.022-.21-.042-.314-.062-.208-.038-.414-.072-.619-.1-.411-.062-.82-.11-1.229-.153q-1.226-.12-2.446-.137l-.43,0a30.572,30.572,0,0,0-4.408.315" transform="translate(-1110.001 -2668.394)" fill="none"/>
    </clipPath>
    <radialGradient id="radial-gradient-11" cx="0.497" cy="0.491" r="2.249" xlink:href="#radial-gradient-2"/>
    <clipPath id="clip-path-32">
      <rect id="Rectangle_326" data-name="Rectangle 326" width="7.027" height="7.861" fill="none"/>
    </clipPath>
    <clipPath id="clip-path-33">
      <rect id="Rectangle_327" data-name="Rectangle 327" width="10.298" height="7.352" fill="none"/>
    </clipPath>
    <clipPath id="clip-path-34">
      <rect id="Rectangle_328" data-name="Rectangle 328" width="67.148" height="27.797" fill="none"/>
    </clipPath>
    <clipPath id="clip-path-35">
      <rect id="Rectangle_329" data-name="Rectangle 329" width="39.752" height="25.983" fill="none"/>
    </clipPath>
    <clipPath id="clip-path-36">
      <path id="Path_177" data-name="Path 177" d="M410.952,1676.907l-27.169-1.617a4.64,4.64,0,0,1-4.351-4.9l.861-14.461a4.651,4.651,0,0,1,4.9-4.351l27.169,1.617a4.651,4.651,0,0,1,4.351,4.9l-.86,14.461a4.654,4.654,0,0,1-4.624,4.359q-.138,0-.278-.008m-30.733-26a7.037,7.037,0,0,0-2.375,4.874l-.86,14.461a7.1,7.1,0,0,0,6.654,7.5l27.169,1.617q.214.012.426.013a7.1,7.1,0,0,0,7.071-6.667l.86-14.461a7.1,7.1,0,0,0-6.654-7.5l-27.169-1.617q-.214-.013-.426-.013a7.037,7.037,0,0,0-4.7,1.793" transform="translate(-376.971 -1649.116)" fill="none"/>
    </clipPath>
    <radialGradient id="radial-gradient-12" cx="0.501" cy="0.5" r="0.607" xlink:href="#radial-gradient-2"/>
    <clipPath id="clip-path-38">
      <rect id="Rectangle_332" data-name="Rectangle 332" width="34.961" height="14.056" fill="none"/>
    </clipPath>
    <clipPath id="clip-path-39">
      <path id="Path_180" data-name="Path 180" d="M479.326,1693.293l-1.7-.1a7.024,7.024,0,0,0,2.1-4.622l.86-14.461a7.067,7.067,0,0,0-1.37-4.62l1.516.09a4.64,4.64,0,0,1,4.351,4.9l-.86,14.461h0a4.651,4.651,0,0,1-4.619,4.359q-.139,0-.279-.008m-4.687-24.1a4.639,4.639,0,0,1,3.5,4.768l-.86,14.462a4.649,4.649,0,0,1-4.9,4.35l-21.31-1.27-.385,2.411a6.632,6.632,0,0,0,1.325.208l27.17,1.617q.215.013.429.013a7.1,7.1,0,0,0,7.064-6.668l.86-14.459a7.1,7.1,0,0,0-6.654-7.5l-5.869-.348Z" transform="translate(-450.685 -1666.782)" fill="none"/>
    </clipPath>
    <radialGradient id="radial-gradient-13" cx="0.497" cy="0.5" r="0.572" xlink:href="#radial-gradient-2"/>
    <clipPath id="clip-path-41">
      <rect id="Rectangle_335" data-name="Rectangle 335" width="7.609" height="9.873" fill="none"/>
    </clipPath>
    <clipPath id="clip-path-42">
      <rect id="Rectangle_336" data-name="Rectangle 336" width="7.615" height="6.411" fill="none"/>
    </clipPath>
    <clipPath id="clip-path-43">
      <rect id="Rectangle_337" data-name="Rectangle 337" width="7.616" height="5.918" fill="none"/>
    </clipPath>
    <clipPath id="clip-path-44">
      <path id="Path_188" data-name="Path 188" d="M520.225,1657.366l-.529,8.153a8.476,8.476,0,0,0,2.133,6.169l.355.4a6.557,6.557,0,0,1,1.677,4.631l-.251,7.018a.92.92,0,0,0,.886.952h.034a.92.92,0,0,0,.919-.887l.251-7.018a8.387,8.387,0,0,0-2.145-5.925l-.355-.4a6.626,6.626,0,0,1-1.667-4.822l.529-8.153a.92.92,0,0,0-.858-.978l-.061,0a.92.92,0,0,0-.917.86" transform="translate(-519.678 -1656.506)" fill="none"/>
    </clipPath>
    <radialGradient id="radial-gradient-14" cx="0.504" cy="0.5" r="0.362" xlink:href="#radial-gradient-2"/>
    <clipPath id="clip-path-46">
      <rect id="Rectangle_340" data-name="Rectangle 340" width="35.867" height="9.217" fill="none"/>
    </clipPath>
    <clipPath id="clip-path-47">
      <path id="Path_191" data-name="Path 191" d="M906.773,1741.67c8.658-.546,14.885-2.02,18.509-4.381.071-.046.144-.094.384.053a5.084,5.084,0,0,1,1.68,4.206l1.22.124-1.22-.124a4.109,4.109,0,0,1-1.857,2.831l-.155.086-.135.146c-.012.013-1.363,1.328-5.5,2.449-4.1,1.112-11.682,2.206-24.586,1.16a5.684,5.684,0,0,1-1.153-3.49,4.471,4.471,0,0,1,1.5-2.91c.724.028,2.159.073,4.051.073,2.01,0,4.535-.05,7.264-.222m17.17-6.437c-7.875,5.131-28.663,4.125-28.872,4.114l-.489-.025-.372.318a7.034,7.034,0,0,0-2.7,4.95,8.439,8.439,0,0,0,2.06,5.632l.324.358.481.041q5.71.483,10.615.483a59.815,59.815,0,0,0,15.351-1.675c4.239-1.149,6.02-2.552,6.519-3.014a6.51,6.51,0,0,0,2.925-4.617c.251-2.458-1.051-5.457-2.843-6.55a2.956,2.956,0,0,0-1.542-.457,2.652,2.652,0,0,0-1.459.443" transform="translate(-891.501 -1734.79)" fill="none"/>
    </clipPath>
    <radialGradient id="radial-gradient-15" cx="0.5" cy="0.5" r="0.902" xlink:href="#radial-gradient-2"/>
    <clipPath id="clip-path-49">
      <rect id="Rectangle_343" data-name="Rectangle 343" width="16.902" height="18.225" fill="none"/>
    </clipPath>
    <clipPath id="clip-path-50">
      <path id="Path_194" data-name="Path 194" d="M202.823,1634.3a22.731,22.731,0,0,1-.219-10.246,12.044,12.044,0,0,1,2.012-4.84l.135-.146c1.048-1.14,2.351-2.56,4.067-2.532,1.5.023,3.22,1.144,5.11,3.331,2.1,2.429,3.07,7.177,2.473,12.095-.456,3.756-1.761,6.813-3.405,7.978a2.944,2.944,0,0,1-2.182.313,3.91,3.91,0,0,0-2.291.233,2.382,2.382,0,0,0-.892.818c-1.56-1.344-4.055-3.9-4.807-7m.121-16.893-.132.143h0a13.909,13.909,0,0,0-2.6,5.974,25.2,25.2,0,0,0,.231,11.354c1.343,5.541,6.89,9.326,7.125,9.485a1.227,1.227,0,0,0,1.9-.881,2.052,2.052,0,0,1,.207-.827,4.079,4.079,0,0,1,.885.037,5.258,5.258,0,0,0,3.854-.751,9.284,9.284,0,0,0,2.971-4.023,20.969,20.969,0,0,0,1.451-5.661c.538-4.435.019-10.44-3.052-13.995-2.4-2.778-4.667-4.145-6.929-4.18h-.087c-2.768,0-4.677,2.079-5.823,3.326" transform="translate(-199.672 -1614.077)" fill="none"/>
    </clipPath>
    <radialGradient id="radial-gradient-16" cx="0.502" cy="0.5" r="0.419" xlink:href="#radial-gradient-2"/>
    <clipPath id="clip-path-52">
      <rect id="Rectangle_346" data-name="Rectangle 346" width="63.171" height="35.857" fill="none"/>
    </clipPath>
    <clipPath id="clip-path-53">
      <rect id="Rectangle_347" data-name="Rectangle 347" width="11.529" height="15.163" fill="none"/>
    </clipPath>
    <clipPath id="clip-path-54">
      <path id="Path_199" data-name="Path 199" d="M5.166,493.45a9.237,9.237,0,0,1-2.713-6.579l.016-9.854a9.309,9.309,0,0,1,9.089-9.281l-.046,28.444a9.233,9.233,0,0,1-6.347-2.731m6.6-28.169A11.751,11.751,0,0,0,.016,477.013L0,486.867v.038a11.751,11.751,0,0,0,11.732,11.732h0a2.23,2.23,0,0,0,2.23-2.226l.046-28.9a2.23,2.23,0,0,0-2.226-2.233h-.019" transform="translate(0 -465.281)" fill="none"/>
    </clipPath>
    <radialGradient id="radial-gradient-17" cx="0.5" cy="0.5" r="0.383" xlink:href="#radial-gradient-2"/>
    <clipPath id="clip-path-56">
      <rect id="Rectangle_350" data-name="Rectangle 350" width="11.55" height="14.658" fill="none"/>
    </clipPath>
    <clipPath id="clip-path-57">
      <path id="Path_203" data-name="Path 203" d="M1449.894,469.849a9.3,9.3,0,0,1,9.06,9.31l-.016,9.854a9.309,9.309,0,0,1-9.089,9.281Zm-.223-2.456a2.232,2.232,0,0,0-2.23,2.226l-.046,28.9a2.23,2.23,0,0,0,2.226,2.233h.019a11.751,11.751,0,0,0,11.75-11.732l.016-9.854a11.751,11.751,0,0,0-11.732-11.77Z" transform="translate(-1447.395 -467.393)" fill="none"/>
    </clipPath>
    <clipPath id="clip-path-59">
      <rect id="Rectangle_353" data-name="Rectangle 353" width="98.49" height="54.985" fill="none"/>
    </clipPath>
    <clipPath id="clip-path-60">
      <path id="Path_207" data-name="Path 207" d="M126.377,53.8A48.015,48.015,0,0,1,170.948,2.569q1.693-.118,3.362-.117a48.016,48.016,0,0,1,3.3,95.916q-1.693.118-3.362.117A48.081,48.081,0,0,1,126.377,53.8M174.334,0q-1.772,0-3.556.124a50.482,50.482,0,0,0-12.875,98.1,50,50,0,0,0,16.3,2.719q1.78,0,3.573-.124a50.482,50.482,0,0,0,12.875-98.1A50,50,0,0,0,174.38,0Z" transform="translate(-123.805 0.003)" fill="none"/>
    </clipPath>
    <radialGradient id="radial-gradient-19" cx="-0.085" cy="2.119" r="0.001" xlink:href="#radial-gradient-2"/>
    <clipPath id="clip-path-61">
      <path id="Path_208" data-name="Path 208" d="M191.878,225.312c-26.988,1.466-48.29,13.21-46.907,38.672a44.168,44.168,0,0,0,9.875,25.485c4.306,5.323,21.295,14.126,41.633,13.2,18.858-.855,35.461-11.836,39.165-17.594a44.166,44.166,0,0,0,7.055-26.405c-1.291-23.765-20.938-33.509-45.494-33.51q-2.63,0-5.327.147" transform="translate(-144.907 -225.165)" fill="none"/>
    </clipPath>
    <radialGradient id="radial-gradient-20" cx="-0.092" cy="2.519" r="0.001" xlink:href="#radial-gradient-2"/>
    <clipPath id="clip-path-62">
      <path id="Path_209" data-name="Path 209" d="M140.105,273.005a42.911,42.911,0,0,1-9.6-24.781c-.63-11.6,3.515-20.774,12.318-27.281,7.913-5.849,19.473-9.341,33.43-10.1s25.827,1.461,34.328,6.418c9.457,5.515,14.572,14.191,15.2,25.786a42.91,42.91,0,0,1-6.862,25.675c-1.589,2.471-6.357,6.585-13.427,10.208a61.366,61.366,0,0,1-24.761,6.824q-1.491.068-2.95.067c-19.022,0-34.015-8.294-37.674-12.817m36.012-64.611c-14.437.784-26.456,4.442-34.755,10.576a32.393,32.393,0,0,0-10.244,12.219,35.276,35.276,0,0,0-3.066,17.169,45.349,45.349,0,0,0,10.146,26.19c2.556,3.16,8.429,6.731,15.327,9.321a69.675,69.675,0,0,0,24.269,4.406q1.5,0,3.046-.069a63.831,63.831,0,0,0,25.769-7.092c6.574-3.369,12.216-7.712,14.372-11.064a45.348,45.348,0,0,0,7.248-27.135,35.276,35.276,0,0,0-4.908-16.736,32.393,32.393,0,0,0-11.507-11.037c-7.788-4.542-18.192-6.9-30.324-6.9q-2.633,0-5.373.148" transform="translate(-127.987 -208.246)" fill="none"/>
    </clipPath>
    <radialGradient id="radial-gradient-21" cx="-0.089" cy="2.484" r="0.001" xlink:href="#radial-gradient-2"/>
    <clipPath id="clip-path-64">
      <rect id="Rectangle_358" data-name="Rectangle 358" width="71.545" height="63.028" fill="none"/>
    </clipPath>
    <clipPath id="clip-path-65">
      <path id="Path_211" data-name="Path 211" d="M215.193,137.87a79.766,79.766,0,0,0-14.017,1.985,63.759,63.759,0,0,0-12.528,4.329,48.8,48.8,0,0,0-10.483,6.624,38.531,38.531,0,0,0-7.811,8.812,1.227,1.227,0,0,0,1.833,1.615l.116-.108.085-.134c7.657-12.071,23.307-19.607,42.938-20.674,19.74-1.072,36.111,4.94,44.915,16.495l.041.052.041.044.9-.833-.9.835a1.227,1.227,0,0,0,1.845-1.616,38.732,38.732,0,0,0-8.652-8.232,47.328,47.328,0,0,0-11.077-5.654,61.548,61.548,0,0,0-12.942-3.059,76.078,76.078,0,0,0-9.719-.607q-2.271,0-4.587.126" transform="translate(-170.119 -137.744)" fill="none"/>
    </clipPath>
    <radialGradient id="radial-gradient-22" cx="-0.132" cy="8.559" r="0.003" xlink:href="#radial-gradient-2"/>
    <clipPath id="clip-path-67">
      <rect id="Rectangle_361" data-name="Rectangle 361" width="48.408" height="41.25" fill="none"/>
    </clipPath>
    <clipPath id="clip-path-68">
      <path id="Path_214" data-name="Path 214" d="M1134.922,691.607a5.545,5.545,0,0,0-1.552.285,6.417,6.417,0,0,0-1.381.656,7.622,7.622,0,0,0-2.112,2.03,9.145,9.145,0,0,0-.734,1.225l-.152.319-.129.28-.256.557c-.171.371-.339.744-.513,1.113l-.526,1.106-.263.553c-.088.184-.181.366-.271.549l-.544,1.1c-.178.367-.37.726-.557,1.089l-.563,1.085q-2.285,4.321-4.974,8.4a91,91,0,0,1-5.794,7.844c-1.043,1.247-2.1,2.487-3.2,3.678-.275.3-.545.6-.826.9l-.855.87c-.573.577-1.134,1.165-1.734,1.715l-.886.838-.443.419-.221.21c-.074.069-.148.133-.222.2l-.443.4-.452.387c-.149.13-.3.255-.457.381s-.3.254-.462.375q-1.862,1.486-3.877,2.79c-.335.218-.673.431-1.012.643l-.513.312-.515.309q-1.033.615-2.084,1.214c-.7.4-1.407.8-2.119,1.188l-2.145,1.178-.013.007a.416.416,0,0,0,.237.779c.115-.01.219-.022.326-.036s.213-.027.318-.044c.211-.032.42-.069.629-.11q.625-.123,1.239-.286a24.65,24.65,0,0,0,2.416-.775q1.187-.449,2.331-1.006c.762-.371,1.508-.775,2.24-1.2.184-.106.366-.216.547-.326s.363-.221.541-.337.358-.228.536-.345l.528-.358c.7-.485,1.385-.993,2.048-1.531.167-.132.328-.273.492-.409s.328-.274.486-.418l.479-.426.468-.439c.077-.073.157-.146.232-.22l.222-.221.443-.442.886-.884c.6-.582,1.164-1.2,1.739-1.8l.863-.906c.145-.15.28-.309.422-.463l.42-.464c1.133-1.225,2.217-2.5,3.286-3.777a93.485,93.485,0,0,0,5.947-8.051q2.758-4.177,5.094-8.6l.575-1.108c.191-.37.387-.737.569-1.111l.555-1.118c.092-.187.186-.372.276-.56l.268-.563.536-1.126c.177-.376.347-.754.521-1.131l.26-.566.129-.281.114-.239a6.712,6.712,0,0,1,.535-.893,5.18,5.18,0,0,1,1.423-1.379,3.5,3.5,0,0,1,1.714-.564,2.625,2.625,0,0,1,.828.1,2.459,2.459,0,0,1,.73.362,2.808,2.808,0,0,1,.6.6,3.789,3.789,0,0,1,.444.814,5.291,5.291,0,0,1,.279.961c.015.086.034.169.045.256l.036.26.025.265c.009.088.011.179.017.269a9.484,9.484,0,0,1-.011,1.1l-.008.139-.013.14-.026.279-.036.281-.018.14-.022.141a20.776,20.776,0,0,1-1.282,4.474l-.467,1.174,1.2.439.124.045.136.051.276.108q.276.111.553.229.552.236,1.1.5c.725.347,1.436.723,2.124,1.129a18.985,18.985,0,0,1,3.758,2.828,8.609,8.609,0,0,1,2.323,3.674,5.843,5.843,0,0,1,.191,1.018l.019.258.007.258-.006.259c0,.04,0,.094-.007.143l-.009.15c-.04.8-.133,1.594-.249,2.386a30.87,30.87,0,0,1-2.969,9.157c-.365.723-.744,1.44-1.157,2.139-.2.353-.418.7-.628,1.044l-.329.513-.164.257-.17.253-.341.506-.352.5-.176.249-.181.246-.362.492-.373.484-.186.242-.191.239-.383.477-.392.469a51.156,51.156,0,0,1-7.017,6.839c-1.273,1.032-2.6,2-3.957,2.917s-2.761,1.774-4.194,2.573-2.9,1.544-4.394,2.219-3.037,1.247-4.589,1.776l-4.661,1.58c-.195.066-.389.136-.583.206s-.39.136-.584.206c-.388.144-.777.285-1.166.438s-.778.3-1.166.471-.779.331-1.165.533l-.012.007a.425.425,0,0,0,.158.8,14.945,14.945,0,0,0,2.593,0c.428-.035.856-.075,1.279-.139q.318-.045.636-.1c.211-.037.421-.077.63-.119a31.289,31.289,0,0,0,4.926-1.424c1.6-.607,3.163-1.3,4.719-2.006s3.08-1.479,4.573-2.31,2.952-1.723,4.369-2.68,2.8-1.966,4.129-3.044a53.617,53.617,0,0,0,7.353-7.168l.413-.494.4-.5.2-.251.2-.256.394-.511.383-.519.192-.26.186-.264.372-.528.361-.536.18-.268.175-.272.348-.545c.223-.369.454-.733.667-1.109.439-.743.843-1.508,1.233-2.28a33.324,33.324,0,0,0,3.2-9.885c.127-.864.228-1.735.272-2.61l.01-.164c0-.056.008-.106.009-.17,0-.123.006-.246.008-.369l-.01-.369c-.007-.123-.018-.246-.027-.369a8.3,8.3,0,0,0-.271-1.448,9.553,9.553,0,0,0-1.2-2.609,13.038,13.038,0,0,0-1.753-2.139,21.394,21.394,0,0,0-4.246-3.205c-.754-.445-1.526-.852-2.311-1.229q-.589-.282-1.191-.54l-.078-.033a21.552,21.552,0,0,0,1-3.859l.026-.164.021-.166.042-.332.032-.336.015-.168.01-.169a11.861,11.861,0,0,0,.013-1.372,9.343,9.343,0,0,0-.166-1.4,7.753,7.753,0,0,0-.412-1.408,6.242,6.242,0,0,0-.741-1.347,5.255,5.255,0,0,0-1.137-1.138,4.913,4.913,0,0,0-1.474-.73,5.135,5.135,0,0,0-1.415-.2q-.1,0-.2,0" transform="translate(-1091.904 -691.603)" fill="none"/>
    </clipPath>
    <radialGradient id="radial-gradient-23" cx="-1.352" cy="2.496" r="0.001" xlink:href="#radial-gradient-2"/>
    <clipPath id="clip-path-70">
      <rect id="Rectangle_364" data-name="Rectangle 364" width="19.161" height="17.476" fill="none"/>
    </clipPath>
    <clipPath id="clip-path-71">
      <rect id="Rectangle_365" data-name="Rectangle 365" width="0.007" height="0.01" fill="none"/>
    </clipPath>
    <clipPath id="clip-path-72">
      <rect id="Rectangle_366" data-name="Rectangle 366" width="17.829" height="13.124" fill="none"/>
    </clipPath>
    <clipPath id="clip-path-73">
      <rect id="Rectangle_367" data-name="Rectangle 367" width="0.832" height="1.447" fill="none"/>
    </clipPath>
    <clipPath id="clip-path-74">
      <path id="Path_220" data-name="Path 220" d="M1617.124,934.852l-.021.025c-.118.142-.222.286-.335.422l-.173.2c-.029.033-.056.066-.085.1l-.092.093q-.092.092-.179.185l-.191.177-.093.089c-.032.029-.067.058-.1.087-.067.057-.133.115-.2.173l-.419.353-.216.183-.221.195c-.073.063-.149.137-.224.206s-.149.139-.223.22l-.222.234c-.074.08-.142.17-.213.255l-.105.13c-.035.043-.066.092-.1.138-.065.094-.131.187-.194.283s-.115.2-.172.3-.117.2-.161.306-.093.21-.139.316c-.022.053-.047.106-.066.159l-.055.16-.108.323c-.038.109-.057.215-.084.323a5.371,5.371,0,0,0-.136.688,3.736,3.736,0,0,0-.032.382,3.272,3.272,0,0,0,0,.381,5.278,5.278,0,0,0,.267,1.446,6.132,6.132,0,0,0,.258.656l.152.31.167.3a8.636,8.636,0,0,0,.764,1.082A12.172,12.172,0,0,0,1616,947.48l.246.19c.082.063.167.122.25.183.165.124.336.237.5.355.343.226.69.443,1.046.645s.717.392,1.087.564.745.334,1.127.481.771.275,1.165.393.794.217,1.2.3c.1.022.2.041.306.058l.307.052c.207.027.412.06.622.078a11.248,11.248,0,0,0,1.264.061,10.188,10.188,0,0,0,1.284-.09,9.194,9.194,0,0,0,1.284-.272,8.266,8.266,0,0,0,1.249-.481,7.725,7.725,0,0,0,1.159-.7,7.831,7.831,0,0,0,1.011-.907c.146-.171.3-.336.433-.517.067-.09.138-.177.2-.269l.186-.277c.064-.092.117-.188.173-.283s.113-.19.164-.287l.149-.292c.024-.049.05-.1.073-.147l.065-.149.13-.3c.041-.1.076-.2.115-.3s.078-.2.109-.3l.1-.3.047-.151c.02-.068.036-.128.049-.184.028-.113.051-.219.073-.326.043-.213.079-.424.108-.636a10.7,10.7,0,0,0,.1-1.276,9.082,9.082,0,0,0-.323-2.595,1.227,1.227,0,0,0-2.365.653l.005.021a6.64,6.64,0,0,1,.229,1.882,8.214,8.214,0,0,1-.075.979c-.022.162-.049.323-.081.48-.016.077-.033.155-.051.226-.009.036-.017.067-.024.089l-.038.119a5.809,5.809,0,0,1-2.021,3.08,5.267,5.267,0,0,1-.773.469,5.827,5.827,0,0,1-.861.331,6.772,6.772,0,0,1-.928.2,7.713,7.713,0,0,1-.972.068,8.785,8.785,0,0,1-.995-.048c-.167-.013-.334-.042-.5-.062l-.25-.043c-.084-.013-.167-.029-.25-.047-.334-.064-.665-.152-1-.245s-.656-.206-.979-.33-.642-.258-.954-.407-.62-.308-.921-.478a11.214,11.214,0,0,1-1.691-1.172,9.1,9.1,0,0,1-1.377-1.433,7.416,7.416,0,0,1-.518-.781,4.992,4.992,0,0,1-.362-.791,3.422,3.422,0,0,1-.179-.765,1.735,1.735,0,0,1-.013-.185,1.44,1.44,0,0,1,0-.182,4.053,4.053,0,0,1,.047-.428c.015-.159.053-.3.081-.451l.022-.112c.007-.037.02-.071.03-.107.021-.071.043-.141.062-.213a1.842,1.842,0,0,1,.072-.209c.027-.069.049-.14.079-.208.068-.133.116-.275.2-.409a8.2,8.2,0,0,1,.535-.848l.325-.459.083-.118.085-.123.167-.249a6.053,6.053,0,0,0,.954-2.292.419.419,0,0,0-.737-.333" transform="translate(-1612.563 -934.7)" fill="none"/>
    </clipPath>
    <radialGradient id="radial-gradient-24" cx="0.5" cy="0.5" r="0.578" xlink:href="#radial-gradient-2"/>
    <clipPath id="clip-path-76">
      <rect id="Rectangle_370" data-name="Rectangle 370" width="26.408" height="26.686" fill="none"/>
    </clipPath>
    <clipPath id="clip-path-77">
      <rect id="Rectangle_371" data-name="Rectangle 371" width="11.614" height="15.629" fill="none"/>
    </clipPath>
    <clipPath id="clip-path-78">
      <rect id="Rectangle_372" data-name="Rectangle 372" width="6.328" height="7.136" fill="none"/>
    </clipPath>
    <clipPath id="clip-path-79">
      <rect id="Rectangle_373" data-name="Rectangle 373" width="38.436" height="43.292" fill="none"/>
    </clipPath>
    <clipPath id="clip-path-80">
      <path id="Path_225" data-name="Path 225" d="M1415.034,1070.714a.906.906,0,0,0-.771,1.023,24.528,24.528,0,0,0,3.955,9.536,22.272,22.272,0,0,0,7.187,6.713,26.538,26.538,0,0,0,12.55,3.372h.033a.906.906,0,0,0,.032-1.811c-8.083-.289-14.228-3.4-18.266-9.239a23.151,23.151,0,0,1-3.7-8.823.906.906,0,0,0-.9-.78.924.924,0,0,0-.126.009" transform="translate(-1414.254 -1070.705)" fill="none"/>
    </clipPath>
    <radialGradient id="radial-gradient-25" cx="0.5" cy="0.5" r="0.551" xlink:href="#radial-gradient-2"/>
  </defs>
  <g id="Group_512" data-name="Group 512" transform="translate(-1186 -42.811)">
    <ellipse id="Ellipse_2" data-name="Ellipse 2" cx="90" cy="12" rx="90" ry="12" transform="translate(1186 245)" fill="url(#radial-gradient)"/>
    <g id="Group_394" data-name="Group 394" transform="translate(1196.028 42.811)">
      <g id="Group_393" data-name="Group 393" clip-path="url(#clip-path)">
        <g id="Group_207" data-name="Group 207" transform="translate(0 0)">
          <g id="Group_206" data-name="Group 206" clip-path="url(#clip-path)">
            <path id="Path_141" data-name="Path 141" d="M864.1,1244.517c18.975-2.63,36.127,23.578,40.015,29.983a3.434,3.434,0,0,0,2.482,1.626c6.859.9,11.71.773,15.334.017,0,0,0,0,.007,0,8.482-1.764,10.239-6.983,15.3-10.644,3.431-2.486,7.533-2.668,11.682-2.6,0,0,0,0,.007,0,4.8.083,9.661.5,13.632-1.908a10.826,10.826,0,0,0,1.547-1.131c3.73-3.287,3.648-8.011,8.544-11.638a14.07,14.07,0,0,1,9-2.311,34.531,34.531,0,0,1,12.274,3.039.687.687,0,0,0,.959-.756l-2.448-12.577-32.8-15.227-85.948-7.251Z" transform="translate(-801.487 -1125.23)" fill="#e81818"/>
            <g id="Group_199" data-name="Group 199" transform="translate(62.618 87.911)" opacity="0.2">
              <g id="Group_198" data-name="Group 198">
                <g id="Group_197" data-name="Group 197" clip-path="url(#clip-path-3)">
                  <path id="Path_142" data-name="Path 142" d="M864.1,1244.517c18.975-2.63,36.127,23.578,40.015,29.983a3.434,3.434,0,0,0,2.482,1.626c6.859.9,11.71.773,15.334.017,0,0,0,0,.007,0,8.482-1.764,10.239-6.983,15.3-10.644,3.431-2.486,7.533-2.668,11.682-2.6,0,0,0,0,.007,0,4.8.083,9.661.5,13.632-1.908a10.826,10.826,0,0,0,1.547-1.131c3.73-3.287,3.648-8.011,8.544-11.638a14.07,14.07,0,0,1,9-2.311,34.531,34.531,0,0,1,12.274,3.039.687.687,0,0,0,.959-.756l-2.448-12.577-32.8-15.227-85.948-7.251Z" transform="translate(-864.105 -1213.141)" fill="#371a45"/>
                </g>
              </g>
            </g>
            <g id="Group_202" data-name="Group 202" transform="translate(97.005 117.068)" opacity="0.35">
              <g id="Group_201" data-name="Group 201">
                <g id="Group_200" data-name="Group 200" clip-path="url(#clip-path-4)">
                  <path id="Path_143" data-name="Path 143" d="M1367.055,1642.333c-.052,3.552-2.534,5.422-4.964,6.4,8.482-1.764,10.238-6.983,15.3-10.644,3.431-2.486,7.533-2.668,11.682-2.6-6.883-1.389-16.052-4.208-23.018-9.87-12.432-10.108-27.357-10.118-27.418-10.118,20.353,5.171,28.522,19.844,28.416,26.834" transform="translate(-1338.64 -1615.499)" fill="#371a45"/>
                </g>
              </g>
            </g>
            <g id="Group_205" data-name="Group 205" transform="translate(110.939 100.664)" opacity="0.35">
              <g id="Group_204" data-name="Group 204">
                <g id="Group_203" data-name="Group 203" clip-path="url(#clip-path-5)">
                  <path id="Path_144" data-name="Path 144" d="M1530.924,1390.163c-.371,3.428,23.833-3.668,51.32,25.723,1.743,1.864,1.444,4.545.364,7.2,3.73-3.287,3.648-8.011,8.544-11.638a14.07,14.07,0,0,1,9-2.31c-4.958-2.527-10.383-5.336-15.389-8.024-24.046-12.924-53.606-13.133-53.843-10.95" transform="translate(-1530.92 -1389.118)" fill="#371a45"/>
                </g>
              </g>
            </g>
          </g>
        </g>
        <g id="Group_209" data-name="Group 209" transform="translate(60.882 86.605)">
          <g id="Group_208" data-name="Group 208" clip-path="url(#clip-path-6)">
            <rect id="Rectangle_301" data-name="Rectangle 301" width="133.871" height="66.14" transform="translate(0 0)" fill="url(#radial-gradient-2)"/>
          </g>
        </g>
        <g id="Group_214" data-name="Group 214" transform="translate(0 0)">
          <g id="Group_213" data-name="Group 213" clip-path="url(#clip-path)">
            <path id="Path_146" data-name="Path 146" d="M839.945,1146.948c18.462,10.012,80.82-8.751,126.99,20.1,4.264,2.665,8.474,10.421,8.64,19.755a1.72,1.72,0,0,1-2.823,1.348c-6.413-5.377-23.681-18.567-44.476-23.919-26.423-6.8-83.343-6.485-86.346-12.556a42.452,42.452,0,0,1-1.985-4.73" transform="translate(-779.078 -1063.834)" fill="#e81818"/>
            <g id="Group_212" data-name="Group 212" transform="translate(60.868 82.753)" opacity="0.5">
              <g id="Group_211" data-name="Group 211">
                <g id="Group_210" data-name="Group 210" clip-path="url(#clip-path-8)">
                  <path id="Path_147" data-name="Path 147" d="M839.956,1141.957a42.384,42.384,0,0,0,1.984,4.731,1.713,1.713,0,0,0,.309.426c21.928,6.6,79.883-8.55,123.436,18.665,3.954,2.472,7.859,9.324,8.537,17.747a1.71,1.71,0,0,0,1.361-1.712c-.165-9.334-4.373-17.091-8.64-19.755-46.17-28.852-108.526-10.091-126.988-20.1" transform="translate(-839.956 -1141.957)" fill="#fff"/>
                </g>
              </g>
            </g>
          </g>
        </g>
        <g id="Group_216" data-name="Group 216" transform="translate(58.712 80.55)">
          <g id="Group_215" data-name="Group 215" clip-path="url(#clip-path-9)">
            <rect id="Rectangle_304" data-name="Rectangle 304" width="139.032" height="45.402" transform="translate(0 0)" fill="url(#radial-gradient-3)"/>
          </g>
        </g>
        <g id="Group_221" data-name="Group 221" transform="translate(0 0)">
          <g id="Group_220" data-name="Group 220" clip-path="url(#clip-path)">
            <path id="Path_149" data-name="Path 149" d="M128.79,1191.9l-1.437,6.247-2.63,11.421-.144.629-3.466,15.045-5.807,25.229a34.394,34.394,0,0,1-9.1,3.6c-6.3,1.417-13.989.663-16.544-10-2.939-12.27,8.832-30.33,17.1-41.112.7-.915,1.379-1.777,2.022-2.578,2.039-2.558,3.71-4.5,4.648-5.566.529-.6.825-.925.825-.925Z" transform="translate(-82.741 -1105.525)" fill="#fff"/>
            <g id="Group_219" data-name="Group 219" transform="translate(6.463 132.903)" opacity="0.25">
              <g id="Group_218" data-name="Group 218">
                <g id="Group_217" data-name="Group 217" clip-path="url(#clip-path-11)">
                  <path id="Path_150" data-name="Path 150" d="M89.655,1839.66c4.577,19.111,25.641,6.4,25.641,6.4l-1.148-8.1s-19.156,11.562-24.9-3.942a18.672,18.672,0,0,0,.409,5.638" transform="translate(-89.193 -1834.022)" fill="#371a45"/>
                </g>
              </g>
            </g>
          </g>
        </g>
        <g id="Group_223" data-name="Group 223" transform="translate(5.241 84.912)">
          <g id="Group_222" data-name="Group 222" clip-path="url(#clip-path-12)">
            <rect id="Rectangle_307" data-name="Rectangle 307" width="42.982" height="65.398" transform="translate(-0.578 0)" fill="url(#radial-gradient-4)"/>
          </g>
        </g>
        <g id="Group_228" data-name="Group 228" transform="translate(0 0)">
          <g id="Group_227" data-name="Group 227" clip-path="url(#clip-path)">
            <path id="Path_152" data-name="Path 152" d="M260.4,1951.19c-2.42,14.017-3.854,25.111-4.813,33.923-2.493,22.87-1.8,30.323-6.931,33.421-3.259,1.97-8.781,3.679-16.6,3.672-10.923,0-19.838-.509-19.745-8.368.072-6.24,10.83-9.049,10.83-9.049-1.674-11.17-1.877-27.14-1.771-38.17.072-7.4.282-12.58.282-12.58Z" transform="translate(-196.926 -1809.796)" fill="#fff"/>
            <g id="Group_226" data-name="Group 226" transform="translate(15.527 141.394)" opacity="0.25">
              <g id="Group_225" data-name="Group 225">
                <g id="Group_224" data-name="Group 224" clip-path="url(#clip-path-14)">
                  <path id="Path_153" data-name="Path 153" d="M262.21,1951.19c-1.135,6.57-2.052,12.5-2.805,17.85-.052.358-.1.712-.148,1.062s-.1.7-.144,1.049c-.031.23-.065.461-.093.688s-.062.437-.089.653c-.069.5-.134,1-.2,1.492q-.232,1.794-.443,3.493-.1.773-.186,1.52c-.007.052-.014.107-.021.158-.134,1.1-.258,2.159-.375,3.194-.041.364-.083.725-.124,1.086-.048.416-.093.829-.138,1.234-.017.148-.031.3-.048.444-2.493,22.87-1.8,30.323-6.931,33.421-3.259,1.97-8.781,3.679-16.6,3.672-10.07,0-18.431-.43-19.6-6.656,3.613,1.705,9.3,1.874,15.677,1.877,7.811.007,13.336-1.7,16.6-3.672,3.031-1.831,4.029-5.186,4.853-12.348a18.546,18.546,0,0,0-11.8-19.507c-8.41-3.16-13.861-8.465-16.408-15.28.072-7.4.282-12.58.282-12.58l33.954-2.5Z" transform="translate(-214.266 -1951.19)" fill="#371a45"/>
                </g>
              </g>
            </g>
          </g>
        </g>
        <g id="Group_230" data-name="Group 230" transform="translate(14.158 140.167)">
          <g id="Group_229" data-name="Group 229" clip-path="url(#clip-path-15)">
            <rect id="Rectangle_310" data-name="Rectangle 310" width="50.664" height="73.471" transform="translate(-0.027 0)" fill="url(#radial-gradient-5)"/>
          </g>
        </g>
        <g id="Group_250" data-name="Group 250" transform="translate(0 0)">
          <g id="Group_249" data-name="Group 249" clip-path="url(#clip-path)">
            <g id="Group_233" data-name="Group 233" transform="translate(58.523 166.765)" opacity="0.35">
              <g id="Group_232" data-name="Group 232">
                <g id="Group_231" data-name="Group 231" clip-path="url(#clip-path-17)">
                  <path id="Path_155" data-name="Path 155" d="M807.6,2304.825q.088-1.707.22-3.531c-.086,1.217-.162,2.393-.22,3.531" transform="translate(-807.597 -2301.294)" fill="#371a45"/>
                </g>
              </g>
            </g>
            <g id="Group_236" data-name="Group 236" transform="translate(58.819 163.746)" opacity="0.35">
              <g id="Group_235" data-name="Group 235">
                <g id="Group_234" data-name="Group 234" clip-path="url(#clip-path-18)">
                  <path id="Path_156" data-name="Path 156" d="M811.677,2261.667q.077-1,.168-2.029c-.058.687-.117,1.365-.168,2.029" transform="translate(-811.677 -2259.638)" fill="#371a45"/>
                </g>
              </g>
            </g>
            <g id="Group_239" data-name="Group 239" transform="translate(59.297 158.634)" opacity="0.35">
              <g id="Group_238" data-name="Group 238">
                <g id="Group_237" data-name="Group 237" clip-path="url(#clip-path-19)">
                  <path id="Path_157" data-name="Path 157" d="M818.272,2191.02c.065-.632.137-1.279.213-1.932-.076.653-.144,1.3-.213,1.932" transform="translate(-818.272 -2189.088)" fill="#371a45"/>
                </g>
              </g>
            </g>
            <g id="Group_242" data-name="Group 242" transform="translate(59.544 156.072)" opacity="0.35">
              <g id="Group_241" data-name="Group 241">
                <g id="Group_240" data-name="Group 240" clip-path="url(#clip-path-20)">
                  <path id="Path_158" data-name="Path 158" d="M821.688,2156c.086-.743.179-1.492.275-2.259q-.144,1.15-.275,2.259" transform="translate(-821.688 -2153.744)" fill="#371a45"/>
                </g>
              </g>
            </g>
            <g id="Group_245" data-name="Group 245" transform="translate(58.967 169.359)" opacity="0.25">
              <g id="Group_244" data-name="Group 244">
                <g id="Group_243" data-name="Group 243" clip-path="url(#clip-path-21)">
                  <path id="Path_159" data-name="Path 159" d="M813.721,2340.294c.117-1.035.241-2.1.375-3.194-.131,1.1-.258,2.159-.375,3.194" transform="translate(-813.721 -2337.1)" fill="#371a45"/>
                </g>
              </g>
            </g>
            <path id="Path_160" data-name="Path 160" d="M389.485,1064.055a.14.14,0,0,1,0,.038c-.021.34-.045.677-.076,1.007-.65,7.306-3.163,12.573-7.131,16.86a41.046,41.046,0,0,1-8.145,6.615c-6.924,4.452-15.537,4.456-24.314,4.026-20.6-.777-32.184-9.142-35.054-21.749a29.921,29.921,0,0,1-.708-7.01,37.554,37.554,0,0,1,.5-5.6q.32-1.98.629-3.93c1.111-7.021,2.125-13.787,3.2-20.807.629-4.119,1.282-8.323,1.994-12.717.048-.309.1-.615.148-.925.357-2.2.719-4.4,1.117-6.529q.165-.882.34-1.743a59.379,59.379,0,0,1,1.967-7.591l.089-.12,4.016-5.5c13.092-7.612,49.78-3.073,50.178,2.75a71.781,71.781,0,0,0,1.784,11.208q.237,1.011.488,2.018c.041.182.089.364.134.547.368,1.351.76,2.781,1.176,4.274,0,.017.01.034.014.052,1.5,5.418,3.235,11.638,4.7,17.892a130.009,130.009,0,0,1,2.994,16.919c.01.083.017.165.024.244a42.411,42.411,0,0,1-.065,9.778" transform="translate(-291.294 -922.307)" fill="#fff"/>
            <g id="Group_248" data-name="Group 248" transform="translate(23.23 133.253)" opacity="0.25">
              <g id="Group_247" data-name="Group 247">
                <g id="Group_246" data-name="Group 246" clip-path="url(#clip-path-22)">
                  <path id="Path_161" data-name="Path 161" d="M320.572,1852.977c2.41,13.257,14.062,22.117,35.292,22.918,8.777.43,17.39.426,24.314-4.026a41.048,41.048,0,0,0,8.145-6.615c4.153-4.49,6.715-10.053,7.21-17.906a39.64,39.64,0,0,0,.168-8.5c-.045.506-.107,1-.179,1.475-.512,7.852.316,13.6-3.971,18.094-2.334,2.458-8.64,4.411-11.882,6.426-7.148,4.453-16.038,4.456-25.1,4.026-17.775-.65-29.045-6.6-34-15.9" transform="translate(-320.572 -1838.853)" fill="#371a45"/>
                </g>
              </g>
            </g>
          </g>
        </g>
        <g id="Group_252" data-name="Group 252" transform="translate(21.534 70.753)">
          <g id="Group_251" data-name="Group 251" clip-path="url(#clip-path-23)">
            <rect id="Rectangle_318" data-name="Rectangle 318" width="78.216" height="101.023" transform="translate(-0.01 0)" fill="url(#radial-gradient-6)"/>
          </g>
        </g>
        <g id="Group_254" data-name="Group 254" transform="translate(23.877 177.854)">
          <g id="Group_253" data-name="Group 253" clip-path="url(#clip-path-24)">
            <rect id="Rectangle_319" data-name="Rectangle 319" width="35.37" height="6.272" transform="translate(-0.129 0)" fill="url(#radial-gradient-7)"/>
          </g>
        </g>
        <g id="Group_259" data-name="Group 259" transform="translate(0 0)">
          <g id="Group_258" data-name="Group 258" clip-path="url(#clip-path)">
            <path id="Path_164" data-name="Path 164" d="M889.5,2003.839c-.074-1.042,1.175,25.764,3.608,42.7,1.746,12.154,12.878,13.417,30.68,12.156,6.552-.464,11.572-2.417,11.065-7.6-.68-6.958-10.864-9.593-10.864-9.593s-.3-21.107-2.3-50.813" transform="translate(-825.035 -1846.435)" fill="#fff"/>
            <g id="Group_257" data-name="Group 257" transform="translate(64.457 157.382)" opacity="0.25">
              <g id="Group_256" data-name="Group 256">
                <g id="Group_255" data-name="Group 255" clip-path="url(#clip-path-26)">
                  <path id="Path_165" data-name="Path 165" d="M889.479,2171.808c0,.462,1.246,26.255,3.613,42.722,1.746,12.156,12.876,13.417,30.678,12.156,6.554-.462,11.573-2.416,11.066-7.6-.013-.121-.026-.239-.045-.357-2.017,1.319-5.034,1.976-8.479,2.218-17.8,1.262-28.935,0-30.681-12.156-1.81-12.586-4.751-29.531-6.115-36.977l-.035.013a.046.046,0,0,0,0-.022" transform="translate(-889.479 -2171.808)" fill="#371a45"/>
                </g>
              </g>
            </g>
          </g>
        </g>
        <g id="Group_261" data-name="Group 261" transform="translate(63.65 143.95)">
          <g id="Group_260" data-name="Group 260" clip-path="url(#clip-path-27)">
            <rect id="Rectangle_322" data-name="Rectangle 322" width="47.882" height="69.924" transform="translate(-0.432 0)" fill="url(#radial-gradient-8)"/>
          </g>
        </g>
        <g id="Group_263" data-name="Group 263" transform="translate(64.945 176.515)">
          <g id="Group_262" data-name="Group 262" clip-path="url(#clip-path-28)">
            <rect id="Rectangle_323" data-name="Rectangle 323" width="34.632" height="5.89" transform="translate(-0.124)" fill="url(#radial-gradient-9)"/>
          </g>
        </g>
        <g id="Group_265" data-name="Group 265" transform="translate(24.564 193.299)">
          <g id="Group_264" data-name="Group 264" clip-path="url(#clip-path-29)">
            <rect id="Rectangle_324" data-name="Rectangle 324" width="19.444" height="3.281" transform="translate(-0.165)" fill="url(#radial-gradient-10)"/>
          </g>
        </g>
        <g id="Group_267" data-name="Group 267" transform="translate(80.437 193.367)">
          <g id="Group_266" data-name="Group 266" clip-path="url(#clip-path-30)">
            <rect id="Rectangle_325" data-name="Rectangle 325" width="20.174" height="3.188" transform="translate(0 0)" fill="url(#radial-gradient-11)"/>
          </g>
        </g>
        <g id="Group_281" data-name="Group 281" transform="translate(0 0)">
          <g id="Group_280" data-name="Group 280" clip-path="url(#clip-path)">
            <g id="Group_270" data-name="Group 270" transform="translate(31.405 63.701)" opacity="0.7">
              <g id="Group_269" data-name="Group 269">
                <g id="Group_268" data-name="Group 268" clip-path="url(#clip-path-32)">
                  <path id="Path_170" data-name="Path 170" d="M440.082,881.732a3.473,3.473,0,1,1-4.652-2.478,3.749,3.749,0,0,1,4.652,2.478" transform="translate(-433.371 -879.049)" fill="#fff"/>
                </g>
              </g>
            </g>
            <path id="Path_171" data-name="Path 171" d="M324.854,1785.05A5.149,5.149,0,1,0,330,1779.9a5.149,5.149,0,0,0-5.149,5.149" transform="translate(-301.313 -1650.919)" fill="#fff"/>
            <g id="Group_273" data-name="Group 273" transform="translate(23.542 131.929)" opacity="0.35">
              <g id="Group_272" data-name="Group 272">
                <g id="Group_271" data-name="Group 271" clip-path="url(#clip-path-33)">
                  <path id="Path_172" data-name="Path 172" d="M324.868,1822.766a5.149,5.149,0,1,0,10.3,0,5.091,5.091,0,0,0-.495-2.2,5.149,5.149,0,0,1-9.308,0,5.09,5.09,0,0,0-.5,2.2" transform="translate(-324.868 -1820.565)" fill="#371a45"/>
                </g>
              </g>
            </g>
            <path id="Path_173" data-name="Path 173" d="M314.3,1775.724a6.375,6.375,0,1,1,6.375-6.375,6.382,6.382,0,0,1-6.375,6.375m0-10.3a3.922,3.922,0,1,0,3.922,3.922,3.926,3.926,0,0,0-3.922-3.922" transform="translate(-285.613 -1635.218)" fill="#371a45"/>
            <g id="Group_276" data-name="Group 276" transform="translate(31.355 124.066)" opacity="0.25">
              <g id="Group_275" data-name="Group 275">
                <g id="Group_274" data-name="Group 274" clip-path="url(#clip-path-34)">
                  <path id="Path_174" data-name="Path 174" d="M499.532,1729.752a.139.139,0,0,1,0,.038c-4.181,1.547-12.432,3.17-27.79,1.87l-.162,2.7a5.874,5.874,0,0,1-6.2,5.5l-27.171-1.616a5.877,5.877,0,0,1-5.5-6.2l.179-3,.684-11.452a5.873,5.873,0,0,1,6.2-5.5l27.167,1.616a5.662,5.662,0,0,1,1.162.189,5.88,5.88,0,0,1,4.339,6.01l-.175,2.943,0,0s17.936.925,27.308-3.1c.01.083.017.165.024.244a42.413,42.413,0,0,1-.065,9.778" transform="translate(-432.696 -1712.07)" fill="#371a45"/>
                </g>
              </g>
            </g>
            <path id="Path_175" data-name="Path 175" d="M399.4,1692.231l27.171,1.616a5.878,5.878,0,0,0,6.2-5.5l.859-14.459a5.881,5.881,0,0,0-4.341-6.01,5.685,5.685,0,0,0-1.162-.188l-27.167-1.616a5.873,5.873,0,0,0-6.2,5.5l-.683,11.452-.18,3.007a5.878,5.878,0,0,0,5.5,6.2" transform="translate(-365.343 -1545.328)" fill="#fff"/>
            <g id="Group_279" data-name="Group 279" transform="translate(28.543 122.547)" opacity="0.25">
              <g id="Group_278" data-name="Group 278">
                <g id="Group_277" data-name="Group 277" clip-path="url(#clip-path-35)">
                  <path id="Path_176" data-name="Path 176" d="M399.4,1715.459l27.171,1.616a5.878,5.878,0,0,0,6.2-5.5l.859-14.459a5.881,5.881,0,0,0-4.341-6.01c-1.6.933-2.623,1.53-2.623,1.53-2.013,11.528-5.663,17.118-20.089,16.5-6.227-.27-10.1-1.453-12.5-2.876l-.18,3.007a5.878,5.878,0,0,0,5.5,6.2" transform="translate(-393.887 -1691.103)" fill="#371a45"/>
                </g>
              </g>
            </g>
          </g>
        </g>
        <g id="Group_283" data-name="Group 283" transform="translate(27.317 119.504)">
          <g id="Group_282" data-name="Group 282" clip-path="url(#clip-path-36)">
            <rect id="Rectangle_331" data-name="Rectangle 331" width="42.524" height="30.253" transform="translate(-0.219 0)" fill="url(#radial-gradient-12)"/>
          </g>
        </g>
        <g id="Group_288" data-name="Group 288" transform="translate(0 0)">
          <g id="Group_287" data-name="Group 287" clip-path="url(#clip-path)">
            <path id="Path_178" data-name="Path 178" d="M455.008,1708.427a5.217,5.217,0,0,0,1.084.172l27.171,1.616a5.873,5.873,0,0,0,5.527-3.122,5.763,5.763,0,0,0,.667-2.381l.385-6.423.127-2.119.352-5.916a5.879,5.879,0,0,0-5.5-6.2l-5.871-.348a5.877,5.877,0,0,1,4.427,6.027l-.462,7.811-.4,6.652a5.881,5.881,0,0,1-6.2,5.5Z" transform="translate(-422.036 -1561.696)" fill="#fff"/>
            <g id="Group_286" data-name="Group 286" transform="translate(32.972 134.473)" opacity="0.25">
              <g id="Group_285" data-name="Group 285">
                <g id="Group_284" data-name="Group 284" clip-path="url(#clip-path-38)">
                  <path id="Path_179" data-name="Path 179" d="M455.008,1867.941a5.217,5.217,0,0,0,1.084.172l27.171,1.616a5.872,5.872,0,0,0,6.194-5.5l.512-8.543c-.773,1.469-2.111,3.249-4.087,3.326-1.084.045-2.1-.794-2.97-1.952l-.4,6.652a5.881,5.881,0,0,1-6.2,5.5Z" transform="translate(-455.008 -1855.683)" fill="#371a45"/>
                </g>
              </g>
            </g>
          </g>
        </g>
        <g id="Group_290" data-name="Group 290" transform="translate(32.659 120.784)">
          <g id="Group_289" data-name="Group 289" clip-path="url(#clip-path-39)">
            <rect id="Rectangle_334" data-name="Rectangle 334" width="37.083" height="28.973" transform="translate(0)" fill="url(#radial-gradient-13)"/>
          </g>
        </g>
        <g id="Group_301" data-name="Group 301" transform="translate(0 0)">
          <g id="Group_300" data-name="Group 300" clip-path="url(#clip-path)">
            <path id="Path_181" data-name="Path 181" d="M692.561,1797.894c-.029.535.491,4.893.491,4.893l3.047.164c2.1.113,3.916-1.969,4.06-4.649s-1.44-4.944-3.539-5.057l-3.047-.164s-.966,3.941-1.013,4.812" transform="translate(-642.373 -1663.145)" fill="#00d349"/>
            <g id="Group_293" data-name="Group 293" transform="translate(50.187 129.937)" opacity="0.35">
              <g id="Group_292" data-name="Group 292">
                <g id="Group_291" data-name="Group 291" clip-path="url(#clip-path-41)">
                  <path id="Path_182" data-name="Path 182" d="M692.561,1797.894c-.029.535.491,4.893.491,4.893l3.047.164c2.1.113,3.916-1.969,4.06-4.649s-1.44-4.944-3.539-5.057l-3.047-.164s-.966,3.941-1.013,4.812" transform="translate(-692.56 -1793.082)" fill="#371a45"/>
                </g>
              </g>
            </g>
            <path id="Path_183" data-name="Path 183" d="M687,1794.005c-.068,0-.136,0-.2-.005l-3.656-.2-.072-.6c-.124-1.037-.525-4.464-.5-5.018.049-.913.932-4.536,1.033-4.946l.143-.583,3.647.2a4.13,4.13,0,0,1,3.165,1.874,6.577,6.577,0,0,1-.417,7.755,4.166,4.166,0,0,1-3.143,1.529m-2.565-1.584,2.438.131a2.716,2.716,0,0,0,2.178-1.03,5.133,5.133,0,0,0,.321-5.97,2.714,2.714,0,0,0-2.055-1.257l-2.446-.132c-.361,1.51-.824,3.579-.852,4.095-.011.294.192,2.248.416,4.164m-1.139-4.2h0Z" transform="translate(-633.106 -1653.47)" fill="#231f20"/>
            <path id="Path_184" data-name="Path 184" d="M650.406,1797.674c-.144,2.68,1.44,4.944,3.539,5.057s3.916-1.969,4.06-4.649-1.44-4.944-3.539-5.057-3.916,1.969-4.06,4.649" transform="translate(-603.265 -1663.088)" fill="#00d349"/>
            <g id="Group_296" data-name="Group 296" transform="translate(47.132 133.235)" opacity="0.35">
              <g id="Group_295" data-name="Group 295">
                <g id="Group_294" data-name="Group 294" clip-path="url(#clip-path-42)">
                  <path id="Path_185" data-name="Path 185" d="M653.96,1844.995c2.1.113,3.913-1.968,4.058-4.648a6.015,6.015,0,0,0-.16-1.759c-.505,2.128-2.1,3.643-3.9,3.548a3.96,3.96,0,0,1-3.379-3.3,6.133,6.133,0,0,0-.16,1.1c-.145,2.682,1.44,4.944,3.539,5.057" transform="translate(-650.412 -1838.588)" fill="#371a45"/>
                </g>
              </g>
            </g>
            <g id="Group_299" data-name="Group 299" transform="translate(47.132 129.932)" opacity="0.7">
              <g id="Group_298" data-name="Group 298">
                <g id="Group_297" data-name="Group 297" clip-path="url(#clip-path-43)">
                  <path id="Path_186" data-name="Path 186" d="M650.482,1798.935c.354-2.389,2.055-4.163,4-4.058,1.756.093,3.156,1.7,3.478,3.794.029-.192.049-.392.061-.592.145-2.679-1.44-4.944-3.539-5.057s-3.916,1.968-4.059,4.648a6.07,6.07,0,0,0,.061,1.266" transform="translate(-650.411 -1793.017)" fill="#fff"/>
                </g>
              </g>
            </g>
            <path id="Path_187" data-name="Path 187" d="M644.836,1794.185q-.1,0-.2-.005c-2.494-.134-4.389-2.745-4.223-5.82a6.3,6.3,0,0,1,1.475-3.809,3.976,3.976,0,0,1,6.513.35,6.578,6.578,0,0,1-.417,7.755,4.166,4.166,0,0,1-3.143,1.529m.194-9.714a2.752,2.752,0,0,0-2.055,1.033,4.851,4.851,0,0,0-1.119,2.934c-.122,2.277,1.158,4.2,2.854,4.294a2.717,2.717,0,0,0,2.178-1.03,5.134,5.134,0,0,0,.321-5.971,2.715,2.715,0,0,0-2.055-1.257c-.041,0-.082,0-.123,0m-3.9,3.928h0Z" transform="translate(-593.991 -1653.813)" fill="#231f20"/>
          </g>
        </g>
        <g id="Group_303" data-name="Group 303" transform="translate(37.659 120.04)">
          <g id="Group_302" data-name="Group 302" clip-path="url(#clip-path-44)">
            <rect id="Rectangle_339" data-name="Rectangle 339" width="6.228" height="28.181" transform="translate(-0.128 0)" fill="url(#radial-gradient-14)"/>
          </g>
        </g>
        <g id="Group_308" data-name="Group 308" transform="translate(0 0)">
          <g id="Group_307" data-name="Group 307" clip-path="url(#clip-path)">
            <path id="Path_189" data-name="Path 189" d="M944.267,1757.361a5.309,5.309,0,0,1-2.466,3.77s-5.67,6.152-31.62,3.956c0,0-4.278-4.717.527-8.826,0,0,21.3,1.1,29.6-4.312,1.913-1.246,4.25,2.515,3.954,5.411" transform="translate(-842.597 -1624.766)" fill="#fff"/>
            <g id="Group_306" data-name="Group 306" transform="translate(65.83 131.579)" opacity="0.25">
              <g id="Group_305" data-name="Group 305">
                <g id="Group_304" data-name="Group 304" clip-path="url(#clip-path-46)">
                  <path id="Path_190" data-name="Path 190" d="M944.269,1816.755a5.315,5.315,0,0,1-2.468,3.768s-5.669,6.154-31.62,3.957c0,0-3.469-3.827-.646-7.588,0,.023,0,.046.005.068a4.6,4.6,0,0,0,4.308,4.15c23.755,1.591,29.046-4.153,29.046-4.153a5.515,5.515,0,0,0,1.375-1.22,5.026,5.026,0,0,1,0,1.018" transform="translate(-908.428 -1815.738)" fill="#371a45"/>
                </g>
              </g>
            </g>
          </g>
        </g>
        <g id="Group_310" data-name="Group 310" transform="translate(64.603 125.712)">
          <g id="Group_309" data-name="Group 309" clip-path="url(#clip-path-47)">
            <rect id="Rectangle_342" data-name="Rectangle 342" width="38.722" height="16.314" transform="translate(-0.184 0)" fill="url(#radial-gradient-15)"/>
          </g>
        </g>
        <g id="Group_316" data-name="Group 316" transform="translate(0 0)">
          <g id="Group_315" data-name="Group 315" clip-path="url(#clip-path)">
            <path id="Path_192" data-name="Path 192" d="M219.375,1634.078c1.9-2.063,5.3-6.072,11.141.682,4.65,5.38,3.429,18.631-1.151,21.876-2.456,1.74-5.048-1.243-5.456,2.406,0,0-5.372-3.614-6.618-8.756-2.083-8.594.789-14.8,2.083-16.207" transform="translate(-200.864 -1512.812)" fill="#fff"/>
            <g id="Group_314" data-name="Group 314" transform="translate(15.693 128.003)" opacity="0.25">
              <g id="Group_313" data-name="Group 313">
                <g id="Group_312" data-name="Group 312" clip-path="url(#clip-path-49)">
                  <path id="Path_193" data-name="Path 193" d="M229.363,1782.218c-2.455,1.74-5.047-1.245-5.456,2.4,0,0-5.37-3.613-6.618-8.753a24.308,24.308,0,0,1-.471-9.472c.113.787.366,1.581.471,2.431.076.614.172,1.194.283,1.742a7.394,7.394,0,0,0,8.682,5.719,7.922,7.922,0,0,0,3.11-1.107c1.956-1.389,3.3-4.6,3.833-8.248.915,5.924-.646,13.027-3.833,15.286" transform="translate(-216.553 -1766.396)" fill="#371a45"/>
                </g>
              </g>
            </g>
          </g>
        </g>
        <g id="Group_318" data-name="Group 318" transform="translate(14.469 116.965)">
          <g id="Group_317" data-name="Group 317" clip-path="url(#clip-path-50)">
            <rect id="Rectangle_345" data-name="Rectangle 345" width="20.12" height="30.49" transform="translate(-0.418 0)" fill="url(#radial-gradient-16)"/>
          </g>
        </g>
        <g id="Group_326" data-name="Group 326" transform="translate(0 0)">
          <g id="Group_325" data-name="Group 325" clip-path="url(#clip-path)">
            <g id="Group_321" data-name="Group 321" transform="translate(26.044 72.057)" opacity="0.25">
              <g id="Group_320" data-name="Group 320">
                <g id="Group_319" data-name="Group 319" clip-path="url(#clip-path-52)">
                  <path id="Path_195" data-name="Path 195" d="M412.818,1019.01l3.761,5.1a49.181,49.181,0,0,1-53.991-4.243q-1.65-1.284-3.19-2.706c2.039-2.558,3.71-4.5,4.648-5.566a59.379,59.379,0,0,1,1.967-7.591l.089-.12,4.016-5.5c13.092-7.612,49.78-3.073,50.178,2.75a71.77,71.77,0,0,0,1.784,11.208q.237,1.011.488,2.018a40.507,40.507,0,0,1-9.75,4.658" transform="translate(-359.398 -994.364)" fill="#371a45"/>
                </g>
              </g>
            </g>
            <path id="Path_196" data-name="Path 196" d="M27.434,513.111h0a1,1,0,0,0,1-1l.046-28.9a1,1,0,0,0-1-1,10.524,10.524,0,0,0-10.541,10.508l-.016,9.854a10.525,10.525,0,0,0,10.508,10.541" transform="translate(-15.7 -447.264)" fill="#fff"/>
            <path id="Path_197" data-name="Path 197" d="M24.615,510.51h0v0a10.745,10.745,0,0,1-10.728-10.762l.016-9.854a10.745,10.745,0,0,1,10.762-10.728,1.224,1.224,0,0,1,1.222,1.226l-.046,28.9a1.224,1.224,0,0,1-1.223,1.222m.031-30.9a10.3,10.3,0,0,0-10.3,10.288l-.016,9.854A10.3,10.3,0,0,0,24.614,510.07h0a.783.783,0,0,0,.783-.782l.046-28.9a.783.783,0,0,0-.782-.784h-.017" transform="translate(-12.88 -444.443)" fill="#371a45"/>
            <g id="Group_324" data-name="Group 324" transform="translate(1.226 50.685)" opacity="0.35">
              <g id="Group_323" data-name="Group 323">
                <g id="Group_322" data-name="Group 322" clip-path="url(#clip-path-53)">
                  <path id="Path_198" data-name="Path 198" d="M16.922,699.426l-.008,4.621A10.529,10.529,0,0,0,27.423,714.59a1,1,0,0,0,1-1l.015-7.682a1,1,0,0,1-.914.594l-.685,0a10.516,10.516,0,0,1-9.922-7.069" transform="translate(-16.914 -699.426)" fill="#371a45"/>
                </g>
              </g>
            </g>
          </g>
        </g>
        <g id="Group_328" data-name="Group 328" transform="translate(0 33.717)">
          <g id="Group_327" data-name="Group 327" clip-path="url(#clip-path-54)">
            <rect id="Rectangle_349" data-name="Rectangle 349" width="14.013" height="33.356" fill="url(#radial-gradient-17)"/>
          </g>
        </g>
        <g id="Group_333" data-name="Group 333" transform="translate(0 0)">
          <g id="Group_332" data-name="Group 332" clip-path="url(#clip-path)">
            <path id="Path_200" data-name="Path 200" d="M1465.373,484.32h0a1,1,0,0,0-1,1l-.046,28.9a1,1,0,0,0,1,1,10.524,10.524,0,0,0,10.541-10.508l.016-9.854a10.525,10.525,0,0,0-10.508-10.541" transform="translate(-1358.209 -449.223)" fill="#fff"/>
            <path id="Path_201" data-name="Path 201" d="M1462.52,512.622h-.018a1.224,1.224,0,0,1-1.222-1.226l.046-28.9a1.225,1.225,0,0,1,1.224-1.222h0a10.745,10.745,0,0,1,10.728,10.762l-.016,9.854a10.757,10.757,0,0,1-10.745,10.728m.031-30.9a.784.784,0,0,0-.783.782l-.046,28.9a.783.783,0,0,0,.781.784h.017a10.316,10.316,0,0,0,10.3-10.288l.016-9.854a10.3,10.3,0,0,0-10.288-10.321Z" transform="translate(-1355.389 -446.403)" fill="#371a45"/>
            <g id="Group_331" data-name="Group 331" transform="translate(106.111 51.341)" opacity="0.35">
              <g id="Group_330" data-name="Group 330">
                <g id="Group_329" data-name="Group 329" clip-path="url(#clip-path-56)">
                  <path id="Path_202" data-name="Path 202" d="M1464.315,714.13l-.012,8.016a1.006,1.006,0,0,0,1,1.005,10.52,10.52,0,0,0,10.54-10.506l.007-4.152a10.528,10.528,0,0,1-9.6,6.166l-1.054,0a1.015,1.015,0,0,1-.886-.527" transform="translate(-1464.303 -708.493)" fill="#371a45"/>
                </g>
              </g>
            </g>
          </g>
        </g>
        <g id="Group_335" data-name="Group 335" transform="translate(104.886 33.87)">
          <g id="Group_334" data-name="Group 334" clip-path="url(#clip-path-57)">
            <rect id="Rectangle_352" data-name="Rectangle 352" width="14.018" height="33.356" transform="translate(-0.001 0)" fill="url(#radial-gradient-17)"/>
          </g>
        </g>
        <g id="Group_340" data-name="Group 340" transform="translate(0 0)">
          <g id="Group_339" data-name="Group 339" clip-path="url(#clip-path)">
            <path id="Path_204" data-name="Path 204" d="M140.867,69.6A49.242,49.242,0,1,0,186.576,17.06,49.242,49.242,0,0,0,140.867,69.6" transform="translate(-130.547 -15.711)" fill="#fff"/>
            <path id="Path_205" data-name="Path 205" d="M187.083,112.815a49.478,49.478,0,0,1-22.293-93.6,49.475,49.475,0,1,1,25.8,93.474q-1.756.122-3.5.122m.107-98.488q-1.707,0-3.433.119a49.022,49.022,0,0,0,3.365,97.926q1.707,0,3.432-.119a49.022,49.022,0,0,0-3.365-97.926" transform="translate(-127.713 -12.878)" fill="#371a45"/>
            <g id="Group_338" data-name="Group 338" transform="translate(10.199 44.732)" opacity="0.35">
              <g id="Group_337" data-name="Group 337">
                <g id="Group_336" data-name="Group 336" clip-path="url(#clip-path-59)">
                  <path id="Path_206" data-name="Path 206" d="M140.862,619.6a49.244,49.244,0,1,0,98.25,0c-.054-.78-.126-1.56-.217-2.326a49.244,49.244,0,0,1-98.033,2.321" transform="translate(-140.743 -617.279)" fill="#371a45"/>
                </g>
              </g>
            </g>
          </g>
        </g>
        <g id="Group_342" data-name="Group 342" transform="translate(8.972 0)">
          <g id="Group_341" data-name="Group 341" clip-path="url(#clip-path-60)">
            <rect id="Rectangle_355" data-name="Rectangle 355" width="101.639" height="100.943" transform="translate(-0.348 0)" fill="url(#radial-gradient-19)"/>
          </g>
        </g>
        <g id="Group_344" data-name="Group 344" transform="translate(10.501 16.317)">
          <g id="Group_343" data-name="Group 343" clip-path="url(#clip-path-61)">
            <rect id="Rectangle_356" data-name="Rectangle 356" width="99.634" height="78.431" transform="translate(-1.32 0)" fill="url(#radial-gradient-20)"/>
          </g>
        </g>
        <g id="Group_346" data-name="Group 346" transform="translate(9.275 15.091)">
          <g id="Group_345" data-name="Group 345" clip-path="url(#clip-path-62)">
            <rect id="Rectangle_357" data-name="Rectangle 357" width="101.042" height="80.03" transform="translate(-0.28 0)" fill="url(#radial-gradient-21)"/>
          </g>
        </g>
        <g id="Group_351" data-name="Group 351" transform="translate(0 0)">
          <g id="Group_350" data-name="Group 350" clip-path="url(#clip-path)">
            <g id="Group_349" data-name="Group 349" transform="translate(10.502 30.866)" opacity="0.35">
              <g id="Group_348" data-name="Group 348">
                <g id="Group_347" data-name="Group 347" clip-path="url(#clip-path-64)">
                  <path id="Path_210" data-name="Path 210" d="M153.193,425.941c-5.664,6.025-8.767,14.042-8.213,24.269a44.191,44.191,0,0,0,9.873,25.487c4.307,5.323,21.3,14.126,41.635,13.206a60.735,60.735,0,0,0,19.973-4.536c-25.024.6-45.724-10.215-51.064-16.817A56.042,56.042,0,0,1,152.867,435.2a49.852,49.852,0,0,1,.326-9.264" transform="translate(-144.917 -425.941)" fill="#111a28"/>
                </g>
              </g>
            </g>
          </g>
        </g>
        <g id="Group_353" data-name="Group 353" transform="translate(12.328 9.982)">
          <g id="Group_352" data-name="Group 352" clip-path="url(#clip-path-65)">
            <rect id="Rectangle_360" data-name="Rectangle 360" width="92.566" height="23.823" transform="translate(-0.106 0)" fill="url(#radial-gradient-22)"/>
          </g>
        </g>
        <g id="Group_358" data-name="Group 358" transform="translate(0 0)">
          <g id="Group_357" data-name="Group 357" clip-path="url(#clip-path)">
            <path id="Path_212" data-name="Path 212" d="M1153.5,732.4c-.832,17.379-18.813,34.717-41.147,39.586-.7.151-1.4.292-2.1.419l-9.912-13.429-3.761-5.1a40.51,40.51,0,0,0,9.75-4.659,37.377,37.377,0,0,0,5.3-4.133,94.749,94.749,0,0,0,11.359-12.8,0,0,0,0,1,0,0,107.5,107.5,0,0,0,11.449-19.954c3.1-6.876,12.875-4.672,7.636,8.454,0,0,11.782,4.112,11.425,11.614" transform="translate(-1017.117 -657.176)" fill="#fff"/>
            <g id="Group_356" data-name="Group 356" transform="translate(87.985 73.977)" opacity="0.25">
              <g id="Group_355" data-name="Group 355">
                <g id="Group_354" data-name="Group 354" clip-path="url(#clip-path-67)">
                  <path id="Path_213" data-name="Path 213" d="M1262.565,1022.106c-.832,17.379-18.813,34.717-41.147,39.586-.7.151-1.4.292-2.1.419,0,0-5.152-2.831-5.152-3.8,0-1.618,2.668-1.134,5.582-1.416,17.205-1.66,39.648-20.054,42.762-36.034a6.772,6.772,0,0,1,.055,1.245" transform="translate(-1214.165 -1020.861)" fill="#371a45"/>
                </g>
              </g>
            </g>
          </g>
        </g>
        <g id="Group_360" data-name="Group 360" transform="translate(79.125 50.117)">
          <g id="Group_359" data-name="Group 359" clip-path="url(#clip-path-68)">
            <rect id="Rectangle_363" data-name="Rectangle 363" width="58.506" height="65.597" transform="translate(-0.013 0)" fill="url(#radial-gradient-23)"/>
          </g>
        </g>
        <g id="Group_374" data-name="Group 374" transform="translate(0 0)">
          <g id="Group_373" data-name="Group 373" clip-path="url(#clip-path)">
            <g id="Group_363" data-name="Group 363" transform="translate(115.79 68.065)" opacity="0.35">
              <g id="Group_362" data-name="Group 362">
                <g id="Group_361" data-name="Group 361" clip-path="url(#clip-path-70)">
                  <path id="Path_215" data-name="Path 215" d="M1603.851,939.271c-4.975,1.861-6.35,6.8-5.905,8.373,1.7,6.017,15.087,15.047,19.083,3.606,0,0-3.026.195-3.652-2" transform="translate(-1597.868 -939.271)" fill="#371a45"/>
                </g>
              </g>
            </g>
            <path id="Path_216" data-name="Path 216" d="M1633.857,939.271c-1.052,2.589-3.115,2.872-3.6,6.067-.939,6.181,15.006,13.779,18,3.352a6.1,6.1,0,0,1-1.436-2.876" transform="translate(-1512.083 -871.206)" fill="#fff"/>
            <g id="Group_366" data-name="Group 366" transform="translate(121.77 68.064)" opacity="0.35">
              <g id="Group_365" data-name="Group 365">
                <g id="Group_364" data-name="Group 364" clip-path="url(#clip-path-71)">
                  <path id="Path_217" data-name="Path 217" d="M1680.387,939.258s-.007.007-.007.01,0-.007,0-.01Z" transform="translate(-1680.38 -939.258)" fill="#371a45"/>
                </g>
              </g>
            </g>
            <g id="Group_369" data-name="Group 369" transform="translate(118.133 69.521)" opacity="0.35">
              <g id="Group_368" data-name="Group 368">
                <g id="Group_367" data-name="Group 367" clip-path="url(#clip-path-72)">
                  <path id="Path_218" data-name="Path 218" d="M1648.033,967.986c-3.462,9.451-18.707,2.046-17.788-4,.375-2.475,1.7-3.2,2.764-4.61a6.3,6.3,0,0,0-.337,1.313c-.774,5.088,9.895,11.136,15.361,7.3" transform="translate(-1630.204 -959.374)" fill="#371a45"/>
                </g>
              </g>
            </g>
            <g id="Group_372" data-name="Group 372" transform="translate(120.938 68.074)" opacity="0.35">
              <g id="Group_371" data-name="Group 371">
                <g id="Group_370" data-name="Group 370" clip-path="url(#clip-path-73)">
                  <path id="Path_219" data-name="Path 219" d="M1669.73,939.4a6.281,6.281,0,0,1-.832,1.447,5.33,5.33,0,0,1,.832-1.447" transform="translate(-1668.898 -939.4)" fill="#371a45"/>
                </g>
              </g>
            </g>
          </g>
        </g>
        <g id="Group_376" data-name="Group 376" transform="translate(116.855 67.734)">
          <g id="Group_375" data-name="Group 375" clip-path="url(#clip-path-74)">
            <rect id="Rectangle_369" data-name="Rectangle 369" width="20.841" height="16.137" transform="translate(-0.004 0)" fill="url(#radial-gradient-24)"/>
          </g>
        </g>
        <g id="Group_390" data-name="Group 390" transform="translate(0 0)">
          <g id="Group_389" data-name="Group 389" clip-path="url(#clip-path)">
            <g id="Group_379" data-name="Group 379" transform="translate(79.464 75.112)" opacity="0.25">
              <g id="Group_378" data-name="Group 378">
                <g id="Group_377" data-name="Group 377" clip-path="url(#clip-path-76)">
                  <path id="Path_221" data-name="Path 221" d="M1122.99,1036.518a49.374,49.374,0,0,1-15.348,21.753,48.707,48.707,0,0,1-7.3,4.934l-3.761-5.1a40.507,40.507,0,0,0,9.75-4.659,37.371,37.371,0,0,0,5.3-4.133,94.754,94.754,0,0,0,11.359-12.8" transform="translate(-1096.582 -1036.518)" fill="#371a45"/>
                </g>
              </g>
            </g>
            <g id="Group_382" data-name="Group 382" transform="translate(86.758 47.066)" opacity="0.5">
              <g id="Group_381" data-name="Group 381">
                <g id="Group_380" data-name="Group 380" clip-path="url(#clip-path-77)">
                  <path id="Path_222" data-name="Path 222" d="M1197.43,656.206c-.834,4.273,1,8.226,4.1,8.83s6.282-2.37,7.116-6.643-1-8.226-4.1-8.83-6.282,2.37-7.116,6.643" transform="translate(-1197.229 -649.486)" fill="#fff"/>
                </g>
              </g>
            </g>
            <g id="Group_385" data-name="Group 385" transform="translate(82.195 66.831)" opacity="0.5">
              <g id="Group_384" data-name="Group 384">
                <g id="Group_383" data-name="Group 383" clip-path="url(#clip-path-78)">
                  <path id="Path_223" data-name="Path 223" d="M1134.483,924.795a3.141,3.141,0,1,0,4.113-2.411,3.391,3.391,0,0,0-4.113,2.411" transform="translate(-1134.256 -922.237)" fill="#fff"/>
                </g>
              </g>
            </g>
            <g id="Group_388" data-name="Group 388" transform="translate(19.025 26.46)" opacity="0.5">
              <g id="Group_387" data-name="Group 387">
                <g id="Group_386" data-name="Group 386" clip-path="url(#clip-path-79)">
                  <path id="Path_224" data-name="Path 224" d="M265.014,408.424s-8.011-24,4.825-33.853,31.551-10.149,31.135-8.941c0,0-20.629,5.388-28.441,21.912-6.025,12.743-7.518,20.881-7.518,20.881" transform="translate(-262.544 -365.132)" fill="#fff"/>
                </g>
              </g>
            </g>
          </g>
        </g>
        <g id="Group_392" data-name="Group 392" transform="translate(102.485 77.589)">
          <g id="Group_391" data-name="Group 391" clip-path="url(#clip-path-80)">
            <rect id="Rectangle_375" data-name="Rectangle 375" width="24.716" height="20.653" transform="translate(-0.06 0)" fill="url(#radial-gradient-25)"/>
          </g>
        </g>
      </g>
    </g>
  </g>
</svg>
