<svg width="201" height="33" viewBox="0 0 201 33" fill="none" xmlns="http://www.w3.org/2000/svg">
  <path d="M14.556 32.4324H23.0471V16.2162H14.556V32.4324ZM30.3251 32.4324H38.8161V16.2162H30.3251V32.4324ZM0 0V32.4324H8.49102V9.08231H38.8161V0H0Z" fill="#00D045"/>
  <path d="M50.0713 0.611938H49.4648V32.4325H50.0713V0.611938Z" fill="#00D045"/>
  <path d="M69.7682 25.0892H61.2905V10.2376H69.7682V12.8175H64.4104V16.0779H69.3958V18.659H64.4104V22.4885H69.767L69.7682 25.0892Z" fill="#00D045"/>
  <path d="M82.0159 25.0893H78.9445V18.4559C78.9872 17.8148 78.8457 17.1748 78.537 16.6128C78.3941 16.4072 78.2006 16.2426 77.9756 16.1353C77.7506 16.028 77.5018 15.9817 77.2536 16.0008C76.9164 15.9755 76.5787 16.0437 76.2771 16.1979C75.9754 16.3521 75.7213 16.5866 75.5421 16.8759C75.1201 17.7709 74.9362 18.7612 75.0083 19.7495V25.0893H71.937V13.7318H74.283L74.6954 15.1845H74.8664C75.1757 14.6566 75.631 14.2312 76.1765 13.9607C76.7862 13.6569 77.4592 13.5049 78.1391 13.5176C78.8077 13.4379 79.485 13.5525 80.0914 13.8477C80.6978 14.143 81.208 14.6068 81.5622 15.1845H81.8351C82.1466 14.6495 82.612 14.2227 83.1694 13.9607C83.7896 13.6615 84.4702 13.5115 85.1575 13.5225C85.6811 13.4841 86.2071 13.5521 86.7042 13.7224C87.2013 13.8927 87.6595 14.1618 88.0518 14.5138C88.7834 15.3988 89.1368 16.5407 89.0343 17.6886V25.0893H85.9533V18.4559C85.9954 17.8148 85.8539 17.175 85.5457 16.6128C85.4025 16.4072 85.2089 16.2426 84.9837 16.1353C84.7584 16.0281 84.5095 15.9817 84.2611 16.0008C83.9345 15.9797 83.608 16.0432 83.3126 16.1855C83.0172 16.3277 82.7629 16.5439 82.5738 16.8135C82.1432 17.6009 81.9493 18.4978 82.0159 19.3946V25.0893Z" fill="#00D045"/>
  <path d="M97.7086 25.2912C97.1126 25.3175 96.5191 25.1993 95.9778 24.9466C95.4364 24.6938 94.963 24.3138 94.5972 23.8385H94.4359C94.5442 24.7866 94.598 25.3353 94.5972 25.4846V30.0863H91.5259V13.7306H94.0235L94.4565 15.1992H94.5972C94.9316 14.6563 95.4039 14.2134 95.965 13.9167C96.5262 13.6199 97.1558 13.48 97.7886 13.5115C98.3961 13.488 98.9998 13.6179 99.545 13.8893C100.09 14.1607 100.56 14.5651 100.911 15.0658C101.731 16.3481 102.125 17.8602 102.038 19.3836C102.061 20.4607 101.882 21.5325 101.51 22.5424C101.216 23.3565 100.693 24.0664 100.005 24.585C99.3323 25.0581 98.5282 25.3033 97.7086 25.2851M96.8024 15.9837C96.4895 15.9569 96.1748 16.0072 95.8853 16.1302C95.5959 16.2532 95.3403 16.4453 95.1406 16.6899C94.7325 17.3925 94.5431 18.2026 94.5972 19.0152V19.3493C94.5261 20.2574 94.7129 21.1672 95.1358 21.9721C95.3294 22.2403 95.5879 22.4538 95.8868 22.5923C96.1856 22.7307 96.5147 22.7894 96.8425 22.7627C98.2172 22.7627 98.9046 21.6204 98.9046 19.3359C98.9593 18.4671 98.7834 17.5994 98.3951 16.822C98.2289 16.5503 97.9922 16.3297 97.7106 16.1841C97.429 16.0385 97.1132 15.9734 96.7976 15.9959" fill="#00D045"/>
  <path d="M114.143 19.3897C114.234 20.9713 113.712 22.5266 112.688 23.7271C112.163 24.2618 111.532 24.6778 110.836 24.9474C110.139 25.2171 109.394 25.3343 108.65 25.2912C107.651 25.3118 106.664 25.0648 105.791 24.5752C104.966 24.0983 104.303 23.3818 103.888 22.5191C103.427 21.5427 103.199 20.4709 103.223 19.3897C103.127 17.8128 103.643 16.2601 104.663 15.0609C105.192 14.5305 105.826 14.1188 106.523 13.8529C107.221 13.5869 107.966 13.4727 108.71 13.5176C109.709 13.4967 110.695 13.7425 111.569 14.2299C112.394 14.7011 113.058 15.4127 113.474 16.2713C113.936 17.2434 114.164 18.3119 114.139 19.3897M106.355 19.3897C106.299 20.2745 106.49 21.1574 106.904 21.939C107.099 22.2303 107.367 22.4639 107.681 22.6158C107.995 22.7677 108.343 22.8323 108.69 22.8031C109.033 22.8326 109.379 22.7687 109.689 22.618C110 22.4674 110.265 22.2354 110.457 21.9464C110.866 21.161 111.053 20.2774 110.997 19.3921C111.054 18.514 110.866 17.6374 110.452 16.8624C110.235 16.5996 109.963 16.3881 109.656 16.243C109.349 16.0979 109.014 16.0226 108.675 16.0226C108.336 16.0226 108.001 16.0979 107.694 16.243C107.387 16.3881 107.115 16.5996 106.898 16.8624C106.484 17.6388 106.296 18.5174 106.355 19.397" fill="#00D045"/>
  <path d="M125.276 25.0892L124.409 21.1166L123.241 16.0987H123.172L121.117 25.0892H117.816L114.613 13.7318H117.674L118.973 18.7594C119.181 19.6569 119.393 20.8999 119.607 22.4885H119.668C119.736 21.6662 119.854 20.8489 120.02 20.0408L120.181 19.1767L121.57 13.7318H124.953L126.273 19.1767C126.299 19.326 126.34 19.5463 126.394 19.8376C126.451 20.1277 126.507 20.4373 126.559 20.7665C126.611 21.0958 126.662 21.4164 126.707 21.7322C126.752 22.0479 126.775 22.2988 126.781 22.4885H126.842C126.902 21.999 127.01 21.3299 127.164 20.4814C127.319 19.6328 127.429 19.0588 127.497 18.7594L128.845 13.7318H131.856L128.614 25.0892H125.276Z" fill="#00D045"/>
  <path d="M138.108 25.2924C137.336 25.3378 136.563 25.2274 135.834 24.9676C135.105 24.7079 134.435 24.304 133.862 23.7797C133.331 23.2088 132.921 22.5343 132.658 21.7976C132.395 21.0609 132.285 20.2777 132.333 19.4962C132.231 17.8971 132.736 16.3189 133.747 15.0829C134.249 14.5536 134.858 14.1401 135.533 13.8708C136.208 13.6015 136.933 13.4826 137.658 13.5225C138.337 13.4816 139.018 13.5823 139.658 13.8184C140.297 14.0544 140.881 14.4207 141.374 14.8944C141.836 15.4054 142.192 16.0042 142.421 16.6557C142.65 17.3072 142.748 17.9982 142.709 18.6884V20.1815H135.448C135.436 20.944 135.714 21.6822 136.224 22.245C136.496 22.5008 136.816 22.6979 137.166 22.8242C137.516 22.9504 137.888 23.0032 138.258 22.9793C138.905 22.9827 139.55 22.9112 140.181 22.7663C140.833 22.6067 141.468 22.3786 142.073 22.0859V24.4895C141.527 24.7635 140.949 24.9667 140.352 25.0941C139.616 25.238 138.866 25.3044 138.116 25.2924M137.683 15.723C137.398 15.7078 137.114 15.756 136.849 15.864C136.585 15.9721 136.347 16.1374 136.153 16.3484C135.752 16.8511 135.529 17.4743 135.519 18.1193H139.829C139.857 17.4747 139.644 16.8429 139.234 16.3484C139.035 16.138 138.793 15.9733 138.526 15.8654C138.258 15.7575 137.971 15.7089 137.683 15.723Z" fill="#00D045"/>
  <path d="M150.82 13.5176C151.168 13.5112 151.515 13.5419 151.856 13.6094L151.625 16.5149C151.329 16.4417 151.024 16.4076 150.719 16.4133C149.887 16.3623 149.067 16.6347 148.428 17.1745C148.148 17.4503 147.929 17.7835 147.788 18.1518C147.646 18.52 147.585 18.9147 147.608 19.309V25.0893H144.537V13.7318H146.862L147.316 15.641H147.466C147.804 15.0174 148.29 14.4886 148.882 14.1026C149.457 13.7178 150.132 13.5142 150.822 13.5176" fill="#00D045"/>
  <path d="M159.995 10.9573C159.183 10.9158 158.372 11.0544 157.619 11.3633C156.865 11.6722 156.188 12.144 155.635 12.7454C154.514 14.117 153.946 15.8652 154.045 17.6408C153.935 19.4157 154.469 21.1704 155.546 22.5779C156.084 23.1762 156.749 23.6447 157.492 23.9489C158.234 24.2531 159.034 24.3852 159.834 24.3354C160.986 24.3473 162.133 24.1864 163.239 23.8581V24.7723C162.06 25.1486 160.828 25.3236 159.592 25.29C158.681 25.3366 157.771 25.1795 156.927 24.83C156.083 24.4805 155.326 23.9472 154.71 23.2682C153.439 21.6755 152.803 19.6611 152.928 17.62C152.899 16.2411 153.19 14.8744 153.777 13.629C154.311 12.5137 155.163 11.585 156.224 10.9622C157.354 10.318 158.636 9.99285 159.934 10.021C161.264 9.99864 162.581 10.2763 163.79 10.8337L163.377 11.7687C162.328 11.2332 161.169 10.9548 159.994 10.9561" fill="#00D045"/>
  <path d="M173.243 25.0893V17.9272C173.318 17.0605 173.07 16.1967 172.549 15.5039C172.262 15.2326 171.921 15.0251 171.55 14.8948C171.178 14.7645 170.784 14.7144 170.392 14.7476C169.87 14.7015 169.345 14.7668 168.849 14.9393C168.354 15.1117 167.901 15.3876 167.518 15.7487C166.828 16.6801 166.503 17.836 166.606 18.9944V25.0893H165.61V9.2818H166.606V14.3119L166.556 15.723H166.628C166.994 15.1 167.532 14.5985 168.177 14.2801C168.911 13.9607 169.705 13.8082 170.504 13.8334C172.986 13.8334 174.228 15.1776 174.229 17.866V25.0868L173.243 25.0893Z" fill="#00D045"/>
  <path d="M183.759 25.0893L183.508 23.3416H183.428C182.979 23.9651 182.399 24.4808 181.73 24.8518C181.086 25.1601 180.38 25.311 179.668 25.2924C178.757 25.3496 177.859 25.0512 177.16 24.459C176.856 24.162 176.619 23.8026 176.464 23.405C176.31 23.0073 176.242 22.5809 176.265 22.1544C176.25 21.6547 176.365 21.1597 176.599 20.7191C176.833 20.2785 177.178 19.9078 177.599 19.6443C178.775 18.9732 180.112 18.646 181.462 18.6995L183.546 18.6395V17.9052C183.605 17.0639 183.381 16.2271 182.911 15.5297C182.655 15.2453 182.337 15.0248 181.982 14.8855C181.627 14.7462 181.245 14.6919 180.866 14.7268C179.762 14.7515 178.68 15.0455 177.712 15.5835L177.34 14.7109C178.45 14.1622 179.668 13.8696 180.904 13.8542C181.393 13.8152 181.885 13.8791 182.348 14.0417C182.812 14.2043 183.237 14.4622 183.597 14.799C184.262 15.6276 184.585 16.6833 184.498 17.7461V25.0893H183.759ZM179.732 24.3782C180.24 24.4231 180.751 24.355 181.23 24.1787C181.709 24.0025 182.144 23.7224 182.504 23.3582C182.864 22.994 183.141 22.5545 183.314 22.0708C183.488 21.5871 183.554 21.0709 183.508 20.5585V19.4717L181.594 19.5525C180.457 19.5291 179.33 19.7778 178.307 20.2783C177.986 20.4775 177.725 20.7611 177.553 21.0985C177.38 21.436 177.301 21.8145 177.325 22.1936C177.308 22.4921 177.356 22.7907 177.464 23.0688C177.573 23.347 177.74 23.5979 177.955 23.8042C178.455 24.2138 179.089 24.4183 179.732 24.377" fill="#00D045"/>
  <path d="M187.237 10.9793C187.237 10.3266 187.449 10.0002 187.872 10.0002C187.968 9.99692 188.063 10.0185 188.148 10.0629C188.233 10.1072 188.305 10.1729 188.358 10.2535C188.489 10.4703 188.55 10.7223 188.535 10.9756C188.548 11.2284 188.487 11.4794 188.358 11.6965C188.306 11.7791 188.235 11.8469 188.15 11.893C188.065 11.9391 187.969 11.9621 187.872 11.9596C187.449 11.9596 187.238 11.6332 187.237 10.9805M188.379 25.0892H187.384V14.0463H188.379V25.0892Z" fill="#00D045"/>
  <path d="M199.012 25.0893V17.9272C199.088 17.0603 198.84 16.196 198.317 15.5039C198.031 15.2324 197.691 15.0247 197.32 14.8944C196.949 14.7641 196.555 14.714 196.163 14.7476C195.641 14.7012 195.116 14.7664 194.62 14.9389C194.125 15.1114 193.672 15.3874 193.289 15.7487C192.599 16.6798 192.274 17.836 192.377 18.9944V25.0893H191.381V14.0463H192.23L192.423 15.5602H192.482C192.906 14.9582 193.481 14.4809 194.149 14.1774C194.816 13.874 195.551 13.7552 196.279 13.8334C198.762 13.8334 200.004 15.1776 200.005 17.866V25.0868L199.012 25.0893Z" fill="#00D045"/>
</svg>
