<svg xmlns="http://www.w3.org/2000/svg" width="30" height="30" viewBox="0 0 30 30">
  <g id="Group_4" data-name="Group 4" transform="translate(-48 -590)">
    <g id="Ellipse_1" data-name="Ellipse 1" transform="translate(48 590)" fill="none" stroke="#fff" stroke-width="1.5">
      <circle cx="15" cy="15" r="15" stroke="none"/>
      <circle cx="15" cy="15" r="14.25" fill="none"/>
    </g>
    <g id="Group_3" data-name="Group 3" transform="translate(48.644 589.306)">
      <path id="Path_1" data-name="Path 1" d="M7.654,15.519h3.924a.656.656,0,0,0,.654-.654V9.633a.656.656,0,0,0-.654-.654H7.654A.656.656,0,0,0,7,9.633v5.233A.656.656,0,0,0,7.654,15.519Zm0,5.233h3.924a.656.656,0,0,0,.654-.654V17.481a.656.656,0,0,0-.654-.654H7.654A.656.656,0,0,0,7,17.481V20.1A.656.656,0,0,0,7.654,20.752Zm6.541,0h3.924a.656.656,0,0,0,.654-.654V14.865a.656.656,0,0,0-.654-.654H14.195a.656.656,0,0,0-.654.654V20.1A.656.656,0,0,0,14.195,20.752ZM13.541,9.633v2.616a.656.656,0,0,0,.654.654h3.924a.656.656,0,0,0,.654-.654V9.633a.656.656,0,0,0-.654-.654H14.195A.656.656,0,0,0,13.541,9.633Z" transform="translate(1.356 0.716)" fill="#fff"/>
    </g>
  </g>
</svg>
