<svg xmlns="http://www.w3.org/2000/svg" xmlns:xlink="http://www.w3.org/1999/xlink" width="30" height="30" viewBox="0 0 30 30">
  <defs>
    <clipPath id="clip-path">
      <rect id="Rectangle_26" data-name="Rectangle 26" width="16" height="14.253" fill="#fff"/>
    </clipPath>
  </defs>
  <g id="Group_4" data-name="Group 4" transform="translate(-48 -590)">
    <g id="Ellipse_1" data-name="Ellipse 1" transform="translate(48 590)" fill="none" stroke="#fff" stroke-width="1.5">
      <circle cx="15" cy="15" r="15" stroke="none"/>
      <circle cx="15" cy="15" r="14.25" fill="none"/>
    </g>
    <g id="Group_60" data-name="Group 60" transform="translate(32 595.273)">
      <g id="Group_59" data-name="Group 59" transform="translate(24 2.856)" clip-path="url(#clip-path)">
        <path id="Path_23" data-name="Path 23" d="M141.55,145.741l1.416,1.416a13.52,13.52,0,0,0,.712-3.086.071.071,0,0,0-.045-.075l-3.831-1.464a.072.072,0,0,0-.026,0,.071.071,0,0,0-.026,0L135.918,144a.072.072,0,0,0-.045.075,13.876,13.876,0,0,0,1.533,4.953c.77,1.409,1.655,2.25,2.369,2.25a1.684,1.684,0,0,0,1.049-.493l-2.157-2.157a2.038,2.038,0,1,1,2.883-2.883" transform="translate(-133.155 -139.676)" fill="#fff"/>
        <path id="Path_24" data-name="Path 24" d="M8.438,11.875a2.755,2.755,0,0,1-1.819.81C4.069,12.685,1.97,7.9,1.635,4.5a1.159,1.159,0,0,1,.739-1.2L6.206,1.841a1.159,1.159,0,0,1,.828,0L10.865,3.3A1.158,1.158,0,0,1,11.6,4.5a13.2,13.2,0,0,1-.284,1.684l1.85-1.85c.023-.162.044-.323.061-.482a1.538,1.538,0,0,0-.93-1.582L7.219.122a1.539,1.539,0,0,0-1.2,0L.938,2.271a1.539,1.539,0,0,0-.93,1.582c.479,4.448,3.506,10.4,6.611,10.4a4.3,4.3,0,0,0,3.035-1.763,2.029,2.029,0,0,1-1.179-.58Z" transform="translate(0.001 -0.001)" fill="#fff"/>
        <path id="Path_25" data-name="Path 25" d="M303.135,219.7a1.087,1.087,0,0,0-1.537,0l-4.227,4.227-2.2-2.2a1.087,1.087,0,1,0-1.537,1.537l2.964,2.964a1.087,1.087,0,0,0,1.537,0l5-5a1.087,1.087,0,0,0,0-1.537" transform="translate(-287.454 -214.994)" fill="#fff"/>
      </g>
    </g>
  </g>
</svg>
