<svg xmlns="http://www.w3.org/2000/svg" xmlns:xlink="http://www.w3.org/1999/xlink" width="30" height="30" viewBox="0 0 30 30">
  <defs>
    <clipPath id="clip-path">
      <rect id="Rectangle_25" data-name="Rectangle 25" width="16.139" height="16.139" fill="#fff"/>
    </clipPath>
  </defs>
  <g id="Group_4" data-name="Group 4" transform="translate(-48 -590)">
    <g id="Ellipse_1" data-name="Ellipse 1" transform="translate(48 590)" fill="none" stroke="#fff" stroke-width="1.5">
      <circle cx="15" cy="15" r="15" stroke="none"/>
      <circle cx="15" cy="15" r="14.25" fill="none"/>
    </g>
    <g id="Group_58" data-name="Group 58" transform="translate(54.931 596.933)">
      <g id="Group_57" data-name="Group 57" transform="translate(0 -0.002)" clip-path="url(#clip-path)">
        <path id="Path_21" data-name="Path 21" d="M209.862,204.959a4.9,4.9,0,1,0,4.9,4.9,4.91,4.91,0,0,0-4.9-4.9m1.981,7.626-1.981-1.445-1.981,1.445.762-2.33-1.986-1.437,2.452,0,.753-2.333.753,2.333,2.452,0-1.986,1.437Z" transform="translate(-201.793 -201.79)" fill="#fff" fill-rule="evenodd"/>
        <path id="Path_22" data-name="Path 22" d="M15.929,7.558,15.3,6.929c-.629-.629-.629-.635-.4-1.5l.228-.85a.723.723,0,0,0-.51-.883l-.855-.229c-.865-.232-.866-.235-1.1-1.107h0l-.226-.845a.723.723,0,0,0-.883-.51l-.86.231c-.859.23-.863.227-1.5-.41L8.579.208a.723.723,0,0,0-1.019,0L6.932.837c-.629.629-.635.629-1.5.4l-.85-.228a.723.723,0,0,0-.883.51l-.229.855c-.232.864-.235.866-1.107,1.1h0L1.518,3.7a.723.723,0,0,0-.51.883l.231.86c.23.859.227.863-.41,1.5L.21,7.558a.723.723,0,0,0,0,1.019l.628.628c.629.629.629.635.4,1.5l-.228.85a.723.723,0,0,0,.51.883l.855.229c.865.232.866.235,1.1,1.107h0l.226.845a.723.723,0,0,0,.883.51l.86-.231c.859-.23.863-.227,1.5.41l.619.619a.723.723,0,0,0,1.019,0l.628-.628c.629-.629.635-.629,1.5-.4l.85.228a.723.723,0,0,0,.883-.51l.229-.855c.232-.864.235-.866,1.107-1.1h0l.845-.226a.723.723,0,0,0,.51-.883L14.9,10.7c-.23-.859-.227-.863.41-1.5l.619-.619a.723.723,0,0,0,0-1.019M8.07,13.8A5.732,5.732,0,1,1,13.8,8.067,5.743,5.743,0,0,1,8.07,13.8" transform="translate(0 0.002)" fill="#fff" fill-rule="evenodd"/>
      </g>
    </g>
  </g>
</svg>
