<svg width="277" height="179" viewBox="0 0 277 179" fill="none" xmlns="http://www.w3.org/2000/svg">
<g clip-path="url(#clip0_78_1766)">
<path d="M180.935 93.7579C180.761 93.7262 180.593 93.6468 180.451 93.5172C180.043 93.1468 180.011 92.5172 180.377 92.1071C183.628 88.4802 186.066 84.0861 187.434 79.3983C188.807 74.6894 189.12 69.6657 189.425 64.8059C189.459 64.2557 189.93 63.8377 190.477 63.8721C191.021 63.9065 191.439 64.38 191.405 64.9303C191.095 69.8985 190.771 75.036 189.338 79.9592C187.889 84.9326 185.301 89.5939 181.853 93.4431C181.613 93.7103 181.263 93.8161 180.935 93.7579Z" fill="white"/>
<path d="M199.869 95.5118C199.753 95.4906 199.64 95.4483 199.535 95.3848C199.067 95.0991 198.914 94.4853 199.198 94.0145C200.419 91.9854 202.646 91.0753 204.614 90.2738C205.103 90.0754 205.566 89.8849 206.013 89.6812C208.057 88.7553 209.916 86.8426 209.337 85.123C209.245 84.8453 209.08 84.5516 208.909 84.2421C208.577 83.6495 208.204 82.9802 208.164 82.1443C208.062 80.0543 210.113 78.6126 212.191 78.266C212.601 78.1972 213.014 78.1523 213.414 78.1099C214.5 77.9935 215.526 77.8798 216.244 77.3374C217.867 76.1073 217.275 73.2026 216.039 71.0254C215.537 70.1418 214.779 68.8085 215.347 67.4513C215.75 66.4884 216.649 65.9911 217.291 65.7027C218.104 65.3376 218.94 65.081 219.753 64.8323C220.802 64.5096 221.794 64.208 222.662 63.6974C223.974 62.9303 224.984 61.3086 224.398 60.1181C224.261 59.8403 224.027 59.5626 223.779 59.2663C223.372 58.7769 222.909 58.224 222.698 57.47C222.117 55.3854 223.756 53.3854 226.975 52.2479L232.454 50.314C232.972 50.1315 233.537 50.404 233.719 50.9251C233.9 51.4463 233.627 52.0151 233.111 52.1976L227.633 54.1314C226.346 54.5865 224.263 55.6843 224.611 56.9303C224.705 57.269 224.981 57.5996 225.3 57.9832C225.597 58.3377 225.934 58.7425 226.175 59.2319C227.306 61.5229 225.786 64.1789 223.661 65.4249C222.593 66.0519 221.444 66.4037 220.331 66.745C219.545 66.9857 218.801 67.2133 218.104 67.5281C217.578 67.7635 217.275 67.9937 217.178 68.2265C216.991 68.6762 217.436 69.4619 217.764 70.0386C219.474 73.0465 220.037 76.9644 217.443 78.9353C216.289 79.811 214.876 79.9644 213.63 80.0993C213.241 80.1416 212.872 80.1813 212.517 80.2395C211.321 80.4379 210.105 81.1681 210.15 82.049C210.169 82.4141 210.389 82.8083 210.645 83.2659C210.844 83.6257 211.071 84.0305 211.223 84.4855C212.231 87.4828 209.653 90.2261 206.834 91.5039C206.35 91.7235 205.85 91.9272 205.363 92.1256C203.52 92.8769 201.778 93.5885 200.9 95.0488C200.682 95.4139 200.266 95.5885 199.872 95.5144L199.869 95.5118Z" fill="white"/>
<path d="M238.255 118.191C237.485 118.049 236.709 117.625 236.025 116.953C235.654 116.591 235.344 116.199 235.044 115.824C234.726 115.424 234.423 115.049 234.087 114.744C233.345 114.075 232.348 113.71 231.349 113.739C230.802 113.758 230.344 113.324 230.326 112.771C230.31 112.221 230.739 111.76 231.288 111.742C232.79 111.694 234.292 112.247 235.412 113.255C235.87 113.668 236.238 114.128 236.591 114.57C236.867 114.916 237.13 115.242 237.414 115.522C237.845 115.948 238.545 116.379 239.097 116.205C239.507 116.072 239.847 115.625 240.236 115.104C240.575 114.655 240.959 114.141 241.48 113.747C242.224 113.181 243.1 112.964 243.802 112.787C244.649 112.575 245.812 112.287 246.959 112.554C248.271 112.864 249.213 113.784 250.044 114.596C250.257 114.805 250.459 115.004 250.664 115.189C251.414 115.869 252.521 116.408 253.174 115.993C253.471 115.805 253.697 115.422 253.957 114.977C254.128 114.686 254.307 114.385 254.531 114.094C255.278 113.125 256.398 112.483 257.608 112.332C259.804 112.057 261.519 113.295 263.179 114.493C263.933 115.038 264.646 115.554 265.385 115.916C265.601 116.022 265.874 116.144 266.109 116.147C266.711 116.157 267.271 115.398 267.484 115.072C267.608 114.885 267.723 114.686 267.85 114.475C268.228 113.837 268.655 113.112 269.336 112.562C269.991 112.033 270.898 111.776 271.7 111.89C272.36 111.988 272.915 112.319 273.273 112.829C273.589 113.282 273.481 113.903 273.031 114.221C272.581 114.538 271.963 114.43 271.648 113.977C271.632 113.956 271.59 113.893 271.419 113.866C271.153 113.829 270.806 113.932 270.575 114.117C270.175 114.44 269.872 114.951 269.551 115.493C269.423 115.713 269.288 115.94 269.141 116.165C268.297 117.459 267.205 118.16 266.069 118.141C265.448 118.131 264.909 117.903 264.512 117.707C263.623 117.271 262.808 116.684 262.019 116.112C260.606 115.094 259.273 114.133 257.85 114.311C257.171 114.395 256.516 114.771 256.098 115.313C255.948 115.509 255.809 115.744 255.662 115.996C255.32 116.575 254.93 117.234 254.231 117.678C252.592 118.721 250.625 117.842 249.331 116.67C249.097 116.459 248.871 116.239 248.652 116.025C247.945 115.332 247.277 114.678 246.501 114.496C245.87 114.348 245.149 114.501 244.276 114.721C243.721 114.861 243.092 115.017 242.671 115.337C242.372 115.565 242.101 115.924 241.817 116.305C241.296 116.998 240.707 117.781 239.694 118.104C239.234 118.252 238.745 118.276 238.253 118.184L238.255 118.191Z" fill="white"/>
<path d="M261.272 144.17C261.111 144.141 260.959 144.072 260.825 143.961C259.262 142.675 257.598 141.479 255.88 140.411C255.036 139.884 254.028 139.292 252.955 138.876C251.735 138.403 250.386 138.143 249.081 137.892C241.598 136.45 233.863 134.958 226.157 134.474C225.61 134.44 225.194 133.966 225.229 133.416C225.263 132.866 225.734 132.448 226.281 132.482C234.113 132.974 241.914 134.477 249.455 135.932C250.846 136.199 252.282 136.477 253.671 137.017C254.896 137.493 256.004 138.143 256.927 138.718C258.718 139.834 260.454 141.08 262.085 142.421C262.508 142.77 262.571 143.4 262.224 143.826C261.987 144.117 261.619 144.239 261.274 144.175L261.272 144.17Z" fill="white"/>
<path d="M223.714 123.538C223.482 124.802 222.275 125.641 221.018 125.408C219.761 125.175 218.927 123.961 219.158 122.696C219.39 121.432 220.597 120.593 221.854 120.826C223.111 121.059 223.945 122.273 223.714 123.538Z" fill="white"/>
<path d="M194.33 102.842C194.117 104.001 193.012 104.771 191.858 104.557C190.706 104.342 189.94 103.231 190.153 102.07C190.366 100.911 191.471 100.141 192.626 100.356C193.778 100.57 194.543 101.681 194.33 102.842Z" fill="white"/>
<path d="M226.624 88.3461C226.855 86.8637 225.847 85.4739 224.373 85.242C222.899 85.0102 221.517 86.0239 221.287 87.5064C221.056 88.9889 222.064 90.3787 223.538 90.6105C225.012 90.8424 226.393 89.8286 226.624 88.3461Z" fill="white"/>
<path d="M272.902 103.152C272.626 104.663 271.185 105.663 269.68 105.385C268.179 105.107 267.184 103.657 267.461 102.144C267.737 100.634 269.178 99.6335 270.683 99.9113C272.184 100.189 273.179 101.639 272.902 103.152Z" fill="white"/>
<path d="M269.972 132.088C269.741 133.353 268.534 134.191 267.277 133.958C266.019 133.726 265.186 132.511 265.417 131.247C265.648 129.982 266.856 129.144 268.113 129.376C269.37 129.609 270.204 130.824 269.972 132.088Z" fill="white"/>
<path d="M216.638 147.233C216.446 148.289 215.439 148.985 214.392 148.791C213.343 148.598 212.651 147.585 212.843 146.532C213.035 145.477 214.042 144.781 215.089 144.974C216.139 145.167 216.83 146.18 216.638 147.233Z" fill="white"/>
<path d="M201.605 75.5518C198.743 75.0227 196.842 72.2502 197.368 69.3693C197.894 66.4911 200.65 64.5784 203.514 65.1075C206.376 65.6366 208.278 68.409 207.751 71.2899C207.225 74.1682 204.469 76.0809 201.605 75.5518ZM203.154 67.0731C201.368 66.7424 199.648 67.9355 199.319 69.7318C198.991 71.528 200.177 73.2582 201.963 73.5889C203.748 73.9195 205.469 72.7264 205.797 70.9302C206.126 69.1339 204.94 67.4038 203.154 67.0731Z" fill="white"/>
<path d="M171.366 81.5571C171.261 82.1364 170.706 82.52 170.13 82.4142C169.554 82.3084 169.172 81.7502 169.278 81.1708C169.383 80.5915 169.938 80.2079 170.514 80.3137C171.09 80.4195 171.471 80.9777 171.366 81.5571Z" fill="white"/>
<path d="M172.344 57.4568C172.06 59.0097 170.58 60.0361 169.036 59.7504C167.492 59.4647 166.471 57.9753 166.755 56.4224C167.04 54.8695 168.52 53.8431 170.064 54.1288C171.608 54.4145 172.629 55.9039 172.344 57.4568Z" fill="white"/>
<path d="M200.079 44.1607C199.842 45.4623 198.601 46.322 197.307 46.0839C196.013 45.8458 195.158 44.5972 195.395 43.2956C195.632 41.9941 196.873 41.1343 198.167 41.3724C199.461 41.6105 200.316 42.8591 200.079 44.1607Z" fill="white"/>
<path d="M249.489 68.0308C249.276 69.1896 248.171 69.9594 247.016 69.7451C245.864 69.5308 245.099 68.4197 245.312 67.2584C245.525 66.0997 246.63 65.3298 247.784 65.5441C248.936 65.7584 249.702 66.8695 249.489 68.0308Z" fill="white"/>
<path d="M276.958 72.3191C276.706 73.6948 275.396 74.6048 274.028 74.3509C272.66 74.0969 271.756 72.7795 272.008 71.4038C272.261 70.0282 273.57 69.1181 274.938 69.3721C276.306 69.6261 277.21 70.9435 276.958 72.3191Z" fill="white"/>
<path d="M249.531 97.5752C249.042 97.4852 248.571 97.2974 248.142 97.0196C247.282 96.4614 246.69 95.5964 246.475 94.5911L246.159 93.1096C245.943 92.1017 246.133 91.0726 246.688 90.2076C247.243 89.3425 248.103 88.7473 249.102 88.5303L250.575 88.2129C251.577 87.996 252.603 88.1864 253.46 88.7446C254.32 89.3028 254.912 90.1679 255.128 91.1732L255.444 92.6546C255.659 93.6625 255.47 94.6916 254.915 95.5567C254.36 96.4218 253.5 97.017 252.5 97.2339L251.028 97.5514C250.525 97.6598 250.02 97.6651 249.531 97.5752ZM251.714 90.152C251.477 90.1097 251.233 90.1123 250.991 90.1626L249.518 90.48C249.034 90.5832 248.621 90.8716 248.353 91.2869C248.084 91.7049 247.995 92.2022 248.098 92.6864L248.413 94.1678C248.516 94.6546 248.802 95.0699 249.218 95.3398C249.634 95.6096 250.128 95.6995 250.609 95.5964L252.082 95.2789C252.566 95.1757 252.979 94.8874 253.247 94.472C253.516 94.0541 253.605 93.5594 253.502 93.0726L253.187 91.5911C253.084 91.1044 252.798 90.689 252.385 90.4192C252.177 90.2843 251.951 90.1943 251.714 90.152Z" fill="white"/>
<path d="M228.456 108.906L219.169 102.554L229.282 97.6414L228.456 108.908V108.906ZM223.127 102.848L226.728 105.311L227.049 100.943L223.127 102.848Z" fill="white"/>
<path d="M210.542 60.3008L201.255 53.949L211.368 49.0364L210.542 60.3034V60.3008ZM205.213 54.2426L208.814 56.7056L209.135 52.3379L205.213 54.2426Z" fill="white"/>
<path d="M96.0653 93.7579C96.2389 93.7262 96.4072 93.6468 96.5492 93.5172C96.9569 93.1468 96.9884 92.5172 96.6229 92.1071C93.372 88.4802 90.9339 84.0861 89.5662 79.3983C88.1933 74.6894 87.8803 69.6657 87.5752 64.8059C87.541 64.2557 87.0702 63.8377 86.5232 63.8721C85.9787 63.9065 85.5605 64.38 85.5947 64.9303C85.9051 69.8985 86.2286 75.036 87.662 79.9592C89.1112 84.9326 91.6993 89.5939 95.1474 93.4431C95.3867 93.7103 95.7365 93.8161 96.0653 93.7579Z" fill="white"/>
<path d="M77.131 95.5118C77.2467 95.4906 77.3598 95.4483 77.465 95.3848C77.9332 95.0991 78.0857 94.4853 77.8017 94.0145C76.5813 91.9854 74.3536 91.0753 72.3862 90.2738C71.897 90.0754 71.4341 89.8849 70.987 89.6812C68.9434 88.7553 67.0839 86.8426 67.6625 85.123C67.7546 84.8453 67.9203 84.5516 68.0912 84.2421C68.4226 83.6495 68.7961 82.9802 68.8355 82.1443C68.9381 80.0543 66.8866 78.6126 64.8088 78.266C64.3985 78.1972 63.9856 78.1523 63.5858 78.1099C62.4996 77.9935 61.4738 77.8798 60.7558 77.3374C59.133 76.1073 59.7248 73.2026 60.9609 71.0254C61.4633 70.1418 62.2208 68.8085 61.6527 67.4513C61.2503 66.4884 60.3507 65.9911 59.709 65.7027C58.8963 65.3376 58.0599 65.081 57.2472 64.8323C56.1978 64.5096 55.2062 64.208 54.3383 63.6974C53.0258 62.9303 52.0159 61.3086 52.6024 60.1181C52.7392 59.8403 52.9732 59.5626 53.2205 59.2663C53.6281 58.7769 54.091 58.224 54.3014 57.47C54.8827 55.3854 53.2441 53.3854 50.0249 52.2479L44.5463 50.314C44.0282 50.1315 43.4627 50.404 43.2812 50.9251C43.0997 51.4463 43.3733 52.0151 43.8888 52.1976L49.3673 54.1314C50.6535 54.5865 52.7365 55.6843 52.3893 56.9303C52.2947 57.269 52.0185 57.5996 51.7003 57.9832C51.403 58.3377 51.0664 58.7425 50.8244 59.2319C49.6935 61.5229 51.2137 64.1789 53.3388 65.4249C54.4067 66.0519 55.556 66.4037 56.6686 66.745C57.455 66.9857 58.1993 67.2133 58.8963 67.5281C59.4223 67.7635 59.7248 67.9937 59.8221 68.2265C60.0088 68.6762 59.5643 69.4619 59.2356 70.0386C57.526 73.0465 56.9631 76.9644 59.5564 78.9353C60.7111 79.811 62.1235 79.9644 63.3701 80.0993C63.7594 80.1416 64.1276 80.1813 64.4827 80.2395C65.6794 80.4379 66.8945 81.1681 66.8498 82.049C66.8314 82.4141 66.6105 82.8083 66.3553 83.2659C66.1554 83.6257 65.9293 84.0305 65.7767 84.4855C64.7694 87.4828 67.3469 90.2261 70.1664 91.5039C70.6503 91.7235 71.1501 91.9272 71.6366 92.1256C73.4804 92.8769 75.2215 93.5885 76.1 95.0488C76.3183 95.4139 76.7338 95.5885 77.1283 95.5144L77.131 95.5118Z" fill="white"/>
<path d="M38.7443 118.191C39.515 118.049 40.2909 117.625 40.9747 116.953C41.3455 116.591 41.6559 116.199 41.9557 115.824C42.274 115.424 42.5764 115.049 42.9131 114.744C43.6548 114.075 44.6516 113.71 45.6511 113.739C46.1981 113.758 46.6558 113.324 46.6742 112.771C46.69 112.221 46.2613 111.76 45.7116 111.742C44.2098 111.694 42.7079 112.247 41.5875 113.255C41.1299 113.668 40.7617 114.128 40.4092 114.57C40.133 114.916 39.87 115.242 39.586 115.522C39.1546 115.948 38.455 116.379 37.9027 116.205C37.4924 116.072 37.1531 115.625 36.7639 115.104C36.4246 114.655 36.0406 114.141 35.5198 113.747C34.7755 113.181 33.8996 112.964 33.1974 112.787C32.3505 112.575 31.188 112.287 30.0412 112.554C28.7288 112.864 27.7872 113.784 26.9561 114.596C26.7431 114.805 26.5405 115.004 26.3354 115.189C25.5858 115.869 24.4785 116.408 23.8262 115.993C23.529 115.805 23.3029 115.422 23.0425 114.977C22.8715 114.686 22.6927 114.385 22.4691 114.094C21.7221 113.125 20.6017 112.483 19.3918 112.332C17.1957 112.057 15.4808 113.295 13.8212 114.493C13.0664 115.038 12.3536 115.554 11.6146 115.916C11.3989 116.022 11.1253 116.144 10.8913 116.147C10.289 116.157 9.72875 115.398 9.51571 115.072C9.39209 114.885 9.27637 114.686 9.15012 114.475C8.77138 113.837 8.3453 113.112 7.6641 112.562C7.0092 112.033 6.1018 111.776 5.29961 111.89C4.63945 111.988 4.08449 112.319 3.72679 112.829C3.41118 113.282 3.51901 113.903 3.96877 114.221C4.41852 114.538 5.0366 114.43 5.35221 113.977C5.368 113.956 5.41008 113.893 5.58104 113.866C5.84668 113.829 6.19386 113.932 6.42531 114.117C6.82509 114.44 7.12755 114.951 7.44843 115.493C7.5773 115.713 7.71144 115.94 7.85873 116.165C8.703 117.459 9.7945 118.16 10.9307 118.141C11.5514 118.131 12.0906 117.903 12.4878 117.707C13.3767 117.271 14.1921 116.684 14.9811 116.112C16.3935 115.094 17.727 114.133 19.1499 114.311C19.8284 114.395 20.4834 114.771 20.9015 115.313C21.0515 115.509 21.1909 115.744 21.3381 115.996C21.6801 116.575 22.0693 117.234 22.7689 117.678C24.4075 118.721 26.3748 117.842 27.6689 116.67C27.9029 116.459 28.1291 116.239 28.3474 116.025C29.0549 115.332 29.723 114.678 30.4989 114.496C31.1301 114.348 31.8508 114.501 32.724 114.721C33.2789 114.861 33.9075 115.017 34.3284 115.337C34.6282 115.565 34.8991 115.924 35.1831 116.305C35.7039 116.998 36.2931 117.781 37.3057 118.104C37.7659 118.252 38.2551 118.276 38.747 118.184L38.7443 118.191Z" fill="white"/>
<path d="M15.7281 144.17C15.8886 144.141 16.0411 144.072 16.1752 143.961C17.7375 142.675 19.4024 141.479 21.1199 140.411C21.9642 139.884 22.9715 139.292 24.0446 138.876C25.265 138.403 26.6142 138.143 27.9188 137.892C35.4015 136.45 43.1367 134.958 50.843 134.474C51.3901 134.44 51.8056 133.966 51.7714 133.416C51.7372 132.866 51.2664 132.448 50.7194 132.482C42.8868 132.974 35.0859 134.477 27.5453 135.932C26.154 136.199 24.7179 136.477 23.3292 137.017C22.1036 137.493 20.9963 138.143 20.0731 138.718C18.282 139.834 16.5461 141.08 14.9154 142.421C14.492 142.77 14.4288 143.4 14.776 143.826C15.0127 144.117 15.381 144.239 15.7255 144.175L15.7281 144.17Z" fill="white"/>
<path d="M53.2837 123.538C53.5152 124.802 54.7224 125.641 55.9796 125.408C57.2368 125.175 58.0705 123.961 57.8391 122.696C57.6076 121.432 56.4004 120.593 55.1432 120.826C53.886 121.059 53.0522 122.273 53.2837 123.538Z" fill="white"/>
<path d="M82.6704 102.842C82.8835 104.001 83.9881 104.771 85.1428 104.557C86.2948 104.342 87.0601 103.231 86.8471 102.07C86.6341 100.911 85.5294 100.141 84.3748 100.356C83.2201 100.57 82.4574 101.681 82.6704 102.842Z" fill="white"/>
<path d="M53.4816 90.5964C54.9555 90.3645 55.9634 88.9747 55.7328 87.4922C55.5023 86.0098 54.1206 84.996 52.6467 85.2278C51.1728 85.4597 50.1649 86.8495 50.3955 88.332C50.626 89.8144 52.0077 90.8282 53.4816 90.5964Z" fill="white"/>
<path d="M4.09782 103.152C4.37398 104.662 5.81529 105.662 7.31972 105.385C8.82153 105.107 9.81572 103.657 9.53955 102.144C9.26339 100.631 7.82208 99.6334 6.31764 99.9112C4.81584 100.189 3.82165 101.639 4.09782 103.152Z" fill="white"/>
<path d="M7.02784 132.088C7.25929 133.353 8.46652 134.191 9.72373 133.958C10.9809 133.726 11.8147 132.511 11.5832 131.247C11.3518 129.982 10.1445 129.144 8.88734 129.376C7.63014 129.609 6.79639 130.824 7.02784 132.088Z" fill="white"/>
<path d="M60.3616 147.233C60.5536 148.289 61.5609 148.985 62.6077 148.791C63.6571 148.598 64.3489 147.585 64.1569 146.532C63.9649 145.477 62.9575 144.781 61.9107 144.974C60.8613 145.167 60.1696 146.18 60.3616 147.233Z" fill="white"/>
<path d="M69.2486 71.2899C68.7226 68.4117 70.6241 65.6366 73.4857 65.1075C76.3473 64.5784 79.1063 66.4911 79.6323 69.3693C80.1584 72.2476 78.2568 75.0227 75.3952 75.5518C72.5336 76.0809 69.7746 74.1682 69.2486 71.2899ZM71.2028 70.9302C71.5315 72.7264 73.2516 73.9195 75.0375 73.5889C76.8234 73.2582 78.0095 71.528 77.6808 69.7318C77.352 67.9355 75.6319 66.7424 73.846 67.0731C72.0602 67.4038 70.874 69.1339 71.2028 70.9302Z" fill="white"/>
<path d="M105.634 81.5571C105.739 82.1364 106.294 82.52 106.87 82.4142C107.446 82.3084 107.827 81.7502 107.722 81.1708C107.617 80.5915 107.062 80.2079 106.486 80.3137C105.91 80.4195 105.528 80.9777 105.634 81.5571Z" fill="white"/>
<path d="M104.655 57.4568C104.939 59.0097 106.42 60.0361 107.964 59.7504C109.508 59.4647 110.528 57.9753 110.244 56.4224C109.96 54.8695 108.48 53.8431 106.936 54.1288C105.392 54.4145 104.371 55.9039 104.655 57.4568Z" fill="white"/>
<path d="M76.9207 44.1607C77.1574 45.4623 78.3989 46.322 79.6929 46.0839C80.9869 45.8458 81.8417 44.5972 81.605 43.2956C81.3683 41.9941 80.1269 41.1343 78.8328 41.3724C77.5388 41.6105 76.684 42.8591 76.9207 44.1607Z" fill="white"/>
<path d="M27.5112 68.0308C27.7242 69.1896 28.8289 69.9594 29.9835 69.7451C31.1355 69.5308 31.9009 68.4197 31.6878 67.2584C31.4748 66.0997 30.3701 65.3298 29.2155 65.5441C28.0635 65.7584 27.2981 66.8695 27.5112 68.0308Z" fill="white"/>
<path d="M0.0422658 72.3191C0.294758 73.6948 1.60456 74.6048 2.97223 74.3509C4.3399 74.0969 5.24466 72.7795 4.99217 71.4038C4.73968 70.0282 3.42987 69.1181 2.06221 69.3721C0.694538 69.6261 -0.210227 70.9435 0.0422658 72.3191Z" fill="white"/>
<path d="M25.9697 97.5514L24.4968 97.2339C23.4947 97.017 22.6373 96.4218 22.0823 95.5567C21.5274 94.6916 21.338 93.6599 21.5537 92.6546L21.8693 91.1732C22.085 90.1652 22.6767 89.3028 23.5368 88.7446C24.3969 88.1864 25.4226 87.996 26.4221 88.2129L27.8949 88.5303C28.897 88.7473 29.7544 89.3425 30.3094 90.2076C30.8643 91.0726 31.0537 92.1044 30.838 93.1096L30.5224 94.5911C30.3068 95.599 29.715 96.4614 28.8549 97.0196C28.4262 97.3 27.9554 97.4852 27.4662 97.5752C26.977 97.6651 26.4694 97.6598 25.9697 97.5514ZM24.6125 90.4218C24.197 90.6917 23.9129 91.107 23.8103 91.5938L23.4947 93.0752C23.3921 93.562 23.4816 94.0567 23.7498 94.4747C24.0181 94.8927 24.431 95.1784 24.915 95.2816L26.3879 95.599C26.8692 95.7022 27.3636 95.6122 27.7792 95.3424C28.1948 95.0726 28.4788 94.6572 28.584 94.1705L28.8996 92.689C29.0022 92.2022 28.9128 91.7075 28.6445 91.2896C28.3762 90.8716 27.9633 90.5859 27.4794 90.4827L26.0065 90.1652C25.7645 90.1123 25.5199 90.1097 25.2858 90.1547C25.0491 90.197 24.8229 90.2896 24.6152 90.4218H24.6125Z" fill="white"/>
<path d="M47.7158 97.6389L57.8287 102.551L48.5417 108.903L47.7158 97.6362V97.6389ZM49.9488 100.943L50.2697 105.311L53.8703 102.848L49.9488 100.943Z" fill="white"/>
<path d="M65.6294 49.0337L75.7422 53.9463L66.4553 60.298L65.6294 49.031V49.0337ZM67.8624 52.3378L68.1832 56.7055L71.7839 54.2426L67.8624 52.3378Z" fill="white"/>
<path d="M169.733 84.5491C169.88 84.6496 170.054 84.7131 170.243 84.7237C170.79 84.7528 171.258 84.3295 171.287 83.7792C171.54 78.9037 172.902 74.0598 175.232 69.7742C177.573 65.4673 180.882 61.6923 184.083 58.0389C184.446 57.6262 184.406 56.9939 183.993 56.6288C183.583 56.2638 182.954 56.3035 182.591 56.7188C179.32 60.4542 175.935 64.3139 173.489 68.8165C171.016 73.3641 169.57 78.5015 169.304 83.6761C169.286 84.0359 169.459 84.3612 169.733 84.5517V84.5491Z" fill="white"/>
<path d="M155.109 72.3218C155.207 72.3879 155.315 72.4382 155.435 72.4699C155.967 72.6022 156.506 72.2742 156.637 71.7398C157.203 69.4356 156.264 67.2081 155.438 65.2425C155.233 64.7531 155.038 64.2901 154.865 63.8298C154.07 61.7214 154.099 59.0468 155.717 58.2426C155.977 58.113 156.298 58.0204 156.64 57.9252C157.29 57.7426 158.026 57.5336 158.642 56.9728C160.183 55.5681 159.746 53.0893 158.521 51.3671C158.279 51.0284 158.018 50.7004 157.766 50.3856C157.079 49.5311 156.432 48.7216 156.309 47.8274C156.027 45.8036 158.486 44.1714 160.893 43.51C161.869 43.2428 163.342 42.8381 163.897 41.4757C164.289 40.5074 164.002 39.518 163.752 38.8567C163.436 38.0207 163.023 37.2429 162.624 36.489C162.108 35.5154 161.622 34.5948 161.364 33.6186C160.977 32.1425 161.401 30.2774 162.653 29.8541C162.945 29.7563 163.305 29.7245 163.689 29.6901C164.32 29.6346 165.038 29.5711 165.717 29.1875C167.595 28.1267 167.842 25.5473 166.364 22.4521L163.849 17.1877C163.613 16.6903 163.018 16.4813 162.524 16.7194C162.029 16.9575 161.821 17.5554 162.058 18.0527L164.573 23.3172C165.162 24.5526 165.864 26.8119 164.744 27.4468C164.438 27.6187 164.01 27.6558 163.515 27.7007C163.055 27.7404 162.534 27.7854 162.019 27.96C159.607 28.7748 158.815 31.7351 159.444 34.1266C159.759 35.3276 160.325 36.3964 160.872 37.4281C161.259 38.1583 161.624 38.8487 161.898 39.5683C162.103 40.108 162.155 40.4863 162.061 40.7217C161.877 41.1741 161.009 41.4122 160.372 41.5868C157.048 42.4995 153.897 44.8698 154.347 48.1052C154.547 49.547 155.438 50.6581 156.225 51.6395C156.472 51.9464 156.703 52.2374 156.914 52.5311C157.621 53.5231 157.966 54.904 157.316 55.494C157.048 55.74 156.614 55.8617 156.111 56.0046C155.717 56.1157 155.272 56.2426 154.846 56.4543C152.027 57.859 151.922 61.6288 153.016 64.5388C153.203 65.0362 153.413 65.5388 153.618 66.0229C154.391 67.8642 155.125 69.6049 154.717 71.2636C154.615 71.6789 154.788 72.0969 155.117 72.3244L155.109 72.3218Z" fill="white"/>
<path d="M112.023 61.0599C112.667 61.507 113.514 61.761 114.469 61.7715C114.987 61.7768 115.479 61.7239 115.957 61.671C116.462 61.6155 116.941 61.5625 117.393 61.589C118.388 61.6446 119.35 62.0943 120.034 62.8244C120.41 63.2265 121.039 63.2451 121.438 62.8668C121.838 62.4885 121.857 61.8562 121.481 61.4541C120.452 60.3536 119 59.6737 117.501 59.5917C116.886 59.5573 116.304 59.6208 115.742 59.6816C115.302 59.7292 114.889 59.7742 114.49 59.7716C113.885 59.7636 113.085 59.5732 112.82 59.0546C112.622 58.6684 112.699 58.1102 112.788 57.4647C112.864 56.9039 112.954 56.269 112.862 55.6208C112.733 54.6923 112.267 53.9145 111.894 53.2902C111.444 52.5389 110.826 51.5071 109.824 50.8802C108.68 50.1632 107.365 50.1474 106.207 50.1289C105.908 50.1236 105.626 50.1209 105.353 50.105C104.345 50.0521 103.183 49.6474 103.012 48.8881C102.935 48.5442 103.043 48.113 103.17 47.613C103.254 47.285 103.338 46.9464 103.385 46.5786C103.54 45.3644 103.199 44.1104 102.449 43.1448C101.089 41.3882 99.0061 41.0443 96.9914 40.711C96.0735 40.5602 95.2082 40.4147 94.4297 40.1449C94.2035 40.0655 93.9247 39.957 93.7563 39.793C93.3224 39.3724 93.4591 38.4359 93.538 38.055C93.5828 37.8354 93.6406 37.6105 93.7011 37.3724C93.8826 36.6529 94.0904 35.8354 93.9957 34.9651C93.9036 34.1264 93.4434 33.2984 92.7963 32.809C92.2624 32.4069 91.6365 32.2455 91.0236 32.354C90.4845 32.4492 90.1215 32.9651 90.2162 33.5101C90.3109 34.055 90.8264 34.4174 91.3656 34.3222C91.3919 34.3169 91.4655 34.3037 91.6049 34.4069C91.8206 34.5682 91.9915 34.8883 92.0257 35.1846C92.081 35.6978 91.9363 36.2746 91.7811 36.883C91.718 37.1317 91.6549 37.3883 91.5996 37.6502C91.2866 39.1661 91.5654 40.4385 92.3834 41.2322C92.8305 41.666 93.3697 41.8882 93.7905 42.0337C94.7269 42.3591 95.7158 42.5231 96.6758 42.6819C98.3906 42.9649 100.008 43.2348 100.889 44.3723C101.31 44.9146 101.507 45.6448 101.423 46.3273C101.392 46.5733 101.326 46.8379 101.252 47.121C101.087 47.7744 100.9 48.5151 101.079 49.3273C101.505 51.2294 103.514 52.0071 105.25 52.0997C105.563 52.1156 105.879 52.1209 106.184 52.1262C107.17 52.1394 108.104 52.1526 108.78 52.5759C109.329 52.9198 109.732 53.5415 110.195 54.3193C110.489 54.8113 110.823 55.3695 110.897 55.896C110.95 56.269 110.886 56.7161 110.821 57.1896C110.702 58.0494 110.568 59.0229 111.057 59.9726C111.278 60.4038 111.61 60.7689 112.02 61.0546L112.023 61.0599Z" fill="white"/>
<path d="M77.4835 63.0571C77.6177 63.1497 77.7755 63.2106 77.9464 63.2291C79.9558 63.4302 81.9732 63.7688 83.9405 64.2344C84.9058 64.4619 86.0367 64.7608 87.0861 65.2291C88.2828 65.7635 89.4191 66.5386 90.5185 67.2872C96.8229 71.5888 103.343 76.0358 109.132 81.1759C109.545 81.541 110.171 81.5013 110.534 81.0886C110.897 80.6759 110.857 80.0437 110.447 79.6786C104.563 74.4564 97.9907 69.9697 91.6363 65.6338C90.4658 64.8349 89.2534 64.0069 87.8936 63.4011C86.6916 62.8667 85.4528 62.5386 84.3981 62.2873C82.3466 61.8005 80.2425 61.4487 78.1463 61.2371C77.6019 61.1815 77.1153 61.5836 77.0601 62.1312C77.0233 62.5069 77.1968 62.8534 77.4862 63.0545L77.4835 63.0571Z" fill="white"/>
<path d="M122.417 77.7241C123.092 76.6305 122.758 75.1936 121.671 74.5147C120.583 73.8359 119.155 74.1721 118.48 75.2657C117.805 76.3593 118.139 77.7962 119.226 78.475C120.314 79.1539 121.742 78.8177 122.417 77.7241Z" fill="white"/>
<path d="M153.873 81.446C153.208 82.4168 153.45 83.7475 154.415 84.4168C155.38 85.0861 156.703 84.8427 157.369 83.8718C158.034 82.901 157.792 81.5703 156.827 80.901C155.862 80.2317 154.539 80.4751 153.873 81.446Z" fill="white"/>
<path d="M141.201 48.2876C140.354 49.523 140.662 51.2161 141.893 52.068C143.124 52.9198 144.804 52.6103 145.651 51.3722C146.498 50.1368 146.19 48.4437 144.96 47.5919C143.731 46.74 142.048 47.0495 141.201 48.2876Z" fill="white"/>
<path d="M98.0961 25.7801C97.2282 27.0446 97.5464 28.7774 98.8036 29.6504C100.061 30.5234 101.784 30.2033 102.651 28.9387C103.519 27.6742 103.201 25.9414 101.944 25.0684C100.687 24.1954 98.964 24.5155 98.0961 25.7801Z" fill="white"/>
<path d="M79.8272 48.3247C79.1013 49.3829 79.367 50.8353 80.419 51.5654C81.4711 52.2956 82.915 52.0284 83.6409 50.9702C84.3668 49.912 84.1012 48.4597 83.0491 47.7295C81.9971 46.9994 80.5531 47.2666 79.8272 48.3247Z" fill="white"/>
<path d="M106.891 96.9669C106.286 97.8505 106.507 99.0595 107.385 99.6679C108.264 100.276 109.466 100.054 110.071 99.1706C110.676 98.287 110.455 97.078 109.576 96.4695C108.698 95.8611 107.496 96.0833 106.891 96.9669Z" fill="white"/>
<path d="M166.563 49.5891C168.215 47.1791 171.508 46.5707 173.907 48.232C176.303 49.8934 176.908 53.2081 175.256 55.6181C173.604 58.0282 170.309 58.6366 167.913 56.9753C165.516 55.3139 164.912 52.0018 166.563 49.5891ZM168.199 50.724C167.168 52.2267 167.547 54.2954 169.041 55.3298C170.535 56.3668 172.592 55.9859 173.62 54.4832C174.651 52.9806 174.272 50.9119 172.778 49.8775C171.284 48.8405 169.228 49.2214 168.199 50.724Z" fill="white"/>
<path d="M185.074 82.7263C184.74 83.2131 184.864 83.8771 185.345 84.2104C185.829 84.5464 186.489 84.4221 186.821 83.9379C187.155 83.4512 187.031 82.7872 186.55 82.4538C186.068 82.1205 185.406 82.2422 185.074 82.7263Z" fill="white"/>
<path d="M201.323 64.9912C200.431 66.2901 200.758 68.0705 202.049 68.9674C203.34 69.8642 205.11 69.5361 206.002 68.2372C206.894 66.9383 206.568 65.1579 205.276 64.2611C203.985 63.3643 202.215 63.6923 201.323 64.9912Z" fill="white"/>
<path d="M191.06 35.8619C190.313 36.9518 190.587 38.4412 191.668 39.1925C192.749 39.9438 194.232 39.6687 194.979 38.5814C195.726 37.4941 195.453 36.0021 194.372 35.2508C193.291 34.4994 191.807 34.7746 191.06 35.8619Z" fill="white"/>
<path d="M139.341 17.6003C138.676 18.5711 138.918 19.9018 139.883 20.5711C140.848 21.2404 142.171 20.997 142.837 20.0261C143.502 19.0553 143.26 17.7246 142.295 17.0553C141.33 16.386 140.007 16.6294 139.341 17.6003Z" fill="white"/>
<path d="M116.904 1.09534C116.115 2.24612 116.401 3.82282 117.548 4.61646C118.695 5.41009 120.26 5.12174 121.049 3.96832C121.838 2.81754 121.551 1.24084 120.405 0.447205C119.26 -0.346434 117.693 -0.0580791 116.904 1.09534Z" fill="white"/>
<path d="M117.498 37.3777L116.68 36.1052C116.126 35.2402 115.936 34.2084 116.152 33.2032C116.367 32.1952 116.959 31.3328 117.819 30.7746L119.084 29.9519C119.944 29.3937 120.97 29.2032 121.97 29.4202C122.972 29.6371 123.829 30.2323 124.384 31.0974L125.202 32.3698C125.757 33.2349 125.946 34.2666 125.731 35.2719C125.515 36.2798 124.923 37.1423 124.063 37.7005L122.798 38.5232C121.938 39.0814 120.912 39.2719 119.913 39.0549C119.413 38.9465 118.948 38.7454 118.54 38.4597C118.13 38.1766 117.777 37.8116 117.498 37.3777ZM121.551 31.3725C121.068 31.2693 120.576 31.3593 120.16 31.6291L118.895 32.4519C118.479 32.7217 118.195 33.137 118.093 33.6238C117.99 34.1106 118.08 34.6053 118.348 35.0232L119.166 36.2957C119.434 36.7137 119.847 36.9994 120.331 37.1052C120.815 37.2084 121.307 37.1185 121.722 36.8486L122.988 36.0259C123.403 35.756 123.687 35.3407 123.79 34.8539C123.892 34.3672 123.803 33.8725 123.535 33.4545L122.717 32.182C122.582 31.973 122.412 31.7984 122.214 31.6609C122.017 31.5233 121.793 31.4254 121.551 31.3752V31.3725Z" fill="white"/>
<path d="M132.813 52.9067L136.511 63.5732L125.478 61.4595L132.813 52.9041V52.9067ZM132.072 56.8299L129.229 60.1447L133.505 60.9648L132.072 56.8299Z" fill="white"/>
<path d="M179.651 31.2773L183.349 41.9438L172.315 39.8301L179.651 31.2747V31.2773ZM178.909 35.2005L176.066 38.5153L180.343 39.3354L178.909 35.2005Z" fill="white"/>
<path d="M162.379 153.842C163.055 153.199 163.647 152.469 164.133 151.67C165.969 148.651 170.13 140.564 167.618 132.678C164.446 122.723 154.599 122.141 150.346 116.956C146.093 111.771 144.163 110.543 141.164 112.35C138.166 114.157 142.998 121.123 148.255 125.607C148.255 125.607 125.881 114.287 122.43 114.977C118.979 115.67 118.111 118.48 121.383 120.89C124.655 123.3 142.096 130.583 142.096 130.583L136.041 144.321C136.041 144.321 122.748 137.358 119.887 137.376C117.025 137.395 113.527 141.157 118.501 143.871C123.474 146.585 145.52 158.09 151.893 157.593C157.15 157.186 158.815 157.236 162.384 153.842H162.379Z" fill="white"/>
<path d="M143.611 130.879C143.611 130.879 121.631 120.014 117.428 119.932C113.225 119.848 111.27 123.924 114.403 126.929C117.535 129.935 140.404 138.117 140.404 138.117" fill="white"/>
<path d="M137.253 145.228C137.253 145.228 116.983 136.998 114.403 134.717C112.746 133.255 112.874 127.329 118.032 128.376C123.19 129.424 140.404 138.117 140.404 138.117" fill="white"/>
<path d="M135.97 159.537C135.97 159.537 120.286 144.223 118.75 141.133C117.764 139.149 120.108 133.71 124.489 136.638C128.871 139.567 141.554 154.149 141.554 154.149" fill="white"/>
</g>
<defs>
<clipPath id="clip0_78_1766">
<rect width="277" height="179" fill="white"/>
</clipPath>
</defs>
</svg>
