<svg width="333" height="215" viewBox="0 0 333 215" fill="none" xmlns="http://www.w3.org/2000/svg">
<g clip-path="url(#clip0_57_345)">
<path d="M217.513 112.614C217.305 112.576 217.102 112.481 216.932 112.325C216.441 111.88 216.403 111.124 216.843 110.632C220.751 106.275 223.682 100.997 225.326 95.3668C226.977 89.7108 227.353 83.6767 227.72 77.8396C227.761 77.1787 228.327 76.6766 228.985 76.718C229.639 76.7593 230.142 77.328 230.101 77.989C229.728 83.9563 229.339 90.1271 227.615 96.0404C225.873 102.014 222.762 107.613 218.617 112.236C218.329 112.557 217.909 112.684 217.513 112.614Z" fill="white"/>
<path d="M240.276 114.721C240.136 114.695 240 114.645 239.874 114.568C239.311 114.225 239.128 113.488 239.469 112.922C240.936 110.485 243.614 109.392 245.98 108.429C246.568 108.191 247.124 107.962 247.662 107.718C250.118 106.606 252.354 104.308 251.658 102.243C251.548 101.909 251.348 101.556 251.143 101.185C250.744 100.473 250.295 99.669 250.248 98.6649C250.125 96.1547 252.591 94.423 255.089 94.0067C255.582 93.9241 256.078 93.8701 256.559 93.8192C257.865 93.6794 259.098 93.5428 259.961 92.8914C261.912 91.4138 261.201 87.9249 259.715 85.3099C259.111 84.2486 258.2 82.6471 258.883 81.017C259.367 79.8604 260.448 79.263 261.22 78.9167C262.197 78.4782 263.202 78.17 264.179 77.8713C265.441 77.4836 266.633 77.1214 267.676 76.5081C269.254 75.5867 270.468 73.6388 269.763 72.209C269.599 71.8753 269.317 71.5417 269.02 71.1858C268.53 70.598 267.973 69.9339 267.72 69.0283C267.022 66.5244 268.991 64.1222 272.862 62.7559L279.448 60.4331C280.071 60.2139 280.75 60.5411 280.969 61.1671C281.187 61.7931 280.858 62.4762 280.238 62.6955L273.652 65.0183C272.106 65.5648 269.602 66.8835 270.019 68.3801C270.133 68.7868 270.465 69.184 270.847 69.6447C271.205 70.0705 271.609 70.5567 271.9 71.1445C273.26 73.8962 271.432 77.0864 268.878 78.5831C267.594 79.3361 266.212 79.7587 264.875 80.1686C263.929 80.4578 263.035 80.7311 262.197 81.1092C261.564 81.392 261.201 81.6684 261.084 81.948C260.859 82.4882 261.394 83.4319 261.789 84.1246C263.844 87.7375 264.521 92.4434 261.403 94.8106C260.015 95.8624 258.317 96.0467 256.818 96.2087C256.35 96.2596 255.908 96.3072 255.481 96.3771C254.042 96.6154 252.581 97.4924 252.635 98.5505C252.657 98.989 252.923 99.4625 253.23 100.012C253.47 100.444 253.742 100.93 253.925 101.477C255.136 105.077 252.038 108.372 248.648 109.907C248.066 110.171 247.466 110.415 246.881 110.654C244.664 111.556 242.571 112.411 241.515 114.165C241.253 114.603 240.753 114.813 240.279 114.724L240.276 114.721Z" fill="white"/>
<path d="M286.423 141.962C285.496 141.79 284.564 141.282 283.742 140.475C283.296 140.039 282.923 139.569 282.562 139.118C282.18 138.638 281.816 138.187 281.411 137.821C280.52 137.017 279.321 136.579 278.12 136.614C277.462 136.636 276.912 136.115 276.89 135.451C276.871 134.79 277.386 134.237 278.047 134.215C279.852 134.158 281.658 134.822 283.005 136.032C283.555 136.528 283.998 137.081 284.421 137.612C284.753 138.028 285.07 138.419 285.411 138.755C285.93 139.267 286.771 139.785 287.435 139.575C287.928 139.416 288.336 138.879 288.804 138.253C289.212 137.713 289.673 137.097 290.299 136.623C291.194 135.943 292.247 135.683 293.091 135.47C294.109 135.216 295.507 134.869 296.885 135.19C298.463 135.562 299.595 136.668 300.594 137.643C300.85 137.894 301.094 138.133 301.34 138.355C302.242 139.172 303.573 139.82 304.357 139.321C304.714 139.095 304.986 138.635 305.299 138.101C305.505 137.751 305.72 137.389 305.988 137.04C306.886 135.877 308.233 135.105 309.688 134.923C312.328 134.593 314.389 136.08 316.385 137.519C317.292 138.174 318.149 138.794 319.037 139.229C319.297 139.356 319.625 139.502 319.907 139.505C320.631 139.518 321.304 138.606 321.56 138.215C321.709 137.99 321.848 137.751 322 137.497C322.455 136.731 322.967 135.861 323.786 135.2C324.574 134.564 325.665 134.256 326.629 134.393C327.423 134.51 328.09 134.908 328.52 135.521C328.899 136.064 328.769 136.811 328.229 137.192C327.688 137.573 326.945 137.443 326.566 136.9C326.547 136.874 326.496 136.798 326.291 136.766C325.971 136.722 325.554 136.846 325.276 137.068C324.795 137.456 324.431 138.069 324.046 138.721C323.891 138.984 323.729 139.258 323.552 139.528C322.537 141.081 321.225 141.923 319.859 141.901C319.113 141.889 318.465 141.615 317.988 141.38C316.919 140.856 315.939 140.15 314.99 139.464C313.292 138.241 311.689 137.087 309.979 137.3C309.163 137.402 308.376 137.853 307.873 138.504C307.693 138.74 307.525 139.022 307.348 139.324C306.937 140.02 306.469 140.811 305.628 141.345C303.658 142.597 301.293 141.542 299.737 140.135C299.456 139.88 299.184 139.617 298.922 139.359C298.071 138.527 297.268 137.742 296.335 137.523C295.576 137.345 294.71 137.529 293.66 137.793C292.993 137.961 292.237 138.149 291.732 138.533C291.371 138.806 291.045 139.238 290.704 139.696C290.078 140.529 289.37 141.469 288.152 141.857C287.599 142.035 287.011 142.063 286.42 141.952L286.423 141.962Z" fill="white"/>
<path d="M314.092 173.165C313.899 173.13 313.716 173.047 313.555 172.914C311.676 171.37 309.675 169.933 307.61 168.65C306.595 168.017 305.384 167.306 304.094 166.807C302.627 166.238 301.005 165.927 299.437 165.625C290.441 163.893 281.142 162.101 271.878 161.519C271.221 161.478 270.721 160.909 270.762 160.248C270.803 159.587 271.369 159.085 272.027 159.127C281.443 159.718 290.821 161.522 299.886 163.27C301.559 163.591 303.285 163.925 304.954 164.573C306.428 165.145 307.759 165.927 308.869 166.616C311.022 167.957 313.109 169.454 315.069 171.065C315.578 171.484 315.654 172.24 315.237 172.752C314.952 173.101 314.509 173.248 314.095 173.171L314.092 173.165Z" fill="white"/>
<path d="M268.941 148.383C268.663 149.902 267.211 150.91 265.7 150.63C264.189 150.35 263.186 148.892 263.465 147.373C263.743 145.854 265.194 144.847 266.705 145.126C268.217 145.406 269.219 146.865 268.941 148.383Z" fill="white"/>
<path d="M233.617 123.526C233.361 124.917 232.033 125.842 230.645 125.585C229.26 125.327 228.34 123.993 228.596 122.598C228.852 121.206 230.18 120.281 231.568 120.539C232.953 120.796 233.873 122.131 233.617 123.526Z" fill="white"/>
<path d="M272.44 106.114C272.717 104.333 271.505 102.664 269.733 102.386C267.961 102.107 266.3 103.325 266.023 105.105C265.746 106.886 266.958 108.555 268.73 108.834C270.501 109.112 272.162 107.895 272.44 106.114Z" fill="white"/>
<path d="M328.074 123.898C327.742 125.712 326.009 126.913 324.201 126.579C322.395 126.246 321.2 124.504 321.532 122.687C321.864 120.873 323.597 119.671 325.405 120.005C327.211 120.339 328.406 122.08 328.074 123.898Z" fill="white"/>
<path d="M324.552 158.653C324.273 160.172 322.822 161.179 321.311 160.9C319.799 160.62 318.797 159.162 319.075 157.643C319.353 156.124 320.805 155.117 322.316 155.396C323.827 155.676 324.83 157.134 324.552 158.653Z" fill="white"/>
<path d="M260.435 176.845C260.205 178.112 258.994 178.948 257.735 178.716C256.474 178.484 255.642 177.267 255.873 176.002C256.104 174.735 257.315 173.899 258.573 174.131C259.835 174.363 260.666 175.58 260.435 176.845Z" fill="white"/>
<path d="M242.362 90.7467C238.922 90.1112 236.636 86.7811 237.269 83.3208C237.901 79.8637 241.215 77.5663 244.658 78.2018C248.098 78.8373 250.384 82.1674 249.752 85.6277C249.119 89.0848 245.806 91.3822 242.362 90.7467ZM244.225 80.5627C242.078 80.1655 240.01 81.5986 239.615 83.7561C239.219 85.9137 240.645 87.9918 242.792 88.389C244.939 88.7861 247.007 87.3531 247.402 85.1955C247.798 83.038 246.372 80.9599 244.225 80.5627Z" fill="white"/>
<path d="M206.01 97.9596C205.884 98.6555 205.217 99.1162 204.524 98.9891C203.832 98.862 203.374 98.1915 203.5 97.4957C203.626 96.7998 204.294 96.339 204.986 96.4661C205.679 96.5932 206.137 97.2637 206.01 97.9596Z" fill="white"/>
<path d="M207.187 69.0124C206.845 70.8776 205.065 72.1105 203.209 71.7673C201.353 71.4241 200.126 69.6352 200.468 67.77C200.809 65.9048 202.589 64.6719 204.445 65.0151C206.301 65.3583 207.528 67.1472 207.187 69.0124Z" fill="white"/>
<path d="M240.528 53.0422C240.244 54.6055 238.751 55.6382 237.196 55.3522C235.64 55.0663 234.613 53.5665 234.897 52.0031C235.182 50.4398 236.674 49.4071 238.23 49.6931C239.785 49.9791 240.813 51.4788 240.528 53.0422Z" fill="white"/>
<path d="M299.927 81.713C299.671 83.1047 298.343 84.0294 296.955 83.772C295.57 83.5146 294.65 82.1801 294.906 80.7851C295.162 79.3934 296.49 78.4687 297.878 78.7261C299.263 78.9835 300.183 80.318 299.927 81.713Z" fill="white"/>
<path d="M332.949 86.8638C332.646 88.5161 331.071 89.6091 329.427 89.3041C327.783 88.999 326.695 87.4166 326.999 85.7643C327.302 84.112 328.877 83.019 330.521 83.324C332.165 83.6291 333.253 85.2114 332.949 86.8638Z" fill="white"/>
<path d="M299.978 117.199C299.389 117.091 298.824 116.866 298.308 116.532C297.274 115.862 296.563 114.823 296.304 113.615L295.924 111.836C295.665 110.625 295.892 109.389 296.56 108.35C297.227 107.311 298.261 106.596 299.462 106.335L301.233 105.954C302.438 105.694 303.671 105.922 304.701 106.593C305.735 107.263 306.447 108.302 306.706 109.51L307.085 111.289C307.345 112.5 307.117 113.736 306.45 114.775C305.783 115.814 304.749 116.529 303.547 116.789L301.777 117.171C301.173 117.301 300.566 117.307 299.978 117.199ZM302.602 108.283C302.317 108.232 302.023 108.236 301.732 108.296L299.962 108.677C299.38 108.801 298.884 109.147 298.561 109.646C298.239 110.148 298.131 110.746 298.254 111.327L298.634 113.107C298.757 113.691 299.102 114.19 299.601 114.514C300.101 114.838 300.695 114.946 301.274 114.823L303.045 114.441C303.626 114.317 304.123 113.971 304.445 113.472C304.768 112.97 304.875 112.376 304.752 111.791L304.373 110.012C304.249 109.427 303.905 108.928 303.408 108.604C303.158 108.442 302.886 108.334 302.602 108.283Z" fill="white"/>
<path d="M274.642 130.809L263.477 123.179L275.635 117.279L274.642 130.812V130.809ZM268.236 123.532L272.564 126.49L272.95 121.244L268.236 123.532Z" fill="white"/>
<path d="M253.106 72.4283L241.942 64.7991L254.099 58.8984L253.106 72.4315V72.4283ZM246.7 65.1518L251.029 68.11L251.415 62.864L246.7 65.1518Z" fill="white"/>
<path d="M115.487 112.614C115.695 112.576 115.898 112.481 116.068 112.325C116.559 111.88 116.596 111.124 116.157 110.632C112.249 106.275 109.318 100.997 107.674 95.3668C106.023 89.7108 105.647 83.6767 105.28 77.8396C105.239 77.1787 104.673 76.6766 104.015 76.718C103.361 76.7593 102.858 77.328 102.899 77.989C103.272 83.9563 103.661 90.1271 105.385 96.0404C107.127 102.014 110.238 107.613 114.383 112.236C114.671 112.557 115.091 112.684 115.487 112.614Z" fill="white"/>
<path d="M92.7245 114.721C92.8636 114.695 92.9996 114.645 93.126 114.568C93.6888 114.225 93.8722 113.488 93.5308 112.922C92.0637 110.485 89.3856 109.392 87.0205 108.429C86.4324 108.191 85.8759 107.962 85.3384 107.718C82.8816 106.606 80.6462 104.308 81.3418 102.243C81.4525 101.909 81.6517 101.556 81.8572 101.185C82.2556 100.473 82.7046 99.669 82.752 98.6649C82.8753 96.1547 80.4091 94.423 77.9112 94.0067C77.418 93.9241 76.9215 93.8701 76.4409 93.8192C75.1351 93.6794 73.902 93.5428 73.0388 92.8914C71.0879 91.4138 71.7993 87.9249 73.2854 85.3099C73.8893 84.2486 74.7999 82.6471 74.117 81.017C73.6332 79.8604 72.5519 79.263 71.7804 78.9167C70.8034 78.4782 69.7979 78.17 68.8209 77.8713C67.5593 77.4836 66.3673 77.1214 65.3239 76.5081C63.7461 75.5867 62.532 73.6388 63.237 72.209C63.4015 71.8753 63.6829 71.5417 63.9801 71.1858C64.4702 70.598 65.0267 69.9339 65.2796 69.0283C65.9784 66.5244 64.0085 64.1222 60.1384 62.7559L53.5523 60.4331C52.9294 60.2139 52.2496 60.5411 52.0314 61.1671C51.8133 61.7931 52.1421 62.4762 52.7618 62.6955L59.348 65.0183C60.8941 65.5648 63.3983 66.8835 62.9809 68.3801C62.8671 68.7868 62.5351 69.184 62.1525 69.6447C61.7952 70.0705 61.3905 70.5567 61.0996 71.1445C59.74 73.8962 61.5676 77.0864 64.1224 78.5831C65.4061 79.3361 66.7878 79.7587 68.1253 80.1686C69.0707 80.4578 69.9655 80.7311 70.8034 81.1092C71.4357 81.392 71.7993 81.6684 71.9163 81.948C72.1408 82.4882 71.6065 83.4319 71.2112 84.1246C69.156 87.7375 68.4794 92.4434 71.597 94.8106C72.985 95.8624 74.683 96.0467 76.1817 96.2087C76.6496 96.2596 77.0923 96.3072 77.5191 96.3771C78.9578 96.6154 80.4186 97.4924 80.3648 98.5505C80.3427 98.989 80.0771 99.4625 79.7704 100.012C79.5301 100.444 79.2582 100.93 79.0748 101.477C77.8638 105.077 80.9624 108.372 84.3519 109.907C84.9337 110.171 85.5344 110.415 86.1194 110.654C88.3358 111.556 90.429 112.411 91.485 114.165C91.7475 114.603 92.247 114.813 92.7213 114.724L92.7245 114.721Z" fill="white"/>
<path d="M46.5772 141.962C47.5037 141.79 48.4364 141.282 49.2585 140.475C49.7043 140.039 50.0774 139.569 50.4379 139.118C50.8205 138.638 51.1841 138.187 51.5888 137.821C52.4804 137.017 53.6788 136.579 54.8803 136.614C55.5379 136.636 56.0881 136.115 56.1102 135.451C56.1292 134.79 55.6138 134.237 54.953 134.215C53.1476 134.158 51.3422 134.822 49.9952 136.032C49.445 136.528 49.0024 137.081 48.5787 137.612C48.2467 138.028 47.9305 138.419 47.589 138.755C47.0705 139.267 46.2294 139.785 45.5655 139.575C45.0722 139.416 44.6643 138.879 44.1964 138.253C43.7885 137.713 43.3269 137.097 42.7008 136.623C41.806 135.943 40.7531 135.683 39.9089 135.47C38.8908 135.216 37.4932 134.869 36.1147 135.19C34.5369 135.562 33.405 136.668 32.4058 137.643C32.1497 137.894 31.9063 138.133 31.6596 138.355C30.7585 139.172 29.4274 139.82 28.6432 139.321C28.2859 139.095 28.014 138.635 27.701 138.101C27.4955 137.751 27.2805 137.389 27.0117 137.04C26.1137 135.877 24.7668 135.105 23.3123 134.923C20.6722 134.593 18.6107 136.08 16.6155 137.519C15.7081 138.174 14.8512 138.794 13.9627 139.229C13.7035 139.356 13.3746 139.502 13.0932 139.505C12.3692 139.518 11.6957 138.606 11.4396 138.215C11.291 137.99 11.1519 137.751 11.0001 137.497C10.5448 136.731 10.0326 135.861 9.21364 135.2C8.42634 134.564 7.3355 134.256 6.37113 134.393C5.57751 134.51 4.91036 134.908 4.48035 135.521C4.10092 136.064 4.23056 136.811 4.77124 137.192C5.31191 137.573 6.05495 137.443 6.43437 136.9C6.45334 136.874 6.50393 136.798 6.70945 136.766C7.0288 136.722 7.44616 136.846 7.72441 137.068C8.20501 137.456 8.56862 138.069 8.95437 138.721C9.1093 138.984 9.27055 139.258 9.44762 139.528C10.4626 141.081 11.7747 141.923 13.1407 141.901C13.8869 141.889 14.535 141.615 15.0125 141.38C16.0812 140.856 17.0614 140.15 18.0099 139.464C19.7078 138.241 21.3109 137.087 23.0214 137.3C23.8372 137.402 24.6245 137.853 25.1272 138.504C25.3075 138.74 25.475 139.022 25.6521 139.324C26.0632 140.02 26.5311 140.811 27.3722 141.345C29.342 142.597 31.7071 141.542 33.2627 140.135C33.5441 139.88 33.816 139.617 34.0784 139.359C34.929 138.527 35.7321 137.742 36.6648 137.523C37.4237 137.345 38.29 137.529 39.3398 137.793C40.0069 137.961 40.7626 138.149 41.2685 138.533C41.629 138.806 41.9546 139.238 42.2961 139.696C42.9222 140.529 43.6304 141.469 44.8477 141.857C45.401 142.035 45.9891 142.063 46.5804 141.952L46.5772 141.962Z" fill="white"/>
<path d="M18.9079 173.165C19.1008 173.13 19.2842 173.047 19.4454 172.914C21.3236 171.37 23.325 169.933 25.3897 168.65C26.4047 168.017 27.6156 167.306 28.9057 166.807C30.3728 166.238 31.9948 165.927 33.5631 165.625C42.5586 163.893 51.8576 162.101 61.1218 161.519C61.7795 161.478 62.279 160.909 62.2379 160.248C62.1968 159.587 61.6309 159.085 60.9732 159.127C51.5572 159.718 42.1791 161.522 33.1141 163.27C31.4415 163.591 29.7151 163.925 28.0457 164.573C26.5722 165.145 25.2411 165.927 24.1313 166.616C21.9781 167.957 19.8912 169.454 17.9309 171.065C17.4218 171.484 17.3459 172.24 17.7633 172.752C18.0479 173.101 18.4905 173.248 18.9047 173.171L18.9079 173.165Z" fill="white"/>
<path d="M64.056 148.383C64.3342 149.902 65.7855 150.91 67.2969 150.63C68.8082 150.35 69.8105 148.892 69.5323 147.373C69.2541 145.854 67.8028 144.847 66.2914 145.126C64.78 145.406 63.7777 146.865 64.056 148.383Z" fill="white"/>
<path d="M99.3834 123.526C99.6395 124.917 100.967 125.842 102.355 125.585C103.74 125.327 104.66 123.993 104.404 122.598C104.148 121.206 102.82 120.281 101.432 120.539C100.044 120.796 99.1272 122.131 99.3834 123.526Z" fill="white"/>
<path d="M64.2935 108.817C66.0654 108.538 67.2771 106.869 66.9999 105.089C66.7228 103.308 65.0617 102.09 63.2899 102.369C61.518 102.647 60.3063 104.317 60.5835 106.097C60.8606 107.878 62.5217 109.095 64.2935 108.817Z" fill="white"/>
<path d="M4.92616 123.898C5.25815 125.712 6.99085 126.913 8.79943 126.579C10.6048 126.246 11.8 124.505 11.468 122.687C11.136 120.869 9.40334 119.672 7.59476 120.005C5.78934 120.339 4.59416 122.08 4.92616 123.898Z" fill="white"/>
<path d="M8.44848 158.653C8.72673 160.172 10.178 161.179 11.6894 160.9C13.2007 160.62 14.2031 159.162 13.9248 157.643C13.6466 156.124 12.1953 155.117 10.6839 155.396C9.17255 155.676 8.17024 157.134 8.44848 158.653Z" fill="white"/>
<path d="M72.5645 176.845C72.7953 178.112 74.0063 178.948 75.2647 178.716C76.5263 178.484 77.3579 177.267 77.1271 176.002C76.8963 174.735 75.6853 173.899 74.4269 174.131C73.1653 174.363 72.3337 175.58 72.5645 176.845Z" fill="white"/>
<path d="M83.2484 85.6277C82.6161 82.1706 84.9021 78.8373 88.3422 78.2018C91.7823 77.5663 95.0991 79.8637 95.7314 83.3208C96.3638 86.7779 94.0778 90.1112 90.6377 90.7467C87.1976 91.3822 83.8808 89.0848 83.2484 85.6277ZM85.5977 85.1955C85.9929 87.3531 88.0608 88.7861 90.2077 88.389C92.3546 87.9918 93.7806 85.9137 93.3853 83.7561C92.9901 81.5986 90.9223 80.1655 88.7754 80.5627C86.6285 80.9599 85.2025 83.038 85.5977 85.1955Z" fill="white"/>
<path d="M126.989 97.9596C127.116 98.6555 127.783 99.1162 128.476 98.9891C129.168 98.862 129.626 98.1915 129.5 97.4957C129.374 96.7998 128.706 96.339 128.014 96.4661C127.321 96.5932 126.863 97.2637 126.989 97.9596Z" fill="white"/>
<path d="M125.813 69.0124C126.155 70.8776 127.935 72.1105 129.791 71.7673C131.647 71.4241 132.874 69.6352 132.532 67.77C132.191 65.9048 130.411 64.6719 128.555 65.0151C126.699 65.3583 125.472 67.1472 125.813 69.0124Z" fill="white"/>
<path d="M92.4715 53.0422C92.7561 54.6055 94.2485 55.6382 95.8041 55.3522C97.3598 55.0663 98.3874 53.5665 98.1028 52.0031C97.8182 50.4398 96.3258 49.4071 94.7702 49.6931C93.2146 49.9791 92.187 51.4788 92.4715 53.0422Z" fill="white"/>
<path d="M33.073 81.713C33.3291 83.1047 34.6571 84.0294 36.0451 83.772C37.43 83.5146 38.3501 82.1801 38.094 80.7851C37.8379 79.3934 36.5099 78.4687 35.1219 78.7261C33.737 78.9835 32.8169 80.318 33.073 81.713Z" fill="white"/>
<path d="M0.0505664 86.8638C0.354104 88.5161 1.92871 89.6091 3.57287 89.3041C5.21703 88.999 6.30471 87.4166 6.00117 85.7643C5.69763 84.112 4.12303 83.019 2.47887 83.324C0.834706 83.6291 -0.252971 85.2114 0.0505664 86.8638Z" fill="white"/>
<path d="M31.2201 117.171L29.4495 116.789C28.2448 116.529 27.2141 115.814 26.5469 114.775C25.8798 113.736 25.6521 112.497 25.9114 111.289L26.2908 109.51C26.5501 108.299 27.2615 107.263 28.2954 106.593C29.3294 105.922 30.5625 105.694 31.764 105.954L33.5346 106.335C34.7393 106.596 35.7701 107.311 36.4372 108.35C37.1044 109.389 37.332 110.628 37.0727 111.836L36.6933 113.615C36.434 114.826 35.7226 115.862 34.6887 116.532C34.1733 116.869 33.6073 117.091 33.0192 117.199C32.4311 117.307 31.8209 117.301 31.2201 117.171ZM29.5886 108.607C29.0891 108.931 28.7476 109.43 28.6243 110.015L28.2448 111.794C28.1215 112.379 28.229 112.973 28.5515 113.475C28.8741 113.977 29.3705 114.32 29.9522 114.444L31.7229 114.826C32.3015 114.95 32.8959 114.842 33.3955 114.517C33.8951 114.193 34.2366 113.695 34.363 113.11L34.7425 111.33C34.8658 110.746 34.7583 110.152 34.4358 109.65C34.1132 109.147 33.6168 108.804 33.0351 108.68L31.2644 108.299C30.9735 108.236 30.6795 108.232 30.3981 108.286C30.1135 108.337 29.8416 108.448 29.5918 108.607H29.5886Z" fill="white"/>
<path d="M57.3623 117.276L69.5196 123.176L58.3551 130.805L57.3623 117.272V117.276ZM60.0467 121.244L60.4325 126.49L64.761 123.532L60.0467 121.244Z" fill="white"/>
<path d="M78.8977 58.8953L91.055 64.7959L79.8905 72.4251L78.8977 58.8921V58.8953ZM81.5821 62.864L81.9679 68.1101L86.2964 65.1518L81.5821 62.864Z" fill="white"/>
<path d="M204.047 101.553C204.224 101.674 204.433 101.75 204.66 101.763C205.318 101.798 205.881 101.29 205.916 100.629C206.219 94.7726 207.857 88.9546 210.658 83.807C213.472 78.634 217.45 74.0997 221.298 69.7115C221.734 69.2159 221.687 68.4564 221.191 68.0179C220.697 67.5794 219.942 67.6271 219.505 68.126C215.572 72.6126 211.503 77.2486 208.562 82.6567C205.59 88.1189 203.851 94.2896 203.532 100.505C203.51 100.937 203.718 101.328 204.047 101.557V101.553Z" fill="white"/>
<path d="M186.467 86.8668C186.584 86.9462 186.714 87.0066 186.859 87.0447C187.498 87.2036 188.146 86.8096 188.304 86.1677C188.984 83.4001 187.855 80.7247 186.862 78.3638C186.616 77.7759 186.382 77.2199 186.173 76.667C185.218 74.1345 185.253 70.922 187.197 69.9561C187.51 69.8004 187.896 69.6892 188.307 69.5748C189.088 69.3555 189.974 69.1045 190.713 68.4309C192.566 66.7436 192.041 63.7663 190.568 61.6977C190.277 61.291 189.964 60.897 189.661 60.5189C188.835 59.4925 188.057 58.5202 187.909 57.4462C187.571 55.0154 190.527 53.0549 193.42 52.2605C194.593 51.9396 196.364 51.4534 197.031 49.817C197.502 48.654 197.157 47.4656 196.857 46.6713C196.477 45.6672 195.981 44.733 195.5 43.8274C194.881 42.6581 194.296 41.5523 193.986 40.3798C193.521 38.6067 194.03 36.3666 195.535 35.8582C195.886 35.7406 196.319 35.7025 196.781 35.6612C197.54 35.5945 198.403 35.5182 199.219 35.0575C201.476 33.7833 201.774 30.6852 199.997 26.9675L196.974 20.6443C196.689 20.0469 195.975 19.7959 195.38 20.0818C194.786 20.3678 194.536 21.0859 194.821 21.6833L197.843 28.0066C198.552 29.4905 199.396 32.2041 198.049 32.9667C197.682 33.1732 197.167 33.2177 196.572 33.2717C196.019 33.3194 195.393 33.3734 194.773 33.5831C191.874 34.5618 190.922 38.1174 191.678 40.9899C192.057 42.4325 192.737 43.7162 193.395 44.9554C193.859 45.8324 194.299 46.6617 194.628 47.526C194.874 48.1742 194.938 48.6286 194.824 48.9114C194.603 49.4548 193.559 49.7407 192.794 49.9505C188.797 51.0467 185.009 53.8938 185.55 57.7799C185.79 59.5116 186.862 60.8461 187.808 62.025C188.105 62.3936 188.383 62.7431 188.636 63.0958C189.487 64.2874 189.901 65.9461 189.12 66.6546C188.797 66.9501 188.276 67.0963 187.672 67.2679C187.197 67.4014 186.663 67.5539 186.151 67.8081C182.761 69.4953 182.635 74.0233 183.95 77.5186C184.175 78.1159 184.428 78.7197 184.674 79.3011C185.604 81.5127 186.486 83.6035 185.996 85.5958C185.873 86.0947 186.081 86.5967 186.477 86.87L186.467 86.8668Z" fill="white"/>
<path d="M134.67 73.3402C135.444 73.8772 136.462 74.1822 137.61 74.1949C138.233 74.2013 138.824 74.1377 139.4 74.0742C140.007 74.0074 140.582 73.9439 141.126 73.9757C142.321 74.0424 143.479 74.5826 144.301 75.4596C144.753 75.9425 145.508 75.9648 145.989 75.5104C146.47 75.056 146.492 74.2966 146.04 73.8136C144.803 72.4918 143.058 71.6751 141.256 71.5766C140.516 71.5353 139.817 71.6116 139.14 71.6847C138.612 71.7419 138.116 71.7959 137.635 71.7927C136.908 71.7832 135.947 71.5544 135.628 70.9316C135.391 70.4677 135.482 69.7972 135.59 69.0219C135.681 68.3483 135.789 67.5857 135.678 66.8072C135.523 65.6919 134.964 64.7577 134.515 64.0078C133.974 63.1054 133.231 61.8662 132.026 61.1131C130.651 60.252 129.07 60.2329 127.679 60.2107C127.318 60.2043 126.98 60.2011 126.651 60.1821C125.44 60.1185 124.043 59.6324 123.837 58.7204C123.745 58.3073 123.875 57.7894 124.027 57.1889C124.128 56.7948 124.229 56.3881 124.286 55.9465C124.473 54.488 124.062 52.9818 123.16 51.822C121.526 49.7122 119.022 49.2991 116.6 48.8987C115.496 48.7176 114.456 48.5429 113.52 48.2187C113.248 48.1234 112.913 47.9931 112.711 47.7961C112.189 47.2909 112.353 46.1661 112.448 45.7085C112.502 45.4448 112.571 45.1747 112.644 44.8887C112.862 44.0244 113.112 43.0426 112.998 41.9972C112.888 40.9899 112.334 39.9953 111.556 39.4075C110.915 38.9245 110.162 38.7307 109.425 38.861C108.777 38.9754 108.341 39.595 108.455 40.2495C108.569 40.9041 109.188 41.3394 109.836 41.225C109.868 41.2187 109.957 41.2028 110.124 41.3267C110.383 41.5206 110.589 41.905 110.63 42.2609C110.696 42.8773 110.523 43.57 110.336 44.3009C110.26 44.5996 110.184 44.9078 110.118 45.2224C109.742 47.0431 110.077 48.5715 111.06 49.5247C111.598 50.0458 112.246 50.3127 112.752 50.4875C113.877 50.8783 115.066 51.0753 116.22 51.266C118.282 51.606 120.226 51.9301 121.285 53.2964C121.791 53.9478 122.029 54.8248 121.927 55.6446C121.889 55.9401 121.81 56.2579 121.722 56.5978C121.523 57.3827 121.298 58.2724 121.513 59.2479C122.025 61.5325 124.441 62.4667 126.528 62.5779C126.904 62.597 127.284 62.6033 127.65 62.6097C128.836 62.6256 129.958 62.6415 130.771 63.1499C131.432 63.563 131.916 64.3097 132.472 65.2439C132.826 65.8349 133.228 66.5053 133.316 67.1377C133.38 67.5857 133.304 68.1227 133.225 68.6915C133.082 69.7241 132.921 70.8935 133.509 72.0342C133.775 72.5521 134.173 72.9906 134.666 73.3338L134.67 73.3402Z" fill="white"/>
<path d="M93.1482 75.7392C93.3094 75.8504 93.4992 75.9235 93.7047 75.9457C96.1203 76.1872 98.5455 76.5939 100.911 77.1532C102.071 77.4264 103.431 77.7855 104.692 78.3479C106.131 78.9898 107.497 79.9208 108.818 80.82C116.397 85.9866 124.236 91.328 131.195 97.502C131.691 97.9404 132.444 97.8928 132.88 97.3971C133.316 96.9014 133.269 96.142 132.776 95.7035C125.703 89.4311 117.801 84.042 110.162 78.8341C108.755 77.8745 107.297 76.8799 105.663 76.1522C104.218 75.5104 102.729 75.1164 101.461 74.8145C98.9945 74.2298 96.465 73.8072 93.945 73.553C93.2905 73.4863 92.7055 73.9693 92.6391 74.627C92.5949 75.0782 92.8035 75.4945 93.1513 75.736L93.1482 75.7392Z" fill="white"/>
<path d="M147.166 93.3556C147.977 92.0421 147.575 90.3162 146.268 89.5008C144.961 88.6854 143.244 89.0893 142.432 90.4028C141.621 91.7164 142.023 93.4423 143.33 94.2576C144.637 95.073 146.354 94.6692 147.166 93.3556Z" fill="white"/>
<path d="M184.981 97.8261C184.181 98.9923 184.472 100.591 185.632 101.394C186.793 102.198 188.383 101.906 189.183 100.74C189.983 99.5738 189.692 97.9755 188.532 97.1716C187.371 96.3676 185.781 96.66 184.981 97.8261Z" fill="white"/>
<path d="M169.747 57.9991C168.729 59.483 169.099 61.5166 170.579 62.5398C172.059 63.5629 174.079 63.1911 175.097 61.7041C176.115 60.2202 175.745 58.1866 174.266 57.1634C172.789 56.1402 170.765 56.512 169.747 57.9991Z" fill="white"/>
<path d="M117.928 30.9649C116.884 32.4837 117.267 34.565 118.778 35.6136C120.29 36.6622 122.361 36.2777 123.404 34.7588C124.447 33.24 124.065 31.1587 122.553 30.1101C121.042 29.0616 118.971 29.446 117.928 30.9649Z" fill="white"/>
<path d="M95.9654 58.0436C95.0927 59.3146 95.4121 61.0591 96.6768 61.9361C97.9415 62.8131 99.6774 62.4921 100.55 61.2211C101.423 59.9501 101.103 58.2057 99.8387 57.3287C98.5739 56.4517 96.8381 56.7726 95.9654 58.0436Z" fill="white"/>
<path d="M128.501 116.468C127.774 117.53 128.039 118.982 129.095 119.713C130.151 120.444 131.596 120.177 132.324 119.115C133.051 118.054 132.785 116.602 131.729 115.871C130.673 115.14 129.228 115.407 128.501 116.468Z" fill="white"/>
<path d="M200.237 59.5624C202.223 56.6676 206.181 55.9368 209.065 57.9323C211.945 59.9278 212.673 63.9092 210.687 66.8039C208.701 69.6986 204.739 70.4294 201.859 68.434C198.979 66.4385 198.251 62.4602 200.237 59.5624ZM202.204 60.9255C200.964 62.7303 201.419 65.2151 203.215 66.4576C205.011 67.7031 207.484 67.2456 208.72 65.4408C209.96 63.6359 209.504 61.1511 207.708 59.9087C205.912 58.6631 203.44 59.1207 202.204 60.9255Z" fill="white"/>
<path d="M222.49 99.3641C222.089 99.9487 222.237 100.746 222.816 101.147C223.398 101.55 224.191 101.401 224.59 100.819C224.991 100.235 224.843 99.4372 224.264 99.0368C223.685 98.6364 222.888 98.7826 222.49 99.3641Z" fill="white"/>
<path d="M242.024 78.062C240.952 79.6222 241.344 81.7607 242.897 82.8378C244.449 83.915 246.577 83.521 247.649 81.9608C248.721 80.4007 248.329 78.2622 246.776 77.185C245.224 76.1079 243.096 76.5019 242.024 78.062Z" fill="white"/>
<path d="M229.686 43.0743C228.788 44.3835 229.117 46.1724 230.417 47.0748C231.716 47.9772 233.5 47.6468 234.398 46.3408C235.296 45.0349 234.967 43.2428 233.667 42.3403C232.368 41.4379 230.584 41.7684 229.686 43.0743Z" fill="white"/>
<path d="M167.512 21.14C166.712 22.3061 167.003 23.9044 168.163 24.7083C169.324 25.5122 170.914 25.2199 171.714 24.0537C172.514 22.8876 172.223 21.2893 171.063 20.4854C169.902 19.6815 168.312 19.9738 167.512 21.14Z" fill="white"/>
<path d="M140.538 1.31554C139.59 2.69776 139.934 4.59155 141.313 5.54481C142.691 6.49806 144.573 6.15171 145.521 4.76632C146.47 3.3841 146.125 1.4903 144.746 0.537048C143.371 -0.416205 141.487 -0.0698566 140.538 1.31554Z" fill="white"/>
<path d="M141.253 44.8951L140.269 43.3667C139.602 42.3277 139.374 41.0884 139.634 39.881C139.893 38.6704 140.604 37.6345 141.638 36.964L143.159 35.9758C144.193 35.3054 145.426 35.0766 146.628 35.3371C147.832 35.5977 148.863 36.3126 149.53 37.3517L150.514 38.8801C151.181 39.9191 151.408 41.1584 151.149 42.3658C150.89 43.5764 150.179 44.6123 149.145 45.2828L147.624 46.271C146.59 46.9414 145.357 47.1702 144.155 46.9096C143.554 46.7794 142.995 46.5379 142.505 46.1947C142.011 45.8547 141.588 45.4162 141.253 44.8951ZM146.125 37.6822C145.543 37.5582 144.952 37.6663 144.452 37.9904L142.932 38.9786C142.432 39.3027 142.091 39.8016 141.967 40.3862C141.844 40.9709 141.951 41.5651 142.274 42.0671L143.257 43.5955C143.58 44.0975 144.076 44.4407 144.658 44.5678C145.24 44.6917 145.831 44.5837 146.331 44.2596L147.851 43.2714C148.351 42.9473 148.692 42.4484 148.816 41.8638C148.939 41.2791 148.832 40.6849 148.509 40.1829L147.526 38.6545C147.364 38.4034 147.159 38.1937 146.922 38.0285C146.685 37.8633 146.416 37.7457 146.125 37.6853V37.6822Z" fill="white"/>
<path d="M159.664 63.5471L164.11 76.3589L150.846 73.82L159.664 63.5439V63.5471ZM158.772 68.2594L155.354 72.2408L160.496 73.2258L158.772 68.2594Z" fill="white"/>
<path d="M215.97 37.5678L220.416 50.3795L207.152 47.8406L215.97 37.5646V37.5678ZM215.079 42.28L211.661 46.2614L216.802 47.2465L215.079 42.28Z" fill="white"/>
<path d="M195.206 184.782C196.019 184.01 196.73 183.133 197.315 182.173C199.522 178.548 204.524 168.834 201.505 159.362C197.692 147.405 185.854 146.706 180.741 140.478C175.628 134.25 173.307 132.775 169.703 134.946C166.098 137.116 171.907 145.482 178.227 150.868C178.227 150.868 151.329 137.272 147.181 138.101C143.033 138.933 141.989 142.308 145.923 145.203C149.856 148.097 170.822 156.845 170.822 156.845L163.544 173.346C163.544 173.346 147.564 164.983 144.124 165.005C140.683 165.027 136.478 169.546 142.457 172.806C148.436 176.066 174.939 189.885 182.6 189.288C188.921 188.798 190.922 188.859 195.213 184.782H195.206Z" fill="white"/>
<path d="M182.12 190.374C172.545 190.374 142.252 173.915 141.939 173.743C138.211 171.71 138.179 169.301 138.492 168.046C139.052 165.796 141.572 163.95 144.105 163.934H144.12C147.342 163.934 159.237 169.927 163.016 171.872L169.396 157.408C165.112 155.603 148.816 148.663 145.281 146.061C143.093 144.45 142.068 142.473 142.47 140.643C142.865 138.851 144.5 137.542 146.96 137.049C147.76 136.89 149.888 136.461 164.685 143.195C167.603 144.523 170.452 145.873 172.811 147.014C169.643 143.373 167.309 139.426 167.531 136.706C167.626 135.527 168.185 134.603 169.14 134.024C173.56 131.365 176.419 133.548 181.547 139.795C183.312 141.943 186.047 143.446 188.94 145.034C194.112 147.875 199.975 151.097 202.504 159.031C205.647 168.891 200.55 178.888 198.21 182.729C197.581 183.765 196.81 184.715 195.924 185.557C191.589 189.675 189.262 189.853 183.647 190.279L182.663 190.355C182.49 190.368 182.303 190.374 182.11 190.374H182.12ZM144.133 166.073C144.133 166.073 144.127 166.073 144.124 166.073C142.581 166.082 140.883 167.271 140.56 168.564C140.181 170.089 141.898 171.287 142.957 171.862C151.63 176.593 175.641 188.751 182.508 188.22L183.495 188.144C189.019 187.727 190.685 187.6 194.473 184.003C195.222 183.292 195.874 182.488 196.405 181.614C198.59 178.023 203.364 168.704 200.487 159.686C198.217 152.565 192.987 149.693 187.928 146.912C184.848 145.219 181.939 143.62 179.916 141.155C174.651 134.739 172.963 134.224 170.244 135.858C169.88 136.077 169.7 136.392 169.662 136.878C169.441 139.607 173.589 145.514 178.91 150.045C179.321 150.395 179.407 150.999 179.109 151.453C178.812 151.904 178.224 152.063 177.744 151.818C177.677 151.783 170.949 148.39 163.809 145.139C150.659 139.156 147.911 139.038 147.383 139.146C145.812 139.461 144.756 140.195 144.554 141.107C144.342 142.073 145.066 143.252 146.542 144.338C150.33 147.125 171.012 155.768 171.221 155.857C171.486 155.968 171.695 156.181 171.802 156.448C171.91 156.715 171.904 157.014 171.787 157.277L164.508 173.778C164.388 174.048 164.163 174.258 163.885 174.353C163.607 174.452 163.303 174.43 163.041 174.293C156.961 171.112 146.463 166.073 144.127 166.073H144.133Z" fill="#00D045"/>
<path d="M172.643 157.201C172.643 157.201 146.22 144.151 141.167 144.053C136.115 143.951 133.765 148.847 137.531 152.457C141.297 156.067 168.789 165.895 168.789 165.895" fill="white"/>
<path d="M168.432 166.902C165.596 165.888 140.617 156.893 136.798 153.229C134.768 151.281 134.094 148.796 135.002 146.582C135.934 144.303 138.299 142.915 141.189 142.978C146.331 143.08 170.389 154.891 173.115 156.238L172.175 158.157C164.884 154.557 145.097 145.196 141.148 145.117C139.166 145.082 137.566 145.949 136.971 147.395C136.412 148.761 136.896 150.363 138.268 151.678C141.224 154.513 161.561 162.171 169.146 164.881L168.432 166.896V166.902Z" fill="#00D045"/>
<path d="M165.001 174.436C165.001 174.436 140.633 164.551 137.531 161.812C135.539 160.054 135.694 152.937 141.894 154.195C148.095 155.453 168.789 165.895 168.789 165.895" fill="white"/>
<path d="M164.603 175.427C162.092 174.407 139.975 165.393 136.829 162.615C135.27 161.24 134.856 157.938 135.966 155.692C137.044 153.502 139.283 152.575 142.106 153.146C148.373 154.417 168.416 164.509 169.267 164.938L168.312 166.851C168.106 166.746 147.674 156.461 141.683 155.247C139.798 154.866 138.518 155.336 137.873 156.645C137.079 158.256 137.544 160.404 138.233 161.011C140.664 163.156 158.668 170.715 165.4 173.444L164.603 175.427Z" fill="#00D045"/>
<path d="M187.545 212.658C188.589 212.251 189.575 211.708 190.48 211.041C193.885 208.521 202.166 201.422 202.925 191.502C203.883 178.983 193.183 173.845 190.786 166.143C188.39 158.437 186.793 156.191 182.641 156.832C178.49 157.474 180.725 167.426 184.557 174.811C184.557 174.811 164.752 152.019 160.6 151.215C156.448 150.411 154.21 153.14 156.768 157.315C159.326 161.491 175.454 177.54 175.454 177.54L162.516 190.06C162.516 190.06 150.855 176.257 147.662 174.973C144.468 173.689 138.878 176.279 143.191 181.563C147.504 186.85 166.86 209.697 174.177 212.051C180.216 213.993 182.044 214.809 187.552 212.661L187.545 212.658Z" fill="white"/>
<path d="M182.003 215C179.821 215 177.8 214.345 174.784 213.37L173.845 213.065C165.352 210.332 142.59 182.519 142.359 182.237C139.672 178.942 140.548 176.698 141.306 175.653C142.672 173.781 145.695 173.028 148.047 173.975C151.016 175.17 159.81 185.258 162.582 188.5L173.924 177.524C170.636 174.229 158.146 161.621 155.851 157.871C154.428 155.549 154.223 153.331 155.282 151.787C156.319 150.277 158.327 149.683 160.79 150.16C161.593 150.315 163.721 150.725 174.898 162.574C177.102 164.91 179.233 167.245 180.991 169.193C179.423 164.617 178.746 160.08 179.973 157.643C180.504 156.588 181.367 155.943 182.471 155.771C187.564 154.983 189.389 158.088 191.795 165.818C192.62 168.478 194.59 170.906 196.674 173.476C200.395 178.068 204.616 183.276 203.981 191.582C203.19 201.905 194.713 209.23 191.106 211.899C190.132 212.62 189.063 213.208 187.928 213.653C185.493 214.603 183.7 215 182.003 215ZM145.878 175.71C144.74 175.71 143.577 176.161 143.023 176.917C142.097 178.185 143.241 179.946 144.003 180.88C150.261 188.55 167.932 208.915 174.49 211.025L175.432 211.33C180.703 213.036 182.297 213.554 187.153 211.657C188.114 211.282 189.019 210.783 189.841 210.177C193.211 207.682 201.132 200.86 201.856 191.416C202.425 183.962 198.662 179.317 195.023 174.827C192.807 172.091 190.713 169.508 189.765 166.457C187.296 158.52 185.93 157.401 182.796 157.884C182.379 157.948 182.094 158.173 181.873 158.609C180.643 161.052 182.268 168.094 185.493 174.309C185.743 174.789 185.594 175.38 185.149 175.688C184.703 175.993 184.102 175.917 183.748 175.51C183.697 175.453 178.746 169.759 173.352 164.042C163.42 153.518 160.919 152.365 160.391 152.263C158.817 151.958 157.565 152.238 157.037 153.004C156.477 153.817 156.708 155.183 157.666 156.75C160.126 160.766 176.036 176.616 176.194 176.774C176.397 176.978 176.51 177.254 176.51 177.54C176.51 177.829 176.39 178.103 176.185 178.303L163.246 190.822C163.035 191.029 162.75 191.134 162.456 191.121C162.162 191.105 161.887 190.972 161.697 190.746C157.255 185.487 149.407 176.822 147.26 175.958C146.836 175.786 146.359 175.707 145.878 175.707V175.71Z" fill="#00D045"/>
<path d="M177.007 178.56C177.007 178.56 157.438 156.458 152.793 154.446C148.152 152.438 144.136 156.079 146.27 160.852C148.402 165.625 170.171 185.151 170.171 185.151" fill="white"/>
<path d="M169.463 185.948C167.218 183.934 147.462 166.133 145.3 161.291C144.149 158.717 144.462 156.162 146.135 154.456C147.855 152.699 150.571 152.32 153.217 153.468C157.941 155.511 175.783 175.57 177.804 177.852L176.213 179.272C170.813 173.174 156.006 157.001 152.376 155.431C150.555 154.643 148.743 154.843 147.652 155.959C146.618 157.014 146.466 158.679 147.244 160.417C148.917 164.16 164.875 178.967 170.882 184.353L169.466 185.948H169.463Z" fill="#00D045"/>
<path d="M163.458 191.623C163.458 191.623 144.604 173.229 142.758 169.517C141.572 167.134 144.389 160.601 149.657 164.119C154.924 167.636 170.171 185.151 170.171 185.151" fill="white"/>
<path d="M162.715 192.389C160.771 190.492 143.678 173.756 141.806 169.994C140.88 168.128 141.736 164.916 143.605 163.254C145.426 161.637 147.848 161.624 150.245 163.226C155.573 166.781 170.345 183.724 170.971 184.445L169.368 185.853C169.216 185.678 154.156 168.405 149.066 165.008C147.466 163.94 146.1 163.89 145.012 164.856C143.675 166.044 143.298 168.211 143.706 169.037C145.154 171.948 158.987 185.773 164.195 190.854L162.712 192.389H162.715Z" fill="#00D045"/>
<path d="M161.28 126.001C160.771 126.001 160.322 125.632 160.233 125.111L157.46 108.738C157.362 108.156 157.751 107.603 158.33 107.505C158.908 107.406 159.459 107.797 159.557 108.379L162.33 124.752C162.428 125.334 162.039 125.887 161.46 125.985C161.4 125.995 161.34 126.001 161.28 126.001Z" fill="#00D045"/>
<path d="M170.37 121.667C170.291 121.667 170.212 121.657 170.133 121.638C169.561 121.508 169.203 120.933 169.333 120.358L171.61 110.365C171.742 109.789 172.312 109.43 172.884 109.561C173.456 109.691 173.813 110.266 173.684 110.841L171.407 120.834C171.293 121.33 170.857 121.667 170.37 121.667Z" fill="#00D045"/>
<path d="M112.866 169.079C112.353 169.079 111.901 168.707 111.816 168.183C111.721 167.601 112.113 167.048 112.695 166.956L129.345 164.22C129.927 164.125 130.471 164.519 130.566 165.104C130.66 165.685 130.268 166.238 129.687 166.33L113.036 169.066C112.979 169.076 112.919 169.079 112.862 169.079H112.866Z" fill="#00D045"/>
<path d="M120.056 180.155C119.629 180.155 119.224 179.895 119.063 179.469C118.851 178.919 119.126 178.3 119.673 178.087L131.173 173.632C131.72 173.419 132.336 173.695 132.548 174.245C132.76 174.795 132.485 175.415 131.938 175.627L120.438 180.082C120.312 180.13 120.182 180.155 120.056 180.155Z" fill="#00D045"/>
<path d="M124.008 195.204C123.764 195.204 123.518 195.118 123.315 194.947C122.87 194.562 122.816 193.889 123.198 193.437L133.62 181.188C134.002 180.74 134.673 180.686 135.122 181.07C135.568 181.455 135.621 182.129 135.239 182.58L124.817 194.829C124.605 195.077 124.308 195.204 124.008 195.204Z" fill="#00D045"/>
</g>
<defs>
<clipPath id="clip0_57_345">
<rect width="333" height="215" fill="white"/>
</clipPath>
</defs>
</svg>
