<svg width="140" height="140" viewBox="0 0 140 140" fill="none" xmlns="http://www.w3.org/2000/svg">
  <path fill-rule="evenodd" clip-rule="evenodd" d="M126 98H140V42H126V98ZM126 126H112V140H140V112H126V126ZM112 0V14H126V28H140V0H112ZM0 98H14V42H0V98ZM14 112H0V140H28V126H14V112ZM14 14H28V0H0V28H14V14ZM42 140H98V126H42V140ZM42 14H98V0H42V14ZM84 63H112V35H84V63ZM28 63H56V35H28V63ZM106.169 105H92.1691C92.1691 77 50.1691 77 50.1691 105H36.1691C36.1691 63 106.169 63 106.169 105Z" fill="#6A6A6A"/>
</svg>
