<svg width="28" height="28" viewBox="0 0 28 28" fill="none" xmlns="http://www.w3.org/2000/svg">
    <g clip-path="url(#clip0_59_740)">
        <path d="M2 8H26C26.5304 8 27.0391 7.78929 27.4142 7.41421C27.7893 7.03914 28 6.53043 28 6C28 5.46957 27.7893 4.96086 27.4142 4.58579C27.0391 4.21071 26.5304 4 26 4H2C1.46957 4 0.960859 4.21071 0.585786 4.58579C0.210714 4.96086 0 5.46957 0 6C0 6.53043 0.210714 7.03914 0.585786 7.41421C0.960859 7.78929 1.46957 8 2 8ZM26 12H2C1.46957 12 0.960859 12.2107 0.585786 12.5858C0.210714 12.9609 0 13.4696 0 14C0 14.5304 0.210714 15.0391 0.585786 15.4142C0.960859 15.7893 1.46957 16 2 16H26C26.5304 16 27.0391 15.7893 27.4142 15.4142C27.7893 15.0391 28 14.5304 28 14C28 13.4696 27.7893 12.9609 27.4142 12.5858C27.0391 12.2107 26.5304 12 26 12ZM26 20H2C1.46957 20 0.960859 20.2107 0.585786 20.5858C0.210714 20.9609 0 21.4696 0 22C0 22.5304 0.210714 23.0391 0.585786 23.4142C0.960859 23.7893 1.46957 24 2 24H26C26.5304 24 27.0391 23.7893 27.4142 23.4142C27.7893 23.0391 28 22.5304 28 22C28 21.4696 27.7893 20.9609 27.4142 20.5858C27.0391 20.2107 26.5304 20 26 20Z" fill="#022D41"/>
    </g>
    <defs>
        <clipPath id="clip0_59_740">
            <rect width="28" height="28" fill="white"/>
        </clipPath>
    </defs>
</svg>
