<svg width="30" height="30" viewBox="0 0 30 30" fill="none" xmlns="http://www.w3.org/2000/svg">
    <path d="M15 29.25C22.8701 29.25 29.25 22.8701 29.25 15C29.25 7.12994 22.8701 0.75 15 0.75C7.12994 0.75 0.75 7.12994 0.75 15C0.75 22.8701 7.12994 29.25 15 29.25Z" stroke="#DAECF3" stroke-width="1.5"/>
    <mask id="mask0_0_1" style="mask-type:luminance" maskUnits="userSpaceOnUse" x="8" y="8" width="16" height="15">
        <path d="M24 8.12903H8V22.382H24V8.12903Z" fill="white"/>
    </mask>
    <g mask="url(#mask0_0_1)">
        <path d="M16.3947 14.194L17.8107 15.61C18.1682 14.6128 18.4071 13.577 18.5227 12.524C18.5247 12.5083 18.5213 12.4924 18.5132 12.4788C18.505 12.4652 18.4925 12.4547 18.4777 12.449L14.6467 10.985C14.6381 10.9834 14.6293 10.9834 14.6207 10.985C14.6121 10.9834 14.6033 10.9834 14.5947 10.985L10.7627 12.453C10.748 12.4589 10.7357 12.4694 10.7276 12.4829C10.7194 12.4965 10.716 12.5123 10.7177 12.528C10.913 14.2607 11.4331 15.941 12.2507 17.481C13.0207 18.89 13.9057 19.731 14.6197 19.731C15.0167 19.696 15.3884 19.5213 15.6687 19.238L13.5117 17.081C13.3224 16.8917 13.1723 16.667 13.0698 16.4197C12.9674 16.1723 12.9147 15.9072 12.9147 15.6395C12.9147 15.3718 12.9674 15.1067 13.0698 14.8594C13.1723 14.6121 13.3224 14.3873 13.5117 14.198C13.701 14.0087 13.9258 13.8586 14.1731 13.7561C14.4204 13.6537 14.6855 13.6009 14.9532 13.6009C15.221 13.6009 15.486 13.6537 15.7334 13.7561C15.9807 13.8586 16.2054 14.0087 16.3947 14.198" fill="#1AA6B7"/>
        <path d="M16.4389 20.003C15.9547 20.4904 15.306 20.7793 14.6199 20.813C12.0699 20.813 9.97085 16.028 9.63585 12.628C9.61003 12.3746 9.66843 12.1197 9.80201 11.9028C9.93559 11.6859 10.1369 11.519 10.3749 11.428L14.2069 9.96904C14.4734 9.86709 14.7683 9.86709 15.0349 9.96904L18.8659 11.428C19.1031 11.5196 19.3037 11.6867 19.4365 11.9036C19.5694 12.1205 19.6271 12.3751 19.6009 12.628C19.5426 13.1949 19.4478 13.7574 19.3169 14.312L21.1669 12.462C21.1899 12.3 21.2109 12.139 21.2279 11.98C21.2634 11.6514 21.1922 11.3201 21.0247 11.0351C20.8571 10.7502 20.6023 10.5268 20.2979 10.398L15.2199 8.25004C15.03 8.16968 14.826 8.12827 14.6199 8.12827C14.4137 8.12827 14.2097 8.16968 14.0199 8.25004L8.93886 10.399C8.63452 10.5279 8.37976 10.7514 8.21227 11.0363C8.04478 11.3212 7.97346 11.6524 8.00886 11.981C8.48786 16.429 11.5149 22.381 14.6199 22.381C15.2213 22.3171 15.8025 22.1271 16.3254 21.8233C16.8484 21.5195 17.3014 21.1088 17.6549 20.618C17.2084 20.5608 16.7936 20.3568 16.4759 20.038L16.4389 20.003Z" fill="#1AA6B7"/>
        <path d="M23.681 12.835C23.4772 12.6313 23.2007 12.5168 22.9125 12.5168C22.6243 12.5168 22.3479 12.6313 22.144 12.835L17.917 17.062L15.717 14.862C15.6168 14.7581 15.4968 14.6752 15.3642 14.6181C15.2315 14.5611 15.0889 14.531 14.9445 14.5297C14.8001 14.5284 14.6569 14.5559 14.5232 14.6105C14.3896 14.6652 14.2681 14.7459 14.166 14.8481C14.0639 14.9502 13.9832 15.0716 13.9285 15.2052C13.8739 15.3389 13.8464 15.4821 13.8477 15.6265C13.849 15.7709 13.8791 15.9136 13.9361 16.0462C13.9932 16.1788 14.0761 16.2988 14.18 16.399L17.144 19.363C17.3479 19.5668 17.6243 19.6813 17.9125 19.6813C18.2007 19.6813 18.4772 19.5668 18.681 19.363L23.681 14.363C23.8848 14.1592 23.9993 13.8828 23.9993 13.5945C23.9993 13.3063 23.8848 13.0299 23.681 12.826" fill="#1AA6B7"/>
    </g>
</svg>
