<svg width="30" height="30" viewBox="0 0 30 30" fill="none" xmlns="http://www.w3.org/2000/svg">
<path d="M15 29.25C22.8701 29.25 29.25 22.8701 29.25 15C29.25 7.12994 22.8701 0.75 15 0.75C7.12994 0.75 0.75 7.12994 0.75 15C0.75 22.8701 7.12994 29.25 15 29.25Z" stroke="#022D41" stroke-width="1.5"/>
<mask id="mask0_316_57" style="mask-type:luminance" maskUnits="userSpaceOnUse" x="8" y="8" width="16" height="15">
<path d="M24 8.12891H8V22.3819H24V8.12891Z" fill="white"/>
</mask>
<g mask="url(#mask0_316_57)">
<path d="M16.3947 14.1938L17.8107 15.6098C18.1682 14.6126 18.4071 13.5769 18.5227 12.5238C18.5247 12.5081 18.5213 12.4922 18.5132 12.4786C18.505 12.465 18.4925 12.4545 18.4777 12.4488L14.6467 10.9848C14.6381 10.9833 14.6293 10.9833 14.6207 10.9848C14.6121 10.9832 14.6033 10.9832 14.5947 10.9848L10.7627 12.4528C10.748 12.4587 10.7357 12.4692 10.7276 12.4827C10.7194 12.4963 10.716 12.5121 10.7177 12.5278C10.913 14.2605 11.4331 15.9408 12.2507 17.4808C13.0207 18.8898 13.9057 19.7308 14.6197 19.7308C15.0167 19.6958 15.3884 19.5211 15.6687 19.2378L13.5117 17.0809C13.3224 16.8916 13.1723 16.6668 13.0698 16.4195C12.9674 16.1721 12.9147 15.907 12.9147 15.6393C12.9147 15.3716 12.9674 15.1066 13.0698 14.8592C13.1723 14.6119 13.3224 14.3871 13.5117 14.1978C13.701 14.0085 13.9258 13.8584 14.1731 13.7559C14.4204 13.6535 14.6855 13.6007 14.9532 13.6007C15.221 13.6007 15.486 13.6535 15.7334 13.7559C15.9807 13.8584 16.2054 14.0085 16.3947 14.1978" fill="#00D045"/>
<path d="M16.4389 20.003C15.9547 20.4903 15.306 20.7792 14.6199 20.813C12.0699 20.813 9.97085 16.028 9.63585 12.628C9.61003 12.3745 9.66843 12.1196 9.80201 11.9027C9.93559 11.6858 10.1369 11.519 10.3749 11.428L14.2069 9.96895C14.4734 9.867 14.7683 9.867 15.0349 9.96895L18.8659 11.428C19.1031 11.5195 19.3037 11.6866 19.4365 11.9035C19.5694 12.1204 19.6271 12.375 19.6009 12.628C19.5426 13.1948 19.4478 13.7573 19.3169 14.312L21.1669 12.462C21.1899 12.3 21.2109 12.139 21.2279 11.98C21.2634 11.6513 21.1922 11.32 21.0247 11.035C20.8571 10.7501 20.6023 10.5267 20.2979 10.398L15.2199 8.24995C15.03 8.16959 14.826 8.12817 14.6199 8.12817C14.4137 8.12817 14.2097 8.16959 14.0199 8.24995L8.93886 10.399C8.63452 10.5278 8.37976 10.7513 8.21227 11.0362C8.04478 11.3211 7.97346 11.6524 8.00886 11.981C8.48786 16.429 11.5149 22.381 14.6199 22.381C15.2213 22.3171 15.8025 22.127 16.3254 21.8232C16.8484 21.5194 17.3014 21.1087 17.6549 20.618C17.2084 20.5607 16.7936 20.3567 16.4759 20.038L16.4389 20.003Z" fill="#00D045"/>
<path d="M23.681 12.8349C23.4772 12.6311 23.2007 12.5166 22.9125 12.5166C22.6243 12.5166 22.3479 12.6311 22.144 12.8349L17.917 17.0619L15.717 14.8619C15.6168 14.7579 15.4968 14.675 15.3642 14.618C15.2315 14.5609 15.0889 14.5308 14.9445 14.5295C14.8001 14.5282 14.6569 14.5557 14.5232 14.6104C14.3896 14.665 14.2681 14.7458 14.166 14.8479C14.0639 14.95 13.9832 15.0714 13.9285 15.205C13.8739 15.3387 13.8464 15.4819 13.8477 15.6263C13.849 15.7707 13.8791 15.9134 13.9361 16.046C13.9932 16.1787 14.0761 16.2986 14.18 16.3989L17.144 19.3629C17.3479 19.5666 17.6243 19.6811 17.9125 19.6811C18.2007 19.6811 18.4772 19.5666 18.681 19.3629L23.681 14.3629C23.8848 14.159 23.9993 13.8826 23.9993 13.5944C23.9993 13.3061 23.8848 13.0297 23.681 12.8259" fill="#00D045"/>
</g>
</svg>
