<svg width="153" height="20" viewBox="0 0 153 20" fill="none" xmlns="http://www.w3.org/2000/svg">
<path d="M7.99805 15H0.186523V1.43652H7.99805V3.79297H3.0625V6.771H7.65479V9.12744H3.0625V12.625H7.99805V15ZM19.9009 15H17.0713V8.94189C17.0713 8.19352 16.9445 7.63379 16.6909 7.2627C16.4435 6.88542 16.0508 6.69678 15.5127 6.69678C14.7891 6.69678 14.2633 6.96273 13.9355 7.49463C13.6077 8.02653 13.4438 8.90169 13.4438 10.1201V15H10.6143V4.62793H12.7759L13.1562 5.95459H13.314C13.5923 5.47835 13.9943 5.10726 14.52 4.84131C15.0457 4.56917 15.6488 4.43311 16.3291 4.43311C17.8815 4.43311 18.9329 4.94027 19.4834 5.95459H19.7339C20.0122 5.47217 20.4204 5.09798 20.9585 4.83203C21.5028 4.56608 22.1151 4.43311 22.7954 4.43311C23.9705 4.43311 24.8581 4.73617 25.458 5.34229C26.0641 5.94222 26.3672 6.90706 26.3672 8.23682V15H23.5283V8.94189C23.5283 8.19352 23.4015 7.63379 23.1479 7.2627C22.9006 6.88542 22.5078 6.69678 21.9697 6.69678C21.277 6.69678 20.7575 6.94417 20.4111 7.43896C20.071 7.93376 19.9009 8.71924 19.9009 9.79541V15ZM34.9766 15.1855C33.7581 15.1855 32.8026 14.7433 32.1099 13.8589H31.9614C32.0604 14.7248 32.1099 15.2257 32.1099 15.3618V19.5645H29.2803V4.62793H31.5811L31.98 5.97314H32.1099C32.7716 4.94645 33.752 4.43311 35.0508 4.43311C36.2754 4.43311 37.234 4.90625 37.9268 5.85254C38.6195 6.79883 38.9658 8.11312 38.9658 9.79541C38.9658 10.9025 38.8019 11.8643 38.4741 12.6807C38.1525 13.4971 37.6917 14.1187 37.0918 14.5454C36.4919 14.9722 35.7868 15.1855 34.9766 15.1855ZM34.1416 6.69678C33.4427 6.69678 32.9325 6.91325 32.6108 7.34619C32.2892 7.77295 32.1222 8.48112 32.1099 9.4707V9.77686C32.1099 10.8901 32.2738 11.688 32.6016 12.1704C32.9355 12.6528 33.4613 12.894 34.1787 12.894C35.4466 12.894 36.0806 11.8488 36.0806 9.7583C36.0806 8.73779 35.9229 7.97396 35.6074 7.4668C35.2982 6.95345 34.8096 6.69678 34.1416 6.69678ZM43.5581 9.79541C43.5581 10.8221 43.7251 11.5983 44.0591 12.124C44.3993 12.6497 44.9497 12.9126 45.7104 12.9126C46.465 12.9126 47.0062 12.6528 47.334 12.1333C47.668 11.6076 47.835 10.8283 47.835 9.79541C47.835 8.76872 47.668 7.9987 47.334 7.48535C47 6.97201 46.4526 6.71533 45.6919 6.71533C44.9373 6.71533 44.3931 6.97201 44.0591 7.48535C43.7251 7.99251 43.5581 8.76253 43.5581 9.79541ZM50.7295 9.79541C50.7295 11.4839 50.2842 12.8044 49.3936 13.7568C48.5029 14.7093 47.2629 15.1855 45.6733 15.1855C44.6776 15.1855 43.7993 14.9691 43.0386 14.5361C42.2778 14.097 41.6934 13.4692 41.2852 12.6528C40.877 11.8364 40.6729 10.884 40.6729 9.79541C40.6729 8.10075 41.1151 6.78337 41.9995 5.84326C42.884 4.90316 44.1271 4.43311 45.729 4.43311C46.7248 4.43311 47.603 4.64958 48.3638 5.08252C49.1245 5.51546 49.709 6.13704 50.1172 6.94727C50.5254 7.75749 50.7295 8.70687 50.7295 9.79541ZM61.5933 15L60.7954 11.3726L59.7192 6.78955H59.6543L57.7617 15H54.7188L51.7686 4.62793H54.5889L55.7856 9.22021C55.9774 10.0428 56.1722 11.1777 56.3701 12.625H56.4258C56.4505 12.1549 56.5588 11.4097 56.7505 10.3892L56.8989 9.60059L58.1792 4.62793H61.2964L62.5117 9.60059C62.5365 9.73665 62.5736 9.93766 62.623 10.2036C62.6787 10.4696 62.7313 10.7541 62.7808 11.0571C62.8302 11.354 62.8735 11.6478 62.9106 11.9385C62.9539 12.223 62.9787 12.4518 62.9849 12.625H63.0405C63.0962 12.1797 63.1951 11.5705 63.3374 10.7974C63.4797 10.0181 63.5817 9.49235 63.6436 9.22021L64.8867 4.62793H67.6606L64.6733 15H61.5933ZM73.6353 6.44629C73.0353 6.44629 72.5653 6.63802 72.2251 7.02148C71.8849 7.39876 71.6901 7.93685 71.6406 8.63574H75.6113C75.599 7.93685 75.4165 7.39876 75.064 7.02148C74.7114 6.63802 74.2352 6.44629 73.6353 6.44629ZM74.0342 15.1855C72.3643 15.1855 71.0592 14.7248 70.1191 13.8032C69.179 12.8817 68.709 11.5767 68.709 9.88818C68.709 8.15023 69.1419 6.80811 70.0078 5.86182C70.8799 4.90934 72.0828 4.43311 73.6167 4.43311C75.0825 4.43311 76.2236 4.85059 77.04 5.68555C77.8564 6.52051 78.2646 7.67399 78.2646 9.146V10.519H71.5757C71.6066 11.3231 71.8447 11.9508 72.29 12.4023C72.7354 12.8538 73.36 13.0796 74.1641 13.0796C74.7887 13.0796 75.3794 13.0146 75.936 12.8848C76.4927 12.7549 77.0741 12.5477 77.6802 12.2632V14.4526C77.1854 14.7 76.6566 14.8825 76.0938 15C75.5309 15.1237 74.8444 15.1855 74.0342 15.1855ZM86.3545 4.43311C86.738 4.43311 87.0565 4.46094 87.3101 4.5166L87.0967 7.16992C86.8678 7.10807 86.5895 7.07715 86.2617 7.07715C85.3587 7.07715 84.6536 7.30908 84.1465 7.77295C83.6455 8.23682 83.395 8.88623 83.395 9.72119V15H80.5654V4.62793H82.7085L83.126 6.37207H83.2651C83.5868 5.79069 84.0197 5.32373 84.564 4.97119C85.1144 4.61247 85.7113 4.43311 86.3545 4.43311ZM100.53 15L95.4741 2.47559H95.3999C95.4494 3.24251 95.4741 4.02799 95.4741 4.83203V15H94.5649V1.43652H96.0308L100.836 13.3672H100.892L105.698 1.43652H107.126V15H106.171V4.7207C106.171 4.00326 106.208 3.26107 106.282 2.49414H106.208L101.133 15H100.53ZM116.858 15L116.626 13.4043H116.552C116.045 14.0537 115.522 14.5145 114.984 14.7866C114.452 15.0526 113.822 15.1855 113.092 15.1855C112.102 15.1855 111.332 14.932 110.782 14.4248C110.231 13.9176 109.956 13.2157 109.956 12.3188C109.956 11.3354 110.364 10.5716 111.181 10.0273C112.003 9.48307 113.191 9.19548 114.743 9.16455L116.664 9.10889V8.44092C116.664 7.48226 116.469 6.75863 116.079 6.27002C115.689 5.78141 115.062 5.53711 114.196 5.53711C113.262 5.53711 112.294 5.79688 111.292 6.31641L110.949 5.51855C112.056 4.99902 113.151 4.73926 114.233 4.73926C115.34 4.73926 116.166 5.02686 116.71 5.60205C117.26 6.17725 117.536 7.07406 117.536 8.29248V15H116.858ZM113.147 14.3506C114.224 14.3506 115.071 14.0444 115.689 13.4321C116.314 12.8136 116.626 11.957 116.626 10.8623V9.86963L114.864 9.94385C113.447 10.0119 112.436 10.2345 111.83 10.6118C111.23 10.9829 110.93 11.5643 110.93 12.356C110.93 12.9868 111.122 13.4785 111.505 13.8311C111.895 14.1774 112.442 14.3506 113.147 14.3506ZM124.781 4.7207C125.208 4.7207 125.666 4.764 126.154 4.85059L125.978 5.73193C125.557 5.62679 125.121 5.57422 124.67 5.57422C123.81 5.57422 123.105 5.93913 122.555 6.66895C122.004 7.39876 121.729 8.32031 121.729 9.43359V15H120.811V4.91553H121.59L121.683 6.73389H121.748C122.162 5.9917 122.604 5.47217 123.074 5.17529C123.544 4.87223 124.113 4.7207 124.781 4.7207ZM129.114 10.5747L134.263 4.91553H135.376L131.405 9.22021L135.719 15H134.615L130.784 9.90674L129.132 11.4097V15H128.214V0.564453H129.132V7.80078L129.067 10.5747H129.114ZM141.49 15.1855C140.024 15.1855 138.88 14.734 138.057 13.8311C137.241 12.9281 136.833 11.6632 136.833 10.0366C136.833 8.42855 137.228 7.14209 138.02 6.17725C138.812 5.20622 139.879 4.7207 141.221 4.7207C142.408 4.7207 143.345 5.13509 144.032 5.96387C144.718 6.79264 145.062 7.91829 145.062 9.34082V10.083H137.797C137.81 11.4684 138.131 12.526 138.762 13.2559C139.399 13.9857 140.308 14.3506 141.49 14.3506C142.065 14.3506 142.569 14.3104 143.002 14.23C143.441 14.1496 143.995 13.9764 144.663 13.7104V14.5454C144.094 14.7928 143.568 14.9598 143.085 15.0464C142.603 15.1392 142.071 15.1855 141.49 15.1855ZM141.221 5.53711C140.25 5.53711 139.47 5.85872 138.883 6.50195C138.295 7.139 137.952 8.06055 137.853 9.2666H144.087C144.087 8.09766 143.834 7.18538 143.327 6.52979C142.819 5.868 142.118 5.53711 141.221 5.53711ZM150.507 14.3691C151.089 14.3691 151.596 14.3197 152.029 14.2207V14.9629C151.583 15.1113 151.07 15.1855 150.489 15.1855C149.598 15.1855 148.939 14.9474 148.513 14.4712C148.092 13.995 147.882 13.2466 147.882 12.2261V5.71338H146.388V5.17529L147.882 4.75781L148.346 2.47559H148.819V4.91553H151.778V5.71338H148.819V12.0962C148.819 12.8693 148.955 13.4414 149.227 13.8125C149.499 14.1836 149.926 14.3691 150.507 14.3691Z" fill="#1B1B1B"/>
</svg>
