<svg width="84" height="26" viewBox="0 0 84 26" fill="none" xmlns="http://www.w3.org/2000/svg">
<path d="M65.7313 1.63281H10.5063C5.21457 1.63281 0.924805 5.90879 0.924805 11.1835C0.924805 16.4582 5.21457 20.7341 10.5063 20.7341H65.7313C71.023 20.7341 75.3127 16.4582 75.3127 11.1835C75.3127 5.90879 71.023 1.63281 65.7313 1.63281Z" fill="#DEA126"/>
<path d="M65.7313 0.328613H10.5063C5.21457 0.328613 0.924805 4.60459 0.924805 9.87928C0.924805 15.154 5.21457 19.4299 10.5063 19.4299H65.7313C71.023 19.4299 75.3127 15.154 75.3127 9.87928C75.3127 4.60459 71.023 0.328613 65.7313 0.328613Z" fill="#FDD407"/>
<path style="mix-blend-mode:color-burn" d="M65.7313 0.328613H10.5063C5.21457 0.328613 0.924805 4.60459 0.924805 9.87928C0.924805 15.154 5.21457 19.4299 10.5063 19.4299H65.7313C71.023 19.4299 75.3127 15.154 75.3127 9.87928C75.3127 4.60459 71.023 0.328613 65.7313 0.328613Z" fill="url(#paint0_radial_18392_19158)"/>
<path style="mix-blend-mode:screen" d="M38.699 1.42773C22.6206 6.25972 11.0122 11.5639 3.76424 15.3954C2.64563 13.9326 1.98096 12.1072 1.98096 10.1295C1.98096 7.72772 2.95618 5.55455 4.53863 3.97718C6.11633 2.39982 8.30126 1.42773 10.7112 1.42773H38.699Z" fill="url(#paint1_linear_18392_19158)"/>
<path d="M10.8174 6.74822C10.5215 6.58475 10.1666 6.50342 9.75268 6.50342C9.33875 6.50342 8.98423 6.58515 8.69071 6.74822C8.3968 6.91168 8.17181 7.14897 8.01575 7.4605C7.85928 7.77202 7.78125 8.14751 7.78125 8.58657V12.7762C7.78125 13.2152 7.85928 13.5907 8.01575 13.9022C8.17181 14.2138 8.3972 14.4511 8.69071 14.6145C8.98463 14.778 9.33835 14.8593 9.75268 14.8593C10.167 14.8593 10.5219 14.7776 10.8174 14.6145C11.1129 14.4511 11.3379 14.213 11.4924 13.8995C11.6469 13.586 11.7241 13.2097 11.7241 12.7702V12.1113H10.306V12.7702C10.306 12.9132 10.2854 13.034 10.2439 13.1335C10.2023 13.233 10.1401 13.3092 10.0573 13.3617C9.9745 13.4142 9.8727 13.4407 9.75228 13.4407C9.63939 13.4407 9.54116 13.4146 9.45837 13.3617C9.37559 13.3092 9.3126 13.233 9.26903 13.1335C9.22586 13.034 9.20407 12.9147 9.20407 12.7758V8.58617C9.20407 8.44719 9.22586 8.32716 9.26903 8.22569C9.31221 8.12422 9.37559 8.04722 9.45837 7.99471C9.54116 7.9422 9.639 7.91574 9.75228 7.91574C9.86557 7.91574 9.96975 7.94299 10.0545 7.99747C10.1393 8.05196 10.2023 8.12974 10.2439 8.23122C10.2851 8.33269 10.306 8.45272 10.306 8.5917V9.25068H11.7241V8.5917C11.7241 8.15264 11.6469 7.77597 11.4924 7.46287C11.3379 7.14937 11.1129 6.91089 10.8174 6.74782V6.74822Z" fill="#231F20"/>
<path d="M13.9049 6.5874H12.5039V14.7751H13.0802H13.9049H16.0404V13.435H13.9049V6.5874Z" fill="#231F20"/>
<path d="M18.0514 6.5874H16.6504V14.7751H18.0514V6.5874Z" fill="#231F20"/>
<path d="M21.9805 6.74822C21.685 6.58475 21.3297 6.50342 20.9158 6.50342C20.5018 6.50342 20.1473 6.58515 19.8538 6.74822C19.5599 6.91168 19.3349 7.14897 19.1788 7.4605C19.0224 7.77202 18.9443 8.14751 18.9443 8.58657V12.7762C18.9443 13.2152 19.0224 13.5907 19.1788 13.9022C19.3349 14.2138 19.5603 14.4511 19.8538 14.6145C20.1477 14.778 20.5014 14.8593 20.9158 14.8593C21.3301 14.8593 21.685 14.7776 21.9805 14.6145C22.276 14.4511 22.501 14.213 22.6555 13.8995C22.81 13.586 22.8872 13.2097 22.8872 12.7702V12.1113H21.4691V12.7702C21.4691 12.9132 21.4485 13.034 21.4069 13.1335C21.3654 13.233 21.3032 13.3092 21.2204 13.3617C21.1376 13.4142 21.0358 13.4407 20.9154 13.4407C20.8025 13.4407 20.7042 13.4146 20.6215 13.3617C20.5387 13.3092 20.4757 13.233 20.4321 13.1335C20.3889 13.034 20.3672 12.9147 20.3672 12.7758V8.58617C20.3672 8.44719 20.3889 8.32716 20.4321 8.22569C20.4753 8.12422 20.5387 8.04722 20.6215 7.99471C20.7042 7.9422 20.8021 7.91574 20.9154 7.91574C21.0287 7.91574 21.1328 7.94299 21.2176 7.99747C21.3024 8.05196 21.3654 8.12974 21.4069 8.23122C21.4481 8.33269 21.4691 8.45272 21.4691 8.5917V9.25068H22.8872V8.5917C22.8872 8.15264 22.81 7.77597 22.6555 7.46287C22.501 7.14937 22.276 6.91089 21.9805 6.74782V6.74822Z" fill="#231F20"/>
<path d="M27.9604 6.5874H26.3784L25.0676 10.1974V6.5874H23.667V14.7751H25.0676V12.8507L25.6761 11.5335L26.6834 14.7751H28.2203L26.4219 9.91823L27.9604 6.5874Z" fill="#231F20"/>
<path d="M33.4402 10.0845H32.3327V6.5874H30.9316V14.7751H32.3327V11.3965H33.4402V14.7751H34.8412V6.5874H33.4402V10.0845Z" fill="#231F20"/>
<path d="M36.4682 6.5874H35.8467V14.7751H36.4682H37.2477H39.496V13.4125H37.2477V11.385H39.2136V10.028H37.2477V7.94998H39.496V6.5874H37.2477H36.4682Z" fill="#231F20"/>
<path d="M43.377 11.0866C43.6935 10.9366 43.9343 10.7178 44.1003 10.4308C44.2659 10.1437 44.3491 9.79905 44.3491 9.39751V8.44003C44.3491 8.04954 44.2663 7.71472 44.1003 7.43478C43.9343 7.15524 43.6943 6.94321 43.3802 6.79831C43.0657 6.6538 42.6862 6.58154 42.2418 6.58154H40.2192V14.7748H41.5922V11.3117H42.0619L43.078 14.7748H44.5808L43.3663 11.0913C43.3699 11.0898 43.3738 11.0882 43.3774 11.0866H43.377ZM41.5918 7.92201H42.3261C42.4466 7.92201 42.5511 7.9453 42.6399 7.99229C42.7282 8.03927 42.7951 8.10758 42.8403 8.198C42.8854 8.28802 42.908 8.39502 42.908 8.519V9.43107C42.908 9.54359 42.8854 9.64033 42.8403 9.72088C42.7951 9.80182 42.7282 9.86341 42.6399 9.90684C42.5511 9.94988 42.4469 9.9716 42.3261 9.9716H41.5918V7.92201Z" fill="#231F20"/>
<path d="M49.0942 7.94998V6.5874H46.8459H46.0663H45.4448V14.7751H46.0663H46.8459H49.0942V13.4125H46.8459V11.385H48.8117V10.028H46.8459V7.94998H49.0942Z" fill="#231F20"/>
<path d="M82.4619 18.0405L75.0894 25.3894L74.3216 24.6241C73.843 24.147 73.843 23.3725 74.3216 22.8954L79.9599 17.2753C80.4385 16.7981 81.2155 16.7981 81.6942 17.2753L82.4619 18.0405Z" fill="white"/>
<path d="M75.0894 26.0003C74.927 26.0003 74.7713 25.936 74.6564 25.8215L73.8888 25.0563C73.1718 24.3416 73.1718 23.1788 73.8888 22.4642L79.527 16.8441C79.8744 16.4978 80.3359 16.3071 80.827 16.3071C81.3182 16.3071 81.7801 16.4978 82.1274 16.8441L82.8951 17.6093C83.1343 17.8478 83.1343 18.2343 82.8951 18.4728L75.5223 25.8219C75.4075 25.9364 75.2518 26.0007 75.0894 26.0007V26.0003ZM80.827 17.528C80.663 17.528 80.5089 17.5915 80.3929 17.7072L74.7543 23.3273C74.515 23.5658 74.515 23.9539 74.7543 24.1928L75.089 24.5264L81.5955 18.0408L81.2608 17.7072C81.1447 17.5915 80.9906 17.528 80.8266 17.528H80.827Z" fill="#010101"/>
<path d="M74.8297 9.21442C74.3243 8.74259 73.5325 8.7493 73.0393 9.24087C72.6107 9.66809 72.5596 10.314 72.8611 10.8088C72.842 10.787 72.8183 10.7685 72.7973 10.7476C72.2843 10.2363 71.4525 10.2363 70.9395 10.7476C70.5157 11.17 70.4476 11.8077 70.7244 12.3056L70.7217 12.3083C70.7078 12.2933 70.6979 12.276 70.6832 12.2614C70.1719 11.752 69.3432 11.752 68.8322 12.2614C68.3213 12.7707 68.3209 13.5971 68.8322 14.1064C68.8469 14.121 68.8639 14.1309 68.8794 14.1447L68.875 14.1491L68.8322 14.1064L63.7731 9.06359C63.2439 8.53609 62.386 8.53609 61.8564 9.06359C61.3272 9.59109 61.3272 10.4463 61.8564 10.9742L69.4339 18.5274L70.5264 19.6163C69.466 18.7327 68.143 17.9936 66.1644 17.8961C65.4261 17.8597 64.7975 18.4271 64.761 19.1635C64.7246 19.8998 65.2938 20.5264 66.0325 20.5628C67.5465 20.6374 68.4036 21.2443 69.3294 22.133L70.2396 23.0404L70.2721 23.0727C70.2721 23.0727 70.2733 23.0735 70.2737 23.0739L70.3481 23.1481C71.3756 24.1723 73.0417 24.1723 74.0692 23.1481L75.0008 22.2195L75.1676 22.0533L79.6084 17.6268C80.5547 16.6835 80.6157 15.1922 79.7922 14.1779L79.8036 14.1664L74.8333 9.21205L74.8301 9.21482L74.8297 9.21442Z" fill="white"/>
<path d="M72.2083 24.5265C71.3421 24.5265 70.5273 24.1901 69.9145 23.5793L69.8495 23.5145C69.846 23.511 69.8424 23.5074 69.8388 23.5039L69.8048 23.4695L68.9004 22.5681C68.0068 21.7109 67.2796 21.2347 66.0025 21.172C65.482 21.1463 65.0023 20.9201 64.6522 20.5351C64.302 20.1497 64.1234 19.6519 64.1495 19.1326C64.2026 18.0619 65.12 17.2339 66.1946 17.286C66.6585 17.3089 67.0879 17.3658 67.4848 17.4475L61.4235 11.4057C61.052 11.0354 60.8472 10.5426 60.8472 10.0187C60.8472 9.49472 61.052 9.00236 61.4235 8.63161C61.7951 8.26126 62.2894 8.05713 62.8146 8.05713C63.3403 8.05713 63.8342 8.26126 64.2062 8.63161L67.9989 12.4122C68.092 12.2005 68.2255 12.0023 68.399 11.8294C68.8319 11.3978 69.4217 11.2158 69.987 11.2829C70.0602 10.924 70.2357 10.5853 70.5063 10.3152C70.8699 9.95273 71.3539 9.75294 71.8681 9.75294C71.9437 9.75294 72.019 9.75729 72.0931 9.76597C72.1636 9.4122 72.3363 9.07778 72.606 8.80889C73.3139 8.10332 74.4301 8.0666 75.1839 8.71098C75.2128 8.73111 75.2402 8.75401 75.2659 8.77968L80.2367 13.7341C80.2893 13.7866 80.3317 13.8478 80.3618 13.9141C81.2943 15.18 81.1675 16.9354 80.0414 18.0579L74.5026 23.5789C73.8898 24.1897 73.0754 24.5261 72.2091 24.5261L72.2083 24.5265ZM70.6972 22.6329C70.7004 22.636 70.7035 22.6388 70.7067 22.6419L70.7812 22.7162C71.1626 23.0964 71.6692 23.3057 72.2087 23.3057C72.7478 23.3057 73.2549 23.0964 73.6363 22.7162L79.1751 17.1952C79.8928 16.4794 79.9534 15.3474 79.3161 14.562C79.2995 14.5415 79.2844 14.5206 79.271 14.4989L74.4511 9.69451C74.4376 9.68385 74.4246 9.6724 74.4115 9.66055C74.1433 9.41023 73.731 9.41576 73.4727 9.67319C73.2576 9.88758 73.2216 10.2244 73.3848 10.4925C73.5496 10.7633 73.4795 11.1143 73.2232 11.3019C72.9724 11.4851 72.6251 11.4515 72.4143 11.2269L72.4115 11.2241C72.3957 11.2099 72.3799 11.1953 72.3648 11.1803C72.2321 11.048 72.0558 10.975 71.8685 10.975C71.6811 10.975 71.5053 11.0476 71.3726 11.1795C71.1551 11.3962 71.1087 11.7378 71.2601 12.0098C71.3924 12.2479 71.3508 12.5448 71.1575 12.7375L71.1547 12.7403C71.0363 12.8583 70.8754 12.9215 70.7075 12.9191C70.5403 12.9152 70.3815 12.8433 70.269 12.7197C70.2535 12.7028 70.2409 12.6874 70.231 12.6747C69.9585 12.4228 69.5307 12.4287 69.2653 12.6933C68.9999 12.9578 68.9939 13.3842 69.247 13.6559C69.2597 13.6658 69.2748 13.6784 69.291 13.693C69.4146 13.8051 69.4871 13.9623 69.4914 14.1289C69.4958 14.2955 69.432 14.4562 69.3144 14.5747L69.31 14.579C69.1955 14.6943 69.0395 14.7595 68.8763 14.7598H68.8747C68.7123 14.7598 68.5566 14.6955 68.4418 14.581L63.3399 9.49551C63.1997 9.35574 63.0131 9.27875 62.8146 9.27875C62.6162 9.27875 62.4296 9.35574 62.2894 9.49551C62.1492 9.63528 62.0719 9.82125 62.0719 10.0191C62.0719 10.2169 62.1492 10.4028 62.2894 10.5426L70.9594 19.1848C71.1911 19.4157 71.1995 19.7877 70.9784 20.0285C70.7574 20.2694 70.3851 20.2942 70.1335 20.085C68.5709 18.7832 67.1754 18.5574 66.1344 18.506C65.7344 18.4859 65.3929 18.7951 65.3731 19.1934C65.3636 19.3869 65.4301 19.5721 65.5605 19.7154C65.6908 19.8587 65.8694 19.9432 66.0631 19.9527C67.7121 20.0341 68.698 20.6788 69.7545 21.6928C69.7572 21.6955 69.76 21.6983 69.7628 21.701L70.6972 22.6329ZM72.4008 11.2119C72.4008 11.2119 72.4009 11.2123 72.4012 11.2126C72.4012 11.2126 72.4012 11.2123 72.4008 11.2119ZM72.4001 11.2111C72.4001 11.2111 72.4005 11.2115 72.4008 11.2119C72.4008 11.2119 72.4005 11.2115 72.4001 11.2111Z" fill="#010101"/>
<path d="M61.1883 6.43042C60.9542 6.43042 60.7308 6.29617 60.629 6.06954L60.0214 4.71802C59.8832 4.41044 60.0214 4.04917 60.33 3.91137C60.6385 3.77357 61.001 3.91137 61.1392 4.21895L61.7469 5.57047C61.8851 5.87804 61.7469 6.23932 61.4383 6.37711C61.3571 6.41344 61.2719 6.43081 61.1879 6.43081L61.1883 6.43042Z" fill="#010101"/>
<path d="M58.633 9.12754C58.5605 9.12754 58.4868 9.11451 58.4151 9.08727L57.0268 8.56016C56.7107 8.44013 56.5522 8.08715 56.6726 7.77207C56.7931 7.45699 57.1468 7.29906 57.4633 7.41909L58.8516 7.94619C59.1677 8.06622 59.3262 8.41921 59.2057 8.73429C59.1127 8.9779 58.8801 9.12754 58.6334 9.12754H58.633Z" fill="#010101"/>
<path d="M67.6149 8.87134C67.3808 8.87134 67.1574 8.7371 67.0556 8.51046C66.9173 8.20289 67.0556 7.84161 67.3642 7.70381L68.72 7.09814C69.0286 6.96034 69.391 7.09814 69.5293 7.40571C69.6675 7.71329 69.5293 8.07456 69.2207 8.21236L67.8648 8.81804C67.7836 8.85436 67.6985 8.87174 67.6145 8.87174L67.6149 8.87134Z" fill="#010101"/>
<path d="M57.3844 13.4412C57.1503 13.4412 56.9269 13.3069 56.8251 13.0803C56.6869 12.7727 56.8251 12.4114 57.1337 12.2736L58.4892 11.668C58.7977 11.5302 59.1602 11.668 59.2984 11.9755C59.4367 12.2831 59.2984 12.6444 58.9898 12.7822L57.6344 13.3879C57.5532 13.4242 57.468 13.4416 57.384 13.4416L57.3844 13.4412Z" fill="#010101"/>
<path d="M64.9087 6.32418C64.8362 6.32418 64.7625 6.31115 64.6908 6.2839C64.3747 6.16387 64.2163 5.81089 64.3367 5.49581L64.8655 4.11192C64.9859 3.79684 65.34 3.6389 65.6561 3.75893C65.9722 3.87896 66.1307 4.23195 66.0103 4.54702L65.4815 5.93092C65.3884 6.17453 65.1558 6.32418 64.9091 6.32418H64.9087Z" fill="#010101"/>
<path d="M60.9165 16.7663C60.844 16.7663 60.7703 16.7533 60.6986 16.726C60.3825 16.606 60.2241 16.2534 60.3445 15.938L60.8733 14.5541C60.9937 14.239 61.3479 14.081 61.664 14.2011C61.98 14.3211 62.1385 14.6737 62.0181 14.9892L61.4893 16.3731C61.3962 16.6167 61.1637 16.7663 60.9169 16.7663H60.9165Z" fill="#010101"/>
<defs>
<radialGradient id="paint0_radial_18392_19158" cx="0" cy="0" r="1" gradientUnits="userSpaceOnUse" gradientTransform="translate(38.1186 9.87928) scale(70.8111 70.5835)">
<stop offset="0.05" stop-color="white"/>
<stop offset="0.11" stop-color="#F8F8F8"/>
<stop offset="0.21" stop-color="#E5E5E5"/>
<stop offset="0.32" stop-color="#C7C7C7"/>
<stop offset="0.45" stop-color="#9C9C9C"/>
<stop offset="0.58" stop-color="#666666"/>
<stop offset="0.72" stop-color="#252525"/>
<stop offset="0.79" stop-color="#010101"/>
</radialGradient>
<linearGradient id="paint1_linear_18392_19158" x1="24.7457" y1="18.5174" x2="14.545" y2="-9.36303" gradientUnits="userSpaceOnUse">
<stop stop-color="white"/>
<stop offset="0.04" stop-color="#EFEFEF"/>
<stop offset="0.19" stop-color="#B0B0B0"/>
<stop offset="0.35" stop-color="#7B7B7B"/>
<stop offset="0.5" stop-color="#4F4F4F"/>
<stop offset="0.64" stop-color="#2D2D2D"/>
<stop offset="0.77" stop-color="#141414"/>
<stop offset="0.9" stop-color="#060606"/>
<stop offset="1" stop-color="#010101"/>
</linearGradient>
</defs>
</svg>
