<svg width="102" height="105" viewBox="0 0 102 105" fill="none" xmlns="http://www.w3.org/2000/svg">
<path d="M15.2674 32.9272L13.7629 35.8979L7.15241 32.55L8.6569 29.5793L9.73755 30.1266L8.87654 31.8267L10.4319 32.6145L11.2334 31.0319L12.3186 31.5815L11.5171 33.164L13.3031 34.0686L14.1642 32.3685L15.2674 32.9272Z" fill="#58B947"/>
<path d="M16.9996 30.1757L11.6693 28.2677L11.6462 28.301C11.842 28.4159 12.0247 28.526 12.1944 28.6311C12.3641 28.7362 12.5194 28.8355 12.6602 28.9289C12.8029 29.0195 12.9299 29.1032 13.041 29.1801L16.1833 31.3551L15.4275 32.447L9.33473 28.2297L10.4511 26.6169L15.4015 28.3792L15.4217 28.35L12.0289 24.3373L13.1395 22.7329L19.2323 26.9502L18.4592 28.067L15.3086 25.8863C15.1836 25.7997 15.054 25.708 14.9198 25.611C14.7847 25.5092 14.6413 25.4018 14.4896 25.2885C14.337 25.1706 14.1756 25.0445 14.0055 24.9103L13.9824 24.9437L17.6313 29.2631L16.9996 30.1757Z" fill="#58B947"/>
<path d="M15.619 20.0335C16.132 19.4816 16.6563 19.2055 17.1918 19.2051C17.7272 19.1999 18.2683 19.4515 18.8153 19.9599C19.09 20.2153 19.3077 20.4823 19.4685 20.7609C19.6291 21.0348 19.7254 21.3158 19.7575 21.6039C19.7895 21.892 19.7511 22.1815 19.6421 22.4724C19.5332 22.7633 19.3453 23.0523 19.0784 23.3393L18.8127 23.6252L20.7357 25.4127L19.766 26.4558L14.3388 21.4107L15.619 20.0335ZM16.4337 20.9362L16.1956 21.1924L17.9218 22.797L18.0909 22.6151C18.245 22.4493 18.3429 22.2819 18.3846 22.113C18.4262 21.9442 18.4055 21.768 18.3223 21.5846C18.2391 21.4011 18.0861 21.2059 17.8634 20.9988C17.5862 20.7412 17.3316 20.6106 17.0995 20.6071C16.8673 20.5988 16.6454 20.7085 16.4337 20.9362Z" fill="#58B947"/>
<path d="M24.3568 17.0386C24.7352 17.4886 25.0351 17.9295 25.2567 18.3612C25.4762 18.7903 25.6097 19.2011 25.6572 19.5937C25.7047 19.9864 25.6583 20.3565 25.5179 20.704C25.38 21.0494 25.1417 21.3645 24.8029 21.6493C24.4615 21.9363 24.1075 22.1191 23.7409 22.1977C23.3722 22.2737 22.9975 22.2532 22.6167 22.1363C22.2359 22.0194 21.8531 21.8159 21.4681 21.526C21.0831 21.236 20.7015 20.866 20.3232 20.416C19.7883 19.7797 19.4156 19.1815 19.2052 18.6212C18.9947 18.061 18.947 17.5449 19.0623 17.0728C19.1775 16.6008 19.455 16.1799 19.8947 15.8103C20.3525 15.4255 20.8277 15.2268 21.3205 15.2144C21.8157 15.1997 22.3195 15.35 22.8318 15.6654C23.3419 15.9782 23.8503 16.4359 24.3568 17.0386ZM21.4587 19.4747C21.8239 19.9093 22.163 20.2444 22.476 20.4801C22.7867 20.7133 23.07 20.8481 23.3259 20.8847C23.5795 20.9187 23.8034 20.8541 23.9973 20.691C24.1939 20.5258 24.2971 20.3177 24.3068 20.0667C24.3192 19.8136 24.2359 19.515 24.057 19.171C23.8808 18.8247 23.6057 18.4292 23.2317 17.9843C22.673 17.3196 22.184 16.8875 21.7648 16.6882C21.3434 16.4862 20.9853 16.5091 20.6904 16.757C20.4964 16.92 20.3954 17.1307 20.3875 17.389C20.3795 17.6474 20.4647 17.9509 20.6431 18.2997C20.8216 18.6485 21.0934 19.0402 21.4587 19.4747Z" fill="#58B947"/>
<path d="M29.5509 9.42119L32.134 16.517L30.7411 17.3576L28.3326 14.6909C28.2524 14.5972 28.1664 14.4972 28.0746 14.3908C27.9856 14.2827 27.8918 14.1696 27.793 14.0517C27.697 13.932 27.5999 13.807 27.5017 13.6769C27.4017 13.5439 27.299 13.4065 27.1938 13.2648C27.2503 13.3846 27.3106 13.514 27.3747 13.6529C27.4371 13.7889 27.5006 13.9301 27.5653 14.0766C27.6282 14.2201 27.6897 14.3646 27.7498 14.5099C27.8099 14.6551 27.865 14.7955 27.9152 14.931L29.1572 18.3134L27.7729 19.1488L22.6903 13.5614L23.8793 12.8439L26.396 15.6998C26.4959 15.8131 26.6006 15.9374 26.7099 16.0728C26.8203 16.2034 26.9319 16.3393 27.0447 16.4804C27.1603 16.6198 27.2714 16.758 27.3778 16.8951C27.4871 17.0304 27.5859 17.1582 27.6743 17.2785C27.6026 17.1205 27.5298 16.9573 27.4557 16.7888C27.3846 16.6186 27.3152 16.4513 27.2476 16.2869C27.1828 16.1208 27.1219 15.9642 27.0647 15.8172C27.0058 15.6672 26.9542 15.5326 26.9098 15.4134L25.615 11.7964L26.6348 11.181L29.1828 14.0299C29.2758 14.1316 29.3757 14.2449 29.4827 14.3698C29.5908 14.4901 29.7018 14.6184 29.8157 14.7549C29.9296 14.8914 30.043 15.0302 30.1557 15.1713C30.2668 15.3095 30.3755 15.4471 30.4819 15.5842C30.3916 15.4019 30.3001 15.2045 30.2074 14.9921C30.1148 14.7796 30.0227 14.5649 29.9311 14.3478C29.8407 14.1261 29.7573 13.916 29.6809 13.7174L28.3358 10.1544L29.5509 9.42119Z" fill="#58B947"/>
<path d="M36.5945 14.5644L33.5345 15.8778L30.6119 9.06862L33.6718 7.75523L34.1496 8.86836L32.3984 9.62002L33.0861 11.2222L34.7162 10.5225L35.196 11.6403L33.5658 12.34L34.3555 14.1797L36.1067 13.428L36.5945 14.5644Z" fill="#58B947"/>
<path d="M36.6963 6.7288C37.2197 6.56867 37.6775 6.51165 38.0697 6.55775C38.4619 6.60384 38.7885 6.75305 39.0494 7.00538C39.3135 7.25671 39.5158 7.61178 39.6562 8.0706C39.7451 8.3614 39.7906 8.63722 39.7927 8.89807C39.7938 9.15568 39.7471 9.40142 39.6525 9.63528C39.5602 9.86492 39.419 10.0848 39.2289 10.2949L41.6411 12.965L40.1435 13.4232L38.1356 11.0004L37.7284 11.1249L38.578 13.9021L37.2161 14.3187L35.0484 7.23291L36.6963 6.7288ZM37.038 7.88042L36.7617 7.96493L37.3993 10.049L37.7046 9.95558C38.0083 9.86266 38.2096 9.70039 38.3083 9.46878C38.4103 9.23617 38.4045 8.93408 38.2908 8.5625C38.189 8.2297 38.0347 8.00835 37.8279 7.89847C37.6244 7.78759 37.3611 7.78157 37.038 7.88042Z" fill="#58B947"/>
<path d="M43.1822 6.32089C42.9695 6.36026 42.7952 6.45784 42.6591 6.61362C42.523 6.7694 42.4233 6.97342 42.36 7.22568C42.2995 7.47399 42.2716 7.75923 42.2762 8.08138C42.2842 8.40292 42.3224 8.74808 42.3906 9.11687C42.4909 9.65843 42.6273 10.1074 42.7998 10.4638C42.9717 10.8168 43.1752 11.0712 43.4102 11.227C43.6452 11.3828 43.9056 11.4342 44.1913 11.3813C44.4173 11.3395 44.6245 11.2616 44.813 11.1477C45.0015 11.0337 45.1856 10.9051 45.3653 10.7619L45.596 12.0078C45.4082 12.1629 45.1986 12.2927 44.9671 12.3975C44.7389 12.5016 44.487 12.5791 44.2112 12.6302C43.663 12.7317 43.1695 12.6736 42.7305 12.4559C42.2943 12.2343 41.9235 11.8648 41.6181 11.3475C41.3121 10.8268 41.0856 10.1695 40.9386 9.37543C40.8377 8.83055 40.8016 8.32007 40.8302 7.84398C40.8616 7.36395 40.9576 6.93554 41.118 6.55876C41.2779 6.17866 41.5017 5.86574 41.7896 5.62001C42.0807 5.37367 42.4356 5.21174 42.8542 5.13423C43.1466 5.08009 43.4358 5.06435 43.7217 5.087C44.0077 5.10965 44.2911 5.17401 44.5719 5.28009L44.3873 6.51012C44.1851 6.42041 43.9862 6.35758 43.7906 6.32165C43.5943 6.28239 43.3915 6.28214 43.1822 6.32089Z" fill="#58B947"/>
<path d="M50.925 11.8787L49.5035 11.9666L49.3035 8.73415L47.4723 8.84743L47.6723 12.0799L46.2508 12.1679L45.7932 4.77207L47.2147 4.68413L47.3959 7.61311L49.2272 7.49983L49.046 4.57085L50.4675 4.48291L50.925 11.8787Z" fill="#58B947"/>
<path d="M54.9966 12.105L54.7236 10.3004L53.0796 10.1975L52.5837 11.954L51.0611 11.8588L53.3145 4.57534L55.1507 4.69022L56.5091 12.1996L54.9966 12.105ZM54.5833 9.0525L54.3061 7.06987C54.2893 6.90631 54.2722 6.74612 54.2549 6.58931C54.241 6.4327 54.2267 6.28284 54.212 6.13973C54.2008 5.99346 54.1907 5.8574 54.1817 5.73157C54.1642 5.84897 54.1409 5.97785 54.1118 6.11823C54.0827 6.2586 54.0498 6.4055 54.0131 6.55894C53.9764 6.71238 53.9362 6.86729 53.8926 7.02368L53.3743 8.97686L54.5833 9.0525Z" fill="#58B947"/>
<path d="M56.7816 12.3239L57.9101 5.00037L59.3177 5.21727L58.1892 12.5408L56.7816 12.3239Z" fill="#58B947"/>
<path d="M64.0493 13.9212L62.4308 13.4994L61.6357 7.94962L61.5964 7.9394C61.5556 8.17665 61.5132 8.39956 61.4693 8.6081C61.4295 8.81423 61.3891 9.00273 61.3481 9.1736C61.3103 9.34533 61.2735 9.49986 61.2377 9.63718L60.3709 12.9624L59.0859 12.6275L60.955 5.45712L62.5637 5.87645L63.3784 11.3108L63.4176 11.3211C63.4634 11.092 63.5065 10.8798 63.5469 10.6843C63.5883 10.4856 63.6274 10.302 63.6643 10.1335C63.7012 9.96508 63.7376 9.81219 63.7734 9.67487L64.6236 6.41339L65.9183 6.7509L64.0493 13.9212Z" fill="#58B947"/>
<path d="M70.5112 14.2726C70.3302 14.6803 70.0887 15.0038 69.7866 15.2431C69.4845 15.4824 69.1446 15.6236 68.7669 15.6667C68.3923 15.7112 68.0027 15.6436 67.5981 15.4641C67.4097 15.3805 67.233 15.2873 67.0679 15.1844C66.9014 15.0847 66.7449 14.9709 66.5984 14.843C66.4532 14.712 66.3155 14.5641 66.1854 14.3991L66.7754 13.0695C66.9512 13.3398 67.1534 13.5755 67.382 13.7768C67.6106 13.978 67.8377 14.1287 68.0631 14.2287C68.2299 14.3028 68.3817 14.3313 68.5186 14.3144C68.6586 14.2989 68.7795 14.2472 68.8813 14.1593C68.9862 14.0728 69.0695 13.9601 69.1312 13.8211C69.197 13.6728 69.2314 13.5328 69.2344 13.4011C69.2388 13.2663 69.1993 13.1138 69.1158 12.9437C69.0368 12.7718 68.9036 12.5556 68.7161 12.295C68.5705 12.0899 68.4448 11.8899 68.3391 11.6951C68.2364 11.5017 68.1608 11.3055 68.1123 11.1066C68.0683 10.9059 68.0608 10.6937 68.0898 10.47C68.1188 10.2463 68.193 10.0001 68.3122 9.73139C68.4791 9.34705 68.7019 9.04484 68.9807 8.82477C69.2626 8.60607 69.5821 8.4817 69.9392 8.45165C70.3008 8.41988 70.6832 8.49531 71.0864 8.67794C71.3613 8.79992 71.6135 8.95622 71.8432 9.14684C72.0759 9.33883 72.2841 9.55691 72.4678 9.80108L71.6012 10.7917C71.4408 10.5616 71.2771 10.3725 71.1099 10.2243C70.9441 10.0731 70.7763 9.95985 70.6064 9.88447C70.4582 9.81869 70.3201 9.79252 70.1921 9.80597C70.0686 9.81771 69.9587 9.86134 69.8623 9.93687C69.7691 10.0138 69.6943 10.1155 69.6381 10.2422C69.5669 10.4028 69.5313 10.5496 69.5314 10.6827C69.5314 10.8158 69.5754 10.9666 69.6634 11.135C69.7557 11.3017 69.8987 11.5167 70.0924 11.7801C70.3008 12.0685 70.4581 12.3472 70.5643 12.6161C70.6718 12.8819 70.7227 13.1503 70.717 13.4214C70.7127 13.6893 70.6441 13.9731 70.5112 14.2726Z" fill="#58B947"/>
<path d="M73.0245 18.174L70.1303 16.5272L73.7948 10.0868L76.689 11.7336L76.09 12.7865L74.4336 11.844L73.5714 13.3594L75.1132 14.2367L74.5116 15.2939L72.9698 14.4166L71.9797 16.1567L73.6361 17.0991L73.0245 18.174Z" fill="#58B947"/>
<path d="M79.3085 14.8964C79.1327 14.7706 78.9415 14.7127 78.7348 14.7227C78.5282 14.7327 78.3121 14.8024 78.0865 14.9319C77.8657 15.0605 77.6408 15.2382 77.412 15.465C77.186 15.6938 76.9638 15.9607 76.7455 16.2657C76.425 16.7136 76.1962 17.1233 76.0592 17.4947C75.9241 17.8634 75.882 18.1865 75.9328 18.4638C75.9836 18.7412 76.1272 18.9644 76.3635 19.1335C76.5503 19.2673 76.7502 19.3625 76.963 19.4192C77.1758 19.476 77.3961 19.5194 77.6239 19.5495L76.8865 20.5799C76.6446 20.5522 76.4056 20.4912 76.1696 20.3972C75.9364 20.305 75.7058 20.1774 75.4777 20.0141C75.0243 19.6897 74.7238 19.2939 74.5762 18.8267C74.4332 18.3588 74.4421 17.8354 74.6029 17.2565C74.7657 16.675 75.082 16.0558 75.552 15.3991C75.8745 14.9485 76.2172 14.5684 76.58 14.2588C76.9476 13.9485 77.3227 13.7204 77.7054 13.5746C78.0901 13.4261 78.4707 13.3703 78.8474 13.4072C79.2268 13.446 79.5896 13.5893 79.9358 13.8371C80.1776 14.0101 80.3895 14.2075 80.5716 14.4292C80.7536 14.6509 80.9039 14.8997 81.0222 15.1755L80.0082 15.8958C79.9326 15.6879 79.8398 15.501 79.73 15.3352C79.6221 15.1666 79.4816 15.0203 79.3085 14.8964Z" fill="#58B947"/>
<path d="M85.5756 18.7578L82.2236 22.43C81.8409 22.8493 81.4582 23.1382 81.0756 23.2967C80.693 23.4553 80.3118 23.4894 79.9322 23.3991C79.5549 23.3062 79.1803 23.0901 78.8085 22.7507C78.2669 22.2564 77.9891 21.7237 77.975 21.1528C77.9658 20.5816 78.2459 19.984 78.8153 19.3601L82.1879 15.6654L83.236 16.6222L79.8977 20.2794C79.581 20.6263 79.4093 20.9247 79.3824 21.1747C79.3578 21.4222 79.4503 21.6416 79.6599 21.8329C79.8072 21.9673 79.9567 22.0466 80.1085 22.0708C80.265 22.0948 80.4319 22.0572 80.6092 21.9583C80.7889 21.8616 80.987 21.6947 81.2034 21.4576L84.535 17.8079L85.5756 18.7578Z" fill="#58B947"/>
<path d="M87.8269 21.2692C88.1834 21.6845 88.4192 22.0811 88.5342 22.4589C88.6491 22.8367 88.6433 23.1956 88.5167 23.5358C88.3924 23.8786 88.1481 24.2062 87.784 24.5187C87.5533 24.7168 87.3188 24.869 87.0807 24.9755C86.8451 25.0797 86.6012 25.1354 86.3491 25.1425C86.1017 25.15 85.8437 25.1088 85.575 25.0188L84.0956 28.299L83.0756 27.1106L84.4904 24.2999L84.2131 23.9769L82.0094 25.8684L81.0818 24.7877L86.7046 19.9615L87.8269 21.2692ZM86.9088 22.0438L86.7207 21.8246L85.0669 23.2441L85.2749 23.4864C85.4817 23.7274 85.7111 23.8467 85.9629 23.8443C86.2168 23.8445 86.4913 23.7181 86.7861 23.465C87.0502 23.2383 87.1911 23.0082 87.2089 22.7748C87.2289 22.5439 87.1289 22.3002 86.9088 22.0438Z" fill="#58B947"/>
<path d="M86.0923 31.2621L84.2053 28.5185L90.3105 24.3193L92.1976 27.0629L91.1995 27.7494L90.1196 26.1792L88.683 27.1673L89.6883 28.6288L88.6861 29.3182L87.6808 27.8566L86.0313 28.9911L87.1112 30.5613L86.0923 31.2621Z" fill="#58B947"/>
<path d="M92.0241 34.1002C91.2937 34.4899 90.6225 34.7177 90.0105 34.7838C89.4002 34.8528 88.8604 34.7636 88.3913 34.516C87.9268 34.2698 87.545 33.8664 87.246 33.306L86.4253 31.7677L92.963 28.2798L93.8338 29.912C94.1201 30.4486 94.2419 30.9677 94.1992 31.4691C94.1582 31.9736 93.9553 32.4476 93.5906 32.891C93.226 33.3345 92.7038 33.7376 92.0241 34.1002ZM91.2765 32.8389C91.7654 32.578 92.1417 32.3179 92.4054 32.0585C92.6691 31.7991 92.8262 31.5372 92.8767 31.2728C92.9287 31.0115 92.8824 30.7451 92.7376 30.4738L92.5468 30.1161L88.1958 32.4374L88.3413 32.7102C88.583 33.1633 88.9437 33.3979 89.4233 33.4139C89.9045 33.4329 90.5222 33.2413 91.2765 32.8389Z" fill="#58B947"/>
<path d="M5.71255 69.5329C5.74082 69.6149 5.78085 69.6978 5.83265 69.7816C5.88839 69.8673 5.95686 69.9519 6.03806 70.0353L5.10194 70.3578C4.98428 70.2542 4.87965 70.1312 4.78806 69.9891C4.69749 69.8498 4.62242 69.6938 4.56286 69.5209C4.46595 69.2397 4.44238 68.9905 4.49215 68.7734C4.54585 68.5582 4.67283 68.3703 4.87311 68.2095C5.07631 68.0477 5.35371 67.9062 5.7053 67.7851L8.18843 66.9296L8.02187 66.4462L8.65035 66.2296L9.15634 66.6994L10.3241 66.6068L10.5997 67.4067L9.56247 67.764L9.86681 68.6474L8.89554 68.982L8.59119 68.0987L6.15201 68.939C5.95864 69.0056 5.8237 69.0849 5.7472 69.1768C5.67464 69.2706 5.66309 69.3893 5.71255 69.5329Z" fill="#231F20"/>
<path d="M11.0837 71.3201C11.1104 71.3828 11.1307 71.4466 11.1448 71.5113C11.1616 71.5749 11.1756 71.6514 11.1867 71.741L9.928 72.1543C9.92659 72.0876 9.91563 72.0182 9.89512 71.9461C9.87581 71.8768 9.8492 71.8023 9.81528 71.7224C9.75956 71.5912 9.68137 71.4864 9.58071 71.4079C9.48006 71.3295 9.36039 71.2776 9.22172 71.2523C9.0871 71.2287 8.93634 71.2304 8.76941 71.2575C8.60655 71.2863 8.43242 71.34 8.24701 71.4188L5.80394 72.4563L5.3206 71.3182L10.1126 69.2831L10.4851 70.1602L9.76691 70.6572L9.79053 70.7128C9.96836 70.7113 10.1443 70.7292 10.3183 70.7664C10.4924 70.8036 10.6474 70.8674 10.7834 70.9578C10.9194 71.0481 11.0195 71.1689 11.0837 71.3201Z" fill="#231F20"/>
<path d="M12.2993 73.7633C12.5356 74.2097 12.5771 74.6226 12.4238 75.0018C12.2746 75.3824 11.9275 75.7169 11.3825 76.0055L8.33838 77.6173L7.91423 76.8162L8.43692 76.3133L8.42387 76.2886C8.21846 76.2782 8.03544 76.2471 7.87481 76.1954C7.71564 76.1464 7.57587 76.0679 7.45552 75.9598C7.33243 75.8531 7.22303 75.7094 7.12732 75.5287C6.99246 75.274 6.95145 75.0309 7.00428 74.7996C7.05857 74.571 7.17641 74.363 7.3578 74.1758C7.5392 73.9886 7.75314 73.8298 7.99963 73.6992C8.47891 73.4455 8.91213 73.3862 9.29927 73.5213C9.68642 73.6565 10.0194 73.9641 10.2981 74.4442L10.6251 75.0022L10.81 74.9043C11.0619 74.7709 11.2285 74.6318 11.3097 74.4871C11.3951 74.3438 11.3906 74.183 11.2964 74.005C11.2268 73.8736 11.1246 73.7436 10.9899 73.615C10.8552 73.4864 10.6838 73.3581 10.4757 73.2298L11.1322 72.493C11.3684 72.6344 11.5854 72.8123 11.783 73.0268C11.9807 73.2412 12.1528 73.4867 12.2993 73.7633ZM9.89385 75.3893L9.71428 75.0899C9.58007 74.8629 9.42226 74.7238 9.24085 74.6726C9.06363 74.6227 8.86136 74.6579 8.63404 74.7782C8.42864 74.887 8.29339 75.0024 8.22831 75.1245C8.16468 75.2494 8.16839 75.3789 8.23945 75.5131C8.3308 75.6857 8.48901 75.7825 8.71408 75.8036C8.93915 75.8247 9.19273 75.7606 9.47482 75.6112L9.89385 75.3893Z" fill="#231F20"/>
<path d="M14.787 77.8635C15.0312 78.2296 15.0858 78.5992 14.9509 78.9722C14.8203 79.3462 14.5037 79.7007 14.0009 80.036L11.1353 81.9472L10.4492 80.9185L13.0171 79.2059C13.3213 79.003 13.5301 78.8191 13.6436 78.654C13.7596 78.4873 13.76 78.3175 13.6448 78.1448C13.5003 77.9282 13.2932 77.8466 13.0233 77.8999C12.7552 77.9558 12.3633 78.1557 11.8476 78.4996L9.76316 79.8898L9.0771 78.8611L13.4085 75.9724L13.9527 76.7884L13.4719 77.2655L13.5157 77.3313C13.6953 77.3046 13.8625 77.3067 14.0172 77.3376C14.1745 77.3668 14.3181 77.4257 14.4479 77.5142C14.5777 77.6027 14.6907 77.7191 14.787 77.8635Z" fill="#231F20"/>
<path d="M14.9293 84.2746C14.6545 84.4966 14.3812 84.6317 14.1094 84.6799C13.842 84.7286 13.5812 84.6943 13.327 84.5769C13.0772 84.46 12.8423 84.2653 12.6223 83.9929C12.4645 83.7976 12.3329 83.5952 12.2274 83.3857C12.1214 83.1805 12.0437 82.9684 11.9942 82.7494L12.9272 81.9958C12.9431 82.198 12.9877 82.411 13.0609 82.6347C13.1365 82.8565 13.2453 83.0554 13.3875 83.2314C13.4965 83.3664 13.6116 83.4447 13.7327 83.4664C13.8538 83.4881 13.9746 83.4503 14.0951 83.3529C14.1626 83.2984 14.2136 83.2333 14.2481 83.1576C14.285 83.08 14.301 82.9715 14.296 82.8322C14.2934 82.6909 14.2654 82.4984 14.2119 82.2547C14.1692 82.0144 14.1592 81.7874 14.1819 81.5739C14.2046 81.3603 14.2665 81.1609 14.3678 80.9755C14.469 80.7902 14.6161 80.6196 14.8089 80.4638C15.1657 80.1756 15.5362 80.0597 15.9202 80.1159C16.3043 80.1722 16.6521 80.3932 16.9637 80.7789C17.1233 80.9766 17.2456 81.1846 17.3303 81.4029C17.4194 81.6218 17.4803 81.8574 17.513 82.1099L16.5584 82.4447C16.5421 82.2667 16.5089 82.0924 16.4587 81.9218C16.4085 81.7512 16.3299 81.5996 16.2228 81.467C16.1274 81.3489 16.0254 81.2818 15.9169 81.2659C15.8109 81.248 15.7084 81.279 15.6096 81.3588C15.5396 81.4153 15.4911 81.4784 15.4638 81.5482C15.4365 81.6181 15.4257 81.7205 15.4311 81.8555C15.441 81.9909 15.4624 82.1827 15.4956 82.4309C15.5335 82.6751 15.5464 82.9057 15.5344 83.1225C15.5223 83.3394 15.4698 83.5432 15.3768 83.7338C15.2858 83.9269 15.1366 84.1071 14.9293 84.2746Z" fill="#231F20"/>
<path d="M19.9317 84.0913C20.2728 84.4426 20.366 84.8768 20.2115 85.3939C20.0592 85.9133 19.6717 86.4751 19.0491 87.0795C18.6489 87.4681 18.2632 87.7582 17.8922 87.9499C17.5234 88.1439 17.1834 88.2364 16.8723 88.2274C16.5635 88.2162 16.3011 88.0995 16.0853 87.8771C15.9752 87.7637 15.8905 87.6364 15.8313 87.4953C15.7741 87.3564 15.7457 87.2047 15.746 87.0404C15.7484 86.8782 15.7816 86.7034 15.8458 86.5159L15.8134 86.4825C15.6819 86.6318 15.5638 86.7594 15.4593 86.8652C15.3591 86.9711 15.2745 87.0575 15.2056 87.1244L13.708 88.5782L12.8468 87.691L18.2233 82.4716L18.9195 83.1887L18.5554 83.7948L18.6008 83.8415C18.8209 83.7746 19.0088 83.7412 19.1644 83.7413C19.3244 83.7415 19.4642 83.7721 19.5838 83.833C19.7078 83.894 19.8238 83.9801 19.9317 84.0913ZM18.9059 84.5429C18.7894 84.4228 18.6555 84.3606 18.5044 84.3561C18.3554 84.3539 18.1825 84.4116 17.9857 84.5292C17.7911 84.6491 17.5659 84.8331 17.3102 85.0813L17.1234 85.2627C16.8766 85.5023 16.6915 85.7165 16.5682 85.9053C16.447 86.0964 16.3864 86.2675 16.3863 86.4187C16.3863 86.5699 16.4435 86.7045 16.5579 86.8223C16.6615 86.929 16.7901 86.977 16.9436 86.9661C17.0972 86.9552 17.2747 86.8844 17.476 86.7538C17.6818 86.6231 17.9125 86.4337 18.1682 86.1855C18.5729 85.7926 18.8364 85.4612 18.9588 85.1913C19.0833 84.9236 19.0657 84.7074 18.9059 84.5429Z" fill="#231F20"/>
<path d="M22.9202 86.8218C23.3064 87.1473 23.4994 87.5147 23.499 87.9238C23.5031 88.3325 23.3063 88.7726 22.9089 89.2441L20.6888 91.8777L19.9958 91.2935L20.2923 90.6315L20.271 90.6136C20.0766 90.6807 19.8952 90.7203 19.7269 90.7325C19.561 90.7466 19.402 90.7261 19.25 90.6709C19.0959 90.618 18.9407 90.5257 18.7843 90.3938C18.5639 90.2081 18.435 89.9981 18.3974 89.7637C18.3622 89.5314 18.3937 89.2945 18.4919 89.053C18.5901 88.8116 18.7291 88.5842 18.9088 88.3709C19.2584 87.9563 19.6379 87.7392 20.0475 87.7197C20.4571 87.7002 20.881 87.8609 21.3191 88.2019L21.8311 88.597L21.9659 88.4371C22.1497 88.2191 22.2521 88.0278 22.2733 87.8633C22.2988 87.6983 22.2346 87.551 22.0806 87.4211C21.9669 87.3253 21.8235 87.2429 21.6505 87.1741C21.4775 87.1052 21.2705 87.0503 21.0294 87.0093L21.3627 86.0803C21.6346 86.1231 21.9024 86.2069 22.1659 86.3318C22.4295 86.4567 22.6809 86.62 22.9202 86.8218ZM21.2978 89.2296L21.0193 89.0191C20.8099 88.8588 20.6115 88.7889 20.4241 88.8092C20.241 88.8292 20.0666 88.9376 19.9009 89.1342C19.7511 89.3119 19.6688 89.4696 19.6542 89.6072C19.6419 89.7468 19.6938 89.8655 19.8099 89.9634C19.9591 90.0892 20.1421 90.1198 20.3587 90.0552C20.5753 89.9905 20.7865 89.8362 20.9922 89.5921L21.2978 89.2296Z" fill="#231F20"/>
<path d="M26.7008 89.6892C26.7564 89.7286 26.8072 89.7721 26.8532 89.8199C26.9009 89.865 26.9531 89.9228 27.0096 89.9932L26.1558 91.0063C26.1196 90.9502 26.0738 90.8969 26.0184 90.8464C25.9656 90.7976 25.9038 90.7482 25.833 90.698C25.7166 90.6157 25.595 90.5676 25.4681 90.5537C25.3413 90.5399 25.2122 90.5586 25.0809 90.61C24.954 90.6606 24.8266 90.7413 24.6988 90.8521C24.5754 90.9621 24.4555 91.0994 24.3391 91.2638L22.8057 93.4303L21.7964 92.716L24.8042 88.4664L25.582 89.0169L25.232 89.8171L25.2814 89.852C25.4319 89.7574 25.591 89.6801 25.7586 89.6203C25.9262 89.5605 26.0916 89.5333 26.2549 89.5387C26.4181 89.5442 26.5667 89.5943 26.7008 89.6892Z" fill="#231F20"/>
<path d="M28.9298 91.0687C29.2664 91.2666 29.5022 91.5167 29.6372 91.819C29.7748 92.1229 29.8142 92.4624 29.7554 92.8376C29.698 93.2102 29.5476 93.6035 29.3041 94.0175L28.9507 94.6185L26.811 93.3602C26.5854 93.756 26.4871 94.0883 26.516 94.3569C26.5465 94.6229 26.7047 94.84 26.9905 95.0081C27.1802 95.1196 27.3733 95.2008 27.5698 95.2517C27.7707 95.3015 28.0026 95.3229 28.2656 95.3158L27.7425 96.2053C27.5006 96.2069 27.2641 96.172 27.0328 96.1007C26.7999 96.0321 26.566 95.9286 26.3309 95.7904C25.9195 95.5485 25.6385 95.2591 25.4878 94.9224C25.3386 94.5831 25.3045 94.2071 25.3854 93.7945C25.4678 93.3792 25.6481 92.9351 25.9261 92.4623C26.2231 91.9575 26.5337 91.5667 26.8582 91.2902C27.1868 91.0125 27.5248 90.8535 27.872 90.8133C28.2193 90.773 28.5719 90.8581 28.9298 91.0687ZM28.4614 91.9202C28.2851 91.8166 28.0977 91.8142 27.8992 91.9132C27.7024 92.0096 27.4939 92.2357 27.2738 92.5916L28.4158 93.2632C28.5399 93.0521 28.6253 92.8579 28.6721 92.6805C28.7189 92.5031 28.7245 92.35 28.6888 92.2212C28.6547 92.0897 28.5789 91.9894 28.4614 91.9202Z" fill="#231F20"/>
<path d="M33.2543 93.2963C33.6542 93.48 33.8945 93.7661 33.9752 94.1544C34.0601 94.5413 33.9763 95.0093 33.724 95.5584L32.2857 98.6882L31.1622 98.1719L32.451 95.3673C32.6037 95.035 32.6851 94.7689 32.6951 94.5689C32.7065 94.3661 32.6178 94.2213 32.4291 94.1346C32.1926 94.0259 31.9734 94.065 31.7716 94.2519C31.5725 94.4401 31.3436 94.8158 31.0848 95.379L30.0387 97.6556L28.9151 97.1393L31.089 92.4087L31.9802 92.8182L31.8209 93.4766L31.8927 93.5096C32.0317 93.3927 32.1752 93.3068 32.3231 93.252C32.4724 93.1944 32.6255 93.1693 32.7824 93.1766C32.9393 93.1839 33.0967 93.2238 33.2543 93.2963Z" fill="#231F20"/>
<path d="M35.2284 99.8587C34.8188 99.7155 34.5083 99.5052 34.2967 99.2277C34.0891 98.9483 33.9815 98.5988 33.9739 98.1792C33.9702 97.7577 34.0681 97.2617 34.2675 96.6913C34.4414 96.194 34.6616 95.7753 34.9283 95.4351C35.1959 95.0921 35.5056 94.8589 35.8573 94.7357C36.21 94.6095 36.5999 94.621 37.027 94.7704C37.2698 94.8552 37.478 94.9592 37.6517 95.0823C37.8293 95.2035 37.984 95.3479 38.1158 95.5154L37.4643 96.3365C37.3584 96.2076 37.2463 96.1011 37.1279 96.017C37.0135 95.9311 36.8905 95.8651 36.7589 95.8191C36.598 95.7628 36.4395 95.7747 36.2835 95.8548C36.1285 95.9319 35.9799 96.0753 35.8377 96.2849C35.6994 96.4926 35.5709 96.7661 35.4523 97.1055C35.3347 97.4419 35.2657 97.733 35.2455 97.9787C35.2282 98.2254 35.2566 98.4257 35.3308 98.5797C35.409 98.7318 35.5329 98.8375 35.7026 98.8968C35.8693 98.9551 36.0482 98.9832 36.2394 98.9811C36.4305 98.979 36.627 98.9475 36.8288 98.8868L36.479 99.8872C36.2771 99.9578 36.0679 99.9881 35.8515 99.978C35.6379 99.969 35.4302 99.9293 35.2284 99.8587Z" fill="#231F20"/>
<path d="M38.323 95.3342L39.5805 95.6515L39.5547 98.2434C39.5536 98.3614 39.5508 98.4805 39.546 98.6007C39.542 98.718 39.5342 98.8311 39.5227 98.94C39.5142 99.0498 39.5027 99.1523 39.4882 99.2478L39.5243 99.2569C39.5704 99.1375 39.6278 99.0049 39.6965 98.8593C39.766 98.7106 39.8498 98.5432 39.9479 98.357L41.122 96.0404L42.366 96.3543L39.463 101.514C39.2472 101.9 39.0309 102.201 38.814 102.414C38.6 102.629 38.3765 102.767 38.1434 102.83C37.9095 102.896 37.6543 102.894 37.3779 102.824C37.2757 102.798 37.1799 102.766 37.0906 102.727C37.0012 102.689 36.9126 102.647 36.8248 102.603L37.092 101.544C37.1476 101.577 37.2039 101.607 37.2609 101.634C37.321 101.662 37.3796 101.683 37.4367 101.698C37.5599 101.729 37.6651 101.73 37.7523 101.701C37.8426 101.672 37.9341 101.601 38.0268 101.487C38.1195 101.373 38.2311 101.203 38.3616 100.977L38.5144 100.694L38.323 95.3342Z" fill="#231F20"/>
<path d="M84.4004 88.1778C84.4644 88.1191 84.5244 88.0493 84.5806 87.9684C84.6369 87.8831 84.6871 87.7866 84.7313 87.6788L85.4004 88.4086C85.3523 88.5579 85.2813 88.7028 85.1875 88.8435C85.096 88.9821 84.9828 89.1132 84.848 89.2368C84.6288 89.4379 84.4097 89.5589 84.1908 89.5998C83.972 89.6364 83.749 89.595 83.5217 89.4755C83.2923 89.3537 83.0519 89.1557 82.8006 88.8816L81.0256 86.9459L80.6487 87.2915L80.1994 86.8015L80.4283 86.1502L79.8776 85.1163L80.5012 84.5445L81.2426 85.353L81.9312 84.7216L82.6255 85.4787L81.9369 86.1102L83.6805 88.0117C83.8187 88.1624 83.9453 88.2546 84.06 88.288C84.175 88.3171 84.2885 88.2804 84.4004 88.1778Z" fill="#231F20"/>
<path d="M83.8979 82.5394C83.9449 82.4899 83.9952 82.4459 84.049 82.4072C84.1006 82.3664 84.1652 82.3231 84.2429 82.2772L85.1236 83.267C85.0629 83.2949 85.0036 83.3326 84.9457 83.3802C84.8899 83.4255 84.8321 83.4796 84.7723 83.5425C84.6742 83.6459 84.6092 83.7594 84.5773 83.883C84.5455 84.0065 84.5456 84.137 84.5777 84.2742C84.6096 84.4071 84.6713 84.5447 84.7627 84.687C84.8539 84.8249 84.9726 84.9632 85.1187 85.1019L87.0437 86.9293L86.1924 87.8261L82.4166 84.2417L83.0726 83.5505L83.8146 84.0113L83.8562 83.9675C83.784 83.8049 83.7303 83.6365 83.6951 83.462C83.6598 83.2876 83.6566 83.12 83.6853 82.9592C83.714 82.7984 83.7849 82.6585 83.8979 82.5394Z" fill="#231F20"/>
<path d="M86.8828 79.0345L90.9595 82.2726L90.3553 83.0334L89.748 82.7291L89.7047 82.7837C89.7875 82.9485 89.8379 83.1092 89.8559 83.266C89.8739 83.4227 89.8594 83.5754 89.8125 83.7242C89.7699 83.8724 89.6937 84.0157 89.5838 84.154C89.393 84.3943 89.1746 84.5472 88.9284 84.613C88.6823 84.6787 88.4171 84.6639 88.1326 84.5685C87.8458 84.4713 87.547 84.2993 87.2364 84.0526L84.5757 81.9391L85.3447 80.9709L87.7143 82.8531C88.0201 83.0959 88.2735 83.2478 88.4745 83.3085C88.6756 83.3693 88.8301 83.3317 88.938 83.1958C89.0672 83.0332 89.1172 82.8731 89.0881 82.7154C89.059 82.5578 88.965 82.3921 88.8061 82.2184C88.6492 82.0423 88.4421 81.8521 88.1849 81.6478L86.1138 80.0027L86.8828 79.0345Z" fill="#231F20"/>
<path d="M92.0166 77.9528C92.3121 78.1463 92.5245 78.3651 92.6537 78.609C92.782 78.8486 92.8293 79.1074 92.7954 79.3853C92.7607 79.6589 92.6474 79.9422 92.4556 80.2351C92.3181 80.4451 92.1658 80.6324 91.9986 80.7971C91.8358 80.9609 91.6577 81.0999 91.4644 81.2141L90.4611 80.557C90.6487 80.4799 90.8378 80.3722 91.0283 80.2339C91.2163 80.094 91.3722 79.9294 91.4962 79.7402C91.5912 79.595 91.6306 79.4614 91.6141 79.3395C91.5976 79.2176 91.5246 79.1142 91.3949 79.0293C91.3223 78.9818 91.2448 78.9532 91.1622 78.9435C91.077 78.9322 90.9688 78.9503 90.8377 78.9978C90.704 79.0436 90.5294 79.1292 90.3138 79.2548C90.0981 79.3691 89.8852 79.4482 89.675 79.4921C89.4647 79.5359 89.2559 79.5381 89.0484 79.4985C88.8409 79.459 88.6335 79.3713 88.4261 79.2354C88.0424 78.9842 87.8185 78.6671 87.7543 78.2843C87.6902 77.9015 87.7939 77.5027 88.0655 77.0879C88.2048 76.8753 88.3653 76.6952 88.5472 76.5476C88.7281 76.3957 88.9338 76.2655 89.1641 76.157L89.7754 76.963C89.6109 77.0331 89.4552 77.1182 89.3082 77.2182C89.1612 77.3183 89.041 77.4396 88.9476 77.5822C88.8644 77.7092 88.8318 77.8268 88.8499 77.9349C88.8654 78.0414 88.9263 78.1294 89.0326 78.199C89.1078 78.2483 89.1828 78.2752 89.2576 78.2797C89.3324 78.2843 89.4332 78.2632 89.5601 78.2166C89.686 78.1657 89.862 78.0865 90.088 77.9789C90.3088 77.868 90.5243 77.785 90.7345 77.73C90.9446 77.6749 91.1547 77.6625 91.3646 77.6926C91.5763 77.72 91.7936 77.8068 92.0166 77.9528Z" fill="#231F20"/>
<path d="M93.8188 75.8555C93.861 75.7797 93.8959 75.6945 93.9237 75.6C93.9502 75.5013 93.9674 75.3939 93.9753 75.2777L94.8406 75.7589C94.842 75.9157 94.8204 76.0757 94.7758 76.2388C94.7327 76.3992 94.6667 76.5594 94.5778 76.7191C94.4332 76.9791 94.2636 77.1631 94.0688 77.2711C93.8728 77.3749 93.6481 77.4059 93.3946 77.3643C93.1385 77.3211 92.8479 77.2092 92.5229 77.0284L90.2277 75.7519L89.9791 76.1988L89.3982 75.8757L89.4098 75.1854L88.5609 74.3782L88.9721 73.6388L89.9308 74.172L90.3849 73.3554L91.2827 73.8547L90.8286 74.6713L93.0833 75.9252C93.262 76.0246 93.4112 76.0721 93.5307 76.0676C93.649 76.0589 93.745 75.9883 93.8188 75.8555Z" fill="#231F20"/>
<path d="M84.4004 88.1778C84.4644 88.1191 84.5244 88.0493 84.5806 87.9684C84.6369 87.8831 84.6871 87.7866 84.7313 87.6788L85.4004 88.4086C85.3523 88.5579 85.2813 88.7028 85.1875 88.8435C85.096 88.9821 84.9828 89.1132 84.848 89.2368C84.6288 89.4379 84.4097 89.5589 84.1908 89.5998C83.972 89.6364 83.749 89.595 83.5217 89.4755C83.2923 89.3537 83.0519 89.1557 82.8006 88.8816L81.0256 86.9459L80.6487 87.2915L80.1994 86.8015L80.4283 86.1502L79.8776 85.1163L80.5012 84.5445L81.2426 85.353L81.9312 84.7216L82.6255 85.4787L81.9369 86.1102L83.6805 88.0117C83.8187 88.1624 83.9453 88.2546 84.06 88.288C84.175 88.3171 84.2885 88.2804 84.4004 88.1778Z" fill="#231F20"/>
<path d="M83.8979 82.5394C83.9449 82.4899 83.9952 82.4459 84.049 82.4072C84.1006 82.3664 84.1652 82.3231 84.2429 82.2772L85.1236 83.267C85.0629 83.2949 85.0036 83.3326 84.9457 83.3802C84.8899 83.4255 84.8321 83.4796 84.7723 83.5425C84.6742 83.6459 84.6092 83.7594 84.5773 83.883C84.5455 84.0065 84.5456 84.137 84.5777 84.2742C84.6096 84.4071 84.6713 84.5447 84.7627 84.687C84.8539 84.8249 84.9726 84.9632 85.1187 85.1019L87.0437 86.9293L86.1924 87.8261L82.4166 84.2417L83.0726 83.5505L83.8146 84.0113L83.8562 83.9675C83.784 83.8049 83.7303 83.6365 83.6951 83.462C83.6598 83.2876 83.6566 83.12 83.6853 82.9592C83.714 82.7984 83.7849 82.6585 83.8979 82.5394Z" fill="#231F20"/>
<path d="M86.8828 79.0345L90.9595 82.2726L90.3553 83.0334L89.748 82.7291L89.7047 82.7837C89.7875 82.9485 89.8379 83.1092 89.8559 83.266C89.8739 83.4227 89.8594 83.5754 89.8125 83.7242C89.7699 83.8724 89.6937 84.0157 89.5838 84.154C89.393 84.3943 89.1746 84.5472 88.9284 84.613C88.6823 84.6787 88.4171 84.6639 88.1326 84.5685C87.8458 84.4713 87.547 84.2993 87.2364 84.0526L84.5757 81.9391L85.3447 80.9709L87.7143 82.8531C88.0201 83.0959 88.2735 83.2478 88.4745 83.3085C88.6756 83.3693 88.8301 83.3317 88.938 83.1958C89.0672 83.0332 89.1172 82.8731 89.0881 82.7154C89.059 82.5578 88.965 82.3921 88.8061 82.2184C88.6492 82.0423 88.4421 81.8521 88.1849 81.6478L86.1138 80.0027L86.8828 79.0345Z" fill="#231F20"/>
<path d="M92.0166 77.9528C92.3121 78.1463 92.5245 78.3651 92.6537 78.609C92.782 78.8486 92.8293 79.1074 92.7954 79.3853C92.7607 79.6589 92.6474 79.9422 92.4556 80.2351C92.3181 80.4451 92.1658 80.6324 91.9986 80.7971C91.8358 80.9609 91.6577 81.0999 91.4644 81.2141L90.4611 80.557C90.6487 80.4799 90.8378 80.3722 91.0283 80.2339C91.2163 80.094 91.3722 79.9294 91.4962 79.7402C91.5912 79.595 91.6306 79.4614 91.6141 79.3395C91.5976 79.2176 91.5246 79.1142 91.3949 79.0293C91.3223 78.9818 91.2448 78.9532 91.1622 78.9435C91.077 78.9322 90.9688 78.9503 90.8377 78.9978C90.704 79.0436 90.5294 79.1292 90.3138 79.2548C90.0981 79.3691 89.8852 79.4482 89.675 79.4921C89.4647 79.5359 89.2559 79.5381 89.0484 79.4985C88.8409 79.459 88.6335 79.3713 88.4261 79.2354C88.0424 78.9842 87.8185 78.6671 87.7543 78.2843C87.6902 77.9015 87.7939 77.5027 88.0655 77.0879C88.2048 76.8753 88.3653 76.6952 88.5472 76.5476C88.7281 76.3957 88.9338 76.2655 89.1641 76.157L89.7754 76.963C89.6109 77.0331 89.4552 77.1182 89.3082 77.2182C89.1612 77.3183 89.041 77.4396 88.9476 77.5822C88.8644 77.7092 88.8318 77.8268 88.8499 77.9349C88.8654 78.0414 88.9263 78.1294 89.0326 78.199C89.1078 78.2483 89.1828 78.2752 89.2576 78.2797C89.3324 78.2843 89.4332 78.2632 89.5601 78.2166C89.686 78.1657 89.862 78.0865 90.088 77.9789C90.3088 77.868 90.5243 77.785 90.7345 77.73C90.9446 77.6749 91.1547 77.6625 91.3646 77.6926C91.5763 77.72 91.7936 77.8068 92.0166 77.9528Z" fill="#231F20"/>
<path d="M93.8188 75.8555C93.861 75.7797 93.8959 75.6945 93.9237 75.6C93.9502 75.5013 93.9674 75.3939 93.9753 75.2777L94.8406 75.7589C94.842 75.9157 94.8204 76.0757 94.7758 76.2388C94.7327 76.3992 94.6667 76.5594 94.5778 76.7191C94.4332 76.9791 94.2636 77.1631 94.0688 77.2711C93.8728 77.3749 93.6481 77.4059 93.3946 77.3643C93.1385 77.3211 92.8479 77.2092 92.5229 77.0284L90.2277 75.7519L89.9791 76.1988L89.3982 75.8757L89.4098 75.1854L88.5609 74.3782L88.9721 73.6388L89.9308 74.172L90.3849 73.3554L91.2827 73.8547L90.8286 74.6713L93.0833 75.9252C93.262 76.0246 93.4112 76.0721 93.5307 76.0676C93.649 76.0589 93.745 75.9883 93.8188 75.8555Z" fill="#231F20"/>
<path d="M96.5198 50.46C94.5798 49.61 92.7998 48.39 91.3198 46.87C90.8898 46.43 90.4698 45.95 90.2598 45.36C90.0798 44.87 90.0698 44.33 90.1098 43.81C90.1598 43.07 90.3798 42.23 91.0398 41.89C91.4998 41.65 92.0798 41.73 92.5398 41.97C92.9998 42.21 93.3598 42.61 93.6998 43.01C95.3698 45.02 96.5498 47.44 97.0998 50" fill="#00A651"/>
<path d="M96.5199 50.45C97.5799 50.02 98.4398 49.21 99.0998 48.28C99.7598 47.35 100.22 46.2999 100.64 45.2399C101 44.3299 101.34 43.2999 100.95 42.3999C100.88 42.2499 100.8 42.0999 100.67 41.9899C100.44 41.7999 100.12 41.7599 99.8198 41.7999C98.6998 41.9399 97.9499 43.01 97.4699 44.03C96.6399 45.83 96.2398 47.83 96.2998 49.81" fill="#00A651"/>
<path d="M5.70981 50.1901C7.61981 51.1101 9.34984 52.4001 10.7698 53.9601C11.1898 54.4201 11.5898 54.9201 11.7698 55.5101C11.9298 56.0101 11.9198 56.5401 11.8698 57.0601C11.7898 57.8001 11.5398 58.6301 10.8698 58.9501C10.3998 59.1701 9.81981 59.0701 9.36981 58.8101C8.91981 58.5501 8.56982 58.1401 8.24982 57.7301C6.64982 55.6601 5.55983 53.2001 5.10983 50.6201" fill="#00A651"/>
<path d="M5.71982 50.1901C4.64982 50.5801 3.74981 51.3501 3.05981 52.2601C2.36981 53.1701 1.86982 54.2001 1.40982 55.2401C1.00982 56.1401 0.639808 57.1601 0.989808 58.0701C1.04981 58.2301 1.12983 58.3801 1.25983 58.4901C1.47983 58.6901 1.79982 58.7401 2.09982 58.7101C3.21982 58.6101 4.01982 57.5701 4.52982 56.5601C5.41982 54.7901 5.89982 52.81 5.90982 50.83" fill="#00A651"/>
<path d="M66.8798 95.8799C68.6598 97.0299 70.6598 97.8399 72.7398 98.2399C73.3498 98.3599 73.9798 98.4399 74.5798 98.2899C75.0898 98.1599 75.5398 97.8799 75.9598 97.5599C76.5498 97.1099 77.1298 96.4599 77.0498 95.7199C76.9898 95.1999 76.6098 94.7599 76.1498 94.5099C75.6898 94.2599 75.1598 94.1799 74.6398 94.1199C72.0398 93.8299 69.3698 94.1899 66.9298 95.1399" fill="#00A651"/>
<path d="M66.8798 95.88C66.6498 94.76 66.8498 93.59 67.2598 92.53C67.6698 91.47 68.2998 90.5 68.9498 89.57C69.5098 88.76 70.1798 87.91 71.1498 87.74C71.3098 87.71 71.4898 87.7 71.6498 87.75C71.9398 87.83 72.1498 88.0799 72.2798 88.3499C72.7798 89.3599 72.3098 90.5799 71.7098 91.5399C70.6598 93.2199 69.2198 94.66 67.5298 95.7" fill="#00A651"/>
</svg>
