<svg width="32" height="32" viewBox="0 0 32 32" fill="none" xmlns="http://www.w3.org/2000/svg">
<mask id="mask0_16896_20449" style="mask-type:luminance" maskUnits="userSpaceOnUse" x="0" y="0" width="32" height="32">
<path d="M31.988 0H0V31.988H31.988V0Z" fill="white"/>
</mask>
<g mask="url(#mask0_16896_20449)">
<path d="M14.619 0H14.869C14.91 0.044 14.963 0.029 15.013 0.032H15.286C15.336 0.032 15.386 0.044 15.431 0H16.556C16.597 0.044 16.651 0.029 16.701 0.032H16.974C17.023 0.032 17.074 0.044 17.118 0H17.243C17.843 0.079 18.458 0.084 19.061 0.206C22.331 0.857432 25.3197 2.50362 27.6181 4.91919C29.9164 7.33476 31.4119 10.4017 31.9 13.7C31.952 14.047 31.92 14.4 31.987 14.747V14.997C31.949 15.032 31.957 15.078 31.955 15.122C31.953 15.166 31.949 15.213 31.987 15.247V15.435C31.9617 15.4941 31.9487 15.5577 31.9487 15.622C31.9487 15.6863 31.9617 15.7499 31.987 15.809V16.184C31.9618 16.2433 31.9488 16.3071 31.9488 16.3715C31.9488 16.4359 31.9618 16.4997 31.987 16.559V16.747C31.949 16.781 31.957 16.828 31.955 16.872C31.953 16.916 31.949 16.962 31.987 16.997V17.309C31.913 17.82 31.911 18.339 31.817 18.85C31.4485 20.8614 30.702 22.7847 29.617 24.518C27.4993 27.8977 24.2052 30.3735 20.37 31.468C19.3521 31.7597 18.3044 31.9352 17.247 31.991H17.06C17.009 31.94 16.944 31.965 16.885 31.959C16.826 31.953 16.785 31.949 16.747 31.991H16.435C16.3867 31.9658 16.333 31.9527 16.2785 31.9527C16.224 31.9527 16.1703 31.9658 16.122 31.991H15.873C15.8137 31.9658 15.7499 31.9528 15.6855 31.9528C15.6211 31.9528 15.5573 31.9658 15.498 31.991H15.248C15.21 31.95 15.161 31.961 15.114 31.959H15C14.954 31.959 14.9 31.95 14.867 31.991H14.617C13.6228 31.925 12.6383 31.754 11.68 31.481C7.80266 30.3826 4.47309 27.8801 2.34 24.461C1.14835 22.5586 0.375221 20.4243 0.072 18.2C0.032 17.9 0.057 17.6 0 17.307V17.057C0.043 17.017 0.029 16.964 0.032 16.915V16.762C0.032 16.713 0.043 16.662 0 16.62V15.37C0.043 15.33 0.029 15.277 0.032 15.228V15.075C0.032 15.026 0.043 14.975 0 14.933V14.683C0.075 14.183 0.076 13.674 0.165 13.173C0.520208 11.1899 1.24659 9.29165 2.306 7.578C3.54918 5.55856 5.22313 3.83868 7.20818 2.5413C9.19323 1.24392 11.4404 0.401071 13.789 0.073C14.063 0.035 14.345 0.062 14.619 0Z" fill="black"/>
<path d="M13.789 0.073L13.8577 0.56826C13.9467 0.555915 14.0354 0.552476 14.1528 0.547926C14.1756 0.547042 14.1995 0.546115 14.2247 0.545073C14.3514 0.53983 14.5071 0.531491 14.6704 0.5H14.7506C14.8034 0.517534 14.8531 0.525935 14.8946 0.529524C14.9356 0.53306 14.9722 0.532149 14.985 0.531831L14.9869 0.531784C14.9891 0.531732 14.9909 0.531693 14.9924 0.531664L14.998 0.532H15.013H15.2839C15.2843 0.532013 15.2847 0.53203 15.2853 0.532054L15.2929 0.53237L15.3058 0.532878C15.324 0.533519 15.3641 0.534743 15.4114 0.529891C15.4545 0.525466 15.5013 0.516238 15.5492 0.5H16.4378C16.4913 0.517718 16.5413 0.526032 16.5826 0.529561C16.6234 0.533049 16.6599 0.53215 16.6728 0.531832L16.6747 0.531786C16.677 0.531732 16.6789 0.531692 16.6804 0.531662L16.686 0.532H16.701H16.9716C16.972 0.532011 16.9724 0.532026 16.9728 0.532045L16.9804 0.532363L16.9933 0.532875C17.0116 0.533521 17.0516 0.534741 17.0989 0.529891C17.1395 0.52573 17.1838 0.517251 17.2295 0.502368C17.4597 0.531132 17.6932 0.550458 17.9149 0.568803C17.9803 0.574217 18.0447 0.579545 18.1077 0.585005C18.4082 0.611068 18.6894 0.640946 18.9618 0.696073L18.9633 0.696364C22.1322 1.32766 25.0286 2.92295 27.2558 5.26384C29.4831 7.60474 30.9324 10.5768 31.4054 13.7732L31.4055 13.7741C31.4251 13.9049 31.4303 14.0385 31.4368 14.2059L31.4383 14.2431C31.4446 14.4037 31.4531 14.5946 31.487 14.792V14.8801C31.4745 14.9182 31.4669 14.9544 31.4624 14.9866C31.4562 15.0301 31.4557 15.0671 31.4555 15.0832C31.4554 15.0952 31.4554 15.0996 31.4554 15.1009C31.4546 15.1129 31.4498 15.1903 31.4625 15.2686C31.4672 15.2974 31.4743 15.3281 31.4846 15.3599C31.4608 15.445 31.4487 15.5332 31.4487 15.622C31.4487 15.7138 31.4617 15.8048 31.487 15.8926V16.1006C31.4617 16.1885 31.4488 16.2797 31.4488 16.3715C31.4488 16.461 31.461 16.5498 31.4851 16.6356C31.4736 16.6721 31.4665 16.7064 31.4623 16.7367C31.4562 16.7801 31.4557 16.8171 31.4555 16.8331C31.4554 16.8451 31.4554 16.8496 31.4554 16.8509C31.4546 16.8628 31.4497 16.9403 31.4626 17.0187C31.4677 17.0499 31.4755 17.0829 31.487 17.1168V17.2738C31.4553 17.5027 31.4364 17.7322 31.4188 17.9458C31.4163 17.9768 31.4138 18.0076 31.4112 18.0379C31.3898 18.2948 31.3674 18.5306 31.3253 18.7595L31.3252 18.7599C30.9681 20.7091 30.2447 22.573 29.1932 24.2527C27.1411 27.5276 23.9491 29.9266 20.2328 30.9872L20.2322 30.9874C19.2548 31.2675 18.2489 31.4364 17.2337 31.491H17.1776C17.1051 31.4668 17.0388 31.4598 16.9901 31.4583C16.9609 31.4575 16.9305 31.4587 16.9158 31.4594C16.8809 31.456 16.8072 31.4511 16.7309 31.463C16.6932 31.4689 16.6563 31.4782 16.6206 31.491H16.5291C16.4482 31.4657 16.3638 31.4527 16.2785 31.4527C16.1932 31.4527 16.1088 31.4657 16.0279 31.491H15.9564C15.8685 31.4657 15.7773 31.4528 15.6855 31.4528C15.5937 31.4528 15.5025 31.4657 15.4146 31.491H15.366C15.3212 31.4762 15.2787 31.4679 15.2414 31.4636C15.1972 31.4586 15.1592 31.459 15.1448 31.4591C15.1365 31.4592 15.1322 31.4592 15.1304 31.4592L15.1246 31.459H15.114H15.0009C15.0005 31.459 14.9992 31.459 14.9964 31.4589L14.9729 31.4583C14.9533 31.458 14.9139 31.4577 14.8676 31.4634C14.8329 31.4676 14.7909 31.4758 14.7456 31.491H14.6337C13.6802 31.4265 12.7361 31.262 11.817 31.0001L11.8163 30.9999C8.05847 29.9354 4.83154 27.51 2.76421 24.1963L2.76374 24.1956C1.60988 22.3535 0.861233 20.2869 0.567522 18.1332C0.553281 18.0261 0.549178 17.9188 0.544036 17.7842C0.543378 17.767 0.542703 17.7494 0.541987 17.7312C0.536618 17.5949 0.528867 17.4317 0.5 17.262V17.1748C0.516975 17.1233 0.525201 17.0752 0.528883 17.0353C0.532652 16.9945 0.531978 16.9583 0.531737 16.9452L0.531704 16.9435C0.531656 16.9407 0.531623 16.9385 0.531599 16.9368L0.532 16.9303V16.915V16.7636C0.532014 16.7631 0.532039 16.7623 0.53208 16.7611L0.532835 16.7396C0.53338 16.7209 0.534292 16.6812 0.529191 16.6343C0.524751 16.5935 0.515826 16.5482 0.5 16.5013V15.4878C0.516976 15.4363 0.525201 15.3882 0.528883 15.3483C0.532652 15.3075 0.531978 15.2713 0.531737 15.2582L0.531704 15.2565C0.531656 15.2537 0.531623 15.2515 0.531599 15.2498L0.532 15.2433V15.228V15.0766C0.532014 15.0761 0.532039 15.0753 0.53208 15.0741L0.532835 15.0526C0.53338 15.0339 0.534292 14.9942 0.529191 14.9473C0.524751 14.9065 0.515826 14.8612 0.5 14.8143V14.7194C0.533473 14.4856 0.552524 14.2519 0.570169 14.0354C0.571979 14.0132 0.573774 13.9912 0.575569 13.9693C0.596351 13.7166 0.617339 13.4855 0.657228 13.2608C1.00136 11.3398 1.70504 9.50094 2.73129 7.84092L2.73179 7.84012C3.93636 5.88339 5.55832 4.21693 7.48173 2.95984C9.40513 1.70275 11.5825 0.886075 13.8582 0.568192L13.789 0.073ZM13.789 0.073C13.9047 0.0569494 14.0219 0.0524953 14.1393 0.0480329C14.2998 0.0419304 14.4607 0.0358122 14.619 0M13.789 0.073C11.4404 0.401071 9.19324 1.24392 7.20818 2.5413C5.22313 3.83868 3.54918 5.55856 2.306 7.578L14.619 0M14.619 0H14.869H14.619Z" stroke="white" stroke-opacity="0.5"/>
<path d="M31.9881 15.8062C31.9421 15.7545 31.9167 15.6878 31.9167 15.6187C31.9167 15.5495 31.9421 15.4828 31.9881 15.4312V15.8062Z" fill="#A90000"/>
<path d="M31.9881 16.5562C31.9421 16.5045 31.9167 16.4378 31.9167 16.3687C31.9167 16.2995 31.9421 16.2328 31.9881 16.1812V16.5562Z" fill="#A90000"/>
<path d="M15.4941 31.9879C15.5458 31.9419 15.6125 31.9165 15.6816 31.9165C15.7508 31.9165 15.8175 31.9419 15.8691 31.9879H15.4941Z" fill="#FF0000"/>
<path d="M16.1191 31.9879C16.1387 31.9659 16.1628 31.9483 16.1897 31.9362C16.2166 31.9242 16.2457 31.918 16.2751 31.918C16.3046 31.918 16.3337 31.9242 16.3606 31.9362C16.3875 31.9483 16.4115 31.9659 16.4311 31.9879H16.1191Z" fill="#FF0000"/>
<path d="M0.0541738 15.0529V15.2389C0.0401738 15.2709 0.0231738 15.2739 0.00317383 15.2439V15.0559C0.0191738 15.0299 0.0371738 15.0279 0.0571738 15.0559" fill="#5A5A5A"/>
<path d="M16.8721 0.053H16.6851C16.6621 0.043 16.6541 0.032 16.6601 0.02C16.6661 0.008 16.6741 0 16.6811 0H16.8681C16.8871 0.01 16.8941 0.022 16.8891 0.034C16.8841 0.046 16.8781 0.053 16.8721 0.053Z" fill="#4E4E4E"/>
<path d="M0.0510703 16.7481V16.9341C0.0310703 16.9588 0.0130703 16.9588 -0.00292969 16.9341V16.7461C0.0160703 16.7181 0.0340703 16.7181 0.0480703 16.7461" fill="#5A5A5A"/>
<path d="M15.3001 0.053H15.1131C15.1001 0.04 15.0921 0.028 15.1001 0.017C15.1081 0.006 15.1131 0 15.1201 0H15.3061C15.3271 0.014 15.3341 0.026 15.3251 0.037C15.3161 0.048 15.3111 0.053 15.3021 0.053" fill="#4E4E4E"/>
<path d="M16.8731 31.9369C16.9381 31.9369 17.0191 31.8829 17.0561 31.9869H16.8681C16.8471 31.9739 16.8411 31.9619 16.8491 31.9519C16.8517 31.9477 16.8553 31.9443 16.8594 31.9417C16.8636 31.9391 16.8682 31.9374 16.8731 31.9369Z" fill="#7B7B7B"/>
<path d="M16.8721 0.053C16.8711 0.0353472 16.8711 0.0176528 16.8721 0L16.9971 0C17.0171 0.01 17.0241 0.022 17.0181 0.034C17.0121 0.046 17.0001 0.052 17.0001 0.052H16.8761" fill="#717171"/>
<path d="M17 0.053C16.999 0.0353481 16.999 0.0176519 17 0L17.125 0C17.111 0.079 17.055 0.061 17.003 0.053" fill="#909090"/>
<path d="M16.6812 0C16.6812 0.018 16.6812 0.035 16.6812 0.053C16.6574 0.0603951 16.6318 0.0591271 16.6089 0.0494217C16.586 0.0397163 16.5673 0.0222033 16.5562 0L16.6812 0Z" fill="#FF0000"/>
<path d="M15.3 0.053C15.301 0.0353472 15.301 0.0176528 15.3 0H15.425C15.4147 0.0229423 15.3961 0.041141 15.3729 0.0509649C15.3498 0.0607888 15.3237 0.0615155 15.3 0.053Z" fill="#FF0000"/>
<path d="M0.054 15.0532C0.0360137 15.0542 0.0179863 15.0542 0 15.0532L0 14.9282C0.076 14.9432 0.06 14.9992 0.054 15.0502" fill="#808080"/>
<path d="M31.9361 15.1161C31.9291 15.0651 31.9171 15.0161 31.9881 14.9951V15.1201C31.9691 15.1491 31.9511 15.1471 31.9361 15.1201" fill="#747474"/>
<path d="M31.9362 15.1158C31.9535 15.1148 31.9708 15.1148 31.9882 15.1158V15.2408C31.9282 15.2148 31.9252 15.1658 31.9362 15.1118" fill="#555555"/>
<path d="M0 15.2438L0.051 15.2388C0.0611373 15.2628 0.0614782 15.2899 0.0519501 15.3141C0.0424219 15.3384 0.0237792 15.358 0 15.3688L0 15.2438Z" fill="#3E3E3E"/>
<path d="M0.051 16.748H0V16.623C0.0237792 16.6338 0.0424219 16.6534 0.0519501 16.6777C0.0614782 16.702 0.0611373 16.729 0.051 16.753" fill="#3E3E3E"/>
<path d="M31.935 16.8721C31.925 16.8181 31.927 16.7721 31.988 16.7441V16.8691C31.972 16.8951 31.954 16.8961 31.935 16.8691" fill="#555555"/>
<path d="M31.935 16.8721H31.988V16.9971C31.915 16.9801 31.927 16.9261 31.935 16.8751" fill="#757575"/>
<path d="M0 16.9309C0.0179862 16.9299 0.0360138 16.9299 0.054 16.9309C0.06 16.9829 0.076 17.0379 0 17.0529V16.9309Z" fill="#818181"/>
<path d="M15.1192 0C15.1207 0.0176338 15.1207 0.0353661 15.1192 0.053H14.9952C14.9772 0.04 14.9712 0.028 14.9782 0.017C14.9852 0.006 14.9872 0 14.9942 0H15.1192Z" fill="#717171"/>
<path d="M14.9941 0C14.9951 0.0176527 14.9951 0.0353473 14.9941 0.053C14.9401 0.06 14.8831 0.079 14.8691 0H14.9941Z" fill="#909090"/>
<path d="M14.8691 31.9879C14.8841 31.9099 14.9401 31.9279 14.9911 31.9359C15.0131 31.9459 15.0211 31.9569 15.0151 31.9689C15.0081 31.9819 15.0011 31.9879 14.9941 31.9879H14.8691Z" fill="#939393"/>
<path d="M14.9941 31.988C14.9951 31.9707 14.9951 31.9534 14.9941 31.936H15.1191C15.1411 31.946 15.1491 31.957 15.1431 31.969C15.1361 31.982 15.1291 31.988 15.1221 31.988H14.9941Z" fill="#737373"/>
<path d="M15.1191 31.9879V31.9359C15.1731 31.9259 15.2191 31.9269 15.2471 31.9879H15.1191Z" fill="#565656"/>
<path d="M16.873 31.9371C16.873 31.9541 16.873 31.9711 16.873 31.9871H16.748C16.773 31.9241 16.823 31.9251 16.878 31.9371" fill="#565656"/>
<path d="M21.015 22.2698C20.8088 22.2736 20.6041 22.2336 20.4145 22.1524C20.2249 22.0712 20.0546 21.9507 19.915 21.7988C18.696 20.5738 17.466 19.3598 16.257 18.1248C16.037 17.9008 15.935 17.9308 15.733 18.1368C14.511 19.3788 13.281 20.6095 12.043 21.8288C11.9219 21.9634 11.7747 22.0719 11.6103 22.1478C11.446 22.2236 11.2679 22.2652 11.0869 22.27C10.9059 22.2748 10.7259 22.2428 10.5577 22.1758C10.3895 22.1088 10.2367 22.0082 10.1087 21.8803C9.98057 21.7523 9.87988 21.5997 9.81269 21.4316C9.74551 21.2634 9.71325 21.0834 9.71787 20.9025C9.72249 20.7215 9.76389 20.5433 9.83957 20.3789C9.91524 20.2144 10.0236 20.0671 10.158 19.9458C11.392 18.7058 12.625 17.4648 13.873 16.2398C14.086 16.0318 14.054 15.9288 13.863 15.7398C12.621 14.5132 11.383 13.2775 10.149 12.0328C10.0138 11.911 9.90503 11.7627 9.82928 11.5972C9.75353 11.4317 9.71244 11.2525 9.70856 11.0705C9.70467 10.8886 9.73806 10.7077 9.80667 10.5391C9.87528 10.3706 9.97767 10.2178 10.1075 10.0903C10.2374 9.96273 10.392 9.86312 10.5618 9.79756C10.7315 9.732 10.913 9.70188 11.0948 9.70906C11.2767 9.71623 11.4552 9.76054 11.6193 9.83927C11.7834 9.918 11.9296 10.0295 12.049 10.1668C13.281 11.3938 14.515 12.6188 15.732 13.8608C15.949 14.0818 16.051 14.0608 16.256 13.8538C17.4747 12.6138 18.7027 11.3828 19.94 10.1608C20.0611 10.0224 20.2095 9.91054 20.3758 9.83213C20.5421 9.75372 20.7229 9.71049 20.9067 9.70515C21.0905 9.69981 21.2734 9.73248 21.444 9.8011C21.6146 9.86972 21.7692 9.97282 21.8982 10.104C22.0271 10.2351 22.1276 10.3914 22.1933 10.5632C22.259 10.7349 22.2885 10.9184 22.2801 11.1021C22.2716 11.2858 22.2253 11.4657 22.1441 11.6307C22.0629 11.7957 21.9485 11.9421 21.808 12.0608C20.584 13.2808 19.371 14.5118 18.135 15.7198C17.902 15.9478 17.935 16.0558 18.144 16.2658C19.3834 17.4845 20.6137 18.7132 21.835 19.9518C22.0078 20.1079 22.1364 20.3067 22.208 20.5283C22.2796 20.7499 22.2915 20.9864 22.2426 21.214C22.1938 21.4417 22.0859 21.6525 21.9297 21.8252C21.7735 21.9979 21.5746 22.1264 21.353 22.1978C21.2414 22.2296 21.1273 22.2524 21.012 22.2658" fill="white"/>
</g>
</svg>
