<svg width="18" height="18" viewBox="0 0 18 18" fill="none" xmlns="http://www.w3.org/2000/svg">
<path d="M16.7503 2.03317H7.99838C7.80663 1.52774 7.46755 1.09152 7.02505 0.780996C6.58255 0.470472 6.05702 0.299947 5.5165 0.291504C4.98049 0.296592 4.45901 0.46644 4.02282 0.778008C3.58662 1.08957 3.25683 1.52778 3.07817 2.03317H1.24942C1.12931 2.02731 1.00923 2.04521 0.896042 2.08583C0.782858 2.12644 0.678797 2.18899 0.589817 2.26988C0.500838 2.35077 0.428689 2.44842 0.3775 2.55723C0.326311 2.66604 0.297088 2.78388 0.291504 2.904C0.297088 3.02413 0.326311 3.14197 0.3775 3.25078C0.428689 3.35959 0.500838 3.45724 0.589817 3.53813C0.678797 3.61902 0.782858 3.68156 0.896042 3.72218C1.00923 3.7628 1.12931 3.78069 1.24942 3.77484H3.07817C3.25683 4.28023 3.58662 4.71843 4.02282 5.03C4.45901 5.34157 4.98049 5.51142 5.5165 5.5165C6.05702 5.50806 6.58255 5.33754 7.02505 5.02701C7.46755 4.71649 7.80663 4.28027 7.99838 3.77484H16.7503C16.8704 3.78069 16.9904 3.7628 17.1036 3.72218C17.2168 3.68156 17.3209 3.61902 17.4099 3.53813C17.4988 3.45724 17.571 3.35959 17.6222 3.25078C17.6734 3.14197 17.7026 3.02413 17.7082 2.904C17.7026 2.78388 17.6734 2.66604 17.6222 2.55723C17.571 2.44842 17.4988 2.35077 17.4099 2.26988C17.3209 2.18899 17.2168 2.12644 17.1036 2.08583C16.9904 2.04521 16.8704 2.02731 16.7503 2.03317ZM5.5165 3.77484C5.34427 3.77484 5.1759 3.72376 5.0327 3.62808C4.88949 3.53239 4.77787 3.39638 4.71196 3.23726C4.64605 3.07813 4.6288 2.90304 4.6624 2.73411C4.696 2.56519 4.77894 2.41002 4.90073 2.28823C5.02252 2.16644 5.17769 2.0835 5.34661 2.0499C5.51554 2.0163 5.69063 2.03355 5.84976 2.09946C6.00888 2.16537 6.14489 2.27699 6.24058 2.4202C6.33626 2.5634 6.38734 2.73177 6.38734 2.904C6.38734 3.13496 6.29559 3.35646 6.13228 3.51978C5.96896 3.68309 5.74746 3.77484 5.5165 3.77484Z" fill="black"/>
<path d="M16.7503 8.12887H14.9651C14.7734 7.62344 14.4343 7.18722 13.9918 6.8767C13.5493 6.56617 13.0238 6.39565 12.4832 6.38721C11.9472 6.39229 11.4258 6.56214 10.9896 6.87371C10.5534 7.18528 10.2236 7.62348 10.0449 8.12887H1.2495C1.01854 8.12887 0.797036 8.22062 0.633724 8.38394C0.470411 8.54725 0.378662 8.76875 0.378662 8.99971C0.378662 9.23067 0.470411 9.45217 0.633724 9.61548C0.797036 9.77879 1.01854 9.87054 1.2495 9.87054H10.0449C10.2236 10.3759 10.5534 10.8141 10.9896 11.1257C11.4258 11.4373 11.9472 11.6071 12.4832 11.6122C13.0238 11.6038 13.5493 11.4332 13.9918 11.1227C14.4343 10.8122 14.7734 10.376 14.9651 9.87054H16.7503C16.9813 9.87054 17.2028 9.77879 17.3661 9.61548C17.5294 9.45217 17.6212 9.23067 17.6212 8.99971C17.6212 8.76875 17.5294 8.54725 17.3661 8.38394C17.2028 8.22062 16.9813 8.12887 16.7503 8.12887ZM12.4832 9.87054C12.311 9.87054 12.1426 9.81947 11.9994 9.72378C11.8562 9.62809 11.7446 9.49209 11.6787 9.33296C11.6128 9.17384 11.5955 8.99874 11.6291 8.82982C11.6627 8.66089 11.7457 8.50572 11.8675 8.38394C11.9893 8.26215 12.1444 8.17921 12.3134 8.14561C12.4823 8.11201 12.6574 8.12925 12.8165 8.19516C12.9756 8.26107 13.1116 8.37269 13.2073 8.5159C13.303 8.65911 13.3541 8.82747 13.3541 8.99971C13.3541 9.23067 13.2623 9.45217 13.099 9.61548C12.9357 9.77879 12.7142 9.87054 12.4832 9.87054Z" fill="black"/>
<path d="M16.7503 14.2251H9.30471C9.11295 13.7196 8.77387 13.2834 8.33138 12.9729C7.88888 12.6624 7.36335 12.4918 6.82283 12.4834C6.28681 12.4885 5.76534 12.6583 5.32914 12.9699C4.89295 13.2815 4.56315 13.7197 4.3845 14.2251H1.2495C1.01854 14.2251 0.797036 14.3168 0.633724 14.4801C0.470411 14.6434 0.378662 14.8649 0.378662 15.0959C0.378662 15.3269 0.470411 15.5484 0.633724 15.7117C0.797036 15.875 1.01854 15.9667 1.2495 15.9667H4.3845C4.56315 16.4721 4.89295 16.9103 5.32914 17.2219C5.76534 17.5335 6.28681 17.7033 6.82283 17.7084C7.36335 17.7 7.88888 17.5294 8.33138 17.2189C8.77387 16.9084 9.11295 16.4722 9.30471 15.9667H16.7503C16.9813 15.9667 17.2028 15.875 17.3661 15.7117C17.5294 15.5484 17.6212 15.3269 17.6212 15.0959C17.6212 14.8649 17.5294 14.6434 17.3661 14.4801C17.2028 14.3168 16.9813 14.2251 16.7503 14.2251ZM6.82283 15.9667C6.6506 15.9667 6.48223 15.9157 6.33902 15.82C6.19581 15.7243 6.0842 15.5883 6.01829 15.4292C5.95237 15.27 5.93513 15.0949 5.96873 14.926C6.00233 14.7571 6.08527 14.6019 6.20706 14.4801C6.32885 14.3583 6.48401 14.2754 6.65294 14.2418C6.82186 14.2082 6.99696 14.2254 7.15608 14.2914C7.31521 14.3573 7.45121 14.4689 7.5469 14.6121C7.64259 14.7553 7.69366 14.9237 7.69366 15.0959C7.69366 15.3269 7.60192 15.5484 7.4386 15.7117C7.27529 15.875 7.05379 15.9667 6.82283 15.9667Z" fill="black"/>
</svg>
