<svg width="74" height="48" viewBox="0 0 74 48" fill="none" xmlns="http://www.w3.org/2000/svg">
<g id="Group">
<g id="Group_2">
<path id="Vector" d="M43.43 -8.28997L41.78 -6.49997C35.71 -0.989965 33.42 0.820035 31.81 2.19003C31.24 2.66004 34.54 -0.239965 36.08 -1.65997L37.9 -3.33997C39.23 -4.56997 40.56 -5.81997 41.91 -7.11997C42.73 -7.88997 43.35 -8.48997 43.72 -8.83997C43.24 -8.27997 43.08 -8.04997 43.43 -8.29997V-8.28997Z" fill="#58A148"/>
<path id="Vector_2" d="M29.96 3.75998C27.6 5.78999 26.4 6.82998 27.77 5.63998C29.1 4.47998 32.2 1.69998 35.54 -1.44002C42.42 -7.91002 49.04 -14.63 55.29 -21.7C55.52 -21.94 55.52 -21.91 55.28 -21.63C50.99 -16.68 46.12 -11.62 41.15 -6.76002C40.76 -6.38002 40.37 -6.00002 39.99 -5.63002C37.53 -3.27002 35.63 -1.45001 33.68 0.349985C33.37 0.639986 31.6 2.24998 33.62 0.419985C35.28 -1.09002 36.99 -2.70002 38.67 -4.29002C40.48 -6.00002 41.31 -6.79002 39.86 -5.34002C39.63 -5.11002 39.37 -4.86002 39.08 -4.58002C37.57 -3.13001 35.82 -1.50002 34.02 0.129984C32.3 1.66998 31.17 2.67999 29.95 3.75998H29.96Z" fill="#84B370"/>
<path id="Vector_3" d="M36.36 -1.91005C35.34 -0.940054 32.15 1.86995 31.8 2.18995C30.69 3.12995 30.99 2.87995 30.31 3.45995C31.91 2.05995 32.14 1.82995 34.68 -0.470054C37.42 -2.96005 37.17 -2.71005 36.36 -1.91005Z" fill="#8CB779"/>
<path id="Vector_4" d="M34.51 -0.310024C32.64 1.37998 32.92 1.17998 30.31 3.45998L29.96 3.75998C30.56 3.22998 32.34 1.62998 34.55 -0.350024C34.75 -0.530024 34.81 -0.580024 34.74 -0.510024C34.66 -0.440024 34.59 -0.370024 34.52 -0.310024H34.51Z" fill="#81B16D"/>
<path id="Vector_5" d="M40.49 -6.13999C40.39 -6.00999 41.72 -7.28999 42.25 -7.78999C44.16 -9.63999 46 -11.4 41.83 -7.25999C40.8 -6.24999 40.13 -5.56999 38.89 -4.39999C40.54 -6.04999 38.2 -3.80999 36.25 -1.98999C34.23 -0.0999937 32.39 1.57001 30.32 3.40001C30.74 3.01001 31.87 1.99001 33.57 0.440006C35.59 -1.41999 37.77 -3.47999 39.65 -5.31999L40.49 -6.13999Z" fill="#66A652"/>
<path id="Vector_6" d="M39.65 -5.32007C38.34 -3.97007 35.84 -1.64007 33.57 0.439932C35.31 -1.21007 37 -2.81007 39.65 -5.32007Z" fill="#7AAE65"/>
</g>
<g id="Group_3">
<path id="Vector_7" d="M38.6 38.02C38.18 38.18 37.75 38.28 37.42 38.2C36.28 37.96 36.83 37.2 36.49 36.62C36.37 35.8 35.81 35.15 36.61 33.56C36.84 33.13 36.87 32.18 36 32.13C35.39 32.1 35.39 31.49 35.74 30.69C36.06 30.18 36.52 29.6 36.92 29.63C38.17 29.72 39.03 29.16 39.66 28.32C40.31 27.49 40.72 26.4 41.35 25.59C41.76 24.94 42.26 24.34 42.2 23.5C42.69 22.1 43.24 20.82 44.77 20.26C46.2 20.7 45.66 21.84 45.84 22.69C46.34 23.83 47.04 24.12 48.12 23.3C48.25 22.73 48.23 22.15 48.32 21.58C48.38 21.38 48.47 21.2 48.58 21.02C49.31 20.18 50.4 19.79 51.48 19.43C53.02 18.91 54.16 18.43 51.9 17.22C51.69 17.11 51.61 16.83 51.51 16.61C51.45 16.46 51.42 16.3 51.36 16.15C50.18 12.97 49.95 12.99 47.81 14.82C47.25 14.75 46.83 14.48 46.52 14.02C46.26 13.49 46.1 12.89 46.33 12.49C47.57 10.27 47.71 7.58 48.84 5.27C51.62 4.79 51.52 6.97 52.47 8.2C53.72 10.54 53.61 10.77 51.13 11.48C52.35 12.35 53.67 11.65 54.87 12.16C55.14 12.39 55.16 11.8 55.01 12.06C54.43 13.09 53.81 10.89 53.93 8.68C55.1 7.65 55.86 9.74 57.05 9.27C56.09 8.68 55 8.54 54.09 8.07C52.91 7.46 51.53 6.74 53 5.53C54.57 5.88 55.58 4.87 56.96 4.75C57.34 4.78 57.68 4.9 57.99 5.12C58.61 5.58 58.56 6.82 59.88 6.49C60.99 6.98 60.43 7.7 60.48 8.34C60.53 8.54 60.58 8.73 60.64 8.93C59.86 11.57 59.08 14.25 57.94 16.94C57.37 18.28 56.71 19.63 55.88 20.97C55.07 22.3 54.08 23.62 53.06 24.68C52.47 24.91 51.5 25.88 51.77 24.31C51.88 23.59 52.38 22.88 52.76 22.07C51.96 24.92 49.3 25.74 47 26.89C45.56 27.61 44.51 28.85 43.33 29.9C42.98 30.2 42.29 30.46 42.27 30.76C42.17 32.09 40.93 32.82 39.82 33.63C39.24 34.06 38.81 34.53 38.79 35.08C40.05 34.57 41.27 33.57 42.61 34.02C42.38 34.8 41.36 35.17 40.54 35.62C39.25 36.32 39.96 36.39 40.59 36.55C40.83 37.24 39.27 37.58 38.59 38.05L38.6 38.02Z" fill="#7BA670"/>
<path id="Vector_8" d="M47.19 -11.8501C48.27 -13.4401 49.41 -15.0201 50.64 -16.5701C51.7 -18.2001 53.26 -19.6101 55.01 -20.9101C55.48 -21.2001 55.95 -21.4801 56.41 -21.8301C58.44 -23.3101 58.74 -23.3801 58.35 -21.6501C58.2 -20.8501 58.95 -21.4601 59.09 -21.1801C59.09 -20.3601 58.7 -19.5701 58.22 -18.8001C57.75 -18.0301 57.19 -17.2701 57.04 -16.4401C56.28 -14.2101 55.64 -11.9401 53.77 -10.1301C53.19 -9.58011 52.72 -8.97011 52.6 -8.21011C51.09 -5.78011 50.1 -3.16011 49.21 -0.520111C48.31 2.10989 47.46 4.76989 46.08 7.14989C45.64 7.89989 45.74 8.81989 45.63 9.66989C45.6 11.1599 45.03 12.3799 44.28 13.4399C43.53 14.5099 42.63 15.3999 41.82 16.3999C40.52 17.1699 39.66 16.7499 39.04 15.1199C39.75 14.0199 40.36 13.0199 40.82 11.8199C41.28 10.6399 41.56 9.29989 41.53 7.82989C41.4 7.06989 41.5 6.35989 41.82 5.71989C43.05 2.38989 43.54 -1.28011 44.8 -4.71011C45.67 -7.08011 46.28 -9.52011 47.23 -11.8401L47.19 -11.8501Z" fill="#6A9E60"/>
<path id="Vector_9" d="M62.17 -4.54009C62.57 -6.41009 62.7 -8.35009 62.89 -10.2701C63.06 -12.1901 63.3 -14.0901 63.73 -15.9401C64.14 -17.7801 64.18 -19.6501 64.38 -21.5101C64.49 -22.5201 64.7 -23.0701 65.14 -22.8301C65.64 -20.9901 65.61 -18.9001 65.49 -16.9901C65.11 -9.32009 63.73 -1.95009 61.56 5.23991L61.15 5.21991C60.37 2.73991 60.74 0.429913 60.99 -1.90009C61.67 -2.63009 61.16 -3.98009 62.17 -4.54009Z" fill="#B4C9AA"/>
<path id="Vector_10" d="M47.19 -11.85C47.52 -8.88 45.8 -6.09 45.08 -3.22C44.43 -0.539995 43.32 2.03 43.18 4.84C43.15 5.28 42.63 5.62 42.33 5.99001C41.24 6.15001 41.17 5.08 40.47 4.77C40.74 1.25 42.07 -2.04 43.37 -5.37C44.24 -7.64999 44.84 -10.08 47.18 -11.87L47.19 -11.85Z" fill="#98B78C"/>
<path id="Vector_11" d="M36.93 36.46C37.15 37.09 37.3 37.67 37.42 38.21C33.35 38.67 31.73 38.49 30.69 38.56C30.24 38.48 31.65 37.6 32.2 37.05C32.43 36.85 32.6601 36.64 32.9001 36.45C33.4501 36.04 34 35.63 34.51 35.16C34.86 34.91 35.18 34.77 35.48 34.79C35.82 35.48 36.24 36.03 36.94 36.46H36.93Z" fill="#6A9E5F"/>
<path id="Vector_12" d="M43 29.63C43.68 28.53 45.05 27.98 45.67 26.66C45.97 25.94 47.96 25.76 49.25 25.32C51.22 24.65 51.17 22.62 52.53 21.39C52.93 21.04 53.11 20.14 53.89 20.73C54.46 21.16 54.09 21.74 53.68 22.26C53.11 23 52.43 23.71 52.18 24.46C51.98 25.06 52.78 24.49 53.07 24.66C52.66 25.89 50.59 26.07 50.62 27.55C49.78 28.7 48.86 29.79 47.75 30.73C46.52 31.2 45.04 32.59 44.74 30.47C44.66 30.03 43.61 30.43 43.2 30.1C43.06 29.97 43 29.82 43 29.63Z" fill="#8EB182"/>
<path id="Vector_13" d="M39.31 14.9099C39.68 16.0999 40.32 16.5999 41.44 16.2399C42.08 17.2899 41.64 18.1099 41.28 18.9499C40.72 19.8399 40.43 20.8699 40.12 21.9099C39.86 22.5799 39.87 23.3499 39.55 23.9999C39.14 24.5599 38.89 25.2399 38.48 25.7999C38.17 26.1099 37.84 26.2599 37.48 26.0199C37.08 25.2399 37.41 24.0599 36.46 23.3799C35.86 22.9499 36.24 22.0199 36.4 21.3099C36.74 19.8399 37.64 18.6699 37.42 16.9899L37.83 15.8199C38.51 15.6999 38.19 14.6599 38.87 14.5499C39.09 14.5799 39.24 14.6999 39.32 14.9099H39.31Z" fill="#79A56E"/>
<path id="Vector_14" d="M29.7 38.8199C28.76 39.4999 28.56 40.1499 28.87 39.4899C29.17 38.8599 29.68 37.1599 30.37 35.4899C31.82 32.0799 33.18 28.7699 34.5 25.5699C34.67 25.5699 34.79 25.6699 34.85 25.8899C34.48 28.5799 33.17 30.7999 32.01 33.1599C31.91 33.3399 31.81 33.5099 31.7 33.6799C30.99 34.7099 30.74 35.8099 30.34 36.7899C30.31 36.9799 29.87 37.7899 30.44 36.9399C30.92 36.2499 31.3 35.4099 31.84 34.7599C32.43 34.0699 32.87 33.9099 32.69 34.7699C32.67 34.9099 32.62 35.0599 32.57 35.2099C32.24 35.9599 31.63 36.6099 31.03 37.2699C30.41 37.8499 30.12 38.3599 29.72 38.8099L29.7 38.8199Z" fill="#8EB182"/>
<path id="Vector_15" d="M38.91 14.6599C38.5 14.9699 39.33 16.5899 37.82 15.8199C38 13.5999 38.15 11.9399 38.59 10.1699C39.02 8.40995 39.69 6.60995 40.49 4.77995C42.34 3.68995 41.14 6.29995 42.35 5.99995C42.09 6.66995 41.87 7.33995 42.1 8.12995C41.06 8.86995 41.08 10.0899 40.76 11.1199C40.35 12.4699 40.15 13.8499 38.92 14.6599H38.91Z" fill="#95B589"/>
<path id="Vector_16" d="M34.74 25.76L34.5 25.57C35.57 22.65 36.53 19.78 37.4 16.99C38.24 18.94 36.64 19.98 36.63 21.67C36.63 22.21 36.13 23.12 36.7 23.17C38.9 23.37 37.53 24.92 37.55 25.88C37.89 26.61 37.47 27.02 36.97 27.4C36.81 27.5 36.64 27.57 36.48 27.61C35.44 27.64 34.99 26.99 34.74 25.77V25.76Z" fill="#97B68C"/>
<path id="Vector_17" d="M46.86 30.8899C48.17 29.8499 49.41 28.7199 50.62 27.5599C49.35 29.8799 47.86 32.0499 45.89 33.8499C43.94 35.6599 41.5 37.0799 38.59 38.0299C38.96 37.5399 40.27 37.1399 40.47 36.5499C41.82 35.5699 43.52 34.5899 44.22 33.2099C44.98 32.3799 45.68 31.4999 46.85 30.8899H46.86Z" fill="#9FBB94"/>
<path id="Vector_18" d="M32.4 37.04C32.3 37.31 31.82 37.58 31.42 37.85C31.02 38.13 30.67 38.4 30.69 38.55C30.11 38.81 30.22 38.59 29.89 38.76C30.46 38.21 30.34 37.92 31.23 37.03C32.25 36.13 32.48 36.53 32.4 37.04Z" fill="#95B589"/>
<path id="Vector_19" d="M31.2 37.12C30.59 37.83 30.92 37.98 29.89 38.77C29.83 38.79 29.77 38.8 29.71 38.82C29.63 38.65 30.3 37.77 31.14 37.02C31.22 36.96 31.26 36.96 31.25 37.01C31.25 37.06 31.23 37.09 31.2 37.12Z" fill="#8CAF80"/>
<path id="Vector_20" d="M60.65 8.90999C60.53 8.82999 60.4 8.74999 60.26 8.68999C60.49 7.48999 60.06 6.04999 61.4 5.26999L61.56 5.23999C61.89 6.64999 61.09 7.72999 60.65 8.90999Z" fill="#B4C9AA"/>
<path id="Vector_21" d="M40.7 18.7199C41.24 18.0199 41.22 17.0599 41.43 16.2299C41.87 15.4099 42.22 14.6099 42.95 13.9799C44.23 12.8599 44.46 11.0599 45.06 9.4699C45.89 8.6699 46.25 7.6399 46.49 6.5299C46.84 4.9499 47.29 3.3999 48.86 2.3899C49.19 2.1999 49.56 2.2399 49.94 2.3899C50.16 2.5199 50.31 2.6999 50.41 2.8999C50.43 3.8499 49.91 4.5499 49.25 5.1799C48.88 8.2899 47.49 11.0599 46.61 13.9499L46.54 14.2399C46.29 15.9999 46 17.7899 45.19 19.3999C45.21 19.5999 45.2 19.7999 45.18 19.9999C45.12 20.1999 44.98 20.3199 44.77 20.3499C43.99 21.4199 43.05 22.3699 42.56 23.6399C42.58 24.1099 42.32 24.4399 42 24.7299C40.89 23.9299 40.09 21.4799 41.02 20.2799C41.81 19.3199 40.71 19.1899 40.71 18.6999L40.7 18.7199Z" fill="#98B78C"/>
<path id="Vector_22" d="M61.4 5.26995C61.05 6.40995 60.66 7.54995 60.26 8.68995C59.53 7.99995 60.54 7.26995 59.86 6.57995C58.69 5.05995 59.7 3.74995 59.61 2.33995C59.96 1.02995 59.82 -0.280054 59.26 -1.66005C58.42 -3.73005 58.54 -5.81005 58.55 -7.85005C58.53 -8.06005 58.55 -8.27005 58.59 -8.47005C59.05 -9.62005 58.86 -10.8101 58.79 -11.9801C58.68 -13.4301 59.51 -14.9401 58.99 -16.3101C58.94 -17.5701 58.87 -18.7601 59.27 -20.0101C59.89 -21.0801 60.19 -22.2301 60.94 -23.2701L62.09 -25.1801C62.04 -24.9001 62.01 -24.6101 61.99 -24.3201C62.07 -23.9701 61.92 -23.4401 61.79 -22.9001C60.67 -18.5301 61.21 -13.7301 60.89 -8.77005C60.88 -7.47005 60.65 -6.16005 61.31 -4.85005C61.97 -3.85005 61.73 -2.89005 61.5 -1.94005C61.5 0.459946 61.48 2.85995 61.4 5.27995V5.26995Z" fill="#8EB183"/>
<path id="Vector_23" d="M36.93 36.4599C35.54 36.3899 35.2 35.9499 35.28 34.9099C35.28 34.6099 36.2 34.0799 35.71 33.9199C35.27 33.7699 34.98 34.3299 34.68 34.6899C34.5 34.9099 34.32 35.1199 34.1 35.3299C33.83 35.5699 33.56 35.7399 33.29 35.8699C32.47 36.1599 32.31 35.9599 32.43 35.2299C32.92 34.1999 33.24 33.0399 32.61 32.5799C32.93 31.6099 33.46 30.6899 33.7 29.6599C33.9 28.7399 34.37 28.4499 34.92 28.8399C35.19 28.6099 34.79 30.0799 35.41 29.0099C35.62 28.6399 35.86 28.2899 36.05 27.8999C36.21 27.6499 36.39 27.4299 36.65 27.3399H36.66C36.86 27.2999 37.03 27.3599 37.17 27.4999C37.89 28.9099 36.44 29.6699 35.93 30.7199C35.8 31.1299 35.61 31.6999 35.94 31.7099C37.83 31.7899 37.49 33.2599 36.54 34.7299C36.06 35.4699 37.22 35.7299 36.93 36.4699V36.4599Z" fill="#6B9E60"/>
<path id="Vector_24" d="M35.94 30.72C35.88 29.62 37.55 28.81 36.95 27.57C37.26 26.93 37.65 26.71 38.27 26.82C38.67 26.89 38.98 26.43 39.07 26.05C39.2 25.46 38.44 25.82 38.36 25.37C38.65 24.87 38.65 24.16 39.26 23.92C40.36 23.43 39.75 22.66 39.45 21.93C40.01 20.92 39.94 19.59 40.71 18.72C41.42 19.12 41.8 19.35 41.44 20.38C40.97 21.72 40.98 23.34 41.79 24.73C41.93 25.09 41.5 25.35 41.61 25.7C41.42 26.07 42.31 26.24 41.67 26.76C40.85 27.42 39.75 27.82 39.81 29.28C39.81 29.71 38.2 30.32 37.89 30.09C37.08 29.5 36.55 30.43 35.94 30.72Z" fill="#8DB182"/>
<path id="Vector_25" d="M46.61 13.96L48.03 14.67C49.96 13.95 51.09 14.97 51.83 16.58C52.2 17.77 54.36 16.68 54.35 18.22C54.3 19.81 52.54 19.39 51.63 19.93C50.69 20.46 49.52 20.57 48.83 21.38C47.72 20.84 47.75 19.58 46.9 18.85C46.7 18.39 46.56 17.84 47.04 17.64C48.62 16.98 47.78 16.2 46.86 15.43C46.48 14.93 46.11 14.43 46.62 13.95L46.61 13.96Z" fill="#6FA064"/>
<path id="Vector_26" d="M43 29.63L43.3 29.87C43.32 30.22 43.1101 30.57 43.5301 30.87C44.6401 31.66 44.51 32.74 43.16 33.77C42.99 33.92 42.79 34.01 42.56 34.05C41.62 34.3 40.7001 34.5 39.8401 34.86C39.2301 35.15 38.57 36.13 38.06 35.8C37.63 35.53 38.19 34.52 38.86 33.85C39.36 33.41 39.9 32.67 40.52 32.46C41.49 32.11 41.71 31.94 41.44 31.16C41.1 30.21 42.54 30.21 42.99 29.62L43 29.63Z" fill="#8DB082"/>
<path id="Vector_27" d="M57.98 5.34992L56.97 4.95992C55.67 5.13992 54.26 4.97992 53 5.32992C50.22 5.78992 50.12 5.66992 50.27 2.76992H50.21C50.11 2.54992 50.13 2.36992 50.27 2.20992C51.08 1.67992 52.08 1.46992 53.04 1.17992C54.3 0.859924 55.32 1.62992 56.43 2.05992C56.89 2.26992 57.33 2.51992 57.77 2.77992C58.44 3.18992 59.08 3.66992 59.26 4.37992C59.48 5.25992 59.32 5.91992 58 5.35992L57.98 5.34992Z" fill="#629758"/>
<path id="Vector_28" d="M50.26 2.7799C51.09 3.5099 49.8 6.3899 52.95 4.7999C53.77 5.1399 53.65 5.4799 53.13 5.8199C52.61 7.3899 54.19 7.9699 55.29 8.0399C56.74 8.1299 57.53 8.6899 58.26 9.6499C56.65 11.0899 55.59 9.2699 54.31 8.7099C53.56 8.7199 52.84 8.5199 52.11 8.2799C50.94 7.3799 51.07 5.6799 49.25 5.1899C48.74 4.0399 50.07 3.6399 50.26 2.7699V2.7799Z" fill="#74A369"/>
<path id="Vector_29" d="M52.11 8.27999C52.92 7.59999 53.64 7.93999 54.31 8.70999C54.53 9.83999 54.54 9.83999 55.92 11.36C56.03 11.48 55.96 11.82 55.85 11.96C54.86 13.18 51.09 12.7 50.26 11.31C50.11 11.06 50.08 10.73 50.13 10.46C50.15 10.36 50.53 10.27 50.74 10.3C52.91 10.65 52.97 10.6 52.06 8.70999C52 8.57999 52.09 8.41999 52.11 8.26999V8.27999Z" fill="#75A36A"/>
<path id="Vector_30" d="M42.57 34.0499L42.9601 33.7899C43.5601 33.1699 44.09 32.4099 44.72 33.4199C43.78 34.7599 42.64 35.9499 40.48 36.5399C39.71 36.7999 38.83 37.0999 38.79 36.5899C38.76 36.2399 39.09 35.8399 39.98 35.4399C40.89 35.0699 41.71 34.5299 42.56 34.0399L42.57 34.0499Z" fill="#6C9F62"/>
<path id="Vector_31" d="M57.98 5.3499C59.32 4.6299 59.16 4.2399 57.09 3.0599C58.35 1.2499 58.74 1.1399 60.15 2.3399C60.55 3.8299 59.66 5.0999 59.86 6.5699C59.66 6.9599 59.42 7.4899 58.87 7.2999C57.79 6.9199 58.27 6.0099 57.97 5.3499H57.98Z" fill="#6B9F61"/>
<path id="Vector_32" d="M47.02 18.66C48.54 19.08 48.36 20.43 48.83 21.39L48.58 21.77C48.29 23.01 47.56 22.68 46.91 22.06C46.23 21.41 45.66 20.66 44.94 20.01C44.82 19.93 44.71 19.84 44.61 19.74C44.72 18.66 45.59 18.48 46.49 18.26C46.75 18.29 46.93 18.42 47.03 18.66H47.02Z" fill="#689D5E"/>
<path id="Vector_33" d="M51.83 16.5899C50.71 15.6899 49.66 14.5899 48.03 14.6799C48.43 13.9299 47.67 12.4799 49.42 12.5899C50.95 12.6799 51.05 13.8799 51.52 14.8099C51.83 15.4199 52.16 15.9699 51.83 16.5999V16.5899Z" fill="#71A166"/>
<path id="Vector_34" d="M44.94 20C45.9 20.21 46.66 20.72 47.1 21.59C47.52 22.42 48.02 22.31 48.57 21.76C48.96 22.32 48.96 22.87 48.55 23.4C47.35 23.87 46.33 23.46 45.35 22.89C44.94 22.09 45.82 21.08 44.76 20.36L44.93 19.99L44.94 20Z" fill="#6FA064"/>
<path id="Vector_35" d="M53.12 5.81995C53.24 5.47995 53.28 5.13995 52.94 4.79995C54.25 4.51995 55.57 4.39995 56.96 4.96995C55.77 5.43995 54.96 6.79995 53.12 5.81995Z" fill="#6A9E5F"/>
<path id="Vector_36" d="M45.35 22.8999C46.46 22.5699 47.45 23.3499 48.55 23.4099C48.42 23.8299 48.96 24.2599 48.49 24.6499C47.68 23.6599 45.45 25.0099 45.35 22.9099V22.8999Z" fill="#76A46B"/>
<path id="Vector_37" d="M41.6 25.6999C41.43 25.3399 41.58 25.0299 41.78 24.7299C42.04 24.3799 42.3 24.0199 42.55 23.6599C42.96 24.6699 42.18 25.1399 41.6 25.6999Z" fill="#92B386"/>
<path id="Vector_38" d="M49.2 2.36997C47.7 4.09997 47.08 6.12997 46.72 8.28997C46.6 9.03997 46.11 9.57997 45.06 9.46997C44.81 8.17997 45.22 7.17997 45.78 6.06997C46.99 3.68997 48.18 1.19997 48.75 -1.48003C49.31 -4.10003 50.9 -6.30003 52.34 -8.59003C52.72 -8.97003 53.19 -9.03003 53.7 -8.90003C54.35 -8.64003 54.57 -8.19003 54.42 -7.57003C53.56 -5.11003 52.14 -2.84003 51.75 -0.210031C51.68 0.289969 51.21 0.64997 50.83 1.00997C50.32 1.48997 49.68 1.85997 49.2 2.36997Z" fill="#8DB081"/>
<path id="Vector_39" d="M38.91 14.6599C39.55 12.8399 40.2 11.1699 40.61 9.16991C40.78 8.33991 41.12 8.04991 42.09 8.11991C41.75 10.7999 41.73 13.5699 39.31 14.9099L38.91 14.6599Z" fill="#7BA670"/>
<path id="Vector_40" d="M32.42 35.23C32.67 35.5 32.87 35.78 33.48 35.67C33.56 35.88 33.34 36.18 33.07 36.49L32.39 37.05C31.92 37.11 31.91 36.63 31.19 37.12C31.17 37.09 31.14 37.06 31.12 37.02C31.57 36.43 32.01 35.84 32.41 35.23H32.42Z" fill="#77A46C"/>
<path id="Vector_41" d="M34.14 35.0499C34.36 34.7199 34.58 34.3799 34.76 34.0299C35.01 33.5499 35.3101 33.2399 35.7801 33.1999C36.3101 33.1599 36.39 33.6299 36.41 33.9299C36.44 34.4399 35.58 34.4799 35.27 34.8999L34.44 35.3299C34.16 35.3899 34.05 35.3299 34.14 35.0399V35.0499Z" fill="#79A56E"/>
<path id="Vector_42" d="M34.14 35.0499L34.44 35.3399C34.24 35.9899 33.58 36.1599 33.07 36.4899C33.22 36.2299 33.36 35.9499 33.48 35.6699L34.14 35.0499Z" fill="#71A166"/>
<path id="Vector_43" d="M44.72 33.4299C44.11 32.9699 43.55 33.4199 42.96 33.7999C43.59 32.6499 44.07 31.3299 42.7 30.5199L43.3 29.8699C44.01 30.0799 44.8 29.7199 45.75 29.6599C45.28 30.6799 44.79 31.6799 46.86 30.8899C46.2 31.7799 45.49 32.6299 44.72 33.4299Z" fill="#7DA872"/>
<path id="Vector_44" d="M38.35 25.3799C38.88 25.5199 39.32 24.3599 39.92 25.1399C40.18 25.4799 39.96 25.8299 39.75 26.1099C39.3 26.7499 38.81 27.7099 38.04 27.2699C37.5 26.9599 37.3 27.4699 36.95 27.5699L36.67 27.3499C36.97 26.8599 37.56 26.5999 37.56 25.8799C37.91 25.9199 38.15 25.6799 38.35 25.3799Z" fill="#7DA772"/>
<path id="Vector_45" d="M39.44 21.9299C39.86 22.3599 40.7 22.5299 40.48 23.3899C40.31 24.0599 39.85 24.2799 39.25 23.9199C39.33 23.2599 39.4 22.5999 39.44 21.9299Z" fill="#7DA872"/>
<path id="Vector_46" d="M35.04 29.35C34.53 28.94 34.01 28.79 33.87 30.06C33.72 31.23 33.07 32.02 32.58 32.95C32.15 33.58 31.78 34.06 31.71 33.33C32.82 30.8 33.82 28.26 34.75 25.76C35.34 26.41 35.73 27.29 36.66 27.34L36.21 28.09C36.1 28.95 35.47 29.01 35.05 29.34L35.04 29.35Z" fill="#85AC7A"/>
<path id="Vector_47" d="M31.71 33.33C31.9 33.59 32.28 33.03 32.58 32.95C33.35 32.36 34.27 31.93 33.15 33.83C32.88 34.3 32.85 34.7599 32.43 35.2299C32.47 34.6699 32.27 34.59 32.03 34.79C31.79 34.99 31.5 35.46 31.24 35.9C30.72 36.81 30.16 37.5499 29.6 38.4399C29.6 38.2399 29.85 37.6 30.26 36.79C30.69 35.79 31.22 34.7699 31.51 33.7299L31.71 33.33Z" fill="#75A36A"/>
<path id="Vector_48" d="M31.51 33.72C31.63 34.78 30.8 35.72 30.26 36.78C30.57 35.85 30.68 34.75 31.51 33.72Z" fill="#85AC7A"/>
<path id="Vector_49" d="M46.59 18.4L44.61 19.73C45.54 17.84 45.03 15.5 46.62 13.95L47.17 15.2C48.1 16.54 46.83 17.34 46.6 18.39L46.59 18.4Z" fill="#7DA772"/>
<path id="Vector_50" d="M49.2 2.36995C48.66 1.28995 49.68 1.22995 50.39 0.949951C51.44 1.53995 50.95 1.96995 50.39 2.37995L50.19 2.76995L49.19 2.36995H49.2Z" fill="#95B58A"/>
<path id="Vector_51" d="M55.24 -8.0001C56.21 -8.6701 56.43 -9.7401 56.85 -10.7001C57.16 -11.3401 57.41 -12.0601 58.35 -11.8301C58.52 -11.7401 58.65 -11.6001 58.75 -11.4301C59.01 -10.4901 58.87 -9.5201 58.94 -8.5501L58.87 -8.3401L58.81 -8.1301C58.7 -5.1601 59.05 -2.0601 57.78 0.739897C57.46 1.4399 57.11 2.0499 56.24 2.2899C55.1 2.5799 54.27 1.0499 53.09 1.5499C52.02 -0.000103951 53.51 -0.890103 53.93 -2.0201C54.22 -2.7801 54.48 -3.3501 54.13 -4.2501C53.81 -5.0501 52.64 -6.5601 55.07 -6.5501C55.14 -6.5501 54.68 -7.5501 55.25 -7.9901L55.24 -8.0001Z" fill="#6A9E60"/>
<path id="Vector_52" d="M56.23 2.29C57.14 -0.110004 58.48 -2.39 58.17 -5.14C58.05 -6.24 58.49 -7.16 58.79 -8.13C59.7 -6.24 58.8 -4.22 59.64 -2.25C60.3 -0.730005 61.14 0.849995 60.15 2.34999C58.47 1.05999 58.18 2.95 57.09 3.06999L56.23 2.29Z" fill="#7BA670"/>
<path id="Vector_53" d="M35.04 29.35C35.41 28.92 35.81 28.51 36.2 28.1C36.23 29.3 35.29 29.44 34.77 29.99C34.66 30.1 34.62 29.82 34.77 29.63C34.85 29.52 34.95 29.45 35.04 29.35Z" fill="#88AD7D"/>
<path id="Vector_54" d="M46.59 18.4C46.33 17.2 47.23 16.34 47.16 15.21C50.59 16.83 47.93 17.68 47.02 18.66L46.59 18.4Z" fill="#74A369"/>
<path id="Vector_55" d="M55.24 -8C54.74 -7.5 56.83 -5.92 54.38 -6.19C54.36 -6.19 54.14 -5.61 54.26 -5.43C55.95 -2.95 54.11 -1.21 53.15 0.69C53.03 0.929999 53.1 1.26 53.08 1.55C52.29 2.01 51.43 2.34 50.4 2.38C50.54 1.92 50.87 1.48 50.4 0.95C50.95 -1.29 52.28 -3.27 52.8 -5.54C52.96 -6.23 53.13 -7.09 53.98 -7.52L55.24 -8Z" fill="#7BA670"/>
</g>
<g id="Group_4">
<path id="Vector_56" d="M71.29 3.80995C71.71 1.51995 70.56 0.879948 69.09 -1.52005C69.13 -2.16005 69.29 -2.77005 69.16 -3.61005C68.77 -5.73005 68.73 -7.90005 68.87 -10.0601C69 -12.2301 69.26 -14.3901 69.28 -16.6901C69.28 -17.6601 69.48 -18.6401 70.35 -19.1701C70.72 -19.2201 71.07 -19.0901 71.39 -18.8501C72.59 -17.4901 72.14 -16.1801 72.1 -14.8601C71.53 -11.4901 70.92 -8.20005 70.65 -4.88005C70.54 -3.61005 70.62 -2.27005 71.43 -1.86005C71.86 -1.50005 71.66 -0.780052 71.52 -0.0800514C71.75 -0.0500507 71.92 -0.760052 72.14 -0.650051C72.22 -0.62005 72.27 -0.540052 72.3 -0.420052C72.35 0.349949 72.14 1.30995 71.88 2.20995C71.71 2.84995 71.43 3.49995 71.28 3.81995L71.29 3.80995Z" fill="#D4E5CC"/>
<path id="Vector_57" d="M71.29 3.80995C71.57 2.97995 71.81 2.27995 71.93 1.59995C72.07 0.919946 72.03 0.249946 72.22 -0.460054C72.31 -0.700054 72.42 -0.860054 72.56 -0.930054C72.71 -0.930054 72.8 -0.750054 72.97 -0.810054C73.4 -1.06005 73.48 -0.730054 73.3 -0.150054C73.18 0.209946 73 0.679946 73.17 0.749946C72.94 1.22995 72.66 1.71995 72.39 2.21995C72 2.95995 71.54 3.89995 71.14 4.44995C70.86 4.91995 71.21 4.38995 71.29 3.80995Z" fill="#C3DCB9"/>
<path id="Vector_58" d="M74.72 -3.59009C74.75 -3.35009 74.8 -3.13009 74.76 -2.87009C74.56 -1.47009 74.72 -1.32009 76.18 -2.58009C76.37 -2.74009 76.61 -2.81009 76.84 -2.92009C76.22 -2.31009 75.6 -1.71009 75.02 -1.14009C74.45 -0.560088 73.87 -0.0200882 73.36 0.439912C73.43 -0.360088 73.78 -1.55009 73.86 -2.56009C74.01 -3.07009 74.24 -3.45009 74.71 -3.58009L74.72 -3.59009Z" fill="#A4CC98"/>
<path id="Vector_59" d="M74 -2.5801C74.31 -1.7801 73.77 -0.620099 73.37 0.429901C73.31 0.539901 73.25 0.649901 73.18 0.749901C72.21 1.8999 73.32 -0.0300994 73.02 0.0899005C73.52 -1.2501 72.83 -0.260099 72.61 -0.0700994C72.71 -0.600099 72.77 -1.1401 73.01 -1.7101C73.19 -2.0801 73.41 -2.3901 73.69 -2.6301C73.84 -2.7401 73.95 -2.7201 74.01 -2.5801H74Z" fill="#B2D3A6"/>
<path id="Vector_60" d="M71.48 -1.70007C71.92 -1.57007 72.09 -0.980073 72.22 -0.460073C72.06 -0.460073 71.95 -0.370073 71.84 0.0399268C71.7 0.589927 71.57 1.02993 71.38 0.629927C71.25 0.369927 71.04 0.0399268 71.35 -0.510073C71.61 -0.930073 71.52 -1.30007 71.48 -1.70007Z" fill="#C7DEBD"/>
</g>
<g id="Group_5">
<path id="Vector_61" d="M9.14002 45.2299C8.82002 45.3799 8.46002 45.4899 8.14002 45.4399C7.05002 45.3099 7.32999 44.6399 6.85999 44.1599C6.52999 43.4699 5.83998 42.9499 6.16998 41.5399C6.26998 41.1599 6.08002 40.3399 5.27002 40.3299C4.70002 40.3299 4.56002 39.7999 4.71002 39.0799C4.89002 38.6199 5.20002 38.0899 5.58002 38.0999C6.76002 38.1399 7.43001 37.6399 7.88001 36.9199C8.33001 36.1999 8.54002 35.2599 9.02002 34.5799C9.32002 34.0299 9.7 33.5299 9.56 32.7899C9.86 31.5999 10.28 30.4999 11.7 30.1699C13.08 30.7099 12.63 31.6299 12.89 32.3799C13.46 33.4099 14.14 33.7099 15.07 33.1499C15.15 32.6899 15.07 32.1999 15.11 31.7299C15.15 31.5699 15.22 31.4199 15.31 31.2899C15.93 30.6899 16.92 30.5699 17.9 30.5099C19.29 30.4199 20.33 30.3399 18.26 28.8199C18.07 28.6799 18 28.4399 17.91 28.2299C17.86 28.0899 17.83 27.9599 17.79 27.8199C16.84 24.9399 16.66 24.8099 14.53 25.9099C14 25.7299 13.62 25.4099 13.35 24.9499C13.13 24.4299 13.03 23.8799 13.28 23.5699C14.64 21.9199 15.12 19.6799 16.52 18.0599C19.17 18.4899 18.76 20.2799 19.49 21.5699C20.36 23.8699 20.26 23.9899 17.88 23.9099C18.93 24.9599 20.22 24.7399 21.29 25.5099C21.52 25.7799 21.59 25.2999 21.43 25.4699C20.81 26.1399 20.41 24.1899 20.79 22.3999C22 21.9099 22.45 23.8399 23.6 23.8299C22.79 23.0599 21.8 22.6199 21.01 21.9499C19.99 21.0999 18.82 20.0799 20.34 19.5399C21.74 20.3099 22.82 19.8099 24.1 20.1599C24.44 20.2999 24.74 20.5099 24.99 20.7899C25.49 21.3699 25.28 22.3399 26.54 22.5099C27.5 23.2599 26.89 23.6499 26.85 24.1799C26.87 24.3499 26.89 24.5199 26.93 24.6999C24.87 28.3899 23.06 32.1899 19.73 35.0099C19.22 35.0999 18.43 35.7499 18.52 34.5099C18.55 33.9399 18.94 33.4399 19.22 32.8899C18.73 34.9899 16.4 35.3099 14.45 36.0699C13.22 36.5399 12.45 37.5299 11.56 38.3699C11.29 38.6199 10.72 38.8199 10.76 39.0699C10.92 40.1899 9.97002 40.7999 9.14002 41.4899C8.71002 41.8499 8.44 42.2799 8.56 42.7399C9.55 42.2599 10.45 41.4199 11.76 41.8099C11.75 42.4699 10.88 42.7499 10.26 43.1499C9.28001 43.7699 9.93998 43.8099 10.54 43.9299C10.93 44.4899 9.63003 44.8199 9.15003 45.2399L9.14002 45.2299Z" fill="#8DC282"/>
<path id="Vector_62" d="M18.2 3.19988C19.54 2.23988 20.94 1.34988 22.43 0.519877C23.78 -0.430123 25.53 -1.01012 27.45 -1.37012C27.95 -1.42012 28.44 -1.47012 28.93 -1.58012C31.13 -1.98012 31.41 -1.89012 30.63 -0.670123C30.3 -0.0801227 31.12 -0.280123 31.18 -0.000122547C30.82 1.34988 28.91 1.82988 28.21 3.00988C27.01 4.52988 25.93 6.12988 23.86 6.93988C23.21 7.17988 22.66 7.51988 22.39 8.09988C18.59 11.0199 16.89 15.5199 13.66 18.8899C13.14 19.4299 13.11 20.2399 12.9 20.9599C12.48 23.5399 10.27 24.7099 8.71997 26.4099C7.47997 26.9899 6.64002 26.5499 6.02002 24.9699C7.43002 22.9899 8.86998 21.0399 9.22998 18.3399C9.20998 17.6099 9.42002 16.9999 9.83002 16.5099C11.52 13.8699 12.64 10.8699 14.49 8.35988C15.76 6.62988 16.83 4.78988 18.22 3.17988L18.2 3.19988Z" fill="#7EBC72"/>
<path id="Vector_63" d="M38.11 -3.97009C37.25 -3.33009 37 -2.66009 36.92 -1.87009C36.84 -1.08009 36.96 -0.150093 37 1.14991C36.65 1.57991 36.25 1.94991 35.99 2.64991C35.37 4.41991 34.61 6.09991 33.82 7.73991C33.04 9.38991 32.25 11.0199 31.83 12.9099C31.66 13.6999 31.34 14.4399 30.46 14.6199C30.11 14.5499 29.8 14.3499 29.54 14.0499C28.61 12.5399 29.27 11.5399 29.6 10.4299C30.87 7.72991 32.53 5.29991 34.17 2.84991C34.8 1.90991 35.37 0.859907 34.9 0.0999074C34.73 -0.410093 35.27 -0.850093 35.73 -1.29009C35.56 -1.45009 35.05 -1.01009 34.93 -1.22009C34.88 -1.29009 34.88 -1.38009 34.93 -1.49009C35.28 -2.12009 36.02 -2.69009 36.71 -3.20009C37.22 -3.56009 37.81 -3.83009 38.12 -3.95009L38.11 -3.97009Z" fill="#D4E5CC"/>
<path id="Vector_64" d="M30.42 14.4999C31.12 13.1499 31.62 11.6599 32.18 10.1999C32.73 8.7399 33.34 7.3199 34.14 6.0199C34.91 4.7199 35.38 3.2599 36.01 1.8799C36.35 1.1299 36.67 0.779902 37.01 1.1499C37.01 2.7999 36.49 4.4299 35.95 5.8799C33.91 11.7699 31.28 17.0799 28.26 22.0799L27.89 21.9199C27.53 19.6799 28.24 17.9499 28.88 16.1799C29.63 15.8299 29.4 14.5699 30.43 14.4899L30.42 14.4999Z" fill="#C1DBB7"/>
<path id="Vector_65" d="M18.2 3.19995C17.85 5.78995 15.7 7.52995 14.47 9.74995C13.36 11.82 11.85 13.69 11.27 16.12C11.18 16.5 10.63 16.66 10.29 16.92C9.22998 16.79 9.32997 15.82 8.71997 15.36C9.56997 12.26 11.44 9.79995 13.32 7.39995C14.58 5.73995 15.65 3.88995 18.2 3.20995V3.19995Z" fill="#A8CE9C"/>
<path id="Vector_66" d="M7.21997 43.9999C7.58997 44.5199 7.89001 44.9999 8.14001 45.4399C4.64001 46.0699 3.13998 46.1699 2.22998 46.3399C1.79998 46.3399 2.78999 45.3999 3.11999 44.8699C3.26999 44.6699 3.42001 44.4699 3.58001 44.2899C3.96001 43.8899 4.33999 43.4799 4.67999 43.0399C4.92999 42.7999 5.19002 42.6499 5.46002 42.6499C5.95002 43.2299 6.47997 43.6599 7.21997 43.9899V43.9999Z" fill="#7DBB71"/>
<path id="Vector_67" d="M11.19 38.1299C11.62 37.2199 12.79 36.8299 13.17 35.7599C13.35 35.1699 15.17 35.1999 16.29 34.9999C18.02 34.7099 17.78 33.0099 18.93 32.3099C19.26 32.1199 19.39 31.4499 20.13 32.0899C20.66 32.5499 20.37 32.9099 20.05 33.2299C19.6 33.6799 19.04 34.1299 18.89 34.7099C18.77 35.1699 19.44 34.8299 19.73 35.0099C19.49 35.9299 17.61 35.7799 17.83 36.9999C17.23 37.8299 16.56 38.6299 15.71 39.3199C14.69 39.6099 13.59 40.6999 12.93 38.9199C12.78 38.5499 11.89 38.8399 11.45 38.5399C11.3 38.4299 11.21 38.2899 11.18 38.1299H11.19Z" fill="#9FCA93"/>
<path id="Vector_68" d="M6.3 24.8099C6.65 25.9699 7.28 26.46 8.36 26.24C8.97 27.27 8.61 27.97 8.3 28.69C7.83 29.45 7.61 30.36 7.42 31.28C7.24 31.87 7.33 32.56 7.11 33.13C6.79 33.61 6.65999 34.22 6.34999 34.72C6.09999 34.99 5.82003 35.1299 5.45003 34.9199C4.94003 34.2199 5.08999 33.1599 4.09999 32.5499C3.47999 32.1599 3.72001 31.3 3.81001 30.65C3.98001 29.2899 4.78001 28.23 4.50001 26.66L4.87001 25.58C5.53001 25.51 5.20002 24.5 5.88002 24.45C6.09002 24.49 6.24002 24.62 6.32002 24.83L6.3 24.8099Z" fill="#8BC17F"/>
<path id="Vector_69" d="M1.42999 46.6999C0.819994 47.4099 0.849974 47.9998 0.909974 47.3898C0.969974 46.8098 0.870011 45.2799 1.01001 43.7399C1.33001 40.5899 1.87001 37.5399 2.57001 34.5799C2.73001 34.5699 2.86001 34.6598 2.95001 34.8498C3.06001 37.2998 2.31999 39.3398 1.85999 41.5298C1.81999 41.6998 1.76997 41.8599 1.71997 42.0199C1.33997 42.9999 1.43 43.9898 1.37 44.8898C1.4 45.0598 1.25 45.8098 1.5 44.9998C1.72 44.3398 1.82002 43.5799 2.14002 42.9499C2.49002 42.2899 2.84998 42.1099 2.91998 42.8799C2.93998 42.9999 2.93999 43.1398 2.92999 43.2698C2.83999 43.9499 2.48001 44.5698 2.13001 45.2098C1.74001 45.7798 1.65 46.2599 1.44 46.6999H1.42999Z" fill="#9ECA92"/>
<path id="Vector_70" d="M5.90997 24.5399C5.48997 24.8099 6.32998 26.3899 4.84998 25.5699C5.00998 21.5099 6.58997 18.2299 8.71997 15.3599C10.65 14.8699 9.08998 16.8799 10.29 16.9199C9.93998 17.4499 9.62999 17.9899 9.73999 18.7599C8.63999 19.1899 8.48999 20.3399 8.04999 21.2599C7.48999 22.4699 7.13998 23.8399 5.91998 24.5399H5.90997Z" fill="#A5CD99"/>
<path id="Vector_71" d="M2.83002 34.7299L2.57001 34.5699C3.10001 31.8799 3.72998 29.2299 4.47998 26.6399C5.36998 28.4899 3.90001 29.3999 4.07001 30.9699C4.12001 31.4699 3.76 32.2999 4.31 32.3399C6.43 32.5399 5.32 33.9199 5.5 34.7799C5.94 35.4299 5.61002 35.7899 5.21002 36.1399C5.08002 36.2299 4.93998 36.2999 4.78998 36.3399C3.82998 36.3999 3.27002 35.8399 2.83002 34.7399V34.7299Z" fill="#A7CE9B"/>
<path id="Vector_72" d="M14.95 39.3799C15.95 38.6099 16.9 37.7999 17.84 36.9999C17 38.7399 16.04 40.3699 14.66 41.7599C13.97 42.4599 13.19 43.0999 12.25 43.6699C11.35 44.2599 10.28 44.7599 9.14001 45.2299C9.34001 44.7999 10.4 44.4299 10.43 43.9399C11.36 43.0699 12.7 42.3099 13.02 41.1699C13.54 40.5099 14 39.7999 14.95 39.3799Z" fill="#AFD1A3"/>
<path id="Vector_73" d="M30.95 -0.0800719C30.49 0.189928 30 0.399928 29.63 0.0599279C29.45 -0.100072 29.52 -0.380072 29.85 -0.540072C30.36 -0.810072 31.1 -1.09007 30.75 -1.42007C30.45 -1.71007 29.61 -1.53007 28.91 -1.35007C28.54 -1.26007 28.11 -1.31007 27.7 -1.30007C27.7 -1.44007 27.84 -1.50007 28.07 -1.49007C28.58 -1.76007 29.16 -1.91007 29.8 -1.95007C30.15 -1.97007 30.49 -2.02007 30.83 -2.06007C32.64 -2.27007 32.85 -2.10007 32.1 -1.03007C31.94 -0.790072 31.73 -0.540072 31.48 -0.300072C31.33 -0.170072 31.16 -0.0900719 30.95 -0.0700719V-0.0800719Z" fill="#90C385"/>
<path id="Vector_74" d="M3.29999 44.8499C3.27999 45.0899 2.93997 45.3699 2.65997 45.6499C2.37997 45.9299 2.15998 46.2099 2.22998 46.3399C1.79998 46.6399 1.82002 46.4399 1.58002 46.6199C1.91002 46.0799 1.72 45.8399 2.25 44.9599C2.91 44.0699 3.23 44.3999 3.31 44.8499H3.29999Z" fill="#A5CD99"/>
<path id="Vector_75" d="M28.07 -1.50012L27.7 -1.31012C25.9 -0.750122 24.16 -0.120122 22.43 0.519878C23.59 -0.920122 25.63 -1.50012 28.07 -1.50012Z" fill="#99C78D"/>
<path id="Vector_76" d="M2.23997 45.0499C1.90997 45.7399 2.24 45.8199 1.58 46.6299C1.53 46.6499 1.47999 46.6799 1.43999 46.6999C1.30999 46.5699 1.61996 45.7199 2.15996 44.9799C2.21996 44.9199 2.24999 44.9099 2.25999 44.9599C2.25999 44.9999 2.25998 45.0299 2.24998 45.0599L2.23997 45.0499Z" fill="#9DC991"/>
<path id="Vector_77" d="M26.94 24.6899C26.84 24.5899 26.73 24.4899 26.61 24.3899C26.98 23.5199 26.76 22.2199 28.1 22.0399L28.25 22.0699C28.34 23.2899 27.49 23.8899 26.94 24.6799V24.6899Z" fill="#C1DBB7"/>
<path id="Vector_78" d="M7.72998 28.4398C8.21998 27.8498 8.14998 26.9798 8.34998 26.2398C8.77998 25.5198 9.15997 24.7898 9.90997 24.3098C11.22 23.4698 11.61 21.9298 12.38 20.6698C13.26 20.1698 13.74 19.3798 14.12 18.4898C14.67 17.2298 15.35 16.0398 16.97 15.6698C17.31 15.6198 17.64 15.7598 17.98 16.0098C18.16 16.1898 18.28 16.3798 18.33 16.5898C18.2 17.3898 17.6 17.8098 16.9 18.1498C16.1 20.6498 14.45 22.6098 13.41 24.9498L13.32 25.1898C12.97 26.6798 12.69 28.1898 12.01 29.4998C12.04 29.6798 12.04 29.8598 12.03 30.0298C11.99 30.1998 11.86 30.2898 11.66 30.2898C10.99 31.1298 10.2 31.8899 9.87 32.9699C9.94 33.3799 9.72997 33.6498 9.46997 33.8898C8.31997 33.1498 7.27998 30.9198 8.09998 29.8998C8.78998 29.0998 7.73002 28.8998 7.71002 28.4498L7.72998 28.4398Z" fill="#A8CE9C"/>
<path id="Vector_79" d="M28.1 22.0499C27.61 22.8399 27.12 23.6199 26.61 24.3899C26.02 23.6099 27.05 23.3499 26.51 22.5799C25.64 20.9799 26.77 20.2699 26.9 19.0999C27.43 18.1699 27.51 17.0699 27.24 15.7699C26.84 13.8099 27.33 12.1699 27.75 10.5299C27.78 10.3599 27.84 10.1899 27.91 10.0399C28.56 9.27992 28.63 8.24992 28.82 7.28992C29.03 6.06992 30.11 5.17992 29.95 3.87992C30.19 2.84992 30.41 1.85992 31.07 1.01992C31.88 0.399917 32.43 -0.390083 33.36 -0.920083L34.87 -1.96008C34.75 -1.76008 34.65 -1.54008 34.56 -1.32008C34.55 -1.01008 34.28 -0.650083 34.03 -0.280083C31.95 2.73992 31.34 6.79992 30.07 10.6399C29.8 11.6799 29.34 12.6399 29.7 13.9299C30.12 14.9699 29.72 15.6399 29.35 16.3299L28.11 22.0499H28.1Z" fill="#9FCA93"/>
<path id="Vector_80" d="M7.21997 44C5.94997 44.02 5.52 43.6799 5.31 42.7799C5.23 42.5199 5.94001 42.01 5.45001 41.9C5.01001 41.8 4.88002 42.3 4.71002 42.64C4.61002 42.84 4.49999 43.04 4.35999 43.23C4.17999 43.45 3.98002 43.63 3.77002 43.77C3.11002 44.1 2.91 43.95 2.81 43.3C2.97 42.36 2.97002 41.32 2.27002 40.97C2.32002 40.09 2.58999 39.23 2.60999 38.31C2.60999 37.48 2.99002 37.1899 3.58002 37.5099C3.78002 37.2899 3.71001 38.62 4.07001 37.64C4.19001 37.3 4.34001 36.98 4.45001 36.63C4.56001 36.4 4.68997 36.2099 4.90997 36.1199H4.91998C5.09998 36.0799 5.26999 36.12 5.42999 36.25C6.35999 37.49 5.15998 38.1799 4.91998 39.1199C4.88998 39.4899 4.84002 39.99 5.15002 39.98C6.90002 39.98 6.90999 41.25 6.42999 42.56C6.17999 43.22 7.29999 43.3699 7.23999 44.0099L7.21997 44Z" fill="#7EBC72"/>
<path id="Vector_81" d="M4.90002 39.0999C4.77002 38.6299 5.00998 38.18 5.22998 37.74C5.43998 37.3 5.61002 36.8499 5.21002 36.2999C5.38002 35.7199 5.72 35.53 6.32 35.63C6.7 35.69 6.92 35.29 6.94 34.95C6.97 34.43 6.30998 34.74 6.16998 34.34C6.37998 33.91 6.27 33.26 6.82 33.06C7.8 32.66 7.12002 31.95 6.77002 31.28C7.20002 30.4 7.04997 29.19 7.71997 28.45C8.41997 28.86 8.80002 29.11 8.52002 30C8.16002 31.17 8.34997 32.6099 9.28997 33.8699C9.45997 34.1899 9.1 34.3999 9.25 34.7099C9.12 35.0299 9.97997 35.2 9.46997 35.63C8.79997 36.17 7.84998 36.5099 8.16998 37.7799C8.24998 38.1499 6.88999 38.6899 6.55999 38.5C5.68999 38 5.40002 38.83 4.90002 39.11V39.0999Z" fill="#9ECA92"/>
<path id="Vector_82" d="M13.42 24.95L14.72 25.86C16.58 25.68 17.55 26.83 18.19 28.32C18.52 29.36 20.51 29.0199 20.5 30.24C20.47 31.47 18.87 30.7299 18.04 30.9699C17.21 31.2099 16.13 31.08 15.55 31.66C14.48 31.05 14.43 29.99 13.61 29.24C13.41 28.81 13.26 28.3099 13.71 28.2199C15.19 27.9299 14.41 27.13 13.57 26.28C13.22 25.77 12.91 25.26 13.42 24.95Z" fill="#82BE77"/>
<path id="Vector_83" d="M11.19 38.1299L11.51 38.3399C11.59 38.6399 11.47 38.9299 11.91 39.1999C13.08 39.9199 13.16 40.7799 12.18 41.6199C12.06 41.7399 11.9 41.8099 11.7 41.8499C10.92 42.0599 10.1 42.2099 9.43001 42.5399C8.96001 42.7999 8.61002 43.6499 8.07002 43.3999C7.61002 43.1899 7.85001 42.2999 8.31001 41.7199C8.65001 41.3299 9.00001 40.6999 9.50001 40.5099C10.31 40.2199 10.47 40.0799 10.07 39.4099C9.57002 38.5899 10.9 38.6199 11.2 38.1399L11.19 38.1299Z" fill="#9ECA92"/>
<path id="Vector_84" d="M24.95 20.9899L24.07 20.3499C22.85 20.0799 21.57 19.4999 20.35 19.3999C17.72 18.9299 17.61 18.7999 18.21 16.4399L18.15 16.4099C18.09 16.1999 18.14 16.0599 18.3 15.9699C19.13 15.7799 20.1 15.9299 21.03 15.9999C22.25 16.1399 23.06 17.1199 24.01 17.8299C24.4 18.1499 24.77 18.4999 25.12 18.8499C25.67 19.3999 26.19 19.9999 26.24 20.6299C26.31 21.4099 26.07 21.8799 24.94 20.9999L24.95 20.9899Z" fill="#74B269"/>
<path id="Vector_85" d="M18.22 16.4299C18.86 17.2999 17.24 19.2899 20.4 18.9399C21.11 19.4799 20.95 19.7199 20.41 19.8299C19.71 20.9699 21.1 21.9099 22.11 22.3099C23.43 22.8299 24.09 23.5299 24.65 24.5299C23.01 25.1899 22.23 23.4099 21.12 22.5699C20.43 22.3499 19.78 21.9799 19.14 21.5699C18.17 20.4799 18.52 19.1099 16.91 18.1599C16.6 17.0399 17.91 17.0999 18.22 16.4399V16.4299Z" fill="#87BF7B"/>
<path id="Vector_86" d="M19.14 21.5599C19.98 21.2299 20.59 21.7299 21.12 22.5599C21.19 23.5499 21.2 23.5499 22.31 25.1899C22.4 25.3199 22.31 25.5699 22.19 25.6499C21.17 26.3299 17.72 24.9399 17.07 23.5599C16.95 23.3099 16.96 23.0199 17.03 22.8099C17.06 22.7299 17.42 22.7599 17.62 22.8499C19.61 23.7399 19.65 23.7299 19.04 21.8999C19 21.7799 19.11 21.6699 19.14 21.5499V21.5599Z" fill="#88C07C"/>
<path id="Vector_87" d="M11.7 41.8399L12 41.6299C12.4 41.1199 12.72 40.4999 13.51 41.3699C13.23 41.9099 12.91 42.4199 12.43 42.8599C11.94 43.2899 11.29 43.6499 10.43 43.9399C9.80999 44.1699 9.09999 44.4599 8.92999 44.0299C8.80999 43.7399 9.00001 43.3799 9.70001 43.0299C10.41 42.6899 11.05 42.2499 11.7 41.8499V41.8399Z" fill="#80BD74"/>
<path id="Vector_88" d="M24.95 20.9899C26.28 20.8399 26.2 20.4899 24.48 18.8499C25.91 17.7999 26.3 17.8499 27.4 19.2899C27.54 20.6199 26.53 21.3299 26.52 22.5699C26.29 22.8099 26 23.1599 25.52 22.8299C24.58 22.1799 25.14 21.5999 24.96 20.9799L24.95 20.9899Z" fill="#7FBC73"/>
<path id="Vector_89" d="M13.72 29.0899C15.15 29.6899 15.05 30.7999 15.55 31.6599L15.34 31.9399C15.18 32.9399 14.47 32.5799 13.81 31.9699C13.13 31.3399 12.53 30.6199 11.82 29.9799C11.71 29.8899 11.6 29.7999 11.49 29.7099C11.52 28.7699 12.36 28.7199 13.2 28.6599C13.45 28.7199 13.62 28.8599 13.72 29.0799V29.0899Z" fill="#7CBB70"/>
<path id="Vector_90" d="M18.19 28.3199C17.17 27.3299 16.25 26.1499 14.72 25.8599C15.13 25.3099 14.54 23.8799 16.17 24.4099C17.59 24.8699 17.58 25.8999 17.97 26.7799C18.23 27.3599 18.5 27.8899 18.19 28.3199Z" fill="#84BE78"/>
<path id="Vector_91" d="M11.83 29.9799C12.75 30.2699 13.48 30.8099 13.96 31.6099C14.42 32.3699 14.88 32.3299 15.34 31.9399C15.75 32.4699 15.8 32.9299 15.46 33.3199C14.39 33.5599 13.41 33.1199 12.44 32.5299C11.97 31.7999 12.72 31.0199 11.69 30.2799L11.83 29.9799Z" fill="#82BE77"/>
<path id="Vector_92" d="M20.41 19.84C20.57 19.6 20.66 19.33 20.4 18.95C21.65 19.13 22.88 19.45 24.08 20.36C22.92 20.36 21.98 21.21 20.41 19.84Z" fill="#7DBC72"/>
<path id="Vector_93" d="M12.44 32.5399C13.45 32.3599 14.43 33.1399 15.46 33.3299C15.37 33.6599 15.92 34.0899 15.53 34.3599C14.68 33.4199 12.75 34.3499 12.44 32.5499V32.5399Z" fill="#89C07D"/>
<path id="Vector_94" d="M9.26002 34.69C9.06002 34.37 9.15 34.11 9.3 33.85L9.89003 32.96C10.38 33.87 9.72003 34.23 9.26002 34.69Z" fill="#A2CB96"/>
<path id="Vector_95" d="M17.3 15.76C15.62 16.74 14.72 18.3 14.11 20.06C13.89 20.66 13.37 21.01 12.39 20.66C12.31 19.47 12.84 18.69 13.53 17.89C15.02 16.18 16.53 14.44 17.55 12.38C18.55 10.37 20.44 9.06997 22.23 7.69997C22.66 7.51997 23.1 7.62997 23.54 7.92997C24.08 8.36997 24.19 8.81997 23.92 9.26997C22.64 10.97 20.91 12.36 20.1 14.41C19.95 14.8 19.46 14.95 19.04 15.13C18.48 15.37 17.83 15.47 17.3 15.75V15.76Z" fill="#9EC991"/>
<path id="Vector_96" d="M23.51 9.16986C23.81 8.80986 23.72 8.42986 23.24 8.03986C22.98 7.52986 23.18 7.11986 23.27 6.69986C25.12 5.69986 26.68 4.47986 27.64 2.78986C28.34 2.74986 28.5 2.16986 28.98 1.88986C29.46 1.59986 29.91 1.45986 30.36 1.69986C30.94 2.00986 30.38 2.38986 30.3 2.77986C30.19 3.33986 28.97 3.69986 29.89 4.45986C30.19 5.20986 29.62 5.68986 29.32 6.24986C28.41 6.66986 27.33 6.92986 27 7.99986C26.61 8.73986 26.09 9.34986 25.13 9.52986C24.61 9.55986 24.08 9.74986 23.53 9.16986H23.51Z" fill="#9DC991"/>
<path id="Vector_97" d="M29.67 4.40987C29.4 4.59987 29.29 5.03987 28.64 4.85987C28.99 4.13987 29.36 3.46987 29.75 2.81987C29.93 2.53987 30.63 2.30987 30.12 1.93987C29.77 1.68987 29.32 1.86987 28.94 2.16987C28.57 2.45987 28.28 2.86987 27.63 2.78987C28.43 1.61987 30.35 1.20987 30.94 -0.0801318L31.27 -0.300132C31.65 -0.450132 32.03 -0.600132 32.4 -0.760132L32.58 -0.610132C32.27 -0.0401319 32.1 0.619868 31.27 1.07987C30.9 1.96987 30.79 2.96987 30.17 3.88987C30.17 4.18987 30.02 4.37987 29.68 4.40987H29.67Z" fill="#8EC282"/>
<path id="Vector_98" d="M5.90997 24.5399C6.60997 22.7899 7.49997 21.1599 8.15997 19.3999C8.43997 18.6599 8.81998 18.4699 9.72998 18.7599C9.01998 21.0999 8.70998 23.6799 6.28998 24.8099L5.90002 24.5399H5.90997Z" fill="#8DC282"/>
<path id="Vector_99" d="M23.27 6.68994C23.61 7.20994 23.61 7.65994 23.24 8.02994L22.23 7.70994C21.89 6.83994 22.75 6.88994 23.27 6.68994Z" fill="#8EC282"/>
<path id="Vector_100" d="M30.06 10.6399C30.64 6.01995 31.78 1.74995 34.56 -1.32005L34.97 -1.43005C35.14 -1.12005 34.98 -0.600054 34.94 -0.0700538C35.26 -0.130054 35.67 -0.470054 35.53 0.209946C35.39 0.999946 35.25 1.80995 34.73 2.62995C33.06 5.22995 31.38 7.80995 30.05 10.6399H30.06Z" fill="#C3DCB8"/>
<path id="Vector_101" d="M29.35 16.3299L29.7 13.9299L30.42 14.4999C29.78 14.8899 30.58 16.3799 29.35 16.3299Z" fill="#CAE0C1"/>
<path id="Vector_102" d="M2.79999 43.2799C3.09999 43.4899 3.36 43.7099 3.88 43.5599C4.01 43.7299 3.89999 44.0099 3.73999 44.2999L3.28998 44.8499C2.87998 44.9499 2.72998 44.5299 2.22998 45.0399L2.14001 44.9699C2.37001 44.4099 2.58998 43.8599 2.78998 43.2799H2.79999Z" fill="#8AC17E"/>
<path id="Vector_103" d="M4.31 42.9799C4.42 42.6799 4.52999 42.3699 4.60999 42.0499C4.71999 41.6199 4.91003 41.3299 5.34003 41.2699C5.81003 41.1999 5.99998 41.6099 6.09998 41.8699C6.25998 42.3099 5.48 42.3899 5.31 42.7699L4.66998 43.1999C4.42998 43.2699 4.31001 43.2199 4.32001 42.9799H4.31Z" fill="#8CC180"/>
<path id="Vector_104" d="M4.31 42.98L4.65997 43.2C4.65997 43.77 4.10999 43.98 3.73999 44.3C3.79999 44.06 3.85 43.81 3.88 43.56L4.31 42.97V42.98Z" fill="#84BE78"/>
<path id="Vector_105" d="M13.51 41.37C12.86 40.97 12.45 41.33 12 41.63C12.3 40.68 12.49 39.59 11.08 38.87L11.51 38.34C12.2 38.54 12.86 38.28 13.72 38.29C13.47 39.12 13.22 39.91 14.95 39.38C14.51 40.07 14.04 40.74 13.51 41.37Z" fill="#8FC384"/>
<path id="Vector_106" d="M6.16998 34.34C6.68998 34.47 6.92999 33.45 7.60999 34.15C7.90999 34.46 7.75003 34.76 7.59003 35.01C7.26003 35.56 6.96999 36.41 6.17999 36.03C5.61999 35.76 5.52002 36.21 5.21002 36.31L4.90997 36.12C5.09997 35.68 5.61 35.44 5.5 34.8C5.83 34.83 6.01998 34.62 6.16998 34.35V34.34Z" fill="#8FC384"/>
<path id="Vector_107" d="M6.78003 31.2799C7.22003 31.6899 8.02998 31.8699 7.91998 32.6199C7.83998 33.1999 7.44001 33.3899 6.82001 33.0499C6.82001 32.4599 6.80003 31.8699 6.78003 31.2699V31.2799Z" fill="#8FC384"/>
<path id="Vector_108" d="M3.78003 37.9399C3.23003 37.5999 2.70003 37.4999 2.84003 38.6399C2.96003 39.6799 2.54002 40.4199 2.33002 41.2899C2.09002 41.8799 1.89 42.3399 1.63 41.6999C1.98 39.3699 2.37002 37.0399 2.83002 34.7399C3.49002 35.3099 4.02002 36.0799 4.90002 36.0999L4.60999 36.7799C4.65999 37.5399 4.11003 37.6199 3.78003 37.9399Z" fill="#97C68B"/>
<path id="Vector_109" d="M1.63001 41.6999C1.87001 41.9099 2.08003 41.3899 2.33003 41.2899C2.89003 40.6999 3.62003 40.2599 3.08003 42.0099C2.95003 42.4399 3.05 42.8399 2.8 43.2899C2.68 42.7999 2.48001 42.7499 2.31001 42.9499C2.14001 43.1499 2.00998 43.5899 1.90998 43.9899C1.69998 44.8399 1.43003 45.5499 1.21003 46.3799C1.15003 46.2099 1.15999 45.6299 1.28999 44.8799C1.36999 43.9599 1.57001 43.0199 1.56001 42.0699L1.64002 41.6999H1.63001Z" fill="#87C07C"/>
<path id="Vector_110" d="M1.55 42.0699C1.94 42.9899 1.45004 43.8899 1.28004 44.8799C1.28004 44.0399 1.06 43.0699 1.55 42.0699Z" fill="#97C68B"/>
<path id="Vector_111" d="M31.27 1.07993C31.66 0.479931 32.11 -0.0700687 32.58 -0.610069C32.83 -0.780069 33.09 -0.930069 33.36 -0.910069C32.68 -0.250069 32.45 0.679931 31.26 1.07993H31.27Z" fill="#A9CE9C"/>
<path id="Vector_112" d="M13.3 28.8099C12.69 29.11 12.08 29.4099 11.49 29.7199C12.23 28.1999 11.8 26 13.41 24.95L13.86 26.15C14.68 27.49 13.48 27.92 13.29 28.8099H13.3Z" fill="#8FC383"/>
<path id="Vector_113" d="M17.3 15.7599C16.97 14.6799 17.94 14.9499 18.64 14.9499C19.52 15.7799 18.99 15.9699 18.41 16.1399L18.16 16.3999L17.3 15.7599Z" fill="#A5CD99"/>
<path id="Vector_114" d="M24.76 9.21986C25.78 9.01986 26.2 8.22986 26.78 7.59986C27.19 7.18986 27.58 6.69986 28.38 7.23986C28.52 7.37986 28.61 7.52986 28.66 7.70986C28.7 8.55986 28.38 9.29986 28.24 10.0999L28.13 10.2399L28.03 10.3899C27.34 12.7499 27.09 15.3599 25.48 17.1899C25.07 17.6499 24.65 18.0299 23.82 17.9399C22.73 17.7999 22.21 16.2799 21.04 16.3099C20.31 14.6799 21.84 14.4399 22.43 13.6499C22.83 13.1199 23.18 12.7499 23.02 11.8899C22.87 11.1299 22.1 9.47986 24.32 10.3299C24.38 10.3499 24.17 9.36986 24.77 9.21986H24.76Z" fill="#7EBC72"/>
<path id="Vector_115" d="M23.81 17.9399C25.03 16.2899 26.66 14.9099 26.88 12.5799C26.98 11.6499 27.56 11.0599 28.03 10.3899C28.48 12.2399 27.28 13.5499 27.71 15.4299C28.04 16.8799 28.55 18.4299 27.4 19.2899C26.06 17.6799 25.5 19.1099 24.48 18.8499L23.81 17.9299V17.9399Z" fill="#8DC282"/>
<path id="Vector_116" d="M29.67 4.40989L30.16 3.88989C30.98 5.46989 29.35 6.30989 29.05 7.57989C28.95 7.97989 28.75 7.88989 28.5 7.59989H28.46C28.18 6.89989 28.25 6.38989 29.05 6.23989C29.37 5.66989 29.71 5.09989 29.67 4.40989Z" fill="#A5CD99"/>
<path id="Vector_117" d="M28.5 7.58995L29.05 7.56995C29.1 8.55995 29.32 9.63995 28.23 10.0999C27.66 9.04995 28.23 8.35995 28.5 7.57995V7.58995Z" fill="#A8CE9C"/>
<path id="Vector_118" d="M3.78004 37.9399C4.04004 37.5399 4.31999 37.1499 4.60999 36.7799C4.85999 37.8399 4.02998 37.9999 3.65998 38.5099C3.57998 38.6099 3.49002 38.3699 3.58002 38.1999C3.63002 38.0999 3.71004 38.0299 3.78004 37.9399Z" fill="#99C78D"/>
<path id="Vector_119" d="M13.3 28.8099C13.02 27.7199 13.89 27.1299 13.87 26.1499C17.04 28.2399 14.5399 28.3699 13.7199 29.0999L13.31 28.8099H13.3Z" fill="#87BF7C"/>
<path id="Vector_120" d="M24.76 9.21992C24.2 9.44992 25.8 11.4699 23.62 10.3899C23.6 10.3799 23.29 10.7799 23.36 10.9699C24.43 13.5799 22.45 14.3599 21.23 15.6199C21.08 15.7799 21.09 16.0699 21.02 16.3099C20.22 16.4399 19.36 16.4299 18.41 16.1399C18.61 15.7999 18.99 15.5399 18.64 14.9499C19.53 13.2499 21.12 12.0599 22.04 10.3799C22.32 9.86992 22.64 9.21992 23.51 9.16992L24.76 9.21992Z" fill="#8DC281"/>
<path id="Vector_121" d="M29.05 6.23987C28.85 6.67987 28.65 7.12987 28.46 7.57987C27.78 6.95987 27.39 7.78987 26.78 7.60987C26.99 6.45987 27.77 5.99987 29.06 6.23987H29.05Z" fill="#87BF7C"/>
</g>
</g>
</svg>
