<svg width="24" height="24" viewBox="0 0 24 24" fill="none" xmlns="http://www.w3.org/2000/svg">
<path d="M10.8969 0.97168C12.7659 0.971755 14.5969 1.49952 16.1793 2.49423C17.7616 3.48895 19.0309 4.9102 19.8412 6.59445C20.6515 8.27869 20.9698 10.1575 20.7595 12.0146C20.5492 13.8718 19.8188 15.6318 18.6525 17.0922L22.705 21.1456C22.9026 21.3441 23.0172 21.6104 23.0257 21.8903C23.0342 22.1703 22.9358 22.443 22.7506 22.6531C22.5654 22.8632 22.3072 22.995 22.0284 23.0217C21.7496 23.0484 21.471 22.9681 21.2493 22.797L21.1455 22.7051L17.0921 18.6526C15.8533 19.6419 14.3956 20.3201 12.8409 20.6303C11.2862 20.9406 9.67977 20.8739 8.15612 20.4359C6.63247 19.9979 5.23591 19.2012 4.08336 18.1126C2.9308 17.0241 2.05577 15.6753 1.53152 14.1791C1.00727 12.6829 0.849049 11.0829 1.0701 9.51304C1.29116 7.94316 1.88505 6.44908 2.80208 5.15585C3.7191 3.86263 4.93258 2.80788 6.34092 2.07991C7.74927 1.35194 9.3115 0.97193 10.8969 0.97168ZM10.8969 3.17703C9.63296 3.17751 8.38849 3.48831 7.27277 4.08213C6.15704 4.67595 5.20417 5.53463 4.49785 6.58276C3.79152 7.63089 3.35335 8.83641 3.2218 10.0935C3.09024 11.3505 3.26934 12.6206 3.74336 13.7923C4.21739 14.9639 4.97183 16.0013 5.94044 16.8132C6.90906 17.6252 8.06221 18.1869 9.29864 18.449C10.5351 18.7112 11.8169 18.6657 13.0317 18.3167C14.2465 17.9677 15.3569 17.3257 16.2656 16.4472C16.2893 16.4111 16.3158 16.3769 16.3449 16.345L16.4439 16.2594C17.4972 15.1698 18.2065 13.7944 18.4834 12.3044C18.7603 10.8145 18.5926 9.27604 18.0011 7.88079C17.4097 6.48554 16.4207 5.29522 15.1573 4.45822C13.894 3.62121 12.4123 3.17453 10.8969 3.17386V3.17703Z" fill="black"/>
</svg>
