<svg width="29" height="29" viewBox="0 0 29 29" fill="none" xmlns="http://www.w3.org/2000/svg">
<path d="M13.275 0.75C15.6336 0.750094 17.9442 1.41609 19.941 2.67135C21.9378 3.92661 23.5396 5.72013 24.5621 7.84553C25.5846 9.97093 25.9863 12.3418 25.7209 14.6854C25.4555 17.029 24.5339 19.2501 23.062 21.093L28.176 26.208C28.4253 26.4585 28.57 26.7945 28.5807 27.1478C28.5914 27.5011 28.4673 27.8452 28.2335 28.1104C27.9998 28.3755 27.674 28.5418 27.3221 28.5756C26.9703 28.6093 26.6188 28.5079 26.339 28.292L26.208 28.176L21.093 23.062C19.5297 24.3105 17.6901 25.1663 15.7282 25.5578C13.7663 25.9493 11.7391 25.8652 9.81635 25.3124C7.89361 24.7597 6.13126 23.7544 4.67682 22.3807C3.22237 21.007 2.11815 19.3049 1.45658 17.4168C0.795017 15.5287 0.595354 13.5097 0.874308 11.5286C1.15326 9.54751 1.90272 7.66209 3.05994 6.03013C4.21716 4.39817 5.74847 3.06716 7.5257 2.14851C9.30293 1.22987 11.2744 0.750315 13.275 0.75ZM13.275 3.533C11.68 3.53361 10.1096 3.92581 8.70163 4.67517C7.29366 5.42452 6.09121 6.50811 5.19988 7.83078C4.30855 9.15344 3.7556 10.6747 3.58959 12.261C3.42358 13.8473 3.64959 15.4501 4.24777 16.9287C4.84595 18.4072 5.79801 19.7163 7.02033 20.7409C8.24265 21.7655 9.69784 22.4744 11.2581 22.8052C12.8184 23.136 14.436 23.0786 15.969 22.6382C17.5019 22.1977 18.9033 21.3876 20.05 20.279C20.0798 20.2334 20.1133 20.1903 20.15 20.15L20.275 20.042C21.6041 18.667 22.4992 16.9313 22.8487 15.0511C23.1981 13.1709 22.9865 11.2295 22.2401 9.4688C21.4937 7.7081 20.2456 6.206 18.6514 5.14976C17.0572 4.09352 15.1874 3.52984 13.275 3.529V3.533Z" fill="white"/>
</svg>
