<svg width="150" height="150" viewBox="0 0 150 150" fill="none" xmlns="http://www.w3.org/2000/svg">
<path d="M79.5 45C79.5 40.0294 77.4853 36 75 36C72.5147 36 70.5 40.0294 70.5 45C70.5 49.9706 72.5147 54 75 54C77.4853 54 79.5 49.9706 79.5 45Z" fill="#00C131"/>
<path d="M93.897 51.2692C96.3823 46.9646 96.6522 42.4676 94.4999 41.225C92.3476 39.9823 88.5881 42.4646 86.1028 46.7692C83.6175 51.0738 83.3476 55.5708 85.4999 56.8134C87.6522 58.0561 91.4117 55.5738 93.897 51.2692Z" fill="#00C131"/>
<path d="M103.231 63.8971C107.535 61.4119 110.018 57.6523 108.775 55.5C107.532 53.3477 103.035 53.6176 98.7307 56.1029C94.426 58.5882 91.9438 62.3477 93.1864 64.5C94.4291 66.6523 98.926 66.3824 103.231 63.8971Z" fill="#00C131"/>
<path d="M105 79.5C109.971 79.5 114 77.4853 114 75C114 72.5147 109.971 70.5 105 70.5C100.029 70.5 96 72.5147 96 75C96 77.4853 100.029 79.5 105 79.5Z" fill="#00C131"/>
<path d="M98.7307 93.8971C103.035 96.3824 107.532 96.6523 108.775 94.5C110.018 92.3477 107.535 88.5882 103.231 86.1029C98.926 83.6176 94.4291 83.3477 93.1864 85.5C91.9438 87.6523 94.426 91.4119 98.7307 93.8971Z" fill="#00C131"/>
<path d="M86.103 103.231C88.5883 107.535 92.3478 110.018 94.5001 108.775C96.6524 107.532 96.3825 103.035 93.8972 98.7308C91.4119 94.4262 87.6524 91.9439 85.5001 93.1866C83.3478 94.4292 83.6177 98.9262 86.103 103.231Z" fill="#00C131"/>
<path d="M70.5 105C70.5 109.971 72.5147 114 75 114C77.4853 114 79.5 109.971 79.5 105C79.5 100.029 77.4853 96 75 96C72.5147 96 70.5 100.029 70.5 105Z" fill="#00C131"/>
<path d="M56.103 98.7308C53.6177 103.035 53.3478 107.532 55.5001 108.775C57.6524 110.018 61.4119 107.535 63.8972 103.231C66.3825 98.9262 66.6524 94.4292 64.5001 93.1866C62.3478 91.9439 58.5883 94.4262 56.103 98.7308Z" fill="#00C131"/>
<path d="M46.7693 86.1029C42.4647 88.5881 39.9825 92.3477 41.2251 94.5C42.4677 96.6523 46.9647 96.3824 51.2693 93.8971C55.574 91.4118 58.0562 87.6523 56.8136 85.5C55.5709 83.3477 51.074 83.6176 46.7693 86.1029Z" fill="#00C131"/>
<path d="M45 70.5C40.0294 70.5 36 72.5147 36 75C36 77.4853 40.0294 79.5 45 79.5C49.9706 79.5 54 77.4853 54 75C54 72.5147 49.9706 70.5 45 70.5Z" fill="#00C131"/>
<path d="M51.2693 56.1029C46.9647 53.6176 42.4677 53.3477 41.2251 55.5C39.9825 57.6523 42.4647 61.4118 46.7693 63.8971C51.074 66.3824 55.5709 66.6523 56.8136 64.5C58.0562 62.3477 55.574 58.5881 51.2693 56.1029Z" fill="#00C131"/>
<path d="M63.897 46.7692C61.4117 42.4646 57.6522 39.9823 55.4999 41.225C53.3476 42.4676 53.6175 46.9646 56.1028 51.2692C58.5881 55.5738 62.3476 58.0561 64.4999 56.8134C66.6522 55.5708 66.3823 51.0738 63.897 46.7692Z" fill="#00C131"/>
</svg>
