<svg width="64" height="64" viewBox="0 0 64 64" fill="none" xmlns="http://www.w3.org/2000/svg">
<path d="M61.49 19.5767C58.4092 12.2635 52.7209 6.35597 45.5295 3.00083C38.338 -0.35432 30.1565 -0.917684 22.573 1.4201C14.9896 3.75788 8.54531 8.83002 4.49118 15.6519C0.43705 22.4738 -0.937686 30.5586 0.633843 38.3371C2.20537 46.1155 6.61105 53.0326 12.9956 57.7454C19.3802 62.4583 27.2881 64.6308 35.1844 63.8411C43.0806 63.0514 50.4017 59.3559 55.7265 53.472C61.0513 47.5882 64 39.9356 64 32C64.0056 27.7324 63.152 23.5074 61.49 19.5767ZM32.0863 59.6011C16.8482 59.6011 4.48525 47.2381 4.48525 32C4.48525 16.762 16.8482 4.399 32.0863 4.399C47.3244 4.399 59.6873 16.762 59.6873 32C59.6873 47.2381 47.3244 59.6011 32.0863 59.6011ZM36.1201 15.4207L52.6994 32L36.1201 48.5793L33.071 45.5303L44.4492 34.1564H14.5223V29.8437H44.4492L33.0753 18.4698L36.1201 15.4207Z" fill="white"/>
</svg>
