<svg width="1920" height="1773" viewBox="0 0 1920 1773" fill="none" xmlns="http://www.w3.org/2000/svg">
<g opacity="0.13" clip-path="url(#clip0_34_6)">
<path opacity="0.1" d="M1586.34 227.867C1584.09 189.78 1531.36 160.621 1468.56 162.738C1427.89 164.11 1392.99 178.263 1374.04 198.408C1368.41 198.227 1362.71 198.227 1356.95 198.421C1294.91 200.513 1242.69 224.398 1219.79 257.134C1208.63 254.526 1196.7 253.299 1184.35 253.713C1144.51 255.055 1110.91 273.138 1094.91 298.56C1075.34 288.012 1051.12 282.145 1025.23 283.019C999.138 283.899 975.546 291.481 957.234 303.463C936.248 273.702 892.376 253.984 842.878 255.655C802.254 257.026 767.107 272.493 746.201 295.164C726.288 279.486 697.874 270.121 666.874 271.167C645.487 271.888 625.908 277.461 609.918 286.418C598.861 233.603 529.607 194.407 448.371 197.149C429.45 197.787 411.45 200.647 394.899 205.334C377.152 187.912 346.9 176.953 313.228 178.088C261.15 179.845 220.622 209.862 222.709 245.133C224.478 275.047 256.331 299.13 297.736 304.685C297.753 305.638 297.791 306.591 297.846 307.548C301.28 365.601 374.242 410.298 460.808 407.377C505.344 405.875 544.798 392.063 572.153 371.101C585.182 404.896 627.47 428.887 676.111 427.245C707.017 426.202 734.139 415.023 752.122 398.156C775.617 419.426 812.533 432.538 853.263 431.163C883.866 430.13 911.364 421.1 932.003 407.017C951.676 434.559 990.995 452.689 1035.18 451.2C1080.12 449.685 1117.65 428.281 1133.54 398.749C1150.88 407.004 1171.61 411.49 1193.64 410.747C1229.95 409.523 1261.07 394.393 1278.42 372.479C1304.17 382.261 1335.1 387.465 1368.06 386.352C1449.55 383.604 1514.1 343.253 1517.52 294.634C1559.42 283.213 1588.08 257.166 1586.34 227.864L1586.34 227.867Z" fill="#BBE8EF"/>
<path d="M1941.63 116.438C1932.34 115.354 1922.81 114.786 1913.12 114.786C1847.21 114.786 1789.43 140.776 1757.1 179.791C1743.57 177.001 1729.32 175.505 1714.59 175.505C1677.7 175.505 1643.74 184.876 1616.73 200.605C1593.65 178.557 1556.11 164.208 1513.7 164.208C1448.81 164.208 1395.3 197.79 1387.63 241.15C1373.06 238.392 1357.57 236.906 1341.53 236.906C1260.34 236.906 1193.63 274.907 1186.06 323.497C1174.75 320.321 1162.5 318.583 1149.7 318.583C1107.13 318.583 1070.58 337.797 1054.69 365.257C1046.11 361.303 1036.03 359.026 1025.25 359.026C1006.93 359.026 990.645 365.601 980.302 375.792C962.707 365.448 940.522 359.278 916.402 359.278C887.122 359.278 860.688 368.372 841.864 382.982C821.018 357.898 783.836 341.19 741.425 341.19C731.255 341.19 721.381 342.153 711.967 343.958C688.392 322.547 652.671 308.894 612.68 308.894C585.157 308.894 559.656 315.363 538.746 326.376C529.518 323.258 519.724 320.911 509.516 319.432C499.093 261.152 432.326 216.197 351.512 216.197C336.794 216.197 322.54 217.689 309.009 220.482C276.679 181.468 218.895 155.478 152.99 155.478C136.126 155.478 119.794 157.184 104.282 160.369C91.0627 147.998 71.365 139.006 48.5505 135.665C46.1558 90.034 -0.706459 52.4128 -62.4054 43.6826C-63.3261 19.4435 -90.2372 0 -123.302 0C-132.095 0 -140.453 1.37744 -148 3.85172V840.492H1963.25V100.056C1954.41 104.421 1947.01 110.007 1941.63 116.438Z" fill="#00C131"/>
<path d="M1948.58 231.776C1916.73 239.869 1890.77 258.461 1877.12 282.445C1858.25 278.239 1837.87 277.936 1818.15 282.422C1800.21 286.501 1785.05 294.022 1773.45 303.779C1751.38 296.43 1726.75 292.326 1700.77 292.326C1631.92 292.326 1572.53 321.16 1545.06 362.808C1534.32 360.034 1522.83 358.529 1510.89 358.529C1487.79 358.529 1466.39 364.147 1448.79 373.719C1418.11 353.102 1378.41 340.67 1335.05 340.67C1275.75 340.67 1223.29 363.927 1191.39 399.565C1181.22 397.11 1170.41 395.787 1159.21 395.787C1122.46 395.787 1089.97 410.008 1070.31 431.769C1060.32 427.477 1048.76 425.026 1036.44 425.026C1013.15 425.026 992.575 433.784 980.167 447.176C968.557 436.204 950.688 429.171 930.644 429.171C918.256 429.171 906.706 431.855 896.945 436.495C877.881 412.087 843.419 395.784 804.07 395.784C792.865 395.784 782.053 397.107 771.884 399.562C739.985 363.921 687.531 340.667 628.231 340.667C584.869 340.667 545.17 353.099 514.492 373.716C496.889 364.144 475.485 358.526 452.391 358.526C440.448 358.526 428.96 360.031 418.212 362.805C390.743 321.157 331.354 292.323 262.51 292.323C236.536 292.323 211.905 296.426 189.826 303.776C178.228 294.019 163.067 286.494 145.13 282.419C125.399 277.936 105.021 278.236 86.1594 282.442C76.4035 265.303 60.3632 250.92 40.3825 241.15C43.795 232.433 45.6279 223.221 45.6279 213.694C45.6279 158.97 -14.7238 114.605 -89.1687 114.605C-93.5821 114.605 -97.9406 114.764 -102.244 115.07C-103.828 94.3481 -122.461 76.9771 -148 70.4119V840.485H1963.25V211.657C1955.62 217.166 1950.37 224.101 1948.58 231.776Z" fill="#00E33A"/>
<path d="M1879.28 342.398C1860.42 338.094 1840.04 337.785 1820.31 342.376C1802.37 346.55 1787.21 354.247 1775.61 364.237C1753.53 356.715 1728.91 352.512 1702.93 352.512C1634.08 352.512 1574.7 382.025 1547.23 424.652C1536.48 421.815 1524.99 420.271 1513.05 420.271C1489.95 420.271 1468.55 426.023 1450.95 435.819C1420.27 414.717 1380.57 401.992 1337.21 401.992C1277.91 401.992 1225.45 425.794 1193.56 462.274C1183.39 459.761 1172.58 458.406 1161.37 458.406C1107.7 458.406 1063.13 489.44 1054.3 530.237C1048.09 529.226 1041.63 528.69 1035 528.69C1015.92 528.69 998.259 533.1 983.803 540.603C969.346 533.1 951.68 528.69 932.607 528.69C925.977 528.69 919.515 529.226 913.302 530.237C904.476 489.443 859.902 458.406 806.236 458.406C795.032 458.406 784.22 459.761 774.05 462.274C742.151 425.794 689.697 401.992 630.397 401.992C587.036 401.992 547.336 414.717 516.658 435.819C499.055 426.02 477.651 420.271 454.558 420.271C442.614 420.271 431.127 421.811 420.378 424.652C392.91 382.025 333.521 352.512 264.676 352.512C238.703 352.512 214.072 356.715 191.992 364.237C180.395 354.25 165.233 346.55 147.297 342.376C127.565 337.785 107.187 338.094 88.3259 342.398C69.8319 309.142 28.7514 286.01 -18.9556 286.01C-51.3276 286.01 -80.646 296.662 -101.928 313.896C-105.534 313.59 -109.204 313.428 -112.925 313.428C-125.321 313.428 -137.154 315.178 -147.992 318.354V840.492H1963.26V287.894C1925.75 294.035 1894.69 314.706 1879.29 342.398H1879.28Z" fill="#72FF96"/>
<path d="M1962.39 256.863C1931 256.863 1904.36 278.643 1894.97 308.846C1847.87 321.748 1810.33 360.166 1795.99 409.512C1792.1 409.286 1788.19 409.16 1784.24 409.16C1719.91 409.16 1663.85 439.664 1634.54 484.785C1599.21 461.06 1552.43 446.614 1501.13 446.614C1476.71 446.614 1453.33 449.884 1431.71 455.87C1408.03 432.911 1375.83 418.785 1340.34 418.785C1292.96 418.785 1251.43 443.957 1228.24 481.717C1213.2 473.472 1196.14 468.814 1178.07 468.814C1134.14 468.814 1096.22 496.313 1078.53 536.089C1064.55 526.943 1047.54 521.577 1029.2 521.577C992.097 521.577 960.462 543.526 948.25 574.331C942.974 578.708 938.391 583.641 934.648 589.024C929.077 534.635 873.63 491.92 806.034 491.92C768.367 491.92 734.472 505.187 710.872 526.347C686.485 505.258 650.495 491.92 610.348 491.92C607.003 491.92 603.683 492.016 600.4 492.196C594.993 442.184 554.505 403.317 505.348 403.317C498.534 403.317 491.894 404.067 485.486 405.488C468.986 376.46 441.093 357.379 409.458 357.379C390.412 357.379 372.721 364.295 358.054 376.137C339.675 333.686 298.886 304.163 251.52 304.163C241.826 304.163 232.41 305.408 223.404 307.739C200.69 257.496 151.88 222.745 95.3221 222.745C52.9998 222.745 15.0159 242.208 -10.9418 273.052C-18.2159 268.814 -25.8743 265.133 -33.8538 262.065C-38.5469 236.838 -54.4045 214.437 -78.1825 203.542C-101.813 192.715 -127.737 195.792 -148 209.34V1849.5H1963.25V599.604C1963.5 599.537 1963.75 599.466 1964 599.398V256.875C1963.47 256.863 1962.94 256.854 1962.4 256.854L1962.39 256.863Z" fill="white"/>
</g>
<defs>
<clipPath id="clip0_34_6">
<rect width="2112" height="1773" fill="white" transform="translate(-148)"/>
</clipPath>
</defs>
</svg>
