<svg width="345" height="51" viewBox="0 0 345 51" fill="none" xmlns="http://www.w3.org/2000/svg">
<path d="M37.8001 25.1599H25.2001V50.3197H37.8001V25.1599Z" fill="white"/>
<path d="M63 25.1599H50.4V50.3197H63V25.1599Z" fill="white"/>
<path d="M12.6 0H0V50.3197H12.6V0Z" fill="white"/>
<path d="M63 12.5799V0L3.8147e-06 0V12.5799L63 12.5799Z" fill="white"/>
<path d="M109.53 37H96.7852V14.8701H109.53V18.7148H101.478V23.5737H108.97V27.4185H101.478V33.125H109.53V37ZM128.951 37H124.334V27.1157C124.334 25.8947 124.127 24.9814 123.713 24.376C123.31 23.7604 122.669 23.4526 121.791 23.4526C120.61 23.4526 119.753 23.8866 119.218 24.7544C118.683 25.6222 118.416 27.0501 118.416 29.0381V37H113.799V20.0771H117.326L117.946 22.2417H118.204C118.658 21.4647 119.314 20.8592 120.171 20.4253C121.029 19.9813 122.013 19.7593 123.123 19.7593C125.656 19.7593 127.371 20.5868 128.27 22.2417H128.678C129.132 21.4546 129.798 20.8441 130.676 20.4102C131.564 19.9762 132.563 19.7593 133.673 19.7593C135.591 19.7593 137.039 20.2537 138.018 21.2427C139.007 22.2215 139.501 23.7957 139.501 25.9653V37H134.869V27.1157C134.869 25.8947 134.662 24.9814 134.249 24.376C133.845 23.7604 133.204 23.4526 132.326 23.4526C131.196 23.4526 130.348 23.8563 129.783 24.6636C129.228 25.4709 128.951 26.7524 128.951 28.5083V37ZM153.548 37.3027C151.56 37.3027 150.001 36.5812 148.871 35.1382H148.628C148.79 36.5509 148.871 37.3683 148.871 37.5903V44.4473H144.254V20.0771H148.008L148.659 22.272H148.871C149.95 20.5968 151.55 19.7593 153.669 19.7593C155.667 19.7593 157.231 20.5312 158.361 22.0752C159.492 23.6191 160.057 25.7635 160.057 28.5083C160.057 30.3146 159.789 31.8838 159.254 33.2158C158.73 34.5479 157.978 35.562 156.999 36.2583C156.02 36.9546 154.87 37.3027 153.548 37.3027ZM152.186 23.4526C151.045 23.4526 150.213 23.8058 149.688 24.5122C149.163 25.2085 148.891 26.3639 148.871 27.9785V28.478C148.871 30.2944 149.138 31.5962 149.673 32.3833C150.218 33.1704 151.076 33.564 152.246 33.564C154.315 33.564 155.349 31.8586 155.349 28.4478C155.349 26.7827 155.092 25.5365 154.577 24.709C154.073 23.8714 153.275 23.4526 152.186 23.4526ZM167.549 28.5083C167.549 30.1834 167.822 31.4499 168.367 32.3076C168.922 33.1654 169.82 33.5942 171.061 33.5942C172.292 33.5942 173.175 33.1704 173.71 32.3228C174.255 31.465 174.527 30.1935 174.527 28.5083C174.527 26.8332 174.255 25.5768 173.71 24.7393C173.165 23.9017 172.272 23.4829 171.031 23.4829C169.8 23.4829 168.912 23.9017 168.367 24.7393C167.822 25.5667 167.549 26.8231 167.549 28.5083ZM179.25 28.5083C179.25 31.2632 178.523 33.4176 177.07 34.9717C175.617 36.5257 173.594 37.3027 171 37.3027C169.376 37.3027 167.943 36.9495 166.702 36.2432C165.46 35.5267 164.507 34.5024 163.841 33.1704C163.175 31.8384 162.842 30.2843 162.842 28.5083C162.842 25.7433 163.563 23.5939 165.006 22.0601C166.449 20.5262 168.478 19.7593 171.091 19.7593C172.716 19.7593 174.149 20.1125 175.39 20.8188C176.631 21.5252 177.585 22.5394 178.251 23.8613C178.917 25.1833 179.25 26.7323 179.25 28.5083ZM196.975 37L195.673 31.0815L193.917 23.604H193.812L190.724 37H185.759L180.945 20.0771H185.547L187.5 27.5698C187.812 28.9119 188.13 30.7637 188.453 33.125H188.544C188.584 32.3581 188.761 31.1421 189.074 29.4771L189.316 28.1904L191.405 20.0771H196.491L198.474 28.1904C198.514 28.4124 198.575 28.7404 198.655 29.1743C198.746 29.6082 198.832 30.0724 198.913 30.5669C198.993 31.0513 199.064 31.5306 199.125 32.0049C199.195 32.4691 199.236 32.8424 199.246 33.125H199.336C199.427 32.3984 199.589 31.4045 199.821 30.1431C200.053 28.8716 200.219 28.0138 200.32 27.5698L202.349 20.0771H206.875L202 37H196.975ZM216.623 23.0439C215.644 23.0439 214.877 23.3568 214.322 23.9824C213.767 24.598 213.449 25.4759 213.368 26.6162H219.847C219.826 25.4759 219.529 24.598 218.954 23.9824C218.378 23.3568 217.601 23.0439 216.623 23.0439ZM217.273 37.3027C214.549 37.3027 212.42 36.5509 210.886 35.0474C209.352 33.5438 208.585 31.4146 208.585 28.6597C208.585 25.8241 209.291 23.6343 210.704 22.0903C212.127 20.5363 214.09 19.7593 216.592 19.7593C218.984 19.7593 220.846 20.4404 222.178 21.8027C223.51 23.165 224.176 25.047 224.176 27.4487V29.689H213.262C213.313 31.0008 213.701 32.0251 214.428 32.7617C215.154 33.4984 216.174 33.8667 217.485 33.8667C218.505 33.8667 219.468 33.7607 220.376 33.5488C221.285 33.3369 222.233 32.9989 223.222 32.5347V36.1069C222.415 36.5106 221.552 36.8083 220.634 37C219.715 37.2018 218.595 37.3027 217.273 37.3027ZM237.375 19.7593C238.001 19.7593 238.52 19.8047 238.934 19.8955L238.586 24.2246C238.213 24.1237 237.758 24.0732 237.224 24.0732C235.75 24.0732 234.6 24.4517 233.772 25.2085C232.955 25.9653 232.546 27.0249 232.546 28.3872V37H227.93V20.0771H231.426L232.107 22.9229H232.334C232.859 21.9743 233.566 21.2124 234.454 20.6372C235.352 20.0519 236.326 19.7593 237.375 19.7593ZM253.375 29.1895H244.383L241.295 37H239.585L248.485 14.7793H249.469L258.188 37H256.447L253.375 29.1895ZM244.943 27.7969H252.86L249.848 19.8198C249.595 19.1942 249.293 18.3263 248.939 17.2163C248.667 18.1851 248.369 19.063 248.046 19.8501L244.943 27.7969ZM262.457 37H260.958V20.5464H262.457V37ZM260.746 15.9751C260.746 15.0063 261.064 14.522 261.7 14.522C262.013 14.522 262.255 14.6481 262.426 14.9004C262.608 15.1527 262.699 15.5109 262.699 15.9751C262.699 16.4292 262.608 16.7874 262.426 17.0498C262.255 17.3122 262.013 17.4434 261.7 17.4434C261.064 17.4434 260.746 16.9539 260.746 15.9751ZM274.46 20.2285C275.156 20.2285 275.903 20.2992 276.7 20.4404L276.413 21.8784C275.726 21.7069 275.015 21.6211 274.278 21.6211C272.876 21.6211 271.725 22.2165 270.827 23.4072C269.929 24.598 269.48 26.1016 269.48 27.918V37H267.981V20.5464H269.253L269.404 23.5132H269.51C270.186 22.3022 270.908 21.4546 271.675 20.9702C272.442 20.4757 273.37 20.2285 274.46 20.2285ZM286.085 20.2285C287.276 20.2285 288.305 20.4455 289.173 20.8794C290.041 21.3133 290.818 22.055 291.504 23.1045H291.595C291.534 21.833 291.504 20.5868 291.504 19.3657V13.4473H292.987V37H292.003L291.625 34.4873H291.504C290.253 36.3643 288.456 37.3027 286.115 37.3027C283.845 37.3027 282.109 36.5964 280.908 35.1836C279.707 33.7708 279.107 31.7122 279.107 29.0078C279.107 26.1621 279.702 23.9875 280.893 22.4839C282.084 20.9803 283.814 20.2285 286.085 20.2285ZM286.085 21.5908C284.289 21.5908 282.937 22.2215 282.028 23.4829C281.13 24.7443 280.681 26.5758 280.681 28.9775C280.681 33.6396 282.493 35.9707 286.115 35.9707C287.972 35.9707 289.334 35.4308 290.202 34.3511C291.07 33.2713 291.504 31.4902 291.504 29.0078V28.7505C291.504 26.2075 291.075 24.381 290.217 23.271C289.37 22.1509 287.992 21.5908 286.085 21.5908ZM305.006 20.2285C305.702 20.2285 306.449 20.2992 307.246 20.4404L306.958 21.8784C306.272 21.7069 305.561 21.6211 304.824 21.6211C303.422 21.6211 302.271 22.2165 301.373 23.4072C300.475 24.598 300.026 26.1016 300.026 27.918V37H298.527V20.5464H299.799L299.95 23.5132H300.056C300.732 22.3022 301.454 21.4546 302.221 20.9702C302.988 20.4757 303.916 20.2285 305.006 20.2285ZM324.214 28.7505C324.214 31.4347 323.563 33.5337 322.262 35.0474C320.96 36.5509 319.164 37.3027 316.873 37.3027C315.43 37.3027 314.159 36.9546 313.059 36.2583C311.959 35.562 311.116 34.563 310.531 33.2612C309.945 31.9595 309.653 30.4559 309.653 28.7505C309.653 26.0662 310.304 23.9774 311.605 22.4839C312.907 20.9803 314.693 20.2285 316.964 20.2285C319.224 20.2285 320.995 20.9904 322.277 22.5142C323.569 24.0278 324.214 26.1066 324.214 28.7505ZM311.227 28.7505C311.227 31.0109 311.722 32.7769 312.71 34.0483C313.709 35.3097 315.117 35.9404 316.934 35.9404C318.75 35.9404 320.153 35.3097 321.142 34.0483C322.141 32.7769 322.64 31.0109 322.64 28.7505C322.64 26.48 322.136 24.7191 321.126 23.4678C320.127 22.2165 318.72 21.5908 316.903 21.5908C315.087 21.5908 313.684 22.2165 312.695 23.4678C311.716 24.709 311.227 26.4699 311.227 28.7505ZM335.809 37.3027C333.276 37.3027 331.43 36.3542 330.269 34.457H330.163L330.208 35.7285C330.249 36.4753 330.269 37.2926 330.269 38.1807V44.4473H328.771V20.5464H330.042L330.33 22.8926H330.42C331.551 21.1165 333.357 20.2285 335.839 20.2285C338.059 20.2285 339.75 20.9601 340.91 22.4233C342.081 23.8765 342.666 25.9956 342.666 28.7808C342.666 31.4852 342.05 33.5841 340.819 35.0776C339.598 36.561 337.928 37.3027 335.809 37.3027ZM335.779 35.9707C337.464 35.9707 338.766 35.3451 339.684 34.0938C340.612 32.8424 341.077 31.0916 341.077 28.8413C341.077 24.0076 339.331 21.5908 335.839 21.5908C333.922 21.5908 332.514 22.1206 331.616 23.1802C330.718 24.2297 330.269 25.9451 330.269 28.3267V28.811C330.269 31.3843 330.698 33.2209 331.556 34.3208C332.424 35.4207 333.831 35.9707 335.779 35.9707Z" fill="white"/>
<line x1="79.5" y1="2.18557e-08" x2="79.5" y2="50" stroke="white"/>
</svg>
